<svg width="18" height="19" viewBox="0 0 18 19" fill="none" xmlns="http://www.w3.org/2000/svg">
<path d="M9 2C7.035 2 5.4375 3.5975 5.4375 5.5625C5.4375 7.49 6.945 9.05 8.91 9.1175C8.97 9.11 9.03 9.11 9.075 9.1175C9.09 9.1175 9.0975 9.1175 9.1125 9.1175C9.12 9.1175 9.12 9.1175 9.1275 9.1175C11.0475 9.05 12.555 7.49 12.5625 5.5625C12.5625 3.5975 10.965 2 9 2Z" fill="white"/>
<path opacity="0.4" d="M12.81 11.1127C10.7175 9.71766 7.30497 9.71766 5.19747 11.1127C4.24497 11.7502 3.71997 12.6127 3.71997 13.5352C3.71997 14.4577 4.24497 15.3127 5.18997 15.9427C6.23997 16.6477 7.61997 17.0002 8.99997 17.0002C10.38 17.0002 11.76 16.6477 12.81 15.9427C13.755 15.3052 14.28 14.4502 14.28 13.5202C14.2725 12.5977 13.755 11.7427 12.81 11.1127Z" fill="white"/>
<path d="M10.5 12.9727H9.5625V12.0352C9.5625 11.7277 9.3075 11.4727 9 11.4727C8.6925 11.4727 8.4375 11.7277 8.4375 12.0352V12.9727H7.5C7.1925 12.9727 6.9375 13.2277 6.9375 13.5352C6.9375 13.8427 7.1925 14.0977 7.5 14.0977H8.4375V15.0352C8.4375 15.3427 8.6925 15.5977 9 15.5977C9.3075 15.5977 9.5625 15.3427 9.5625 15.0352V14.0977H10.5C10.8075 14.0977 11.0625 13.8427 11.0625 13.5352C11.0625 13.2277 10.8075 12.9727 10.5 12.9727Z" fill="white"/>
</svg>
