<svg width="40" height="40" viewBox="0 0 40 40" fill="none" xmlns="http://www.w3.org/2000/svg">
<rect width="40" height="40" rx="20" fill="#FFB78E"/>
<g clip-path="url(#clip0_45_15792)">
<path d="M19.2259 22.2524C19.3294 22.6537 19.0879 23.0624 18.6867 23.1652C16.3684 23.7622 14.7492 25.8524 14.7492 28.2502C14.7492 28.6642 14.4132 29.0002 13.9992 29.0002C13.5852 29.0002 13.2492 28.6642 13.2492 28.2502C13.2492 25.1684 15.3312 22.4804 18.3117 21.7132C18.7159 21.6104 19.1217 21.8512 19.2252 22.2524H19.2259ZM28.7802 28.7804C28.6339 28.9267 28.4419 29.0002 28.2499 29.0002C28.0579 29.0002 27.8659 28.9267 27.7197 28.7804L11.2197 12.2804C10.9264 11.9872 10.9264 11.5132 11.2197 11.2199C11.5129 10.9267 11.9869 10.9267 12.2802 11.2199L15.6042 14.5439C16.0444 12.5212 17.8467 11.0002 19.9999 11.0002C22.4817 11.0002 24.4999 13.0184 24.4999 15.5002C24.4999 17.6534 22.9789 19.4557 20.9562 19.8959L28.7802 27.7199C29.0734 28.0132 29.0734 28.4872 28.7802 28.7804ZM17.0487 15.9884L19.5117 18.4514C19.6729 18.4777 19.8357 18.5002 19.9999 18.5002C21.6544 18.5002 22.9999 17.1547 22.9999 15.5002C22.9999 13.8457 21.6544 12.5002 19.9999 12.5002C18.3454 12.5002 16.9999 13.8457 16.9999 15.5002C16.9999 15.6637 17.0224 15.8272 17.0487 15.9884Z" fill="#232323"/>
</g>
<defs>
<clipPath id="clip0_45_15792">
<rect width="18" height="18" fill="white" transform="translate(11 11)"/>
</clipPath>
</defs>
</svg>
