<svg width="40" height="40" viewBox="0 0 40 40" fill="none" xmlns="http://www.w3.org/2000/svg">
<rect width="40" height="40" rx="20" fill="#B9ADFF"/>
<g clip-path="url(#clip0_45_15780)">
<path d="M17 20C19.4818 20 21.5 17.9818 21.5 15.5C21.5 13.0182 19.4818 11 17 11C14.5182 11 12.5 13.0182 12.5 15.5C12.5 17.9818 14.5182 20 17 20ZM17 12.5C18.6545 12.5 20 13.8455 20 15.5C20 17.1545 18.6545 18.5 17 18.5C15.3455 18.5 14 17.1545 14 15.5C14 13.8455 15.3455 12.5 17 12.5ZM23 27.5V28.25C23 28.664 22.664 29 22.25 29C21.836 29 21.5 28.664 21.5 28.25V27.5C21.5 25.0182 19.4818 23 17 23C14.5182 23 12.5 25.0182 12.5 27.5V28.25C12.5 28.664 12.164 29 11.75 29C11.336 29 11 28.664 11 28.25V27.5C11 24.1918 13.6918 21.5 17 21.5C20.3082 21.5 23 24.1918 23 27.5ZM28.7728 18.6628L25.7787 21.569C25.343 22.0055 24.7528 22.2492 24.125 22.2492C23.4972 22.2492 22.907 22.0048 22.4637 21.5615L20.9855 20.171C20.684 19.8875 20.6698 19.4128 20.954 19.1105C21.2382 18.809 21.7122 18.7948 22.0145 19.079L23.5085 20.4853C23.8617 20.8378 24.4048 20.822 24.7257 20.501L27.7272 17.5865C28.0243 17.2977 28.499 17.3053 28.7878 17.6023C29.0765 17.8993 29.069 18.3748 28.772 18.6628H28.7728Z" fill="#232323"/>
</g>
<defs>
<clipPath id="clip0_45_15780">
<rect width="18" height="18" fill="white" transform="translate(11 11)"/>
</clipPath>
</defs>
</svg>
