<svg width="40" height="40" viewBox="0 0 40 40" fill="none" xmlns="http://www.w3.org/2000/svg">
<rect width="40" height="40" rx="20" fill="#BAC7EA"/>
<path d="M20.0046 20.232C22.7128 20.2162 24.1708 18.7537 24.2211 15.9787C24.1746 13.3087 22.6378 11.7682 19.9956 11.751C17.3248 11.7675 15.7791 13.3785 15.7791 15.9787C15.7791 18.657 17.3256 20.217 20.0046 20.2327V20.232ZM19.9956 13.2502C21.8233 13.2622 22.6888 14.1375 22.7211 15.9772C22.6858 17.8965 21.8713 18.72 20.0046 18.7312C18.1333 18.72 17.3181 17.9002 17.2791 15.9907C17.3166 14.1075 18.1573 13.2615 19.9956 13.2502Z" fill="#232323"/>
<path d="M19.9955 21.2461C15.9995 21.2716 13.8492 23.4293 13.7772 27.4876C13.7697 27.9016 14.0997 28.2436 14.5137 28.2511C14.9007 28.2368 15.269 27.9286 15.2772 27.5146C15.3342 24.2813 16.8372 22.7663 19.9955 22.7468C23.1215 22.7671 24.668 24.3263 24.7235 27.5138C24.731 27.9233 25.0655 28.2511 25.4735 28.2511H25.487C25.901 28.2436 26.231 27.9023 26.2242 27.4883C26.1552 23.4886 23.9472 21.2723 19.9962 21.2468L19.9955 21.2461Z" fill="#232323"/>
</svg>
