<svg width="24" height="24" viewBox="0 0 24 24" fill="none" xmlns="http://www.w3.org/2000/svg">
<path opacity="0.4" d="M20.4 16.3298C20.12 17.0798 19.53 17.6498 18.76 17.9098C17.68 18.2698 16.57 18.5398 15.45 18.7298C15.34 18.7498 15.23 18.7698 15.12 18.7798C14.94 18.8098 14.76 18.8298 14.58 18.8498C14.36 18.8798 14.13 18.8998 13.9 18.9198C13.27 18.9698 12.65 18.9998 12.02 18.9998C11.38 18.9998 10.74 18.9698 10.11 18.9098C9.83996 18.8898 9.57996 18.8598 9.31996 18.8198C9.16996 18.7998 9.01996 18.7798 8.87996 18.7598C8.76996 18.7398 8.65996 18.7298 8.54996 18.7098C7.43996 18.5298 6.33996 18.2598 5.26996 17.8998C4.46996 17.6298 3.85996 17.0598 3.58996 16.3298C3.31996 15.6098 3.41996 14.7698 3.84996 14.0498L4.97996 12.1698C5.21996 11.7598 5.43996 10.9698 5.43996 10.4898V8.6298C5.43996 4.9998 8.38996 2.0498 12.02 2.0498C15.64 2.0498 18.59 4.9998 18.59 8.6298V10.4898C18.59 10.9698 18.81 11.7598 19.06 12.1698L20.19 14.0498C20.6 14.7498 20.68 15.5698 20.4 16.3298Z" fill="#6C7086"/>
<path d="M12 10.7596C11.58 10.7596 11.24 10.4196 11.24 9.99965V6.89965C11.24 6.47965 11.58 6.13965 12 6.13965C12.42 6.13965 12.76 6.47965 12.76 6.89965V9.99965C12.75 10.4196 12.41 10.7596 12 10.7596Z" fill="#6C7086"/>
<path d="M14.8299 20.01C14.4099 21.17 13.2999 22 11.9999 22C11.2099 22 10.4299 21.68 9.87993 21.11C9.55993 20.81 9.31993 20.41 9.17993 20C9.30993 20.02 9.43993 20.03 9.57993 20.05C9.80993 20.08 10.0499 20.11 10.2899 20.13C10.8599 20.18 11.4399 20.21 12.0199 20.21C12.5899 20.21 13.1599 20.18 13.7199 20.13C13.9299 20.11 14.1399 20.1 14.3399 20.07C14.4999 20.05 14.6599 20.03 14.8299 20.01Z" fill="#6C7086"/>
</svg>
