<svg width="40" height="40" viewBox="0 0 40 40" fill="none" xmlns="http://www.w3.org/2000/svg">
<rect width="40" height="40" rx="20" fill="#F8FFAC"/>
<circle cx="20" cy="20" r="5" fill="#F4FF7B"/>
<path d="M21.3501 19.2126C21.2076 19.2126 21.0651 19.1601 20.9526 19.0476C20.7351 18.8301 20.7351 18.4701 20.9526 18.2526L27.1026 12.1026C27.3201 11.8851 27.6801 11.8851 27.8976 12.1026C28.1151 12.3201 28.1151 12.6801 27.8976 12.8976L21.7476 19.0476C21.6426 19.1526 21.5001 19.2126 21.3501 19.2126Z" fill="#292D32"/>
<path d="M24.3725 19.8129H20.75C20.4425 19.8129 20.1875 19.5579 20.1875 19.2504V15.6279C20.1875 15.3204 20.4425 15.0654 20.75 15.0654C21.0575 15.0654 21.3125 15.3204 21.3125 15.6279V18.6879H24.3725C24.68 18.6879 24.935 18.9429 24.935 19.2504C24.935 19.5579 24.68 19.8129 24.3725 19.8129Z" fill="#292D32"/>
<path d="M22.25 28.0625H17.75C13.6775 28.0625 11.9375 26.3225 11.9375 22.25V17.75C11.9375 13.6775 13.6775 11.9375 17.75 11.9375H19.25C19.5575 11.9375 19.8125 12.1925 19.8125 12.5C19.8125 12.8075 19.5575 13.0625 19.25 13.0625H17.75C14.2925 13.0625 13.0625 14.2925 13.0625 17.75V22.25C13.0625 25.7075 14.2925 26.9375 17.75 26.9375H22.25C25.7075 26.9375 26.9375 25.7075 26.9375 22.25V20.75C26.9375 20.4425 27.1925 20.1875 27.5 20.1875C27.8075 20.1875 28.0625 20.4425 28.0625 20.75V22.25C28.0625 26.3225 26.3225 28.0625 22.25 28.0625Z" fill="#292D32"/>
</svg>
