<svg width="18" height="18" viewBox="0 0 18 18" fill="none" xmlns="http://www.w3.org/2000/svg">
<path opacity="0.5" d="M16.5 7.5H1.5V14.25C1.5 14.8467 1.73705 15.419 2.15901 15.841C2.58097 16.2629 3.15326 16.5 3.75 16.5H14.25C14.8467 16.5 15.419 16.2629 15.841 15.841C16.2629 15.419 16.5 14.8467 16.5 14.25V7.5ZM5.25 6C5.05109 6 4.86032 5.92098 4.71967 5.78033C4.57902 5.63968 4.5 5.44891 4.5 5.25V2.25C4.5 2.05109 4.57902 1.86032 4.71967 1.71967C4.86032 1.57902 5.05109 1.5 5.25 1.5C5.44891 1.5 5.63968 1.57902 5.78033 1.71967C5.92098 1.86032 6 2.05109 6 2.25V5.25C6 5.44891 5.92098 5.63968 5.78033 5.78033C5.63968 5.92098 5.44891 6 5.25 6ZM12.75 6C12.5511 6 12.3603 5.92098 12.2197 5.78033C12.079 5.63968 12 5.44891 12 5.25V2.25C12 2.05109 12.079 1.86032 12.2197 1.71967C12.3603 1.57902 12.5511 1.5 12.75 1.5C12.9489 1.5 13.1397 1.57902 13.2803 1.71967C13.421 1.86032 13.5 2.05109 13.5 2.25V5.25C13.5 5.44891 13.421 5.63968 13.2803 5.78033C13.1397 5.92098 12.9489 6 12.75 6Z" fill="#6C7086"/>
<path d="M14.25 3H13.5V5.25C13.5 5.44891 13.421 5.63968 13.2803 5.78033C13.1397 5.92098 12.9489 6 12.75 6C12.5511 6 12.3603 5.92098 12.2197 5.78033C12.079 5.63968 12 5.44891 12 5.25V3H6V5.25C6 5.44891 5.92098 5.63968 5.78033 5.78033C5.63968 5.92098 5.44891 6 5.25 6C5.05109 6 4.86032 5.92098 4.71967 5.78033C4.57902 5.63968 4.5 5.44891 4.5 5.25V3H3.75C3.15326 3 2.58097 3.23705 2.15901 3.65901C1.73705 4.08097 1.5 4.65326 1.5 5.25V7.5H16.5V5.25C16.5 4.65326 16.2629 4.08097 15.841 3.65901C15.419 3.23705 14.8467 3 14.25 3Z" fill="#6C7086"/>
</svg>
