<svg width="20" height="20" viewBox="0 0 20 20" fill="none" xmlns="http://www.w3.org/2000/svg">
<g clip-path="url(#clip0_865_49137)">
<path opacity="0.3" fill-rule="evenodd" clip-rule="evenodd" d="M15.8333 9.16667C16.2537 9.16653 16.6587 9.32534 16.967 9.61125C17.2754 9.89716 17.4642 10.289 17.4958 10.7083L17.4999 10.8333V15.8333C17.5001 16.2538 17.3412 16.6588 17.0553 16.9671C16.7694 17.2754 16.3775 17.4643 15.9583 17.4958L15.8333 17.5H12.4999C12.0794 17.5001 11.6744 17.3413 11.3661 17.0554C11.0578 16.7695 10.869 16.3776 10.8374 15.9583L10.8333 15.8333V10.8333C10.8331 10.4129 10.9919 10.0079 11.2778 9.69954C11.5637 9.39123 11.9556 9.20237 12.3749 9.17083L12.4999 9.16667H15.8333ZM15.8333 2.5C16.2753 2.5 16.6992 2.67559 17.0118 2.98816C17.3243 3.30072 17.4999 3.72464 17.4999 4.16667V5.83333C17.4999 6.27536 17.3243 6.69928 17.0118 7.01184C16.6992 7.3244 16.2753 7.5 15.8333 7.5H12.4999C12.0579 7.5 11.634 7.3244 11.3214 7.01184C11.0088 6.69928 10.8333 6.27536 10.8333 5.83333V4.16667C10.8333 3.72464 11.0088 3.30072 11.3214 2.98816C11.634 2.67559 12.0579 2.5 12.4999 2.5H15.8333Z" fill="#686868"/>
<path fill-rule="evenodd" clip-rule="evenodd" d="M7.5 2.5C7.94203 2.5 8.36595 2.67559 8.67851 2.98816C8.99107 3.30072 9.16667 3.72464 9.16667 4.16667V9.16667C9.16667 9.60869 8.99107 10.0326 8.67851 10.3452C8.36595 10.6577 7.94203 10.8333 7.5 10.8333H4.16667C3.72464 10.8333 3.30072 10.6577 2.98816 10.3452C2.67559 10.0326 2.5 9.60869 2.5 9.16667V4.16667C2.5 3.72464 2.67559 3.30072 2.98816 2.98816C3.30072 2.67559 3.72464 2.5 4.16667 2.5H7.5Z" fill="#686868"/>
<path opacity="0.3" fill-rule="evenodd" clip-rule="evenodd" d="M7.5 12.5C7.94203 12.5 8.36595 12.6756 8.67851 12.9882C8.99107 13.3007 9.16667 13.7246 9.16667 14.1667V15.8333C9.16667 16.2754 8.99107 16.6993 8.67851 17.0118C8.36595 17.3244 7.94203 17.5 7.5 17.5H4.16667C3.72464 17.5 3.30072 17.3244 2.98816 17.0118C2.67559 16.6993 2.5 16.2754 2.5 15.8333V14.1667C2.5 13.7246 2.67559 13.3007 2.98816 12.9882C3.30072 12.6756 3.72464 12.5 4.16667 12.5H7.5Z" fill="#686868"/>
</g>
<defs>
<clipPath id="clip0_865_49137">
<rect width="20" height="20" rx="3" fill="white"/>
</clipPath>
</defs>
</svg>
