<svg width="12" height="12" viewBox="0 0 12 12" fill="none" xmlns="http://www.w3.org/2000/svg">
<path d="M7.78996 6.00094C7.78996 6.99094 6.98996 7.79094 5.99996 7.79094C5.00996 7.79094 4.20996 6.99094 4.20996 6.00094C4.20996 5.01094 5.00996 4.21094 5.99996 4.21094C6.98996 4.21094 7.78996 5.01094 7.78996 6.00094Z" stroke="#6C7086" stroke-width="1.5" stroke-linecap="round" stroke-linejoin="round"/>
<path d="M6.00004 10.1344C7.76504 10.1344 9.41004 9.09437 10.555 7.29437C11.005 6.58937 11.005 5.40437 10.555 4.69937C9.41004 2.89937 7.76504 1.85938 6.00004 1.85938C4.23504 1.85938 2.59004 2.89937 1.44504 4.69937C0.995044 5.40437 0.995044 6.58937 1.44504 7.29437C2.59004 9.09437 4.23504 10.1344 6.00004 10.1344Z" stroke="#6C7086" stroke-width="1.5" stroke-linecap="round" stroke-linejoin="round"/>
</svg>
