<svg width="14" height="14" viewBox="0 0 14 14" fill="none" xmlns="http://www.w3.org/2000/svg">
<path d="M11.6666 6.99984V10.4998C11.6666 11.789 10.6224 12.8332 9.33325 12.8332H4.66659C3.37742 12.8332 2.33325 11.789 2.33325 10.4998V6.99984C2.33325 6.679 2.59575 6.4165 2.91659 6.4165H4.06575C4.38658 6.4165 4.64909 6.679 4.64909 6.99984V8.8315C4.64909 9.26317 4.88825 9.65984 5.26742 9.864C5.43658 9.95734 5.62325 10.004 5.81575 10.004C6.03742 10.004 6.25909 9.93984 6.45159 9.8115L7.00575 9.44984L7.51909 9.794C7.87492 10.0332 8.32992 10.0623 8.70909 9.85817C9.09409 9.654 9.33325 9.26317 9.33325 8.82567V6.99984C9.33325 6.679 9.59575 6.4165 9.91658 6.4165H11.0833C11.4041 6.4165 11.6666 6.679 11.6666 6.99984Z" fill="#6C7086"/>
<path d="M12.5416 4.08317V4.6665C12.5416 5.30817 12.2324 5.83317 11.3749 5.83317H2.62492C1.73242 5.83317 1.45825 5.30817 1.45825 4.6665V4.08317C1.45825 3.4415 1.73242 2.9165 2.62492 2.9165H11.3749C12.2324 2.9165 12.5416 3.4415 12.5416 4.08317Z" fill="#6C7086"/>
<path d="M6.79004 2.91651H3.57004C3.3717 2.70068 3.37754 2.36818 3.58754 2.15818L4.41587 1.32984C4.6317 1.11401 4.98754 1.11401 5.20337 1.32984L6.79004 2.91651Z" fill="#6C7086"/>
<path d="M10.4241 2.91651H7.2041L8.79077 1.32984C9.0066 1.11401 9.36243 1.11401 9.57827 1.32984L10.4066 2.15818C10.6166 2.36818 10.6224 2.70068 10.4241 2.91651Z" fill="#6C7086"/>
<path d="M8.14925 6.4165C8.47009 6.4165 8.73259 6.679 8.73259 6.99984V8.82567C8.73259 9.29234 8.21342 9.57234 7.82842 9.30984L7.30342 8.95984C7.11092 8.8315 6.86009 8.8315 6.66175 8.95984L6.11342 9.3215C5.72842 9.57817 5.21509 9.29817 5.21509 8.83734V6.99984C5.21509 6.679 5.47759 6.4165 5.79842 6.4165H8.14925Z" fill="#6C7086"/>
</svg>
