<svg width="12" height="12" viewBox="0 0 12 12" fill="none" xmlns="http://www.w3.org/2000/svg">
<g clip-path="url(#clip0_844_48454)">
<path d="M11.634 8.884L10.1565 10.3615C10.059 10.459 9.931 10.508 9.803 10.508C9.675 10.508 9.547 10.459 9.4495 10.3615C9.254 10.166 9.254 9.85 9.4495 9.6545L10.604 8.5H8.7505C8.061 8.5 7.5005 9.0605 7.5005 9.75V11.5C7.5005 11.7765 7.277 12 7.0005 12C6.724 12 6.5005 11.7765 6.5005 11.5V9.75C6.5005 8.5095 7.51 7.5 8.7505 7.5H10.604L9.4575 6.3535C9.262 6.158 9.262 5.842 9.4575 5.6465C9.653 5.451 9.969 5.451 10.1645 5.6465L11.634 7.116C12.1215 7.6035 12.1215 8.397 11.634 8.884ZM7 3C7 4.6545 5.6545 6 4 6C2.3455 6 1 4.6545 1 3C1 1.3455 2.3455 0 4 0C5.6545 0 7 1.3455 7 3ZM6 3C6 1.897 5.103 1 4 1C2.897 1 2 1.897 2 3C2 4.103 2.897 5 4 5C5.103 5 6 4.103 6 3ZM5.624 7.1415C5.258 7.0475 4.8795 7 4.5 7C2.0185 7 0 9.0185 0 11.5C0 11.7765 0.2235 12 0.5 12C0.7765 12 1 11.7765 1 11.5C1 9.5705 2.5705 8 4.5 8C4.796 8 5.0905 8.037 5.376 8.1105C5.6405 8.18 5.9155 8.018 5.9845 7.75C6.053 7.483 5.8915 7.2105 5.624 7.1415Z" fill="#6C7086"/>
</g>
<defs>
<clipPath id="clip0_844_48454">
<rect width="12" height="12" fill="white"/>
</clipPath>
</defs>
</svg>
