<svg width="61" height="61" viewBox="0 0 61 61" fill="none" xmlns="http://www.w3.org/2000/svg">
<g clip-path="url(#clip0_1023_18014)">
<path d="M58.3885 30.4983C59.3152 29.4192 59.9645 28.1304 60.2803 26.7435C60.596 25.3567 60.5686 23.9138 60.2005 22.5399C59.8323 21.1661 59.1345 19.9028 58.1676 18.8597C57.2007 17.8166 55.9939 17.0251 54.6519 16.554C54.9148 15.1561 54.8327 13.7152 54.4127 12.3563C53.9927 10.9973 53.2474 9.76139 52.2416 8.75568C51.2358 7.74997 49.9997 7.00487 48.6407 6.58503C47.2817 6.16519 45.8408 6.08328 44.443 6.34641C43.9722 5.00407 43.1809 3.79693 42.1378 2.82979C41.0947 1.86265 39.8312 1.16475 38.4572 0.796673C37.0831 0.428596 35.64 0.401472 34.2531 0.717657C32.8662 1.03384 31.5774 1.68378 30.4987 2.61104C29.4196 1.68442 28.1308 1.03506 26.744 0.719317C25.3571 0.40357 23.9142 0.430961 22.5403 0.799113C21.1665 1.16727 19.9032 1.86506 18.8601 2.83197C17.817 3.79887 17.0256 5.00568 16.5544 6.34771C15.1567 6.085 13.7159 6.16728 12.3571 6.5874C10.9984 7.00753 9.76261 7.75282 8.75706 8.75862C7.75152 9.76443 7.00654 11.0004 6.58676 12.3592C6.16698 13.7181 6.08507 15.1589 6.34814 16.5566C5.00611 17.0277 3.7993 17.8192 2.83239 18.8623C1.86549 19.9054 1.16769 21.1687 0.799535 22.5425C0.431382 23.9164 0.403987 25.3593 0.719735 26.7461C1.03548 28.133 1.68485 29.4218 2.61147 30.5009C1.68456 31.5799 1.035 32.8688 0.719164 34.2558C0.403326 35.6428 0.430745 37.0859 0.799059 38.4599C1.16737 39.8338 1.86544 41.0971 2.83268 42.1402C3.79991 43.1832 5.0071 43.9744 6.34944 44.4451C6.08615 45.8429 6.16796 47.2838 6.58779 48.6427C7.00763 50.0017 7.75279 51.2376 8.75859 52.2433C9.76438 53.2489 11.0004 53.9939 12.3594 54.4136C13.7184 54.8333 15.1593 54.9149 16.557 54.6514C17.0282 55.9935 17.8196 57.2003 18.8627 58.1672C19.9058 59.1341 21.1691 59.8319 22.543 60.2C23.9168 60.5682 25.3597 60.5956 26.7466 60.2798C28.1334 59.9641 29.4222 59.3147 30.5013 58.3881C31.5803 59.315 32.8693 59.9646 34.2562 60.2804C35.6432 60.5962 37.0863 60.5688 38.4603 60.2005C39.8343 59.8322 41.0976 59.1341 42.1406 58.1669C43.1836 57.1996 43.9749 55.9925 44.4456 54.6501C45.8434 54.9133 47.2843 54.8315 48.6432 54.4116C50.0022 53.9918 51.2382 53.2467 52.2439 52.2409C53.2497 51.2352 53.9948 49.9992 54.4147 48.6402C54.8345 47.2812 54.9164 45.8403 54.6532 44.4425C55.9953 43.9715 57.2022 43.1801 58.1692 42.1369C59.1361 41.0938 59.8339 39.8304 60.2019 38.4565C60.57 37.0825 60.5972 35.6395 60.2812 34.2527C59.9652 32.8659 59.3155 31.5771 58.3885 30.4983Z" fill="#25D366"/>
<path d="M25.1147 41.9504L16.778 33.6189C16.4616 33.302 16.2839 32.8725 16.2839 32.4247C16.2839 31.9769 16.4616 31.5474 16.778 31.2305L17.7909 30.2164C18.1078 29.9 18.5373 29.7223 18.9851 29.7223C19.4329 29.7223 19.8624 29.9 20.1793 30.2164L26.2393 36.2726L40.5113 21.1062C40.8184 20.7803 41.2422 20.5896 41.6897 20.576C42.1373 20.5623 42.572 20.7268 42.8984 21.0333L43.9385 22.015C44.2647 22.3221 44.4556 22.7462 44.4693 23.1941C44.483 23.642 44.3182 24.0769 44.0113 24.4034L27.5434 41.9127C27.3884 42.0779 27.2017 42.2103 26.9944 42.302C26.7872 42.3936 26.5636 42.4427 26.337 42.4462C26.1105 42.4497 25.8855 42.4076 25.6755 42.3225C25.4655 42.2373 25.2748 42.1108 25.1147 41.9504Z" fill="white"/>
</g>
<defs>
<clipPath id="clip0_1023_18014">
<rect width="60" height="60" fill="white" transform="translate(0.5 0.5)"/>
</clipPath>
</defs>
</svg>
