<svg width="25" height="17" viewBox="0 0 25 17" fill="none" xmlns="http://www.w3.org/2000/svg">
<path d="M11.334 5C11.334 7.21 9.54398 9 7.33398 9C5.12398 9 3.33398 7.21 3.33398 5C3.33398 2.79 5.12398 1 7.33398 1C9.54398 1 11.334 2.79 11.334 5ZM11.334 11.72V17H0.333984V15C0.333984 12.79 3.46398 11 7.33398 11C8.83398 11 10.204 11.27 11.334 11.72ZM24.334 17H13.334V0H24.334V17ZM16.334 8.5C16.334 7.83696 16.5974 7.20107 17.0662 6.73223C17.5351 6.26339 18.1709 6 18.834 6C19.497 6 20.1329 6.26339 20.6018 6.73223C21.0706 7.20107 21.334 7.83696 21.334 8.5C21.334 9.16304 21.0706 9.79893 20.6018 10.2678C20.1329 10.7366 19.497 11 18.834 11C18.1709 11 17.5351 10.7366 17.0662 10.2678C16.5974 9.79893 16.334 9.16304 16.334 8.5ZM22.334 4C21.8036 4 21.2948 3.78929 20.9198 3.41421C20.5447 3.03914 20.334 2.53043 20.334 2H17.334C17.334 3.11 16.444 4 15.334 4V13C15.8644 13 16.3731 13.2107 16.7482 13.5858C17.1233 13.9609 17.334 14.4696 17.334 15H20.334C20.334 13.9 21.234 13 22.334 13V4Z" fill="white"/>
</svg>
