<svg width="29" height="28" viewBox="0 0 29 28" fill="none" xmlns="http://www.w3.org/2000/svg">
<path fill-rule="evenodd" clip-rule="evenodd" d="M18.56 0.440307C18.4227 0.292934 18.2571 0.174729 18.0731 0.0927452C17.8891 0.0107613 17.6905 -0.0333224 17.489 -0.0368759C17.2876 -0.0404295 17.0876 -0.00338018 16.9008 0.0720619C16.714 0.147504 16.5444 0.259793 16.4019 0.402231C16.2595 0.544668 16.1472 0.714336 16.0718 0.901112C15.9963 1.08789 15.9593 1.28795 15.9628 1.48935C15.9664 1.69076 16.0105 1.88938 16.0924 2.07338C16.1744 2.25738 16.2926 2.42298 16.44 2.56031L17.88 4.00031H13.5C13.2348 4.00031 12.9804 4.10566 12.7929 4.2932C12.6054 4.48074 12.5 4.73509 12.5 5.00031V15.0003C12.5 15.2655 12.6054 15.5199 12.7929 15.7074C12.9804 15.8949 13.2348 16.0003 13.5 16.0003H19.25V7.00031C19.25 6.66879 19.3817 6.35084 19.6161 6.11642C19.8505 5.882 20.1685 5.75031 20.5 5.75031C20.8315 5.75031 21.1495 5.882 21.3839 6.11642C21.6183 6.35084 21.75 6.66879 21.75 7.00031V16.0003H27.5C27.7652 16.0003 28.0196 15.8949 28.2071 15.7074C28.3946 15.5199 28.5 15.2655 28.5 15.0003V5.00031C28.5 4.73509 28.3946 4.48074 28.2071 4.2932C28.0196 4.10566 27.7652 4.00031 27.5 4.00031H23.12L24.56 2.56031C24.825 2.27596 24.9692 1.89986 24.9624 1.51126C24.9555 1.12266 24.7981 0.75189 24.5232 0.477064C24.2484 0.202238 23.8776 0.0448136 23.489 0.0379572C23.1004 0.0311008 22.7243 0.175347 22.44 0.440307L20.5 2.38031L18.56 0.440307ZM4.186 14.0003H0.5V22.0003L4.156 25.6563C4.89893 26.3995 5.781 26.989 6.75182 27.3912C7.72263 27.7934 8.76317 28.0003 9.814 28.0003H21.5C22.2956 28.0003 23.0587 27.6842 23.6213 27.1216C24.1839 26.559 24.5 25.796 24.5 25.0003C24.5 24.2047 24.1839 23.4416 23.6213 22.879C23.0587 22.3164 22.2956 22.0003 21.5 22.0003H15.946C15.7381 22.7014 15.3515 23.3365 14.8242 23.8432C14.2969 24.3499 13.647 24.711 12.9382 24.8908C12.2293 25.0707 11.4859 25.0633 10.7808 24.8693C10.0757 24.6753 9.43308 24.3014 8.916 23.7843L6.016 20.8843C5.89991 20.7682 5.80783 20.6304 5.745 20.4787C5.68217 20.327 5.64984 20.1645 5.64984 20.0003C5.64984 19.8361 5.68217 19.6736 5.745 19.5219C5.80783 19.3702 5.89991 19.2324 6.016 19.1163C6.13209 19.0002 6.26991 18.9081 6.42158 18.8453C6.57326 18.7825 6.73583 18.7501 6.9 18.7501C7.06417 18.7501 7.22674 18.7825 7.37842 18.8453C7.53009 18.9081 7.66791 19.0002 7.784 19.1163L10.684 22.0163C10.9898 22.3204 11.3987 22.4986 11.8296 22.5155C12.2606 22.5323 12.6822 22.3867 13.0108 22.1074C13.3394 21.8281 13.5511 21.4355 13.604 21.0074C13.6568 20.5794 13.5469 20.1471 13.296 19.7963L9.844 16.3443C9.10106 15.6011 8.219 15.0116 7.24818 14.6094C6.27737 14.2073 5.23683 14.0003 4.186 14.0003Z" fill="white"/>
</svg>
