<svg width="18" height="19" viewBox="0 0 18 19" fill="none" xmlns="http://www.w3.org/2000/svg">
<path fill-rule="evenodd" clip-rule="evenodd" d="M7 13C7 13.5304 7.21071 14.0391 7.58579 14.4142C7.96086 14.7893 8.46957 15 9 15C9.53043 15 10.0391 14.7893 10.4142 14.4142C10.7893 14.0391 11 13.5304 11 13C11 12.4696 10.7893 11.9609 10.4142 11.5858C10.0391 11.2107 9.53043 11 9 11C8.46957 11 7.96086 11.2107 7.58579 11.5858C7.21071 11.9609 7 12.4696 7 13ZM9.5 13C9.5 13.1326 9.44732 13.2598 9.35355 13.3536C9.25979 13.4473 9.13261 13.5 9 13.5C8.86739 13.5 8.74021 13.4473 8.64645 13.3536C8.55268 13.2598 8.5 13.1326 8.5 13C8.5 12.8674 8.55268 12.7402 8.64645 12.6464C8.74021 12.5527 8.86739 12.5 9 12.5C9.13261 12.5 9.25979 12.5527 9.35355 12.6464C9.44732 12.7402 9.5 12.8674 9.5 13Z" fill="white"/>
<path fill-rule="evenodd" clip-rule="evenodd" d="M12 7H6C4.93913 7 3.92172 7.42143 3.17157 8.17157C2.42143 8.92172 2 9.93913 2 11V15C2 16.0609 2.42143 17.0783 3.17157 17.8284C3.92172 18.5786 4.93913 19 6 19H12C13.0609 19 14.0783 18.5786 14.8284 17.8284C15.5786 17.0783 16 16.0609 16 15V11C16 9.93913 15.5786 8.92172 14.8284 8.17157C14.0783 7.42143 13.0609 7 12 7ZM4 11C4 10.4696 4.21071 9.96086 4.58579 9.58579C4.96086 9.21071 5.46957 9 6 9H12C12.5304 9 13.0391 9.21071 13.4142 9.58579C13.7893 9.96086 14 10.4696 14 11V15C14 15.5304 13.7893 16.0391 13.4142 16.4142C13.0391 16.7893 12.5304 17 12 17H6C5.46957 17 4.96086 16.7893 4.58579 16.4142C4.21071 16.0391 4 15.5304 4 15V11Z" fill="white"/>
<path fill-rule="evenodd" clip-rule="evenodd" d="M13 4C13 2.93913 12.5786 1.92172 11.8284 1.17157C11.0783 0.421427 10.0609 0 9 0C7.93913 0 6.92172 0.421427 6.17157 1.17157C5.42143 1.92172 5 2.93913 5 4V9H13V4ZM11 4V7H7V4C7 3.46957 7.21071 2.96086 7.58579 2.58579C7.96086 2.21071 8.46957 2 9 2C9.53043 2 10.0391 2.21071 10.4142 2.58579C10.7893 2.96086 11 3.46957 11 4Z" fill="white"/>
<path d="M0.292431 2.70704C0.110272 2.51844 0.00947813 2.26584 0.0117566 2.00364C0.014035 1.74144 0.119204 1.49063 0.304612 1.30522C0.49002 1.11981 0.740832 1.01465 1.00303 1.01237C1.26523 1.01009 1.51783 1.11088 1.70643 1.29304L17.7064 17.293C17.8886 17.4816 17.9894 17.7342 17.9871 17.9964C17.9848 18.2586 17.8797 18.5095 17.6942 18.6949C17.5088 18.8803 17.258 18.9854 16.9958 18.9877C16.7336 18.99 16.481 18.8892 16.2924 18.707L0.292431 2.70704Z" fill="white"/>
</svg>
