<svg width="40" height="40" viewBox="0 0 40 40" fill="none" xmlns="http://www.w3.org/2000/svg">
<rect width="40" height="40" rx="20" fill="#98BEFA"/>
<g clip-path="url(#clip0_4_571)">
<path d="M19.2259 22.2523C19.3294 22.6536 19.0879 23.0623 18.6867 23.1651C16.3684 23.7621 14.7492 25.8523 14.7492 28.2501C14.7492 28.6641 14.4132 29.0001 13.9992 29.0001C13.5852 29.0001 13.2492 28.6641 13.2492 28.2501C13.2492 25.1683 15.3312 22.4803 18.3117 21.7131C18.7159 21.6103 19.1217 21.8511 19.2252 22.2523H19.2259ZM28.7802 28.7803C28.6339 28.9266 28.4419 29.0001 28.2499 29.0001C28.0579 29.0001 27.8659 28.9266 27.7197 28.7803L11.2197 12.2803C10.9264 11.9871 10.9264 11.5131 11.2197 11.2198C11.5129 10.9266 11.9869 10.9266 12.2802 11.2198L15.6042 14.5438C16.0444 12.5211 17.8467 11.0001 19.9999 11.0001C22.4817 11.0001 24.4999 13.0183 24.4999 15.5001C24.4999 17.6533 22.9789 19.4556 20.9562 19.8958L28.7802 27.7198C29.0734 28.0131 29.0734 28.4871 28.7802 28.7803ZM17.0487 15.9883L19.5117 18.4513C19.6729 18.4776 19.8357 18.5001 19.9999 18.5001C21.6544 18.5001 22.9999 17.1546 22.9999 15.5001C22.9999 13.8456 21.6544 12.5001 19.9999 12.5001C18.3454 12.5001 16.9999 13.8456 16.9999 15.5001C16.9999 15.6636 17.0224 15.8271 17.0487 15.9883Z" fill="black"/>
</g>
<defs>
<clipPath id="clip0_4_571">
<rect width="18" height="18" fill="white" transform="translate(11 11.0001)"/>
</clipPath>
</defs>
</svg>
