<svg width="14" height="14" viewBox="0 0 14 14" fill="none" xmlns="http://www.w3.org/2000/svg">
<path d="M12.6875 0.875H1.3125C1.07051 0.875 0.875 1.07051 0.875 1.3125V12.6875C0.875 12.9295 1.07051 13.125 1.3125 13.125H12.6875C12.9295 13.125 13.125 12.9295 13.125 12.6875V1.3125C13.125 1.07051 12.9295 0.875 12.6875 0.875ZM9.1875 7.65625C10.0338 7.65625 10.7188 8.34121 10.7188 9.1875C10.7188 10.0338 10.0338 10.7188 9.1875 10.7188C8.34121 10.7188 7.65625 10.0338 7.65625 9.1875V8.53125H6.34375V9.1875C6.34375 10.0338 5.65879 10.7188 4.8125 10.7188C3.96621 10.7188 3.28125 10.0338 3.28125 9.1875C3.28125 8.34121 3.96621 7.65625 4.8125 7.65625H5.46875V6.34375H4.8125C3.96621 6.34375 3.28125 5.65879 3.28125 4.8125C3.28125 3.96621 3.96621 3.28125 4.8125 3.28125C5.65879 3.28125 6.34375 3.96621 6.34375 4.8125V5.46875H7.65625V4.8125C7.65625 3.96621 8.34121 3.28125 9.1875 3.28125C10.0338 3.28125 10.7188 3.96621 10.7188 4.8125C10.7188 5.65879 10.0338 6.34375 9.1875 6.34375H8.53125V7.65625H9.1875Z" fill="#D8DBE4"/>
</svg>
