<svg width="40" height="40" viewBox="0 0 40 40" fill="none" xmlns="http://www.w3.org/2000/svg">
<rect width="40" height="40" rx="20" fill="#E07D7D"/>
<g clip-path="url(#clip0_4_560)">
<path d="M17 20.0001C19.4818 20.0001 21.5 17.9818 21.5 15.5001C21.5 13.0183 19.4818 11.0001 17 11.0001C14.5182 11.0001 12.5 13.0183 12.5 15.5001C12.5 17.9818 14.5182 20.0001 17 20.0001ZM17 12.5001C18.6545 12.5001 20 13.8456 20 15.5001C20 17.1546 18.6545 18.5001 17 18.5001C15.3455 18.5001 14 17.1546 14 15.5001C14 13.8456 15.3455 12.5001 17 12.5001ZM23 27.5001V28.2501C23 28.6641 22.664 29.0001 22.25 29.0001C21.836 29.0001 21.5 28.6641 21.5 28.2501V27.5001C21.5 25.0183 19.4818 23.0001 17 23.0001C14.5182 23.0001 12.5 25.0183 12.5 27.5001V28.2501C12.5 28.6641 12.164 29.0001 11.75 29.0001C11.336 29.0001 11 28.6641 11 28.2501V27.5001C11 24.1918 13.6918 21.5001 17 21.5001C20.3082 21.5001 23 24.1918 23 27.5001ZM28.7728 18.6628L25.7787 21.5691C25.343 22.0056 24.7528 22.2493 24.125 22.2493C23.4972 22.2493 22.907 22.0048 22.4637 21.5616L20.9855 20.1711C20.684 19.8876 20.6698 19.4128 20.954 19.1106C21.2382 18.8091 21.7122 18.7948 22.0145 19.0791L23.5085 20.4853C23.8617 20.8378 24.4048 20.8221 24.7257 20.5011L27.7272 17.5866C28.0243 17.2978 28.499 17.3053 28.7878 17.6023C29.0765 17.8993 29.069 18.3748 28.772 18.6628H28.7728Z" fill="black"/>
</g>
<defs>
<clipPath id="clip0_4_560">
<rect width="18" height="18" fill="white" transform="translate(11 11.0001)"/>
</clipPath>
</defs>
</svg>
