<svg width="18" height="19" viewBox="0 0 18 19" fill="none" xmlns="http://www.w3.org/2000/svg">
<path d="M4.06602 14.1667V15.8667C4.06602 16.4917 3.55772 17 2.93268 17C2.30765 17 1.79935 16.4917 1.79935 15.8667V1.13333H9.73268V0H1.23268C0.919882 0 0.666016 0.253867 0.666016 0.566667V15.8667C0.666016 17.1167 1.68262 18.1333 2.93268 18.1333H14.8327C16.0827 18.1333 17.0993 17.1167 17.0993 15.8667V14.1667H4.06602Z" fill="white"/>
<path d="M13.6986 9.06669C12.6508 9.06669 11.6761 8.74822 10.8652 8.20422V12.8169L13.6986 11.4002L16.5319 12.8169V8.20422C15.721 8.74822 14.7463 9.06669 13.6986 9.06669Z" fill="white"/>
<circle cx="13.6991" cy="3.96667" r="3.96667" fill="white"/>
</svg>
