<svg width="25" height="21" viewBox="0 0 25 21" fill="none" xmlns="http://www.w3.org/2000/svg">
<path d="M17.4328 15.0836C18.5064 14.4868 18.3673 12.1873 17.123 9.94384C16.5893 8.97784 15.933 8.19559 15.2768 7.64872C14.492 8.23104 13.5415 8.54687 12.5643 8.54997C11.5856 8.5478 10.6333 8.23193 9.84739 7.64872C9.19114 8.19559 8.53664 8.97872 8.00114 9.94384C6.75602 12.1865 6.61864 14.4868 7.69489 15.0836C8.17439 15.3566 8.68014 15.1518 9.20164 14.6496C9.10396 15.1907 9.05506 15.7395 9.05552 16.2893C9.05552 18.8601 10.053 20.9373 11.2806 20.9373C12.0209 20.9373 12.3875 20.1805 12.5634 19.0228C12.7384 20.1726 13.1059 20.9373 13.8409 20.9373C15.0633 20.9373 16.0686 18.8592 16.0686 16.2893C16.0686 15.7118 16.0144 15.1606 15.9216 14.6505C16.4466 15.1536 16.9506 15.3618 17.4319 15.0853L17.4328 15.0836ZM12.5625 7.67497C13.059 7.68238 13.5519 7.59098 14.0127 7.40609C14.4735 7.22119 14.8929 6.9465 15.2465 6.59799C15.6002 6.24948 15.881 5.83411 16.0726 5.37607C16.2641 4.91802 16.3627 4.42645 16.3626 3.92995C16.3624 3.43345 16.2635 2.94194 16.0715 2.48403C15.8796 2.02612 15.5986 1.61095 15.2447 1.26269C14.8908 0.914426 14.4712 0.640025 14.0103 0.455454C13.5494 0.270884 13.0563 0.179829 12.5599 0.187591C11.5769 0.20296 10.6394 0.604321 9.94986 1.30501C9.26028 2.00569 8.87396 2.94948 8.8743 3.93257C8.87465 4.91566 9.26163 5.85918 9.9517 6.55938C10.6418 7.25958 11.5795 7.66029 12.5625 7.67497ZM20.0823 10.0497C20.8818 10.0263 21.6408 9.69229 22.1981 9.11846C22.7554 8.54463 23.0672 7.7762 23.0672 6.97628C23.0672 6.17636 22.7554 5.40793 22.1981 4.8341C21.6408 4.26027 20.8818 3.92621 20.0823 3.90284C19.2669 3.90296 18.485 4.22697 17.9085 4.8036C17.3321 5.38022 17.0083 6.16223 17.0084 6.97759C17.0085 7.79295 17.3325 8.57487 17.9091 9.15133C18.4858 9.72779 19.2678 10.0516 20.0831 10.0515L20.0823 10.0497ZM23.8273 11.9135C23.388 11.119 22.8508 10.4767 22.3118 10.0278C21.667 10.5056 20.8864 10.7646 20.084 10.7672C19.4225 10.7672 18.8065 10.5861 18.2675 10.286C18.7015 11.2423 18.9701 12.211 19.02 13.0772C19.1023 14.4037 18.6875 15.3872 17.858 15.8466C17.6804 15.9445 17.487 16.0109 17.2866 16.0426C17.2368 16.3856 17.2026 16.7426 17.2026 17.1188C17.2026 19.2302 18.0208 20.9356 19.0296 20.9356C19.6369 20.9356 19.9396 20.3143 20.0831 19.3641C20.2258 20.3091 20.5276 20.9356 21.1331 20.9356C22.135 20.9356 22.9619 19.2293 22.9619 17.1206C22.9619 16.6455 22.9155 16.1931 22.8394 15.7731C23.2699 16.187 23.6846 16.3576 24.0801 16.1301C24.9613 15.6401 24.8475 13.7518 23.8264 11.9126L23.8273 11.9135ZM5.04277 10.0497C5.65048 10.0494 6.24444 9.86885 6.74956 9.53097C7.25468 9.1931 7.64828 8.71304 7.8806 8.15149C8.11292 7.58994 8.17353 6.97212 8.05476 6.37613C7.93599 5.78014 7.64317 5.23275 7.21334 4.80316C6.7835 4.37357 6.23594 4.08107 5.63989 3.96264C5.04383 3.84421 4.42604 3.90516 3.86463 4.1378C3.30321 4.37044 2.82338 4.76432 2.48579 5.26963C2.1482 5.77495 1.96802 6.36901 1.96802 6.97672C1.96825 7.79212 2.29227 8.57406 2.86885 9.15064C3.44542 9.72721 4.22736 10.0512 5.04277 10.0515V10.0497ZM7.26089 15.844C5.86789 15.0696 5.74014 12.7605 6.86189 10.2842C6.30746 10.5991 5.68124 10.7657 5.04364 10.7681C4.20714 10.7681 3.44064 10.4881 2.81239 10.0278C2.27427 10.4758 1.73789 11.1181 1.29689 11.9117C0.275768 13.7527 0.163768 15.641 1.04577 16.1292C1.43952 16.355 1.85514 16.1861 2.28302 15.774C2.20517 16.2183 2.16565 16.6686 2.16489 17.1197C2.16489 19.2302 2.98302 20.9347 3.99189 20.9347C4.59914 20.9347 4.90189 20.3135 5.04539 19.3641C5.18977 20.3091 5.49164 20.9356 6.09539 20.9356C7.09902 20.9356 7.92414 19.2293 7.92414 17.1206C7.92414 16.7417 7.88914 16.3838 7.83927 16.0408C7.63667 16.0093 7.4412 15.9423 7.26177 15.8431L7.26089 15.844Z" fill="white"/>
</svg>
