<svg width="22" height="20" viewBox="0 0 22 20" fill="none" xmlns="http://www.w3.org/2000/svg">
<path d="M6.5 0H3.5C2.70435 0 1.94129 0.316071 1.37868 0.87868C0.816071 1.44129 0.5 2.20435 0.5 3V6H3.208C3.00666 5.53937 2.94887 5.02875 3.04216 4.53478C3.13546 4.04081 3.3755 3.58643 3.73097 3.23097C4.08643 2.8755 4.54081 2.63546 5.03478 2.54216C5.52875 2.44887 6.03937 2.50666 6.5 2.708V0ZM0.5 7.5V12C0.5 12.7956 0.816071 13.5587 1.37868 14.1213C1.94129 14.6839 2.70435 15 3.5 15H6.5V8.56L4.78 10.28C4.63783 10.4125 4.44978 10.4846 4.25548 10.4812C4.06118 10.4777 3.87579 10.399 3.73838 10.2616C3.60097 10.1242 3.52225 9.93882 3.51883 9.74452C3.5154 9.55022 3.58752 9.36217 3.72 9.22L5.44 7.5H0.5ZM8 15H9.5V14.5C9.5 13.837 9.76339 13.2011 10.2322 12.7322C10.7011 12.2634 11.337 12 12 12H20C20.1713 12 20.338 12.0167 20.5 12.05V7.5H9.06L10.78 9.22C10.8537 9.28866 10.9128 9.37146 10.9538 9.46346C10.9948 9.55546 11.0168 9.65477 11.0186 9.75548C11.0204 9.85618 11.0018 9.95621 10.9641 10.0496C10.9264 10.143 10.8703 10.2278 10.799 10.299C10.7278 10.3703 10.643 10.4264 10.5496 10.4641C10.4562 10.5018 10.3562 10.5204 10.2555 10.5186C10.1548 10.5168 10.0555 10.4948 9.96346 10.4538C9.87146 10.4128 9.78866 10.3537 9.72 10.28L8 8.56V15ZM20.5 6H11.292C11.4933 5.53937 11.5511 5.02875 11.4578 4.53478C11.3645 4.04081 11.1245 3.58643 10.769 3.23097C10.4136 2.8755 9.95919 2.63546 9.46522 2.54216C8.97125 2.44887 8.46063 2.50666 8 2.708V0H17.5C18.2956 0 19.0587 0.316071 19.6213 0.87868C20.1839 1.44129 20.5 2.20435 20.5 3V6ZM9 6H8V5C8 4.80222 8.05865 4.60888 8.16853 4.44443C8.27841 4.27998 8.43459 4.15181 8.61732 4.07612C8.80004 4.00043 9.00111 3.98063 9.19509 4.01921C9.38907 4.0578 9.56725 4.15304 9.70711 4.29289C9.84696 4.43275 9.9422 4.61093 9.98079 4.80491C10.0194 4.99889 9.99957 5.19996 9.92388 5.38268C9.84819 5.56541 9.72002 5.72159 9.55557 5.83147C9.39112 5.94135 9.19778 6 9 6ZM6.5 6H5.5C5.30256 5.99999 5.10954 5.94154 4.94527 5.83201C4.781 5.72248 4.65283 5.56677 4.57691 5.38451C4.50099 5.20225 4.48073 5.00159 4.51867 4.80783C4.55661 4.61407 4.65106 4.43588 4.79011 4.29572C4.92917 4.15555 5.1066 4.05968 5.30005 4.0202C5.4935 3.98072 5.69431 3.99938 5.87717 4.07384C6.06003 4.14831 6.21676 4.27523 6.32759 4.43863C6.43843 4.60202 6.49842 4.79457 6.5 4.992V6ZM10.5 14.5C10.5 14.1022 10.658 13.7206 10.9393 13.4393C11.2206 13.158 11.6022 13 12 13H20C20.3978 13 20.7794 13.158 21.0607 13.4393C21.342 13.7206 21.5 14.1022 21.5 14.5V18.5C21.5 18.8978 21.342 19.2794 21.0607 19.5607C20.7794 19.842 20.3978 20 20 20H12C11.6022 20 11.2206 19.842 10.9393 19.5607C10.658 19.2794 10.5 18.8978 10.5 18.5V14.5ZM20.5 15C20.2348 15 19.9804 14.8946 19.7929 14.7071C19.6054 14.5196 19.5 14.2652 19.5 14H18.5C18.5 14.5304 18.7107 15.0391 19.0858 15.4142C19.4609 15.7893 19.9696 16 20.5 16V15ZM20.5 17C19.9696 17 19.4609 17.2107 19.0858 17.5858C18.7107 17.9609 18.5 18.4696 18.5 19H19.5C19.5 18.7348 19.6054 18.4804 19.7929 18.2929C19.9804 18.1054 20.2348 18 20.5 18V17ZM12.5 14C12.5 14.2652 12.3946 14.5196 12.2071 14.7071C12.0196 14.8946 11.7652 15 11.5 15V16C12.0304 16 12.5391 15.7893 12.9142 15.4142C13.2893 15.0391 13.5 14.5304 13.5 14H12.5ZM13.5 19C13.5 18.4696 13.2893 17.9609 12.9142 17.5858C12.5391 17.2107 12.0304 17 11.5 17V18C11.7652 18 12.0196 18.1054 12.2071 18.2929C12.3946 18.4804 12.5 18.7348 12.5 19H13.5ZM17.75 16.5C17.75 16.0359 17.5656 15.5908 17.2374 15.2626C16.9092 14.9344 16.4641 14.75 16 14.75C15.5359 14.75 15.0908 14.9344 14.7626 15.2626C14.4344 15.5908 14.25 16.0359 14.25 16.5C14.25 16.9641 14.4344 17.4092 14.7626 17.7374C15.0908 18.0656 15.5359 18.25 16 18.25C16.4641 18.25 16.9092 18.0656 17.2374 17.7374C17.5656 17.4092 17.75 16.9641 17.75 16.5Z" fill="white"/>
</svg>
