<svg width="118" height="70" viewBox="0 0 118 70" fill="none" xmlns="http://www.w3.org/2000/svg">
<path d="M15.4579 59.8855H14.036C13.7643 59.8855 13.5071 59.7526 13.408 59.5441L12.2234 57.048L10.7521 53.9441H10.7552L8.24189 48.6567L5.71294 53.9441H5.71585L4.71684 56.0478H4.7146L3.93028 57.6992L3.89361 57.7804L3.07038 59.5132C2.9845 59.7307 2.72888 59.8857 2.42651 59.8857H1.00414C0.927211 59.8857 0.850278 59.8747 0.774239 59.8532C0.427593 59.7528 0.251139 59.4548 0.378168 59.1841L6.88058 45.5006C6.96355 45.2863 7.21761 45.1289 7.52064 45.1289H8.94391C9.2172 45.1304 9.47305 45.2622 9.57055 45.4727L16.0716 59.1539C16.1079 59.2152 16.1284 59.2891 16.1284 59.3631C16.1284 59.6519 15.8285 59.8857 15.4582 59.8857L15.4579 59.8855ZM101.538 49.3284L107.404 56.1666C107.532 56.3167 107.743 56.3972 107.957 56.3997H108.583C108.833 56.3997 109.053 56.2917 109.167 56.1304L115.002 49.3284V59.3629C115.002 59.6517 115.301 59.8855 115.672 59.8855H116.996C117.363 59.8855 117.665 59.6517 117.665 59.3629V45.6521C117.665 45.3646 117.363 45.1286 116.996 45.1286H115.672C115.42 45.1286 115.202 45.2389 115.088 45.3973L108.283 53.2985L101.423 45.3604C101.293 45.2109 101.082 45.1302 100.87 45.1286H99.5469C99.1752 45.1286 98.8751 45.3646 98.8751 45.6521V49.4052V55.3098V59.3627C98.8751 59.6515 99.175 59.8852 99.5469 59.8852H100.87C101.238 59.8852 101.538 59.6515 101.538 59.3627V49.3282L101.538 49.3284ZM5.60783 60.1407H10.8569C10.7335 60.1398 10.6183 60.0799 10.5734 59.9852L10.0375 58.8566L9.37308 57.4536L8.2372 55.0631L7.0955 57.4536L6.6424 58.405L6.28793 59.1524L6.27093 59.1877L5.89856 59.9723C5.86077 60.0698 5.7447 60.1409 5.60805 60.1409L5.60783 60.1407ZM30.8971 54.2499V45.6523C30.8971 45.3649 31.197 45.1289 31.5669 45.1289H32.9133C33.2858 45.1289 33.5846 45.3649 33.5846 45.6523V54.2499C33.5846 56.0055 32.9193 57.4744 31.7259 58.5077C30.5241 59.5492 28.8112 60.1407 26.7228 60.1407C24.6271 60.1407 22.9162 59.5492 21.7188 58.5121C20.5261 57.4766 19.8626 56.0078 19.8626 54.2499V45.6523C19.8626 45.3649 20.1616 45.1289 20.5344 45.1289H21.855C22.2252 45.1289 22.5253 45.3649 22.5253 45.6523V54.2499C22.5253 55.4519 22.9234 56.4165 23.6576 57.0686C24.3609 57.6912 25.4016 58.0368 26.7228 58.0368C28.0448 58.0368 29.078 57.6941 29.774 57.0724C30.5049 56.4239 30.8971 55.457 30.8971 54.2499ZM47.7799 53.6696L52.0305 59.0517C52.1148 59.1376 52.1651 59.247 52.1651 59.3629C52.1651 59.6517 51.865 59.8855 51.4955 59.8855H49.9459V59.8834C49.7231 59.8834 49.5062 59.796 49.379 59.6369L45.0217 54.1269L44.9095 54.1329C44.7077 54.141 44.5149 54.147 44.355 54.147H41.4774V59.3627C41.4774 59.6515 41.1789 59.8852 40.8094 59.8852H39.4863C39.1162 59.8852 38.8176 59.6515 38.8176 59.3627V45.6519C38.8176 45.3644 39.116 45.1284 39.4863 45.1284H44.3548C46.4302 45.1284 48.1091 45.5416 49.2841 46.3098C50.4858 47.0936 51.139 48.2265 51.139 49.6481C51.139 50.7192 50.7579 51.6299 50.0454 52.352C49.4823 52.9222 48.7188 53.367 47.7797 53.6694L47.7799 53.6696ZM41.4777 47.2314V52.0634H44.3553C45.7492 52.0634 46.8149 51.8489 47.5095 51.4232C48.1436 51.0337 48.4774 50.44 48.4774 49.6483C48.4774 48.0383 46.9951 47.2312 44.3553 47.2312H41.4777V47.2314ZM66.9324 54.2499V45.6523C66.9324 45.3649 67.2319 45.1289 67.602 45.1289H68.951C69.3196 45.1289 69.6182 45.3649 69.6182 45.6523V54.2499C69.6182 56.0055 68.9533 57.4744 67.7597 58.5077C66.5616 59.5492 64.8456 60.1407 62.7597 60.1407C60.6628 60.1407 58.95 59.5492 57.7541 58.5121C56.5608 57.4766 55.8984 56.0078 55.8984 54.2499V45.6523C55.8984 45.3649 56.1983 45.1289 56.5679 45.1289H57.8908C58.2596 45.1289 58.5613 45.3649 58.5613 45.6523V54.2499C58.5613 55.4519 58.9573 56.4165 59.6929 57.0686C60.3985 57.6912 61.4362 58.0368 62.7597 58.0368C64.0788 58.0368 65.1133 57.6941 65.808 57.0724C66.5402 56.4239 66.9324 55.457 66.9324 54.2499ZM84.2598 53.2987L91.0644 45.3975C91.1785 45.2391 91.3972 45.1289 91.6492 45.1289H92.9727C93.34 45.1289 93.6416 45.3649 93.6416 45.6523V59.3631C93.6416 59.6519 93.3402 59.8857 92.9727 59.8857H91.6492C91.2784 59.8857 90.9781 59.6519 90.9781 59.3631V49.3287L85.1437 56.1306C85.0292 56.2919 84.8098 56.3999 84.5593 56.3999H83.934C83.7195 56.3975 83.5082 56.3169 83.3805 56.1668L77.5143 49.3287V59.3631C77.5143 59.6519 77.2142 59.8857 76.8461 59.8857H75.5232C75.1515 59.8857 74.8514 59.6519 74.8514 59.3631V45.6523C74.8514 45.3649 75.1513 45.1289 75.5232 45.1289H76.8461C77.0583 45.1304 77.2697 45.2112 77.3996 45.3606L84.2596 53.2987H84.2598Z" fill="#232323"/>
<path fill-rule="evenodd" clip-rule="evenodd" d="M45.6352 35.6336L63.9481 25.4669L59.0054 22.7228L43.3064 31.4382L54.1457 13.5708L59.0054 5.55954L60.8576 8.61332L61.4172 9.53431L63.907 13.6395L66.268 17.4554L70.4318 15.1448L68.1048 11.3092L65.6138 7.20309L65.0563 6.28322C63.3504 3.47015 62.3404 0.760651 59.0054 0.760651C57.2798 0.760651 55.7988 1.59506 54.904 3.0695L40.6647 26.5434C40.6647 27.1235 36.3625 31.1356 39.8493 34.7654C41.3792 36.3557 43.7062 36.7045 45.6352 35.6336Z" fill="#61A375"/>
<path fill-rule="evenodd" clip-rule="evenodd" d="M69.2847 22.5047L74.7049 31.4379L64.989 26.0442L60.046 28.7884L72.3761 35.6332C74.305 36.7041 76.6318 36.3554 78.162 34.765C79.691 33.1747 79.9509 30.8346 78.8061 28.9481L73.4825 20.1738L70.9924 16.0677L66.8376 18.3747L66.7947 18.3989L69.2847 22.5047Z" fill="#D7B56D"/>
<path d="M26.8294 67.7585C26.843 67.9971 26.8987 68.1915 26.9984 68.3401C27.1872 68.6186 27.5204 68.7586 27.9974 68.7586C28.2115 68.7586 28.406 68.7282 28.582 68.6667C28.922 68.5484 29.0913 68.3363 29.0913 68.0311C29.0913 67.8012 29.0197 67.6381 28.877 67.5412C28.7314 67.4455 28.5047 67.3623 28.1947 67.2918L27.6248 67.1627C27.2525 67.0786 26.9895 66.9858 26.8349 66.8851C26.567 66.7091 26.4344 66.4462 26.4344 66.097C26.4344 65.7187 26.5643 65.4087 26.8262 65.1664C27.0883 64.9237 27.4576 64.8027 27.9375 64.8027C28.3783 64.8027 28.7527 64.9094 29.0615 65.1223C29.3695 65.3346 29.524 65.6747 29.524 66.1431H28.9882C28.96 65.9171 28.8983 65.7451 28.8046 65.6248C28.6315 65.4049 28.3363 65.2955 27.9201 65.2955C27.5837 65.2955 27.3422 65.3659 27.1957 65.5078C27.0479 65.6485 26.9745 65.8127 26.9745 65.9995C26.9745 66.206 27.0606 66.3572 27.2328 66.452C27.3453 66.5138 27.6002 66.59 27.9972 66.682L28.5876 66.816C28.8719 66.8815 29.091 66.9706 29.2465 67.0831C29.5133 67.2795 29.647 67.5649 29.647 67.9394C29.647 68.4047 29.4771 68.7383 29.1389 68.9385C28.7999 69.1392 28.4058 69.2396 27.9572 69.2396C27.4341 69.2396 27.0246 69.1056 26.7285 68.8387C26.4333 68.5727 26.2877 68.213 26.2935 67.7585H26.8291H26.8294ZM35.3193 64.9082H38.3854V65.4246H35.8744V66.7015H38.1969V67.1885H35.8744V68.6148H38.4284V69.1163H35.3193V64.9082ZM46.028 66.8363C46.295 66.8363 46.507 66.7824 46.6624 66.676C46.8179 66.5692 46.8961 66.3757 46.8961 66.097C46.8961 65.797 46.7866 65.5926 46.5696 65.4841C46.4533 65.4272 46.2972 65.3979 46.1024 65.3979H44.7107V66.8361H46.0284L46.028 66.8363ZM44.1404 64.9082H46.0883C46.4088 64.9082 46.6729 64.9552 46.8812 65.0492C47.2761 65.2281 47.4745 65.5594 47.4745 66.0424C47.4745 66.2948 47.4217 66.501 47.3182 66.6614C47.2135 66.8218 47.0677 66.9507 46.8812 67.0486C47.0455 67.1151 47.1694 67.203 47.2515 67.3117C47.3347 67.4211 47.3817 67.5969 47.3915 67.8414L47.411 68.4056C47.4168 68.566 47.4304 68.6861 47.451 68.7644C47.4852 68.8975 47.5469 68.9835 47.6348 69.0217V69.1166H46.9359C46.9165 69.0803 46.9017 69.0333 46.8901 68.9756C46.8782 68.919 46.8684 68.8085 46.8617 68.6443L46.8264 67.9423C46.8138 67.6676 46.711 67.4828 46.5206 67.3889C46.4122 67.3381 46.2411 67.3117 46.0085 67.3117H44.7103V69.1166H44.1404V64.9085V64.9082ZM53.433 64.9082L54.6411 68.4915L55.8356 64.9082H56.4739L54.9394 69.1163H54.3352L52.8028 64.9082H53.4332H53.433ZM62.2807 67.7585C62.2944 67.9971 62.3501 68.1915 62.4498 68.3401C62.6386 68.6186 62.9718 68.7586 63.4488 68.7586C63.6629 68.7586 63.8574 68.7282 64.0334 68.6667C64.3734 68.5484 64.5427 68.3363 64.5427 68.0311C64.5427 67.8012 64.4711 67.6381 64.3284 67.5412C64.1828 67.4455 63.956 67.3623 63.6461 67.2918L63.0762 67.1627C62.7039 67.0786 62.4409 66.9858 62.2863 66.8851C62.0184 66.7091 61.8858 66.4462 61.8858 66.097C61.8858 65.7187 62.0157 65.4087 62.2776 65.1664C62.5397 64.9237 62.909 64.8027 63.3889 64.8027C63.8297 64.8027 64.2041 64.9094 64.5129 65.1223C64.8209 65.3346 64.9754 65.6747 64.9754 66.1431H64.4396C64.4114 65.9171 64.3497 65.7451 64.256 65.6248C64.0829 65.4049 63.7876 65.2955 63.3714 65.2955C63.0351 65.2955 62.7936 65.3659 62.6471 65.5078C62.4992 65.6485 62.4259 65.8127 62.4259 65.9995C62.4259 66.206 62.512 66.3572 62.6842 66.452C62.7967 66.5138 63.0516 66.59 63.4486 66.682L64.039 66.816C64.3233 66.8815 64.5424 66.9706 64.6979 67.0831C64.9647 67.2795 65.0984 67.5649 65.0984 67.9394C65.0984 68.4047 64.9284 68.7383 64.5903 68.9385C64.2513 69.1392 63.8572 69.2396 63.4086 69.2396C62.8855 69.2396 62.476 69.1056 62.1799 68.8387C61.8847 68.5727 61.7391 68.213 61.7449 67.7585H62.2805H62.2807ZM72.5321 64.7939C73.2741 64.7939 73.8243 65.0326 74.181 65.5096C74.4594 65.882 74.5992 66.3592 74.5992 66.939C74.5992 67.5676 74.44 68.0898 74.1204 68.5063C73.7471 68.9951 73.2133 69.2396 72.5202 69.2396C71.8732 69.2396 71.364 69.0253 70.9936 68.5982C70.6633 68.1857 70.498 67.6645 70.498 67.0339C70.498 66.4648 70.6398 65.978 70.9223 65.5733C71.2848 65.0541 71.8213 64.7939 72.5321 64.7939ZM72.5889 68.7293C73.0912 68.7293 73.4537 68.5492 73.6787 68.1895C73.9026 67.8298 74.0148 67.4162 74.0148 66.9477C74.0148 66.4531 73.8858 66.0552 73.6268 65.7541C73.3676 65.4518 73.0149 65.3013 72.5663 65.3013C72.1304 65.3013 71.7755 65.4501 71.5009 65.7491C71.2264 66.0482 71.0885 66.4883 71.0885 67.071C71.0885 67.5374 71.2068 67.9303 71.4423 68.2502C71.678 68.5698 72.06 68.7293 72.5889 68.7293ZM80.2285 64.9082H83.1462V65.4246H80.7984V66.7015H82.8626V67.203H80.7984V69.1163H80.2285V64.9082ZM91.7135 64.9082V65.4098H90.2962V69.1163H89.7177V65.4098H88.3005V64.9082H91.7137H91.7135Z" fill="#232323"/>
<path fill-rule="evenodd" clip-rule="evenodd" d="M0.566798 66.7859H20.255C20.382 66.7859 20.4858 66.8897 20.4858 67.0167V67.0172C20.4858 67.1442 20.382 67.248 20.255 67.248H0.566798C0.439769 67.248 0.335999 67.1442 0.335999 67.0172V67.0167C0.335999 66.8897 0.439769 66.7859 0.566798 66.7859Z" fill="#232323"/>
<path fill-rule="evenodd" clip-rule="evenodd" d="M97.7461 66.786H117.434C117.561 66.786 117.665 66.8898 117.665 67.0169V67.0174C117.665 67.1444 117.561 67.2482 117.434 67.2482H97.7461C97.6191 67.2482 97.5153 67.1444 97.5153 67.0174V67.0169C97.5153 66.8898 97.6191 66.786 97.7461 66.786Z" fill="#232323"/>
</svg>
