<svg width="219" height="117" viewBox="0 0 219 117" fill="none" xmlns="http://www.w3.org/2000/svg">
<g clip-path="url(#clip0_143_1269)">
<path d="M41.6378 36.4839H31.6216C30.1127 34.1681 28.7522 32.2322 27.5403 30.6765C26.3284 29.1207 24.7778 27.167 22.8887 24.8155H21.9619V32.7607C21.9619 33.1882 22.0392 33.5505 22.1936 33.8474C22.3481 34.1443 22.657 34.3937 23.1204 34.5956C23.3343 34.6906 23.6491 34.7856 24.065 34.8806C24.4927 34.9756 24.9145 35.0469 25.3304 35.0944V36.4839H11.8924V35.0944C12.2132 35.0707 12.6647 35.035 13.2469 34.9875C13.8409 34.94 14.2568 34.8688 14.4944 34.7737C14.9221 34.6075 15.2192 34.3759 15.3855 34.079C15.5519 33.7821 15.635 33.408 15.635 32.9567V15.0354C15.635 14.6197 15.5637 14.2694 15.4212 13.9843C15.2786 13.6993 14.9697 13.444 14.4944 13.2184C14.1261 13.052 13.6805 12.9155 13.1577 12.8086C12.635 12.7017 12.2132 12.6305 11.8924 12.5949V11.2053H25.7759V12.5949C25.4076 12.6305 24.962 12.6839 24.4393 12.7551C23.9283 12.8145 23.4887 12.9036 23.1204 13.0223C22.657 13.1768 22.3481 13.4202 22.1936 13.7528C22.0392 14.0853 21.9619 14.4535 21.9619 14.8572V23.3725H22.7105C23.6372 22.5294 24.7184 21.5139 25.9541 20.3263C27.1898 19.1387 28.1463 18.1648 28.8236 17.4047C29.7741 16.3477 30.4691 15.5105 30.9087 14.8929C31.3602 14.2753 31.586 13.7409 31.586 13.2896C31.586 13.0877 31.3721 12.9333 30.9444 12.8264C30.5166 12.7195 29.8632 12.6423 28.9839 12.5949V11.2053H39.9803V12.5949C38.6495 12.7373 37.5327 12.9808 36.6297 13.3252C35.7267 13.6577 34.8296 14.2218 33.9385 15.0176C32.6672 16.1577 31.6157 17.1494 30.784 17.9926C29.9642 18.8239 28.9067 19.8928 27.6116 21.1992C28.7522 22.5887 30.1245 24.293 31.7286 26.3119C33.3326 28.319 34.9306 30.2786 36.5227 32.1907C36.9267 32.6776 37.3901 33.1467 37.9129 33.598C38.4356 34.0374 39.0119 34.3937 39.6416 34.6668C39.9387 34.7975 40.2773 34.8985 40.6575 34.9697C41.0377 35.041 41.3644 35.0825 41.6378 35.0944V36.4839ZM66.0077 17.6541H64.6535C64.3086 16.6921 63.7145 15.7183 62.8712 14.7326C62.0276 13.7468 61.1899 13.1649 60.3582 12.9867C60.0018 12.9036 59.5027 12.8561 58.8612 12.8442C58.2315 12.8205 57.7086 12.8086 57.2928 12.8086H53.6214V22.5709H56.2235C56.8769 22.5709 57.471 22.4937 58.0057 22.3393C58.5403 22.1849 59.0275 21.888 59.4671 21.4486C59.7404 21.1754 60.0137 20.6945 60.2869 20.0056C60.5721 19.3168 60.7563 18.717 60.8395 18.2064H62.1939V28.7525H60.8395C60.7682 28.2537 60.584 27.6302 60.2869 26.882C60.0018 26.1219 59.7285 25.5993 59.4671 25.3143C59.0751 24.8868 58.6116 24.5958 58.077 24.4414C57.5423 24.2751 56.9245 24.192 56.2235 24.192H53.6214V31.4781C53.6214 32.2381 53.6749 32.8438 53.7818 33.2952C53.9006 33.7346 54.1145 34.073 54.4235 34.3106C54.7205 34.5362 55.1244 34.6846 55.6353 34.7559C56.1581 34.8272 56.8651 34.8628 57.7562 34.8628C58.1721 34.8628 58.671 34.8569 59.2533 34.845C59.8355 34.8332 60.3463 34.7975 60.786 34.7381C61.285 34.6787 61.7484 34.5897 62.1761 34.4709C62.6158 34.3521 62.9424 34.1799 63.1563 33.9543C63.7265 33.3724 64.3684 32.4876 65.0814 31.2999C65.7938 30.1004 66.2632 29.2038 66.4892 28.61H67.7899L67.3092 36.4839H43.5875V35.0944C43.9202 35.0707 44.3717 35.0231 44.9419 34.9519C45.5123 34.8806 45.9162 34.7975 46.1539 34.7025C46.6054 34.5125 46.9084 34.275 47.0629 33.9899C47.2173 33.693 47.2945 33.3189 47.2945 32.8676V15.0354C47.2945 14.6079 47.2292 14.2575 47.0985 13.9843C46.9678 13.6993 46.6529 13.444 46.1539 13.2184C45.8449 13.0758 45.4113 12.9452 44.8528 12.8264C44.2945 12.7076 43.8726 12.6305 43.5875 12.5949V11.2053H66.0077V17.6541ZM94.1744 17.6541H92.8195C92.4753 16.6921 91.8812 15.7183 91.0373 14.7326C90.194 13.7468 89.3564 13.1649 88.5245 12.9867C88.1683 12.9036 87.6692 12.8561 87.0273 12.8442C86.398 12.8205 85.8751 12.8086 85.4591 12.8086H81.7877V22.5709H84.3899C85.0431 22.5709 85.6372 22.4937 86.1721 22.3393C86.7064 22.1849 87.1941 21.888 87.6334 21.4486C87.9065 21.1754 88.1802 20.6945 88.4534 20.0056C88.7384 19.3168 88.9228 18.717 89.0059 18.2064H90.3602V28.7525H89.0059C88.9348 28.2537 88.7504 27.6302 88.4534 26.882C88.1683 26.1219 87.8945 25.5993 87.6334 25.3143C87.2413 24.8868 86.7781 24.5958 86.2432 24.4414C85.7089 24.2751 85.0909 24.192 84.3899 24.192H81.7877V31.4781C81.7877 32.2381 81.8412 32.8438 81.9482 33.2952C82.0671 33.7346 82.2811 34.073 82.5894 34.3106C82.8865 34.5362 83.2905 34.6846 83.8015 34.7559C84.3244 34.8272 85.0312 34.8628 85.9223 34.8628C86.3382 34.8628 86.8373 34.8569 87.4194 34.845C88.0015 34.8332 88.5125 34.7975 88.9524 34.7381C89.4514 34.6787 89.9146 34.5897 90.3425 34.4709C90.7818 34.3521 91.109 34.1799 91.3224 33.9543C91.8932 33.3724 92.5344 32.4876 93.2474 31.2999C93.9604 30.1004 94.4299 29.2038 94.6552 28.61H95.9566L95.4752 36.4839H71.754V35.0944C72.0862 35.0707 72.5381 35.0231 73.1082 34.9519C73.6784 34.8806 74.0824 34.7975 74.3203 34.7025C74.7715 34.5125 75.0748 34.275 75.229 33.9899C75.3838 33.693 75.4606 33.3189 75.4606 32.8676V15.0354C75.4606 14.6079 75.3958 14.2575 75.2649 13.9843C75.134 13.6993 74.8193 13.444 74.3203 13.2184C74.0113 13.0758 73.5777 12.9452 73.0189 12.8264C72.4607 12.7076 72.039 12.6305 71.754 12.5949V11.2053H94.1744V17.6541ZM128.953 36.4839H119.257C117.582 33.9187 116.186 31.876 115.069 30.3558C113.964 28.8356 112.586 27.0779 110.934 25.0827H109.954V32.7607C109.954 33.1882 110.031 33.5505 110.186 33.8474C110.352 34.1443 110.661 34.3937 111.112 34.5956C111.338 34.6906 111.689 34.7916 112.164 34.8985C112.651 34.9934 113.067 35.0588 113.412 35.0944V36.4839H99.92V35.0944C100.265 35.0588 100.716 35.0113 101.274 34.9519C101.845 34.8806 102.249 34.7975 102.486 34.7025C102.938 34.5125 103.241 34.275 103.396 33.9899C103.55 33.693 103.627 33.3189 103.627 32.8676V15.0354C103.627 14.6079 103.562 14.2515 103.431 13.9665C103.301 13.6815 102.985 13.4321 102.486 13.2184C102.106 13.0639 101.655 12.9333 101.132 12.8264C100.621 12.7195 100.217 12.6423 99.92 12.5949V11.2053H114.107C117.279 11.2053 119.685 11.7041 121.325 12.7017C122.976 13.6874 123.802 15.1838 123.802 17.1909C123.802 18.9605 123.291 20.3857 122.269 21.4664C121.259 22.5353 119.715 23.3725 117.636 23.9782C118.443 25.0233 119.382 26.2347 120.451 27.6124C121.532 28.99 122.655 30.3973 123.82 31.8344C124.188 32.2975 124.687 32.8676 125.317 33.5445C125.958 34.2096 126.523 34.6194 127.01 34.7737C127.283 34.8569 127.628 34.9281 128.044 34.9875C128.471 35.0469 128.775 35.0825 128.953 35.0944V36.4839ZM116.816 17.6898C116.816 16.0033 116.341 14.7741 115.39 14.0022C114.451 13.2184 113.108 12.8264 111.362 12.8264H109.954V23.4082H111.309C113.055 23.4082 114.41 22.9509 115.372 22.0364C116.334 21.122 116.816 19.6731 116.816 17.6898ZM154.374 18.4379H153.002C152.634 17.3572 152.04 16.1993 151.22 14.9642C150.411 13.729 149.663 13.0639 148.974 12.9689C148.594 12.9214 148.125 12.8799 147.566 12.8442C147.008 12.8086 146.527 12.7908 146.123 12.7908H145.285V32.6182C145.285 33.0458 145.362 33.4258 145.517 33.7583C145.671 34.079 145.974 34.3343 146.425 34.5244C146.699 34.6312 147.121 34.744 147.691 34.8628C148.273 34.9697 148.766 35.0469 149.17 35.0944V36.4839H135.073V35.0944C135.418 35.0588 135.898 35.0113 136.516 34.9519C137.146 34.8806 137.574 34.7975 137.799 34.7025C138.263 34.5125 138.572 34.2572 138.726 33.9365C138.881 33.6158 138.958 33.2358 138.958 32.7964V12.7908H138.12C137.716 12.7908 137.235 12.8086 136.677 12.8442C136.119 12.8799 135.649 12.9214 135.269 12.9689C134.58 13.0639 133.825 13.729 133.005 14.9642C132.197 16.1993 131.61 17.3572 131.241 18.4379H129.869V11.2053H154.374V18.4379ZM188.546 36.4839H174.877V35.0944C175.174 35.0707 175.608 35.035 176.178 34.9875C176.748 34.94 177.14 34.8688 177.354 34.7737C177.794 34.5956 178.097 34.364 178.264 34.079C178.43 33.7821 178.513 33.408 178.513 32.9567V24.2454H167.712V32.7607C167.712 33.1645 167.796 33.5267 167.962 33.8474C168.14 34.1681 168.437 34.4174 168.853 34.5956C169.079 34.6906 169.465 34.7916 170.011 34.8985C170.558 35.0053 171.004 35.0707 171.348 35.0944V36.4839H157.679V35.0944C157.976 35.0825 158.409 35.0469 158.98 34.9875C159.562 34.9163 159.983 34.8332 160.245 34.7381C160.672 34.5837 160.969 34.3521 161.136 34.0433C161.302 33.7227 161.385 33.3486 161.385 32.921V15.0354C161.385 14.6197 161.309 14.2694 161.154 13.9843C161.012 13.6993 160.708 13.4499 160.245 13.2362C159.9 13.0817 159.449 12.9452 158.89 12.8264C158.332 12.6958 157.928 12.6186 157.679 12.5949V11.2053H171.348V12.5949C170.98 12.6186 170.54 12.678 170.03 12.773C169.519 12.868 169.127 12.9571 168.853 13.0402C168.39 13.1946 168.081 13.444 167.926 13.7884C167.784 14.121 167.712 14.4772 167.712 14.8572V22.4106H178.513V15.0354C178.513 14.6197 178.435 14.2694 178.281 13.9843C178.126 13.6993 177.818 13.4499 177.354 13.2362C177.045 13.0936 176.63 12.963 176.107 12.8442C175.596 12.7136 175.186 12.6305 174.877 12.5949V11.2053H188.546V12.5949C188.166 12.6186 187.739 12.672 187.263 12.7551C186.788 12.8264 186.36 12.9214 185.98 13.0402C185.529 13.1946 185.226 13.4381 185.071 13.7706C184.917 14.1031 184.84 14.4653 184.84 14.8572V32.7607C184.84 33.1882 184.917 33.5505 185.071 33.8474C185.226 34.1443 185.529 34.3937 185.98 34.5956C186.265 34.7143 186.675 34.8213 187.21 34.9163C187.757 35.0113 188.202 35.0707 188.546 35.0944V36.4839ZM206.75 36.4839H192.724V35.0944C193.045 35.0707 193.514 35.035 194.132 34.9875C194.762 34.94 195.196 34.8688 195.433 34.7737C195.873 34.5956 196.17 34.364 196.324 34.079C196.491 33.7821 196.574 33.408 196.574 32.9567V15.0354C196.574 14.6316 196.497 14.2753 196.342 13.9665C196.188 13.6577 195.885 13.4084 195.433 13.2184C195.148 13.0996 194.726 12.9808 194.168 12.8621C193.609 12.7314 193.128 12.6423 192.724 12.5949V11.2053H206.75V12.5949C206.394 12.6305 205.948 12.6839 205.414 12.7551C204.879 12.8145 204.428 12.9036 204.059 13.0223C203.596 13.1768 203.287 13.4202 203.133 13.7528C202.978 14.0734 202.901 14.4416 202.901 14.8572V32.7607C202.901 33.1882 202.978 33.5564 203.133 33.8652C203.299 34.1621 203.608 34.4056 204.059 34.5956C204.309 34.7025 204.718 34.8094 205.289 34.9163C205.871 35.0113 206.358 35.0707 206.75 35.0944V36.4839Z" fill="#400F17"/>
<mask id="mask0_143_1269" style="mask-type:luminance" maskUnits="userSpaceOnUse" x="10" y="10" width="198" height="28">
<path d="M207.672 10.0645H10.6983V37.1128H207.672V10.0645Z" fill="white"/>
<path d="M41.6378 36.4839H31.6216C30.1127 34.1681 28.7522 32.2322 27.5403 30.6765C26.3284 29.1207 24.7778 27.167 22.8887 24.8155H21.9619V32.7607C21.9619 33.1882 22.0392 33.5505 22.1936 33.8474C22.3481 34.1443 22.657 34.3937 23.1204 34.5956C23.3343 34.6906 23.6491 34.7856 24.065 34.8806C24.4927 34.9756 24.9145 35.0469 25.3304 35.0944V36.4839H11.8924V35.0944C12.2132 35.0707 12.6647 35.035 13.2469 34.9875C13.8409 34.94 14.2568 34.8688 14.4944 34.7737C14.9221 34.6075 15.2192 34.3759 15.3855 34.079C15.5519 33.7821 15.635 33.408 15.635 32.9567V15.0354C15.635 14.6197 15.5637 14.2694 15.4212 13.9843C15.2786 13.6993 14.9697 13.444 14.4944 13.2184C14.1261 13.052 13.6805 12.9155 13.1577 12.8086C12.635 12.7017 12.2132 12.6305 11.8924 12.5949V11.2053H25.7759V12.5949C25.4076 12.6305 24.962 12.6839 24.4393 12.7551C23.9283 12.8145 23.4887 12.9036 23.1204 13.0223C22.657 13.1768 22.3481 13.4202 22.1936 13.7528C22.0392 14.0853 21.9619 14.4535 21.9619 14.8572V23.3725H22.7105C23.6372 22.5294 24.7184 21.5139 25.9541 20.3263C27.1898 19.1387 28.1463 18.1648 28.8236 17.4047C29.7741 16.3477 30.4691 15.5105 30.9087 14.8929C31.3602 14.2753 31.586 13.7409 31.586 13.2896C31.586 13.0877 31.3721 12.9333 30.9444 12.8264C30.5166 12.7195 29.8632 12.6423 28.9839 12.5949V11.2053H39.9803V12.5949C38.6495 12.7373 37.5327 12.9808 36.6297 13.3252C35.7267 13.6577 34.8296 14.2218 33.9385 15.0176C32.6672 16.1577 31.6157 17.1494 30.784 17.9926C29.9642 18.8239 28.9067 19.8928 27.6116 21.1992C28.7522 22.5887 30.1245 24.293 31.7286 26.3119C33.3326 28.319 34.9306 30.2786 36.5227 32.1907C36.9267 32.6776 37.3901 33.1467 37.9129 33.598C38.4356 34.0374 39.0119 34.3937 39.6416 34.6668C39.9387 34.7975 40.2773 34.8985 40.6575 34.9697C41.0377 35.041 41.3644 35.0825 41.6378 35.0944V36.4839ZM66.0077 17.6541H64.6535C64.3086 16.6921 63.7145 15.7183 62.8712 14.7326C62.0276 13.7468 61.1899 13.1649 60.3582 12.9867C60.0018 12.9036 59.5027 12.8561 58.8612 12.8442C58.2315 12.8205 57.7086 12.8086 57.2928 12.8086H53.6214V22.5709H56.2235C56.8769 22.5709 57.471 22.4937 58.0057 22.3393C58.5403 22.1849 59.0275 21.888 59.4671 21.4486C59.7404 21.1754 60.0137 20.6945 60.2869 20.0056C60.5721 19.3168 60.7563 18.717 60.8395 18.2064H62.1939V28.7525H60.8395C60.7682 28.2537 60.584 27.6302 60.2869 26.882C60.0018 26.1219 59.7285 25.5993 59.4671 25.3143C59.0751 24.8868 58.6116 24.5958 58.077 24.4414C57.5423 24.2751 56.9245 24.192 56.2235 24.192H53.6214V31.4781C53.6214 32.2381 53.6749 32.8438 53.7818 33.2952C53.9006 33.7346 54.1145 34.073 54.4235 34.3106C54.7205 34.5362 55.1244 34.6846 55.6353 34.7559C56.1581 34.8272 56.8651 34.8628 57.7562 34.8628C58.1721 34.8628 58.671 34.8569 59.2533 34.845C59.8355 34.8332 60.3463 34.7975 60.786 34.7381C61.285 34.6787 61.7484 34.5897 62.1761 34.4709C62.6158 34.3521 62.9424 34.1799 63.1563 33.9543C63.7265 33.3724 64.3684 32.4876 65.0814 31.2999C65.7938 30.1004 66.2632 29.2038 66.4892 28.61H67.7899L67.3092 36.4839H43.5875V35.0944C43.9202 35.0707 44.3717 35.0231 44.9419 34.9519C45.5123 34.8806 45.9162 34.7975 46.1539 34.7025C46.6054 34.5125 46.9084 34.275 47.0629 33.9899C47.2173 33.693 47.2945 33.3189 47.2945 32.8676V15.0354C47.2945 14.6079 47.2292 14.2575 47.0985 13.9843C46.9678 13.6993 46.6529 13.444 46.1539 13.2184C45.8449 13.0758 45.4113 12.9452 44.8528 12.8264C44.2945 12.7076 43.8726 12.6305 43.5875 12.5949V11.2053H66.0077V17.6541ZM94.1744 17.6541H92.8195C92.4753 16.6921 91.8812 15.7183 91.0373 14.7326C90.194 13.7468 89.3564 13.1649 88.5245 12.9867C88.1683 12.9036 87.6692 12.8561 87.0273 12.8442C86.398 12.8205 85.8751 12.8086 85.4591 12.8086H81.7877V22.5709H84.3899C85.0431 22.5709 85.6372 22.4937 86.1721 22.3393C86.7064 22.1849 87.1941 21.888 87.6334 21.4486C87.9065 21.1754 88.1802 20.6945 88.4534 20.0056C88.7384 19.3168 88.9228 18.717 89.0059 18.2064H90.3602V28.7525H89.0059C88.9348 28.2537 88.7504 27.6302 88.4534 26.882C88.1683 26.1219 87.8945 25.5993 87.6334 25.3143C87.2413 24.8868 86.7781 24.5958 86.2432 24.4414C85.7089 24.2751 85.0909 24.192 84.3899 24.192H81.7877V31.4781C81.7877 32.2381 81.8412 32.8438 81.9482 33.2952C82.0671 33.7346 82.2811 34.073 82.5894 34.3106C82.8865 34.5362 83.2905 34.6846 83.8015 34.7559C84.3244 34.8272 85.0312 34.8628 85.9223 34.8628C86.3382 34.8628 86.8373 34.8569 87.4194 34.845C88.0015 34.8332 88.5125 34.7975 88.9524 34.7381C89.4514 34.6787 89.9146 34.5897 90.3425 34.4709C90.7818 34.3521 91.109 34.1799 91.3224 33.9543C91.8932 33.3724 92.5344 32.4876 93.2474 31.2999C93.9604 30.1004 94.4299 29.2038 94.6552 28.61H95.9566L95.4752 36.4839H71.754V35.0944C72.0862 35.0707 72.5381 35.0231 73.1082 34.9519C73.6784 34.8806 74.0824 34.7975 74.3203 34.7025C74.7715 34.5125 75.0748 34.275 75.229 33.9899C75.3838 33.693 75.4606 33.3189 75.4606 32.8676V15.0354C75.4606 14.6079 75.3958 14.2575 75.2649 13.9843C75.134 13.6993 74.8193 13.444 74.3203 13.2184C74.0113 13.0758 73.5777 12.9452 73.0189 12.8264C72.4607 12.7076 72.039 12.6305 71.754 12.5949V11.2053H94.1744V17.6541ZM128.953 36.4839H119.257C117.582 33.9187 116.186 31.876 115.069 30.3558C113.964 28.8356 112.586 27.0779 110.934 25.0827H109.954V32.7607C109.954 33.1882 110.031 33.5505 110.186 33.8474C110.352 34.1443 110.661 34.3937 111.112 34.5956C111.338 34.6906 111.689 34.7916 112.164 34.8985C112.651 34.9934 113.067 35.0588 113.412 35.0944V36.4839H99.92V35.0944C100.265 35.0588 100.716 35.0113 101.274 34.9519C101.845 34.8806 102.249 34.7975 102.486 34.7025C102.938 34.5125 103.241 34.275 103.396 33.9899C103.55 33.693 103.627 33.3189 103.627 32.8676V15.0354C103.627 14.6079 103.562 14.2515 103.431 13.9665C103.301 13.6815 102.985 13.4321 102.486 13.2184C102.106 13.0639 101.655 12.9333 101.132 12.8264C100.621 12.7195 100.217 12.6423 99.92 12.5949V11.2053H114.107C117.279 11.2053 119.685 11.7041 121.325 12.7017C122.976 13.6874 123.802 15.1838 123.802 17.1909C123.802 18.9605 123.291 20.3857 122.269 21.4664C121.259 22.5353 119.715 23.3725 117.636 23.9782C118.443 25.0233 119.382 26.2347 120.451 27.6124C121.532 28.99 122.655 30.3973 123.82 31.8344C124.188 32.2975 124.687 32.8676 125.317 33.5445C125.958 34.2096 126.523 34.6194 127.01 34.7737C127.283 34.8569 127.628 34.9281 128.044 34.9875C128.471 35.0469 128.775 35.0825 128.953 35.0944V36.4839ZM116.816 17.6898C116.816 16.0033 116.341 14.7741 115.39 14.0022C114.451 13.2184 113.108 12.8264 111.362 12.8264H109.954V23.4082H111.309C113.055 23.4082 114.41 22.9509 115.372 22.0364C116.334 21.122 116.816 19.6731 116.816 17.6898ZM154.374 18.4379H153.002C152.634 17.3572 152.04 16.1993 151.22 14.9642C150.411 13.729 149.663 13.0639 148.974 12.9689C148.594 12.9214 148.125 12.8799 147.566 12.8442C147.008 12.8086 146.527 12.7908 146.123 12.7908H145.285V32.6182C145.285 33.0458 145.362 33.4258 145.517 33.7583C145.671 34.079 145.974 34.3343 146.425 34.5244C146.699 34.6312 147.121 34.744 147.691 34.8628C148.273 34.9697 148.766 35.0469 149.17 35.0944V36.4839H135.073V35.0944C135.418 35.0588 135.898 35.0113 136.516 34.9519C137.146 34.8806 137.574 34.7975 137.799 34.7025C138.263 34.5125 138.572 34.2572 138.726 33.9365C138.881 33.6158 138.958 33.2358 138.958 32.7964V12.7908H138.12C137.716 12.7908 137.235 12.8086 136.677 12.8442C136.119 12.8799 135.649 12.9214 135.269 12.9689C134.58 13.0639 133.825 13.729 133.005 14.9642C132.197 16.1993 131.61 17.3572 131.241 18.4379H129.869V11.2053H154.374V18.4379ZM188.546 36.4839H174.877V35.0944C175.174 35.0707 175.608 35.035 176.178 34.9875C176.748 34.94 177.14 34.8688 177.354 34.7737C177.794 34.5956 178.097 34.364 178.264 34.079C178.43 33.7821 178.513 33.408 178.513 32.9567V24.2454H167.712V32.7607C167.712 33.1645 167.796 33.5267 167.962 33.8474C168.14 34.1681 168.437 34.4174 168.853 34.5956C169.079 34.6906 169.465 34.7916 170.011 34.8985C170.558 35.0053 171.004 35.0707 171.348 35.0944V36.4839H157.679V35.0944C157.976 35.0825 158.409 35.0469 158.98 34.9875C159.562 34.9163 159.983 34.8332 160.245 34.7381C160.672 34.5837 160.969 34.3521 161.136 34.0433C161.302 33.7227 161.385 33.3486 161.385 32.921V15.0354C161.385 14.6197 161.309 14.2694 161.154 13.9843C161.012 13.6993 160.708 13.4499 160.245 13.2362C159.9 13.0817 159.449 12.9452 158.89 12.8264C158.332 12.6958 157.928 12.6186 157.679 12.5949V11.2053H171.348V12.5949C170.98 12.6186 170.54 12.678 170.03 12.773C169.519 12.868 169.127 12.9571 168.853 13.0402C168.39 13.1946 168.081 13.444 167.926 13.7884C167.784 14.121 167.712 14.4772 167.712 14.8572V22.4106H178.513V15.0354C178.513 14.6197 178.435 14.2694 178.281 13.9843C178.126 13.6993 177.818 13.4499 177.354 13.2362C177.045 13.0936 176.63 12.963 176.107 12.8442C175.596 12.7136 175.186 12.6305 174.877 12.5949V11.2053H188.546V12.5949C188.166 12.6186 187.739 12.672 187.263 12.7551C186.788 12.8264 186.36 12.9214 185.98 13.0402C185.529 13.1946 185.226 13.4381 185.071 13.7706C184.917 14.1031 184.84 14.4653 184.84 14.8572V32.7607C184.84 33.1882 184.917 33.5505 185.071 33.8474C185.226 34.1443 185.529 34.3937 185.98 34.5956C186.265 34.7143 186.675 34.8213 187.21 34.9163C187.757 35.0113 188.202 35.0707 188.546 35.0944V36.4839ZM206.75 36.4839H192.724V35.0944C193.045 35.0707 193.514 35.035 194.132 34.9875C194.762 34.94 195.196 34.8688 195.433 34.7737C195.873 34.5956 196.17 34.364 196.324 34.079C196.491 33.7821 196.574 33.408 196.574 32.9567V15.0354C196.574 14.6316 196.497 14.2753 196.342 13.9665C196.188 13.6577 195.885 13.4084 195.433 13.2184C195.148 13.0996 194.726 12.9808 194.168 12.8621C193.609 12.7314 193.128 12.6423 192.724 12.5949V11.2053H206.75V12.5949C206.394 12.6305 205.948 12.6839 205.414 12.7551C204.879 12.8145 204.428 12.9036 204.059 13.0223C203.596 13.1768 203.287 13.4202 203.133 13.7528C202.978 14.0734 202.901 14.4416 202.901 14.8572V32.7607C202.901 33.1882 202.978 33.5564 203.133 33.8652C203.299 34.1621 203.608 34.4056 204.059 34.5956C204.309 34.7025 204.718 34.8094 205.289 34.9163C205.871 35.0113 206.358 35.0707 206.75 35.0944V36.4839Z" fill="black"/>
</mask>
<g mask="url(#mask0_143_1269)">
<path d="M41.6378 36.4838V37.1128H42.2671V36.4838H41.6378ZM31.6216 36.4838L31.0943 36.8271L31.2805 37.1128H31.6216V36.4838ZM22.8888 24.8154L23.3794 24.4215L23.1905 24.1864H22.8888V24.8154ZM21.962 24.8154V24.1864H21.3327V24.8154H21.962ZM23.1205 34.5955L23.376 34.0206L23.3719 34.0189L23.1205 34.5955ZM24.065 34.8805L23.9248 35.4937L23.9285 35.4946L24.065 34.8805ZM25.3304 35.0943H25.9597V34.5331L25.4018 34.4693L25.3304 35.0943ZM25.3304 36.4838V37.1128H25.9597V36.4838H25.3304ZM11.8924 36.4838H11.2631V37.1128H11.8924V36.4838ZM11.8924 35.0943L11.8459 34.4669L11.2631 34.5101V35.0943H11.8924ZM13.2469 34.9874L13.1967 34.3604L13.1957 34.3604L13.2469 34.9874ZM14.4944 34.7736L14.2664 34.1873L14.2607 34.1896L14.4944 34.7736ZM14.4944 13.2182L14.7645 12.65L14.759 12.6474L14.7535 12.6449L14.4944 13.2182ZM11.8924 12.5947H11.2631V13.1577L11.8229 13.2199L11.8924 12.5947ZM11.8924 11.2052V10.5762H11.2631V11.2052H11.8924ZM25.776 11.2052H26.4053V10.5762H25.776V11.2052ZM25.776 12.5947L25.8366 13.2208L26.4053 13.1658V12.5947H25.776ZM24.4393 12.755L24.512 13.3799L24.5182 13.3791L24.5243 13.3783L24.4393 12.755ZM23.1205 13.0222L22.9272 12.4236L22.9214 12.4255L23.1205 13.0222ZM21.962 23.3724H21.3327V24.0014H21.962V23.3724ZM22.7105 23.3724V24.0014H22.9541L23.1341 23.8376L22.7105 23.3724ZM28.8236 17.4046L28.3555 16.9841L28.3536 16.9863L28.8236 17.4046ZM30.9087 14.8928L30.4006 14.5216L30.396 14.5281L30.9087 14.8928ZM28.9839 12.5947H28.3546V13.1907L28.95 13.2228L28.9839 12.5947ZM28.9839 11.2052V10.5762H28.3546V11.2052H28.9839ZM39.9803 11.2052H40.6096V10.5762H39.9803V11.2052ZM39.9803 12.5947L40.0473 13.2202L40.6096 13.1599V12.5947H39.9803ZM36.6297 13.3251L36.8473 13.9154L36.8541 13.9128L36.6297 13.3251ZM33.9386 15.0175L33.5193 14.5484L33.5183 14.5493L33.9386 15.0175ZM27.6117 21.1991L27.1646 20.7563L26.7651 21.1594L27.1251 21.5981L27.6117 21.1991ZM31.7286 26.3118L31.2358 26.703L31.2369 26.7044L31.7286 26.3118ZM36.5228 32.1905L37.0072 31.789L37.0064 31.7881L36.5228 32.1905ZM37.9129 33.5979L37.5015 34.074L37.5079 34.0793L37.9129 33.5979ZM39.6417 34.6667L39.8951 34.091L39.8922 34.0897L39.6417 34.6667ZM41.6378 35.0943H42.2671V34.492L41.6651 34.4659L41.6378 35.0943ZM41.6378 35.8548H31.6216V37.1128H41.6378V35.8548ZM32.149 36.1405C30.6339 33.8152 29.263 31.8639 28.0369 30.2899L27.0438 31.0627C28.2415 32.6004 29.5915 34.5207 31.0943 36.8271L32.149 36.1405ZM28.0369 30.2899C26.8223 28.7307 25.2696 26.7743 23.3794 24.4215L22.3981 25.2092C24.2861 27.5594 25.8346 29.5104 27.0438 31.0627L28.0369 30.2899ZM22.8888 24.1864H21.962V25.4444H22.8888V24.1864ZM21.3327 24.8154V32.7606H22.5913V24.8154H21.3327ZM21.3327 32.7606C21.3327 33.2619 21.4231 33.7295 21.6354 34.1375L22.752 33.557C22.6553 33.3712 22.5913 33.1144 22.5913 32.7606H21.3327ZM21.6354 34.1375C21.8827 34.613 22.338 34.9407 22.869 35.1721L23.3719 34.0189C22.9762 33.8464 22.8135 33.6754 22.752 33.557L21.6354 34.1375ZM22.8648 35.1703C23.1344 35.2901 23.496 35.3958 23.9248 35.4937L24.2053 34.2673C23.8024 34.1753 23.5342 34.0909 23.376 34.0206L22.8648 35.1703ZM23.9285 35.4946C24.3767 35.5941 24.8202 35.6692 25.2589 35.7192L25.4018 34.4693C25.0088 34.4244 24.6088 34.3569 24.2016 34.2665L23.9285 35.4946ZM24.7011 35.0943V36.4838H25.9597V35.0943H24.7011ZM25.3304 35.8548H11.8924V37.1128H25.3304V35.8548ZM12.5217 36.4838V35.0943H11.2631V36.4838H12.5217ZM11.9389 35.7216C12.262 35.6976 12.7154 35.6619 13.2981 35.6144L13.1957 34.3604C12.6141 34.4079 12.1644 34.4434 11.8459 34.4669L11.9389 35.7216ZM13.2971 35.6144C13.8929 35.5668 14.3938 35.4914 14.7282 35.3577L14.2607 34.1896C14.1199 34.2459 13.789 34.313 13.1967 34.3604L13.2971 35.6144ZM14.7226 35.3599C15.239 35.1591 15.6755 34.8488 15.9346 34.3862L14.8365 33.7715C14.763 33.9028 14.6054 34.0556 14.2664 34.1873L14.7226 35.3599ZM15.9346 34.3862C16.168 33.9697 16.2644 33.4816 16.2644 32.9566H15.0058C15.0058 33.3342 14.9358 33.5942 14.8365 33.7715L15.9346 34.3862ZM16.2644 32.9566V15.0353H15.0058V32.9566H16.2644ZM16.2644 15.0353C16.2644 14.5506 16.1816 14.0977 15.9841 13.7029L14.8584 14.2656C14.946 14.4408 15.0058 14.6887 15.0058 15.0353H16.2644ZM15.9841 13.7029C15.7494 13.2336 15.2908 12.8999 14.7645 12.65L14.2245 13.7864C14.6486 13.9878 14.808 14.1648 14.8584 14.2656L15.9841 13.7029ZM14.7535 12.6449C14.3315 12.4545 13.8388 12.3057 13.2839 12.1922L13.0317 13.4247C13.5223 13.5251 13.9207 13.6494 14.2354 13.7915L14.7535 12.6449ZM13.2839 12.1922C12.7528 12.0836 12.3099 12.0082 11.9619 11.9695L11.8229 13.2199C12.1165 13.2525 12.5173 13.3196 13.0317 13.4247L13.2839 12.1922ZM12.5217 12.5947V11.2052H11.2631V12.5947H12.5217ZM11.8924 11.8342H25.776V10.5762H11.8924V11.8342ZM25.1467 11.2052V12.5947H26.4053V11.2052H25.1467ZM25.7154 11.9686C25.3363 12.0053 24.882 12.0598 24.3542 12.1318L24.5243 13.3783C25.0421 13.3077 25.479 13.2554 25.8366 13.2208L25.7154 11.9686ZM24.3666 12.1302C23.8272 12.1929 23.3451 12.2888 22.9272 12.4236L23.3137 13.6209C23.6323 13.5182 24.0295 13.4359 24.512 13.3799L24.3666 12.1302ZM22.9214 12.4255C22.3506 12.6157 21.8722 12.951 21.6229 13.4878L22.7645 14.0175C22.8241 13.8892 22.9636 13.7376 23.3195 13.619L22.9214 12.4255ZM21.6229 13.4878C21.4261 13.9114 21.3327 14.3712 21.3327 14.8571H22.5913C22.5913 14.5355 22.6523 14.259 22.7645 14.0175L21.6229 13.4878ZM21.3327 14.8571V23.3724H22.5913V14.8571H21.3327ZM21.962 24.0014H22.7105V22.7434H21.962V24.0014ZM23.1341 23.8376C24.0664 22.9894 25.1519 21.9698 26.3904 20.7796L25.518 19.8727C24.2851 21.0577 23.2082 22.069 22.2869 22.9072L23.1341 23.8376ZM26.3904 20.7796C27.631 19.5872 28.6007 18.6005 29.2935 17.8229L28.3536 16.9863C27.692 17.7288 26.7487 18.6899 25.518 19.8727L26.3904 20.7796ZM29.2916 17.8251C30.2468 16.7628 30.9609 15.9045 31.4215 15.2574L30.396 14.5281C29.9774 15.1162 29.3013 15.9324 28.3555 16.9841L29.2916 17.8251ZM31.4169 15.2639C31.8978 14.6061 32.2153 13.9387 32.2153 13.2895H30.9567C30.9567 13.5429 30.8227 13.9443 30.4006 14.5216L31.4169 15.2639ZM32.2153 13.2895C32.2153 12.927 32.0097 12.668 31.7941 12.5123C31.5929 12.3672 31.3435 12.2776 31.097 12.2161L30.7918 13.4366C30.8772 13.4579 30.9413 13.479 30.9877 13.4979C31.035 13.5172 31.0547 13.5304 31.0571 13.5322C31.0595 13.5339 31.0335 13.5159 31.0063 13.4706C30.9761 13.4203 30.9567 13.3564 30.9567 13.2895H32.2153ZM31.097 12.2161C30.6087 12.094 29.9059 12.0146 29.0179 11.9666L28.95 13.2228C29.8205 13.2699 30.4247 13.3448 30.7918 13.4366L31.097 12.2161ZM29.6132 12.5947V11.2052H28.3546V12.5947H29.6132ZM28.9839 11.8342H39.9803V10.5762H28.9839V11.8342ZM39.351 11.2052V12.5947H40.6096V11.2052H39.351ZM39.9132 11.9693C38.5477 12.1155 37.3742 12.3679 36.4053 12.7374L36.8541 13.9128C37.6913 13.5935 38.7515 13.3589 40.0473 13.2202L39.9132 11.9693ZM36.4121 12.7349C35.4193 13.1005 34.4557 13.7123 33.5193 14.5484L34.3578 15.4866C35.2037 14.7312 36.0341 14.2149 36.8473 13.9154L36.4121 12.7349ZM33.5183 14.5493C32.2412 15.6945 31.1796 16.6955 30.3359 17.5508L31.2321 18.4341C32.0519 17.603 33.0933 16.6206 34.3588 15.4857L33.5183 14.5493ZM30.3359 17.5508C29.5166 18.3816 28.4595 19.4501 27.1646 20.7563L28.0587 21.6418C29.354 20.3352 30.4118 19.266 31.2321 18.4341L30.3359 17.5508ZM27.1251 21.5981C28.2629 22.9841 29.6331 24.6856 31.2358 26.703L32.2214 25.9206C30.6161 23.9 29.2416 22.193 28.0981 20.8001L27.1251 21.5981ZM31.2369 26.7044C32.8434 28.7147 34.4441 30.6775 36.0391 32.5929L37.0064 31.7881C35.4171 29.8794 33.8218 27.9231 32.2203 25.9192L31.2369 26.7044ZM36.0384 32.592C36.4665 33.1081 36.9547 33.602 37.5015 34.074L38.3242 33.1218C37.8255 32.6912 37.387 32.2468 37.0072 31.789L36.0384 32.592ZM37.5079 34.0793C38.0775 34.5581 38.7058 34.9465 39.3912 35.2438L39.8922 34.0897C39.318 33.8407 38.7939 33.5165 38.3179 33.1164L37.5079 34.0793ZM39.3882 35.2425C39.7368 35.3958 40.1228 35.5094 40.5416 35.5878L40.7735 34.3513C40.4318 34.2873 40.1407 34.199 39.8951 34.091L39.3882 35.2425ZM40.5416 35.5878C40.9401 35.6625 41.298 35.7092 41.6104 35.7227L41.6651 34.4659C41.4309 34.4557 41.1354 34.4191 40.7735 34.3513L40.5416 35.5878ZM41.0085 35.0943V36.4838H42.2671V35.0943H41.0085ZM66.0078 17.654V18.283H66.6371V17.654H66.0078ZM64.6535 17.654L64.0607 17.866L64.2105 18.283H64.6535V17.654ZM60.3583 12.9866L60.2153 13.5992L60.2208 13.6005L60.2264 13.6017L60.3583 12.9866ZM58.8612 12.8441L58.8375 13.4727L58.8435 13.4729L58.8496 13.4731L58.8612 12.8441ZM53.6214 12.8085V12.1795H52.9921V12.8085H53.6214ZM53.6214 22.5707H52.9921V23.1998H53.6214V22.5707ZM60.287 20.0055L59.7055 19.765L59.7037 19.7693L59.702 19.7736L60.287 20.0055ZM60.8395 18.2063V17.5772H60.3043L60.2184 18.1052L60.8395 18.2063ZM62.194 18.2063H62.8233V17.5772H62.194V18.2063ZM62.194 28.7524V29.3814H62.8233V28.7524H62.194ZM60.8395 28.7524L60.2165 28.8413L60.2937 29.3814H60.8395V28.7524ZM60.287 26.8819L59.6977 27.1027L59.6998 27.1083L59.702 27.1139L60.287 26.8819ZM58.077 24.4413L57.8901 25.0419L57.8962 25.0439L57.9024 25.0456L58.077 24.4413ZM53.6214 24.1919V23.5629H52.9921V24.1919H53.6214ZM53.7818 33.2951L53.1695 33.44L53.1718 33.4496L53.1744 33.4592L53.7818 33.2951ZM54.4235 34.3104L54.0397 34.8091L54.0427 34.8113L54.4235 34.3104ZM55.6354 34.7558L55.5484 35.3788L55.5503 35.3791L55.6354 34.7558ZM60.786 34.738L60.7116 34.1134L60.7067 34.114L60.7017 34.1146L60.786 34.738ZM62.1762 34.4708L62.012 33.8635L62.0077 33.8647L62.1762 34.4708ZM63.1564 33.9542L62.7069 33.514L62.7031 33.5177L62.6996 33.5216L63.1564 33.9542ZM65.0814 31.2998L65.6208 31.6235L65.622 31.6211L65.0814 31.2998ZM66.4892 28.6098V27.9808H66.055L65.9008 28.3864L66.4892 28.6098ZM67.79 28.6098L68.418 28.6482L68.4589 27.9808H67.79V28.6098ZM67.3092 36.4838V37.1128H67.9007L67.9372 36.5222L67.3092 36.4838ZM43.5875 36.4838H42.9582V37.1128H43.5875V36.4838ZM43.5875 35.0943L43.5427 34.4669L42.9582 34.5086V35.0943H43.5875ZM46.1539 34.7024L46.3876 35.2864L46.3929 35.2843L46.3982 35.2821L46.1539 34.7024ZM47.0629 33.9898L47.6162 34.2894L47.6188 34.2847L47.6212 34.28L47.0629 33.9898ZM47.0985 13.9842L46.5264 14.2463L46.5285 14.251L46.5308 14.2556L47.0985 13.9842ZM46.1539 13.2182L45.8902 13.7894L45.8946 13.7913L46.1539 13.2182ZM43.5875 12.5947H42.9582V13.15L43.5095 13.2189L43.5875 12.5947ZM43.5875 11.2052V10.5762H42.9582V11.2052H43.5875ZM66.0078 11.2052H66.6371V10.5762H66.0078V11.2052ZM66.0078 17.0249H64.6535V18.283H66.0078V17.0249ZM65.2457 17.442C64.8694 16.3914 64.23 15.3524 63.3496 14.3236L62.393 15.1413C63.1998 16.0839 63.7479 16.9926 64.0607 17.866L65.2457 17.442ZM63.3496 14.3236C62.4607 13.2851 61.5113 12.5903 60.4901 12.3716L60.2264 13.6017C60.8687 13.7393 61.5945 14.2083 62.393 15.1413L63.3496 14.3236ZM60.5012 12.3741C60.0812 12.2761 59.531 12.2274 58.8728 12.2152L58.8496 13.4731C59.4747 13.4846 59.9224 13.5309 60.2153 13.5992L60.5012 12.3741ZM58.8849 12.2156C58.2509 12.1916 57.7195 12.1795 57.2928 12.1795V13.4375C57.6979 13.4375 58.2121 13.4491 58.8375 13.4727L58.8849 12.2156ZM57.2928 12.1795H53.6214V13.4375H57.2928V12.1795ZM52.9921 12.8085V22.5707H54.2507V12.8085H52.9921ZM53.6214 23.1998H56.2235V21.9417H53.6214V23.1998ZM56.2235 23.1998C56.9261 23.1998 57.5801 23.1169 58.1804 22.9435L57.8311 21.7349C57.3621 21.8703 56.8279 21.9417 56.2235 21.9417V23.1998ZM58.1804 22.9435C58.8287 22.7563 59.4063 22.3988 59.9121 21.8933L59.0222 21.0036C58.6487 21.3769 58.2521 21.6133 57.8311 21.7349L58.1804 22.9435ZM59.9121 21.8933C60.2793 21.5263 60.5908 20.9461 60.872 20.2374L59.702 19.7736C59.4366 20.4425 59.2016 20.8244 59.0222 21.0036L59.9121 21.8933ZM60.8685 20.246C61.1648 19.5302 61.3671 18.8817 61.4606 18.3073L60.2184 18.1052C60.1456 18.5521 59.9795 19.1031 59.7055 19.765L60.8685 20.246ZM60.8395 18.8353H62.194V17.5772H60.8395V18.8353ZM61.5647 18.2063V28.7524H62.8233V18.2063H61.5647ZM62.194 28.1233H60.8395V29.3814H62.194V28.1233ZM61.4625 28.6634C61.3813 28.0954 61.1778 27.4202 60.8719 26.6498L59.702 27.1139C59.9903 27.8399 60.1551 28.4117 60.2165 28.8413L61.4625 28.6634ZM60.8763 26.661C60.587 25.8901 60.2795 25.2692 59.9311 24.8891L59.0033 25.7392C59.1776 25.9293 59.4166 26.3534 59.6977 27.1027L60.8763 26.661ZM59.9311 24.8891C59.4643 24.3802 58.9023 24.0248 58.2517 23.837L57.9024 25.0456C58.3211 25.1665 58.6858 25.3931 59.0033 25.7392L59.9311 24.8891ZM58.264 23.8406C57.6558 23.6515 56.9727 23.5629 56.2235 23.5629V24.8209C56.8764 24.8209 57.429 24.8985 57.8901 25.0419L58.264 23.8406ZM56.2235 23.5629H53.6214V24.8209H56.2235V23.5629ZM52.9921 24.1919V31.478H54.2507V24.1919H52.9921ZM52.9921 31.478C52.9921 32.2601 53.0465 32.9208 53.1695 33.44L54.3942 33.1501C54.3034 32.7667 54.2507 32.216 54.2507 31.478H52.9921ZM53.1744 33.4592C53.3228 34.0083 53.6039 34.474 54.0397 34.8091L54.8072 33.8119C54.6252 33.6719 54.4786 33.4606 54.3894 33.1309L53.1744 33.4592ZM54.0427 34.8113C54.4522 35.1223 54.9696 35.2981 55.5484 35.3788L55.7223 34.1328C55.2794 34.071 54.9888 33.9498 54.8042 33.8097L54.0427 34.8113ZM55.5503 35.3791C56.1139 35.4559 56.8532 35.4918 57.7563 35.4918V34.2337C56.8771 34.2337 56.2024 34.1982 55.7204 34.1325L55.5503 35.3791ZM57.7563 35.4918C58.1776 35.4918 58.6812 35.4857 59.2662 35.4738L59.2405 34.216C58.661 34.2278 58.1665 34.2337 57.7563 34.2337V35.4918ZM59.2662 35.4738C59.8653 35.4616 60.401 35.4248 60.8703 35.3614L60.7017 34.1146C60.2918 34.17 59.8057 34.2044 59.2405 34.216L59.2662 35.4738ZM60.8604 35.3626C61.3871 35.3 61.8823 35.2052 62.3446 35.0769L62.0077 33.8647C61.6146 33.9738 61.183 34.0573 60.7116 34.1134L60.8604 35.3626ZM62.3403 35.078C62.843 34.9422 63.291 34.7268 63.6133 34.3868L62.6996 33.5216C62.594 33.6328 62.3885 33.7618 62.012 33.8635L62.3403 35.078ZM63.6057 34.3944C64.2262 33.7612 64.8977 32.8283 65.6208 31.6235L64.5415 30.9762C63.8392 32.1466 63.2269 32.9833 62.7069 33.514L63.6057 34.3944ZM65.622 31.6211C66.3369 30.4182 66.8309 29.4817 67.0776 28.8333L65.9008 28.3864C65.6956 28.9255 65.2513 29.7824 64.5402 30.9786L65.622 31.6211ZM66.4892 29.2389H67.79V27.9808H66.4892V29.2389ZM67.1619 28.5715L66.6811 36.4454L67.9372 36.5222L68.418 28.6482L67.1619 28.5715ZM67.3092 35.8548H43.5875V37.1128H67.3092V35.8548ZM44.2168 36.4838V35.0943H42.9582V36.4838H44.2168ZM43.6324 35.7217C43.9813 35.6968 44.4454 35.6478 45.0201 35.5759L44.864 34.3276C44.298 34.3983 43.8591 34.4442 43.5427 34.4669L43.6324 35.7217ZM45.0201 35.5759C45.5944 35.5042 46.0687 35.414 46.3876 35.2864L45.9202 34.1183C45.7639 34.1809 45.4303 34.2568 44.864 34.3276L45.0201 35.5759ZM46.3982 35.2821C46.9172 35.0636 47.3665 34.7503 47.6162 34.2894L46.5095 33.6902C46.4504 33.7994 46.2937 33.961 45.9097 34.1226L46.3982 35.2821ZM47.6212 34.28C47.8357 33.8677 47.9239 33.3862 47.9239 32.8675H46.6652C46.6652 33.2514 46.599 33.518 46.5046 33.6996L47.6212 34.28ZM47.9239 32.8675V15.0353H46.6652V32.8675H47.9239ZM47.9239 15.0353C47.9239 14.55 47.8506 14.0982 47.6662 13.7128L46.5308 14.2556C46.6078 14.4166 46.6652 14.6655 46.6652 15.0353H47.9239ZM47.6706 13.7222C47.444 13.2279 46.957 12.8909 46.4133 12.6451L45.8946 13.7913C46.3489 13.9968 46.4917 14.1705 46.5264 14.2463L47.6706 13.7222ZM46.4177 12.6471C46.0473 12.4762 45.5617 12.3339 44.9839 12.211L44.7219 13.4415C45.261 13.5562 45.6427 13.6752 45.8902 13.7894L46.4177 12.6471ZM44.9839 12.211C44.4214 12.0914 43.9783 12.0096 43.6656 11.9705L43.5095 13.2189C43.7671 13.2511 44.1675 13.3237 44.7219 13.4415L44.9839 12.211ZM44.2168 12.5947V11.2052H42.9582V12.5947H44.2168ZM43.5875 11.8342H66.0078V10.5762H43.5875V11.8342ZM65.3785 11.2052V17.654H66.6371V11.2052H65.3785ZM94.1745 17.654V18.283H94.8038V17.654H94.1745ZM92.8195 17.654L92.2274 17.866L92.3765 18.283H92.8195V17.654ZM88.5245 12.9866L88.3816 13.5992L88.3873 13.6005L88.393 13.6017L88.5245 12.9866ZM87.0274 12.8441L87.0041 13.4727L87.0098 13.4729L87.016 13.4731L87.0274 12.8441ZM81.7877 12.8085V12.1795H81.1584V12.8085H81.7877ZM81.7877 22.5707H81.1584V23.1998H81.7877V22.5707ZM88.4534 20.0055L87.8719 19.765L87.87 19.7693L87.8681 19.7736L88.4534 20.0055ZM89.0059 18.2063V17.5772H88.4704L88.3848 18.1052L89.0059 18.2063ZM90.3602 18.2063H90.9895V17.5772H90.3602V18.2063ZM90.3602 28.7524V29.3814H90.9895V28.7524H90.3602ZM89.0059 28.7524L88.3829 28.8413L88.4597 29.3814H89.0059V28.7524ZM88.4534 26.8819L87.8643 27.1027L87.8662 27.1083L87.8681 27.1139L88.4534 26.8819ZM86.2433 24.4413L86.0563 25.0419L86.0626 25.0439L86.0689 25.0456L86.2433 24.4413ZM81.7877 24.1919V23.5629H81.1584V24.1919H81.7877ZM81.9482 33.2951L81.3359 33.44L81.3378 33.4496L81.3409 33.4592L81.9482 33.2951ZM82.5895 34.3104L82.2062 34.8091L82.2087 34.8113L82.5895 34.3104ZM83.8015 34.7558L83.7147 35.3788L83.7166 35.3791L83.8015 34.7558ZM88.9524 34.738L88.8782 34.1134L88.8731 34.114L88.8681 34.1146L88.9524 34.738ZM90.3426 34.4708L90.1783 33.8635L90.1739 33.8647L90.3426 34.4708ZM91.3224 33.9542L90.8731 33.514L90.8693 33.5177L90.8655 33.5216L91.3224 33.9542ZM93.2475 31.2998L93.7874 31.6235L93.7887 31.6211L93.2475 31.2998ZM94.6552 28.6098V27.9808H94.2216L94.0675 28.3864L94.6552 28.6098ZM95.9567 28.6098L96.5847 28.6482L96.6256 27.9808H95.9567V28.6098ZM95.4752 36.4838V37.1128H96.0674L96.1033 36.5222L95.4752 36.4838ZM71.754 36.4838H71.1247V37.1128H71.754V36.4838ZM71.754 35.0943L71.7087 34.4669L71.1247 34.5086V35.0943H71.754ZM74.3203 34.7024L74.5538 35.2864L74.5595 35.2843L74.5645 35.2821L74.3203 34.7024ZM75.2291 33.9898L75.7822 34.2894L75.7854 34.2847L75.7873 34.28L75.2291 33.9898ZM75.2649 13.9842L74.6929 14.2463L74.6948 14.251L74.6973 14.2556L75.2649 13.9842ZM74.3203 13.2182L74.0567 13.7894L74.0611 13.7913L74.3203 13.2182ZM71.754 12.5947H71.1247V13.15L71.676 13.2189L71.754 12.5947ZM71.754 11.2052V10.5762H71.1247V11.2052H71.754ZM94.1745 11.2052H94.8038V10.5762H94.1745V11.2052ZM94.1745 17.0249H92.8195V18.283H94.1745V17.0249ZM93.4124 17.442C93.036 16.3914 92.396 15.3524 91.5156 14.3236L90.5591 15.1413C91.3658 16.0839 91.9146 16.9926 92.2274 17.866L93.4124 17.442ZM91.5156 14.3236C90.627 13.2851 89.6774 12.5903 88.6567 12.3716L88.393 13.6017C89.0349 13.7393 89.7611 14.2083 90.5591 15.1413L91.5156 14.3236ZM88.6674 12.3741C88.2476 12.2761 87.6976 12.2274 87.0393 12.2152L87.016 13.4731C87.6409 13.4846 88.089 13.5309 88.3816 13.5992L88.6674 12.3741ZM87.0513 12.2156C86.4169 12.1916 85.8858 12.1795 85.4591 12.1795V13.4375C85.8644 13.4375 86.3786 13.4491 87.0041 13.4727L87.0513 12.2156ZM85.4591 12.1795H81.7877V13.4375H85.4591V12.1795ZM81.1584 12.8085V22.5707H82.417V12.8085H81.1584ZM81.7877 23.1998H84.3899V21.9417H81.7877V23.1998ZM84.3899 23.1998C85.0922 23.1998 85.7461 23.1169 86.3465 22.9435L85.9972 21.7349C85.5284 21.8703 84.9941 21.9417 84.3899 21.9417V23.1998ZM86.3465 22.9435C86.9953 22.7563 87.5724 22.3988 88.0783 21.8933L87.1885 21.0036C86.8153 21.3769 86.4182 21.6133 85.9972 21.7349L86.3465 22.9435ZM88.0783 21.8933C88.4458 21.5263 88.7573 20.9461 89.038 20.2374L87.8681 19.7736C87.6032 20.4425 87.3678 20.8244 87.1885 21.0036L88.0783 21.8933ZM89.0349 20.246C89.3313 19.5302 89.5333 18.8817 89.6271 18.3073L88.3848 18.1052C88.3118 18.5521 88.1457 19.1031 87.8719 19.765L89.0349 20.246ZM89.0059 18.8353H90.3602V17.5772H89.0059V18.8353ZM89.7309 18.2063V28.7524H90.9895V18.2063H89.7309ZM90.3602 28.1233H89.0059V29.3814H90.3602V28.1233ZM89.6289 28.6634C89.5478 28.0954 89.3439 27.4202 89.038 26.6498L87.8681 27.1139C88.1564 27.8399 88.3212 28.4117 88.3829 28.8413L89.6289 28.6634ZM89.0424 26.661C88.7536 25.8901 88.4458 25.2692 88.0972 24.8891L87.1696 25.7392C87.3439 25.9293 87.583 26.3534 87.8643 27.1027L89.0424 26.661ZM88.0972 24.8891C87.6309 24.3802 87.0683 24.0248 86.4182 23.837L86.0689 25.0456C86.4874 25.1665 86.8524 25.3931 87.1696 25.7392L88.0972 24.8891ZM86.4302 23.8406C85.8222 23.6515 85.1388 23.5629 84.3899 23.5629V24.8209C85.0425 24.8209 85.5951 24.8985 86.0563 25.0419L86.4302 23.8406ZM84.3899 23.5629H81.7877V24.8209H84.3899V23.5629ZM81.1584 24.1919V31.478H82.417V24.1919H81.1584ZM81.1584 31.478C81.1584 32.2601 81.2125 32.9208 81.3359 33.44L82.5605 33.1501C82.4699 32.7667 82.417 32.216 82.417 31.478H81.1584ZM81.3409 33.4592C81.4894 34.0083 81.7701 34.474 82.2062 34.8091L82.9734 33.8119C82.7915 33.6719 82.6449 33.4606 82.5555 33.1309L81.3409 33.4592ZM82.2087 34.8113C82.6184 35.1223 83.1357 35.2981 83.7147 35.3788L83.8884 34.1328C83.4453 34.071 83.1552 33.9498 82.9708 33.8097L82.2087 34.8113ZM83.7166 35.3791C84.2804 35.4559 85.0192 35.4918 85.9223 35.4918V34.2337C85.0432 34.2337 84.3685 34.1982 83.8865 34.1325L83.7166 35.3791ZM85.9223 35.4918C86.3439 35.4918 86.8474 35.4857 87.4326 35.4738L87.4069 34.216C86.8273 34.2278 86.3326 34.2337 85.9223 34.2337V35.4918ZM87.4326 35.4738C88.0318 35.4616 88.5673 35.4248 89.0368 35.3614L88.8681 34.1146C88.4578 34.17 87.972 34.2044 87.4069 34.216L87.4326 35.4738ZM89.0267 35.3626C89.5534 35.3 90.0487 35.2052 90.5106 35.0769L90.1739 33.8647C89.7806 33.9738 89.3495 34.0573 88.8782 34.1134L89.0267 35.3626ZM90.5068 35.078C91.009 34.9422 91.4571 34.7268 91.7793 34.3868L90.8655 33.5216C90.7604 33.6328 90.5547 33.7618 90.1783 33.8635L90.5068 35.078ZM91.7724 34.3944C92.3929 33.7612 93.0637 32.8283 93.7874 31.6235L92.7082 30.9762C92.0052 32.1466 91.3935 32.9833 90.8731 33.514L91.7724 34.3944ZM93.7887 31.6211C94.5036 30.4182 94.9969 29.4817 95.2436 28.8333L94.0675 28.3864C93.8623 28.9255 93.4174 29.7824 92.7063 30.9786L93.7887 31.6211ZM94.6552 29.2389H95.9567V27.9808H94.6552V29.2389ZM95.3286 28.5715L94.8472 36.4454L96.1033 36.5222L96.5847 28.6482L95.3286 28.5715ZM95.4752 35.8548H71.754V37.1128H95.4752V35.8548ZM72.3833 36.4838V35.0943H71.1247V36.4838H72.3833ZM71.7987 35.7217C72.1473 35.6968 72.6118 35.6478 73.1863 35.5759L73.0302 34.3276C72.4645 34.3983 72.0252 34.4442 71.7087 34.4669L71.7987 35.7217ZM73.1863 35.5759C73.7609 35.5042 74.2348 35.414 74.5538 35.2864L74.0862 34.1183C73.9302 34.1809 73.5966 34.2568 73.0302 34.3276L73.1863 35.5759ZM74.5645 35.2821C75.0837 35.0636 75.533 34.7503 75.7822 34.2894L74.6759 33.6902C74.6167 33.7994 74.46 33.961 74.0762 34.1226L74.5645 35.2821ZM75.7873 34.28C76.0019 33.8677 76.09 33.3862 76.09 32.8675H74.8313C74.8313 33.2514 74.7653 33.518 74.6709 33.6996L75.7873 34.28ZM76.09 32.8675V15.0353H74.8313V32.8675H76.09ZM76.09 15.0353C76.09 14.55 76.017 14.0982 75.8326 13.7128L74.6973 14.2556C74.7741 14.4166 74.8313 14.6655 74.8313 15.0353H76.09ZM75.837 13.7222C75.6104 13.2279 75.1233 12.8909 74.5796 12.6451L74.0611 13.7913C74.5154 13.9968 74.6583 14.1705 74.6929 14.2463L75.837 13.7222ZM74.584 12.6471C74.2134 12.4762 73.7282 12.3339 73.1504 12.211L72.888 13.4415C73.4273 13.5562 73.8093 13.6752 74.0567 13.7894L74.584 12.6471ZM73.1504 12.211C72.5878 12.0914 72.1448 12.0096 71.832 11.9705L71.676 13.2189C71.9334 13.2511 72.3336 13.3237 72.888 13.4415L73.1504 12.211ZM72.3833 12.5947V11.2052H71.1247V12.5947H72.3833ZM71.754 11.8342H94.1745V10.5762H71.754V11.8342ZM93.5451 11.2052V17.654H94.8038V11.2052H93.5451ZM128.953 36.4838V37.1128H129.582V36.4838H128.953ZM119.258 36.4838L118.73 36.8276L118.916 37.1128H119.258V36.4838ZM115.069 30.3557L114.56 30.7254L114.562 30.728L115.069 30.3557ZM110.934 25.0826L111.419 24.6816L111.231 24.4536H110.934V25.0826ZM109.954 25.0826V24.4536H109.324V25.0826H109.954ZM110.186 33.8473L109.627 34.1375L109.632 34.1461L109.637 34.1546L110.186 33.8473ZM111.112 34.5955L110.856 35.1697L110.862 35.1725L110.868 35.1752L111.112 34.5955ZM112.164 34.8983L112.026 35.512L112.035 35.514L112.044 35.5157L112.164 34.8983ZM113.412 35.0943H114.041V34.527L113.477 34.4686L113.412 35.0943ZM113.412 36.4838V37.1128H114.041V36.4838H113.412ZM99.92 36.4838H99.2907V37.1128H99.92V36.4838ZM99.92 35.0943L99.8552 34.4686L99.2907 34.527V35.0943H99.92ZM101.274 34.9518L101.341 35.5772L101.347 35.5767L101.353 35.5759L101.274 34.9518ZM102.486 34.7024L102.72 35.2864L102.726 35.2843L102.731 35.2821L102.486 34.7024ZM103.396 33.9898L103.949 34.2894L103.951 34.2847L103.954 34.28L103.396 33.9898ZM102.486 13.2182L102.734 12.64L102.729 12.6377L102.724 12.6354L102.486 13.2182ZM101.132 12.8263L101.003 13.442L101.006 13.4425L101.132 12.8263ZM99.92 12.5947H99.2907V13.1311L99.8206 13.2158L99.92 12.5947ZM99.92 11.2052V10.5762H99.2907V11.2052H99.92ZM121.325 12.7016L120.998 13.2389L121.002 13.2417L121.325 12.7016ZM117.636 23.9781L117.46 23.3742L116.573 23.6324L117.137 24.3627L117.636 23.9781ZM120.451 27.6123L119.954 27.9978L119.956 28.0005L120.451 27.6123ZM123.82 31.8343L124.313 31.4428L124.309 31.4383L123.82 31.8343ZM125.317 33.5444L124.856 33.9728L124.86 33.9769L124.864 33.9811L125.317 33.5444ZM127.01 34.7736L126.82 35.3733L126.827 35.3754L127.01 34.7736ZM128.044 34.9874L127.955 35.6101L127.957 35.6105L128.044 34.9874ZM128.953 35.0943H129.582V34.5058L128.994 34.4666L128.953 35.0943ZM115.39 14.0021L114.986 14.4849L114.993 14.4903L115.39 14.0021ZM109.954 12.8263V12.1973H109.324V12.8263H109.954ZM109.954 23.4081H109.324V24.0371H109.954V23.4081ZM128.953 35.8548H119.258V37.1128H128.953V35.8548ZM119.784 36.14C118.106 33.5702 116.703 31.5167 115.576 29.9833L114.562 30.728C115.669 32.2349 117.058 34.2669 118.73 36.8276L119.784 36.14ZM115.578 29.9859C114.463 28.4519 113.076 26.6835 111.419 24.6816L110.45 25.4836C112.095 27.4721 113.465 29.2191 114.56 30.7254L115.578 29.9859ZM110.934 24.4536H109.954V25.7116H110.934V24.4536ZM109.324 25.0826V32.7606H110.583V25.0826H109.324ZM109.324 32.7606C109.324 33.2619 109.415 33.7295 109.627 34.1375L110.744 33.557C110.647 33.3712 110.583 33.1144 110.583 32.7606H109.324ZM109.637 34.1546C109.893 34.6122 110.335 34.9366 110.856 35.1697L111.37 34.0213C110.988 33.8506 110.811 33.6761 110.735 33.5399L109.637 34.1546ZM110.868 35.1752C111.148 35.2927 111.543 35.4033 112.026 35.512L112.302 34.2846C111.835 34.1796 111.529 34.0883 111.357 34.0157L110.868 35.1752ZM112.044 35.5157C112.542 35.6129 112.978 35.6818 113.347 35.72L113.477 34.4686C113.156 34.4356 112.761 34.3737 112.285 34.2809L112.044 35.5157ZM112.783 35.0943V36.4838H114.041V35.0943H112.783ZM113.412 35.8548H99.92V37.1128H113.412V35.8548ZM100.549 36.4838V35.0943H99.2907V36.4838H100.549ZM99.9849 35.72C100.33 35.6842 100.782 35.6367 101.341 35.5772L101.208 34.3263C100.65 34.3856 100.199 34.433 99.8552 34.4686L99.9849 35.72ZM101.353 35.5759C101.927 35.5042 102.401 35.414 102.72 35.2864L102.253 34.1183C102.096 34.1809 101.763 34.2568 101.196 34.3276L101.353 35.5759ZM102.731 35.2821C103.25 35.0636 103.699 34.7503 103.949 34.2894L102.842 33.6902C102.783 33.7994 102.626 33.961 102.242 34.1226L102.731 35.2821ZM103.954 34.28C104.169 33.8677 104.257 33.3862 104.257 32.8675H102.998C102.998 33.2514 102.931 33.518 102.837 33.6996L103.954 34.28ZM104.257 32.8675V15.0353H102.998V32.8675H104.257ZM104.257 15.0353C104.257 14.5483 104.183 14.0958 104.003 13.7044L102.859 14.2285C102.941 14.4071 102.998 14.6671 102.998 15.0353H104.257ZM104.003 13.7044C103.774 13.2047 103.281 12.8741 102.734 12.64L102.238 13.7964C102.69 13.9899 102.827 14.1581 102.859 14.2285L104.003 13.7044ZM102.724 12.6354C102.299 12.463 101.808 12.3225 101.258 12.21L101.006 13.4425C101.502 13.5439 101.914 13.6647 102.25 13.801L102.724 12.6354ZM101.261 12.2106C100.746 12.1029 100.331 12.0234 100.019 11.9736L99.8206 13.2158C100.103 13.261 100.496 13.3359 101.003 13.442L101.261 12.2106ZM100.549 12.5947V11.2052H99.2907V12.5947H100.549ZM99.92 11.8342H114.107V10.5762H99.92V11.8342ZM114.107 11.8342C117.231 11.8342 119.502 12.3287 120.998 13.2389L121.652 12.1643C119.869 11.0793 117.327 10.5762 114.107 10.5762V11.8342ZM121.002 13.2417C122.453 14.1079 123.172 15.3933 123.172 17.1908H124.431C124.431 14.9742 123.499 13.2667 121.648 12.1615L121.002 13.2417ZM123.172 17.1908C123.172 18.8322 122.703 20.0919 121.812 21.0342L122.727 21.8983C123.879 20.6792 124.431 19.0886 124.431 17.1908H123.172ZM121.812 21.0342C120.907 21.9921 119.478 22.786 117.46 23.3742L117.811 24.582C119.951 23.9588 121.612 23.0781 122.727 21.8983L121.812 21.0342ZM117.137 24.3627C117.946 25.4082 118.885 26.62 119.954 27.9978L120.948 27.2267C119.879 25.8492 118.941 24.6382 118.134 23.5935L117.137 24.3627ZM119.956 28.0005C121.04 29.3808 122.164 30.7908 123.331 32.2302L124.309 31.4383C123.147 30.0037 122.026 28.599 120.947 27.224L119.956 28.0005ZM123.327 32.2256C123.709 32.7065 124.221 33.2897 124.856 33.9728L125.778 33.1161C125.154 32.4452 124.666 31.8883 124.313 31.4428L123.327 32.2256ZM124.864 33.9811C125.528 34.6696 126.181 35.1709 126.82 35.3733L127.2 34.174C126.864 34.0676 126.389 33.7494 125.77 33.1078L124.864 33.9811ZM126.827 35.3754C127.141 35.4712 127.52 35.5481 127.955 35.6101L128.133 34.3647C127.736 34.308 127.425 34.2424 127.193 34.1719L126.827 35.3754ZM127.957 35.6105C128.385 35.6698 128.708 35.7084 128.91 35.7219L128.994 34.4666C128.841 34.4564 128.558 34.4237 128.13 34.3643L127.957 35.6105ZM128.323 35.0943V36.4838H129.582V35.0943H128.323ZM117.445 17.6896C117.445 15.8894 116.934 14.4459 115.787 13.5139L114.993 14.4903C115.747 15.1021 116.186 16.1171 116.186 17.6896H117.445ZM115.793 13.5193C114.702 12.6077 113.194 12.1973 111.362 12.1973V13.4553C113.023 13.4553 114.201 13.8288 114.986 14.4849L115.793 13.5193ZM111.362 12.1973H109.954V13.4553H111.362V12.1973ZM109.324 12.8263V23.4081H110.583V12.8263H109.324ZM109.954 24.0371H111.309V22.779H109.954V24.0371ZM111.309 24.0371C113.164 24.0371 114.693 23.5494 115.806 22.4922L114.939 21.5805C114.126 22.3522 112.946 22.779 111.309 22.779V24.0371ZM115.806 22.4922C116.944 21.411 117.445 19.7604 117.445 17.6896H116.186C116.186 19.5856 115.725 20.8327 114.939 21.5805L115.806 22.4922ZM154.374 18.4378V19.0668H155.004V18.4378H154.374ZM153.002 18.4378L152.406 18.6407L152.552 19.0668H153.002V18.4378ZM151.22 14.964L150.693 15.3083L150.695 15.3118L151.22 14.964ZM148.974 12.9688L149.06 12.3456L149.052 12.3446L148.974 12.9688ZM145.285 12.7907V12.1616H144.656V12.7907H145.285ZM145.517 33.7582L144.946 34.0231L144.95 34.0311L145.517 33.7582ZM146.425 34.5242L146.181 35.104L146.189 35.1071L146.196 35.11L146.425 34.5242ZM147.691 34.8627L147.563 35.4785L147.57 35.4801L147.577 35.4814L147.691 34.8627ZM149.171 35.0943H149.8V34.5349L149.244 34.4696L149.171 35.0943ZM149.171 36.4838V37.1128H149.8V36.4838H149.171ZM135.073 36.4838H134.443V37.1128H135.073V36.4838ZM135.073 35.0943L135.008 34.4686L134.443 34.527V35.0943H135.073ZM136.516 34.9518L136.577 35.5779L136.582 35.5774L136.587 35.5768L136.516 34.9518ZM137.8 34.7024L137.561 34.1204L137.555 34.1226L137.8 34.7024ZM138.958 12.7907H139.587V12.1616H138.958V12.7907ZM135.269 12.9688L135.191 12.3446L135.183 12.3457L135.269 12.9688ZM133.005 14.964L132.481 14.6163L132.479 14.6198L133.005 14.964ZM131.241 18.4378V19.0668H131.691L131.837 18.6407L131.241 18.4378ZM129.869 18.4378H129.24V19.0668H129.869V18.4378ZM129.869 11.2052V10.5762H129.24V11.2052H129.869ZM154.374 11.2052H155.004V10.5762H154.374V11.2052ZM154.374 17.8088H153.002V19.0668H154.374V17.8088ZM153.598 18.235C153.208 17.0905 152.586 15.8838 151.744 14.6163L150.695 15.3118C151.494 16.5145 152.06 17.6237 152.406 18.6407L153.598 18.235ZM151.746 14.6198C151.325 13.9755 150.901 13.4512 150.471 13.0687C150.042 12.6881 149.571 12.4161 149.06 12.3456L148.888 13.5919C149.066 13.6165 149.314 13.7245 149.634 14.009C149.952 14.2916 150.306 14.7175 150.693 15.3083L151.746 14.6198ZM149.052 12.3446C148.655 12.295 148.172 12.2525 147.606 12.2164L147.526 13.4719C148.077 13.507 148.533 13.5476 148.896 13.593L149.052 12.3446ZM147.606 12.2164C147.039 12.1802 146.544 12.1616 146.123 12.1616V13.4197C146.509 13.4197 146.976 13.4368 147.526 13.4719L147.606 12.2164ZM146.123 12.1616H145.285V13.4197H146.123V12.1616ZM144.656 12.7907V32.6181H145.914V12.7907H144.656ZM144.656 32.6181C144.656 33.122 144.747 33.5949 144.946 34.0231L146.088 33.4933C145.977 33.2564 145.914 32.9692 145.914 32.6181H144.656ZM144.95 34.0311C145.192 34.5344 145.642 34.8769 146.181 35.104L146.67 33.9445C146.307 33.7916 146.15 33.6233 146.084 33.4853L144.95 34.0311ZM146.196 35.11C146.52 35.2368 146.984 35.3581 147.563 35.4785L147.819 34.2469C147.257 34.1298 146.877 34.0254 146.655 33.9384L146.196 35.11ZM147.577 35.4814C148.167 35.5897 148.675 35.6694 149.097 35.719L149.244 34.4696C148.858 34.4242 148.379 34.3494 147.805 34.244L147.577 35.4814ZM148.541 35.0943V36.4838H149.8V35.0943H148.541ZM149.171 35.8548H135.073V37.1128H149.171V35.8548ZM135.702 36.4838V35.0943H134.443V36.4838H135.702ZM135.138 35.72C135.48 35.6846 135.959 35.6373 136.577 35.5779L136.456 34.3256C135.838 34.385 135.355 34.4327 135.008 34.4686L135.138 35.72ZM136.587 35.5768C137.211 35.5062 137.724 35.4167 138.044 35.2821L137.555 34.1226C137.424 34.1781 137.081 34.2548 136.446 34.3267L136.587 35.5768ZM138.039 35.2843C138.587 35.0592 139.048 34.7179 139.293 34.2092L138.159 33.6635C138.095 33.7961 137.939 33.9654 137.561 34.1204L138.039 35.2843ZM139.293 34.2092C139.497 33.7858 139.587 33.3085 139.587 32.7962H138.329C138.329 33.1628 138.265 33.4455 138.159 33.6635L139.293 34.2092ZM139.587 32.7962V12.7907H138.329V32.7962H139.587ZM138.958 12.1616H138.12V13.4197H138.958V12.1616ZM138.12 12.1616C137.699 12.1616 137.204 12.1802 136.637 12.2164L136.717 13.4719C137.266 13.4368 137.734 13.4197 138.12 13.4197V12.1616ZM136.637 12.2164C136.071 12.2525 135.588 12.2949 135.191 12.3446L135.347 13.593C135.71 13.5476 136.166 13.507 136.717 13.4719L136.637 12.2164ZM135.183 12.3457C134.672 12.416 134.2 12.6875 133.77 13.0671C133.337 13.4488 132.909 13.9723 132.481 14.6163L133.53 15.3118C133.922 14.7206 134.281 14.294 134.603 14.0106C134.926 13.7252 135.176 13.6166 135.355 13.5919L135.183 12.3457ZM132.479 14.6198C131.65 15.8869 131.034 17.0924 130.646 18.235L131.837 18.6407C132.184 17.6218 132.745 16.5114 133.532 15.3083L132.479 14.6198ZM131.241 17.8088H129.869V19.0668H131.241V17.8088ZM130.498 18.4378V11.2052H129.24V18.4378H130.498ZM129.869 11.8342H154.374V10.5762H129.869V11.8342ZM153.745 11.2052V18.4378H155.004V11.2052H153.745ZM188.546 36.4838V37.1128H189.176V36.4838H188.546ZM174.877 36.4838H174.248V37.1128H174.877V36.4838ZM174.877 35.0943L174.827 34.4673L174.248 34.5136V35.0943H174.877ZM177.354 34.7736L177.118 34.1907L177.108 34.1946L177.099 34.1988L177.354 34.7736ZM178.264 34.0789L178.807 34.3958L178.81 34.391L178.812 34.3862L178.264 34.0789ZM178.513 24.2453H179.142V23.6163H178.513V24.2453ZM167.713 24.2453V23.6163H167.083V24.2453H167.713ZM167.962 33.8473L167.404 34.1368L167.407 34.1449L167.412 34.1527L167.962 33.8473ZM168.853 34.5955L168.605 35.1737L168.609 35.1752L168.853 34.5955ZM171.348 35.0943H171.977V34.5071L171.391 34.4668L171.348 35.0943ZM171.348 36.4838V37.1128H171.977V36.4838H171.348ZM157.679 36.4838H157.049V37.1128H157.679V36.4838ZM157.679 35.0943L157.654 34.4657L157.049 34.4899V35.0943H157.679ZM158.98 34.9874L159.045 35.613L159.051 35.6125L159.056 35.6118L158.98 34.9874ZM160.245 34.738L160.031 34.1464L160.03 34.1468L160.245 34.738ZM161.136 34.0432L161.69 34.3415L161.693 34.3372L161.695 34.3328L161.136 34.0432ZM161.154 13.9842L160.591 14.2656L160.596 14.2748L160.601 14.2838L161.154 13.9842ZM160.245 13.236L160.509 12.6649L160.503 12.662L160.245 13.236ZM158.89 12.8263L158.747 13.4388L158.753 13.4402L158.759 13.4415L158.89 12.8263ZM157.679 12.5947H157.049V13.1667L157.619 13.2209L157.679 12.5947ZM157.679 11.2052V10.5762H157.049V11.2052H157.679ZM171.348 11.2052H171.977V10.5762H171.348V11.2052ZM171.348 12.5947L171.389 13.2224L171.977 13.1845V12.5947H171.348ZM168.853 13.0401L168.67 12.4383L168.662 12.4407L168.654 12.4433L168.853 13.0401ZM167.926 13.7883L167.352 13.531L167.35 13.5357L167.348 13.5405L167.926 13.7883ZM167.713 22.4105H167.083V23.0395H167.713V22.4105ZM178.513 22.4105V23.0395H179.142V22.4105H178.513ZM176.107 12.8441L175.951 13.4535L175.959 13.4556L175.967 13.4575L176.107 12.8441ZM174.877 12.5947H174.248V13.1553L174.805 13.2196L174.877 12.5947ZM174.877 11.2052V10.5762H174.248V11.2052H174.877ZM188.546 11.2052H189.176V10.5762H188.546V11.2052ZM188.546 12.5947L188.586 13.2225L189.176 13.1857V12.5947H188.546ZM187.263 12.755L187.357 13.3771L187.365 13.376L187.372 13.3747L187.263 12.755ZM185.98 13.0401L185.793 12.4397L185.784 12.4422L185.777 12.4449L185.98 13.0401ZM185.98 34.5955L185.723 35.1697L185.731 35.173L185.738 35.1761L185.98 34.5955ZM187.21 34.9161L187.1 35.5355L187.102 35.5359L187.21 34.9161ZM188.546 35.0943H189.176V34.5071L188.59 34.4668L188.546 35.0943ZM188.546 35.8548H174.877V37.1128H188.546V35.8548ZM175.507 36.4838V35.0943H174.248V36.4838H175.507ZM174.927 35.7213C175.225 35.6975 175.66 35.6618 176.23 35.6142L176.126 34.3605C175.556 34.408 175.123 34.4436 174.827 34.4673L174.927 35.7213ZM176.23 35.6142C176.798 35.5669 177.288 35.4914 177.61 35.3485L177.099 34.1988C176.993 34.2459 176.698 34.3128 176.126 34.3605L176.23 35.6142ZM177.591 35.3566C178.105 35.1483 178.545 34.8436 178.807 34.3958L177.72 33.7619C177.648 33.8842 177.483 34.0427 177.118 34.1907L177.591 35.3566ZM178.812 34.3862C179.046 33.9697 179.142 33.4816 179.142 32.9566H177.883C177.883 33.3342 177.814 33.5942 177.714 33.7715L178.812 34.3862ZM179.142 32.9566V24.2453H177.883V32.9566H179.142ZM178.513 23.6163H167.713V24.8743H178.513V23.6163ZM167.083 24.2453V32.7606H168.342V24.2453H167.083ZM167.083 32.7606C167.083 33.2531 167.185 33.7166 167.404 34.1368L168.521 33.5577C168.406 33.3366 168.342 33.0756 168.342 32.7606H167.083ZM167.412 34.1527C167.672 34.6214 168.092 34.9537 168.605 35.1737L169.101 34.0173C168.783 33.881 168.608 33.7144 168.512 33.5418L167.412 34.1527ZM168.609 35.1752C168.899 35.2975 169.341 35.4082 169.891 35.5157L170.132 34.281C169.588 34.1746 169.258 34.0835 169.098 34.0157L168.609 35.1752ZM169.891 35.5157C170.449 35.6249 170.923 35.6955 171.305 35.7218L171.391 34.4668C171.084 34.4456 170.666 34.3855 170.132 34.281L169.891 35.5157ZM170.719 35.0943V36.4838H171.977V35.0943H170.719ZM171.348 35.8548H157.679V37.1128H171.348V35.8548ZM158.308 36.4838V35.0943H157.049V36.4838H158.308ZM157.704 35.7228C158.021 35.7101 158.471 35.6728 159.045 35.613L158.914 34.3618C158.348 34.4208 157.93 34.4547 157.654 34.4657L157.704 35.7228ZM159.056 35.6118C159.645 35.5396 160.127 35.4501 160.46 35.3292L160.03 34.1468C159.84 34.216 159.478 34.2926 158.903 34.363L159.056 35.6118ZM160.458 35.3297C160.988 35.1386 161.431 34.823 161.69 34.3415L160.582 33.745C160.509 33.881 160.358 34.0286 160.031 34.1464L160.458 35.3297ZM161.695 34.3328C161.915 33.9076 162.015 33.4308 162.015 32.9209H160.756C160.756 33.2661 160.689 33.5375 160.577 33.7537L161.695 34.3328ZM162.015 32.9209V15.0353H160.756V32.9209H162.015ZM162.015 15.0353C162.015 14.5438 161.923 14.084 161.707 13.6847L160.601 14.2838C160.693 14.4545 160.756 14.6955 160.756 15.0353H162.015ZM161.717 13.7029C161.482 13.2333 161.029 12.905 160.509 12.6649L159.981 13.8072C160.387 13.9946 160.541 14.1651 160.591 14.2656L161.717 13.7029ZM160.503 12.662C160.102 12.4828 159.604 12.3349 159.022 12.211L158.759 13.4415C159.294 13.5553 159.698 13.6805 159.988 13.81L160.503 12.662ZM159.034 12.2138C158.474 12.0828 158.034 11.9967 157.738 11.9685L157.619 13.2209C157.822 13.2403 158.19 13.3085 158.747 13.4388L159.034 12.2138ZM158.308 12.5947V11.2052H157.049V12.5947H158.308ZM157.679 11.8342H171.348V10.5762H157.679V11.8342ZM170.719 11.2052V12.5947H171.977V11.2052H170.719ZM171.308 11.967C170.906 11.9929 170.441 12.0565 169.914 12.1544L170.145 13.3913C170.64 13.2992 171.054 13.2441 171.389 13.2224L171.308 11.967ZM169.914 12.1544C169.396 12.2508 168.977 12.3449 168.67 12.4383L169.037 13.6418C169.276 13.5689 169.641 13.4849 170.145 13.3913L169.914 12.1544ZM168.654 12.4433C168.076 12.6361 167.599 12.982 167.352 13.531L168.5 14.0456C168.563 13.9058 168.704 13.7528 169.052 13.6369L168.654 12.4433ZM167.348 13.5405C167.17 13.9553 167.083 14.3963 167.083 14.8571H168.342C168.342 14.5579 168.397 14.2864 168.505 14.036L167.348 13.5405ZM167.083 14.8571V22.4105H168.342V14.8571H167.083ZM167.713 23.0395H178.513V21.7814H167.713V23.0395ZM179.142 22.4105V15.0353H177.883V22.4105H179.142ZM179.142 15.0353C179.142 14.5438 179.051 14.084 178.834 13.6847L177.728 14.2838C177.82 14.4545 177.883 14.6955 177.883 15.0353H179.142ZM178.834 13.6847C178.588 13.2292 178.139 12.9052 177.618 12.6649L177.09 13.8072C177.496 13.9945 177.666 14.1692 177.728 14.2838L178.834 13.6847ZM177.618 12.6649C177.253 12.4967 176.79 12.3543 176.246 12.2307L175.967 13.4575C176.469 13.5714 176.838 13.6904 177.09 13.8072L177.618 12.6649ZM176.263 12.2347C175.741 12.1011 175.299 12.0102 174.949 11.9699L174.805 13.2196C175.073 13.2505 175.451 13.3258 175.951 13.4535L176.263 12.2347ZM175.507 12.5947V11.2052H174.248V12.5947H175.507ZM174.877 11.8342H188.546V10.5762H174.877V11.8342ZM187.917 11.2052V12.5947H189.176V11.2052H187.917ZM188.507 11.9669C188.099 11.9924 187.647 12.0493 187.155 12.1354L187.372 13.3747C187.83 13.2945 188.234 13.2445 188.586 13.2225L188.507 11.9669ZM187.17 12.133C186.669 12.2081 186.209 12.3095 185.793 12.4397L186.168 13.6404C186.512 13.5331 186.907 13.4445 187.357 13.3771L187.17 12.133ZM185.777 12.4449C185.214 12.6373 184.747 12.9745 184.501 13.5056L185.642 14.0353C185.705 13.9014 185.844 13.7517 186.184 13.6352L185.777 12.4449ZM184.501 13.5056C184.305 13.9267 184.211 14.3802 184.211 14.8571H185.469C185.469 14.5503 185.529 14.2793 185.642 14.0353L184.501 13.5056ZM184.211 14.8571V32.7606H185.469V14.8571H184.211ZM184.211 32.7606C184.211 33.2619 184.301 33.7295 184.513 34.1375L185.63 33.557C185.533 33.3712 185.469 33.1144 185.469 32.7606H184.211ZM184.513 34.1375C184.758 34.608 185.202 34.9365 185.723 35.1697L186.238 34.0213C185.856 33.8507 185.694 33.6803 185.63 33.557L184.513 34.1375ZM185.738 35.1761C186.086 35.321 186.548 35.4375 187.1 35.5355L187.32 34.2968C186.802 34.2048 186.445 34.1075 186.222 34.0149L185.738 35.1761ZM187.102 35.5359C187.659 35.6327 188.129 35.6959 188.504 35.7218L188.59 34.4668C188.276 34.4451 187.854 34.3896 187.318 34.2964L187.102 35.5359ZM187.917 35.0943V36.4838H189.176V35.0943H187.917ZM206.751 36.4838V37.1128H207.38V36.4838H206.751ZM192.724 36.4838H192.095V37.1128H192.724V36.4838ZM192.724 35.0943L192.678 34.4669L192.095 34.5101V35.0943H192.724ZM194.132 34.9874L194.085 34.3601L194.084 34.3602L194.132 34.9874ZM195.433 34.7736L195.667 35.3577L195.67 35.3566L195.433 34.7736ZM196.324 34.0789L195.775 33.7715L195.771 33.7793L196.324 34.0789ZM195.433 13.2182L195.677 12.6385L195.675 12.6376L195.433 13.2182ZM194.168 12.8619L194.025 13.4744L194.031 13.4759L194.037 13.4772L194.168 12.8619ZM192.724 12.5947H192.095V13.1541L192.651 13.2194L192.724 12.5947ZM192.724 11.2052V10.5762H192.095V11.2052H192.724ZM206.751 11.2052H207.38V10.5762H206.751V11.2052ZM206.751 12.5947L206.813 13.2206L207.38 13.1639V12.5947H206.751ZM205.414 12.755L205.483 13.3802L205.49 13.3795L205.497 13.3786L205.414 12.755ZM204.059 13.0222L203.866 12.4236L203.86 12.4255L204.059 13.0222ZM203.133 13.7527L203.7 14.0255L203.703 14.0175L203.133 13.7527ZM203.133 33.8651L202.569 34.1464L202.576 34.1596L202.583 34.1724L203.133 33.8651ZM204.059 34.5955L204.307 34.0173L204.303 34.0157L204.059 34.5955ZM205.289 34.9161L205.173 35.5344L205.18 35.5358L205.187 35.5369L205.289 34.9161ZM206.751 35.0943H207.38V34.5022L206.788 34.4664L206.751 35.0943ZM206.751 35.8548H192.724V37.1128H206.751V35.8548ZM193.354 36.4838V35.0943H192.095V36.4838H193.354ZM192.771 35.7216C193.093 35.6978 193.563 35.6621 194.181 35.6145L194.084 34.3602C193.466 34.4077 192.998 34.4433 192.678 34.4669L192.771 35.7216ZM194.179 35.6147C194.807 35.5674 195.329 35.4926 195.667 35.3577L195.2 34.1896C195.062 34.2446 194.717 34.3125 194.085 34.3601L194.179 35.6147ZM195.67 35.3566C196.184 35.1482 196.628 34.8396 196.878 34.3784L195.771 33.7793C195.712 33.8882 195.562 34.0427 195.197 34.1907L195.67 35.3566ZM196.874 34.3862C197.107 33.9697 197.203 33.4816 197.203 32.9566H195.945C195.945 33.3342 195.875 33.5942 195.775 33.7715L196.874 34.3862ZM197.203 32.9566V15.0353H195.945V32.9566H197.203ZM197.203 15.0353C197.203 14.5503 197.11 14.0949 196.905 13.6851L195.779 14.2477C195.883 14.4555 195.945 14.7126 195.945 15.0353H197.203ZM196.905 13.6851C196.66 13.1953 196.21 12.8627 195.677 12.6385L195.189 13.798C195.559 13.9538 195.716 14.12 195.779 14.2477L196.905 13.6851ZM195.675 12.6376C195.336 12.4962 194.869 12.368 194.299 12.2467L194.037 13.4772C194.583 13.5935 194.96 13.7027 195.191 13.7988L195.675 12.6376ZM194.312 12.2495C193.738 12.1154 193.232 12.0211 192.798 11.97L192.651 13.2194C193.024 13.2633 193.48 13.3472 194.025 13.4744L194.312 12.2495ZM193.354 12.5947V11.2052H192.095V12.5947H193.354ZM192.724 11.8342H206.751V10.5762H192.724V11.8342ZM206.121 11.2052V12.5947H207.38V11.2052H206.121ZM206.688 11.9688C206.322 12.0054 205.869 12.0597 205.331 12.1315L205.497 13.3786C206.027 13.3078 206.466 13.2553 206.813 13.2206L206.688 11.9688ZM205.344 12.1299C204.783 12.1922 204.287 12.288 203.866 12.4236L204.252 13.6209C204.568 13.519 204.976 13.4366 205.483 13.3802L205.344 12.1299ZM203.86 12.4255C203.289 12.6157 202.811 12.951 202.562 13.4878L203.703 14.0175C203.763 13.8892 203.902 13.7376 204.258 13.619L203.86 12.4255ZM202.566 13.4798C202.364 13.8987 202.272 14.3628 202.272 14.8571H203.53C203.53 14.5201 203.593 14.2479 203.7 14.0255L202.566 13.4798ZM202.272 14.8571V32.7606H203.53V14.8571H202.272ZM202.272 32.7606C202.272 33.263 202.362 33.7319 202.569 34.1464L203.695 33.5838C203.594 33.3807 203.53 33.1133 203.53 32.7606H202.272ZM202.583 34.1724C202.843 34.635 203.289 34.954 203.815 35.1752L204.303 34.0157C203.926 33.8569 203.755 33.689 203.681 33.5577L202.583 34.1724ZM203.811 35.1737C204.129 35.3095 204.596 35.4263 205.173 35.5344L205.405 34.2979C204.841 34.1922 204.489 34.0952 204.307 34.0173L203.811 35.1737ZM205.187 35.5369C205.781 35.6339 206.291 35.6966 206.712 35.7222L206.788 34.4664C206.425 34.4444 205.961 34.3884 205.391 34.2953L205.187 35.5369ZM206.121 35.0943V36.4838H207.38V35.0943H206.121Z" fill="#400F17"/>
</g>
<path d="M218.371 0.62915H0.629333V88.6937H218.371V0.62915Z" stroke="#400F17" stroke-width="2"/>
<path d="M219 48.4355H0V89.3226H219V48.4355Z" fill="#400F17"/>
<path d="M21.4883 59.6748C21.2246 59.7822 20.9756 59.8701 20.7412 59.9385C20.5068 59.9971 20.2334 60.0557 19.9209 60.1143C19.4619 60.2021 19.1201 60.3047 18.8955 60.4219C18.6709 60.5293 18.4902 60.7588 18.3535 61.1104C18.2266 61.4521 18.1631 61.9844 18.1631 62.707V75.5098C18.1631 76.7793 18.0117 77.9609 17.709 79.0547C17.4062 80.1582 16.874 81.0713 16.1123 81.7939C15.3604 82.5166 14.3496 82.8779 13.0801 82.8779C12.6504 82.8779 12.2109 82.8193 11.7617 82.7021C11.3125 82.585 10.9316 82.3848 10.6191 82.1016C10.3066 81.8281 10.1504 81.4717 10.1504 81.0322C10.1504 80.6611 10.2773 80.3584 10.5312 80.124C10.7754 79.8994 11.083 79.7871 11.4541 79.7871C11.708 79.7871 11.918 79.8359 12.084 79.9336C12.2598 80.0312 12.3965 80.1436 12.4941 80.2705C12.6016 80.4072 12.7236 80.5928 12.8604 80.8271C13.0068 81.1104 13.1484 81.3203 13.2852 81.457C13.4316 81.6035 13.6221 81.6768 13.8564 81.6768C14.6279 81.6768 15.0137 80.4219 15.0137 77.9121V62.8389C15.0137 62.0771 14.9453 61.5156 14.8086 61.1543C14.6816 60.793 14.4961 60.5537 14.252 60.4365C14.0176 60.3096 13.6416 60.1875 13.124 60.0703C12.5186 59.9434 12.0352 59.8164 11.6738 59.6895L11.7178 58.9277H21.4883V59.6748ZM42.2428 78.1318C42.0865 78.1611 41.9303 78.1758 41.774 78.1758C41.5885 78.1758 41.3102 78.1465 40.9391 78.0879C40.568 78.0293 40.2848 78 40.0895 78H25.0602L25.0309 77.2822C25.3336 77.1162 25.6119 76.999 25.8658 76.9307C26.1295 76.8525 26.4176 76.7891 26.7301 76.7402C27.1207 76.6719 27.4039 76.584 27.5797 76.4766C27.7652 76.3691 27.9068 76.1396 28.0045 75.7881C28.1021 75.4268 28.151 74.8604 28.151 74.0889V63C28.151 62.2383 28.0875 61.6768 27.9605 61.3154C27.8434 60.9541 27.6676 60.7051 27.4332 60.5684C27.1988 60.4219 26.8082 60.2656 26.2613 60.0996C26.1734 60.0703 26.0025 60.0166 25.7486 59.9385C25.5045 59.8604 25.2652 59.7725 25.0309 59.6748L25.0602 58.9277H40.0016C40.1383 58.9277 40.2848 58.918 40.441 58.8984C40.607 58.8789 40.7242 58.8643 40.7926 58.8545C41.0855 58.8057 41.3492 58.7812 41.5836 58.7812C41.7887 58.7812 41.9693 58.8008 42.1256 58.8398V63.3955L41.3639 63.4248C41.1979 63.2588 41.0611 63.0732 40.9537 62.8682C40.8463 62.6631 40.7242 62.3945 40.5875 62.0625C40.3922 61.5742 40.1969 61.1934 40.0016 60.9199C39.816 60.6465 39.5377 60.4463 39.1666 60.3193C38.6197 60.1436 37.941 60.0312 37.1305 59.9824C36.3199 59.9336 35.3824 59.9092 34.318 59.9092C33.068 59.9092 32.0816 59.9531 31.359 60.041C31.3199 60.4805 31.3004 60.9834 31.3004 61.5498V67.4971H35.5191C36.2906 67.4971 36.8668 67.4385 37.2477 67.3213C37.6285 67.2041 37.9215 67.0137 38.1266 66.75C38.3414 66.4863 38.6344 66.0176 39.0055 65.3438L39.2252 64.9482H40.0602V71.2324L39.2252 71.2764C38.9127 70.4365 38.5123 69.7822 38.024 69.3135C37.5455 68.8447 36.901 68.6104 36.0904 68.6104H31.3004V73.5469C31.3004 74.5723 31.4176 75.3291 31.652 75.8174C31.8961 76.3057 32.2428 76.623 32.692 76.7695C33.151 76.9062 33.8004 76.9746 34.6402 76.9746H36.0758C37.3062 76.9746 38.3658 76.8379 39.2545 76.5645C40.1529 76.2812 40.817 75.71 41.2467 74.8506L41.4518 74.3965C41.6275 74.0156 41.7691 73.7324 41.8766 73.5469C41.984 73.3516 42.1207 73.166 42.2867 72.9902H43.2096L42.2428 78.1318ZM60.4191 62.3115L60.0676 61.418C59.9113 61.0273 59.7893 60.7344 59.7014 60.5391C59.5842 60.4414 59.1838 60.2607 58.5002 59.9971C57.9631 59.7822 57.5773 59.6211 57.343 59.5137C57.1086 59.4062 56.9914 59.3086 56.9914 59.2207C56.9914 59.2012 57.0061 59.1523 57.0354 59.0742C57.0646 58.9961 57.0842 58.9473 57.0939 58.9277H66.4982C66.508 58.957 66.5227 59.0059 66.5422 59.0742C66.5715 59.1426 66.5861 59.1914 66.5861 59.2207C66.5861 59.4453 66.4787 59.5918 66.2639 59.6602C66.0588 59.7285 65.7316 59.7822 65.2824 59.8213C64.7844 59.8604 64.4084 59.9287 64.1545 60.0264C63.9006 60.1143 63.7736 60.3047 63.7736 60.5977C63.7736 60.8027 64.3205 62.6338 65.4143 66.0908C66.5178 69.5479 67.2453 71.7842 67.5969 72.7998L68.007 71.5547C70.2922 64.7285 71.4348 61.0811 71.4348 60.6123C71.4348 60.3096 71.2883 60.0996 70.9953 59.9824C70.7023 59.8555 70.2727 59.7529 69.7062 59.6748C69.4719 59.6455 69.2424 59.6064 69.0178 59.5576C68.7932 59.5088 68.6174 59.4502 68.4904 59.3818L68.4025 59.2207L68.4904 58.9277H76.0637C76.1027 58.9277 76.1516 58.9473 76.2102 58.9863C76.2687 59.0156 76.3078 59.0498 76.3273 59.0889C76.3273 59.2354 76.215 59.3525 75.9904 59.4404C75.7658 59.5186 75.4045 59.6113 74.9064 59.7188C74.174 59.875 73.593 60.0459 73.1633 60.2314C72.7336 60.4072 72.4504 60.6807 72.3137 61.0518C72.2062 61.3545 72.0939 61.7061 71.9768 62.1064C71.8596 62.4971 71.7766 62.7754 71.7277 62.9414C71.6691 63.1758 71.6203 63.3516 71.5812 63.4688L67.2014 77.9854C67.1428 78.1807 66.9377 78.2783 66.5861 78.2783C66.4299 78.2783 66.298 78.2588 66.1906 78.2197C66.093 78.1807 66.0148 78.1025 65.9562 77.9854C65.7707 77.624 65.5852 77.0918 65.3996 76.3887L65.1359 75.5537L60.9758 63.4395L57.1818 74.3525C57.0939 74.5967 56.9719 74.9922 56.8156 75.5391C56.6301 76.1543 56.4738 76.6377 56.3469 76.9893C56.2199 77.3408 56.0783 77.6729 55.9221 77.9854C55.8635 78.1123 55.7854 78.1953 55.6877 78.2344C55.59 78.2832 55.4631 78.3076 55.3068 78.3076C55.0139 78.3076 54.7648 78.1025 54.5598 77.6924C54.3547 77.2822 54.1496 76.7549 53.9445 76.1104L53.798 75.6416L51.7912 70.2656C50.7072 67.3164 49.6086 64.3867 48.4953 61.4766C48.3391 61.0762 48.1096 60.7783 47.8068 60.583C47.5139 60.3779 47.1184 60.1826 46.6203 59.9971C46.2492 59.8604 45.966 59.7432 45.7707 59.6455C45.5754 59.5479 45.3947 59.416 45.2287 59.25L45.3312 58.9277H54.7502C54.76 58.957 54.7746 59.0059 54.7941 59.0742C54.8137 59.1328 54.8234 59.1816 54.8234 59.2207C54.8234 59.416 54.7258 59.5527 54.5305 59.6309C54.3449 59.6992 54.0617 59.7578 53.6809 59.8066C53.2121 59.8652 52.8508 59.9531 52.5969 60.0703C52.3527 60.1777 52.2307 60.3828 52.2307 60.6855C52.2307 60.8223 52.7531 62.375 53.798 65.3438C54.8527 68.3125 55.7463 70.8076 56.4787 72.8291L60.4191 62.3115ZM95.6756 78.1318C95.5193 78.1611 95.3631 78.1758 95.2068 78.1758C95.0213 78.1758 94.743 78.1465 94.3719 78.0879C94.0008 78.0293 93.7176 78 93.5223 78H78.493L78.4637 77.2822C78.7664 77.1162 79.0447 76.999 79.2986 76.9307C79.5623 76.8525 79.8504 76.7891 80.1629 76.7402C80.5535 76.6719 80.8367 76.584 81.0125 76.4766C81.198 76.3691 81.3396 76.1396 81.4373 75.7881C81.535 75.4268 81.5838 74.8604 81.5838 74.0889V63C81.5838 62.2383 81.5203 61.6768 81.3934 61.3154C81.2762 60.9541 81.1004 60.7051 80.866 60.5684C80.6316 60.4219 80.241 60.2656 79.6941 60.0996C79.6062 60.0703 79.4353 60.0166 79.1814 59.9385C78.9373 59.8604 78.698 59.7725 78.4637 59.6748L78.493 58.9277H93.4344C93.5711 58.9277 93.7176 58.918 93.8738 58.8984C94.0398 58.8789 94.157 58.8643 94.2254 58.8545C94.5184 58.8057 94.782 58.7812 95.0164 58.7812C95.2215 58.7812 95.4021 58.8008 95.5584 58.8398V63.3955L94.7967 63.4248C94.6307 63.2588 94.4939 63.0732 94.3865 62.8682C94.2791 62.6631 94.157 62.3945 94.0203 62.0625C93.825 61.5742 93.6297 61.1934 93.4344 60.9199C93.2488 60.6465 92.9705 60.4463 92.5994 60.3193C92.0525 60.1436 91.3738 60.0312 90.5633 59.9824C89.7527 59.9336 88.8152 59.9092 87.7508 59.9092C86.5008 59.9092 85.5145 59.9531 84.7918 60.041C84.7527 60.4805 84.7332 60.9834 84.7332 61.5498V67.4971H88.952C89.7234 67.4971 90.2996 67.4385 90.6805 67.3213C91.0613 67.2041 91.3543 67.0137 91.5594 66.75C91.7742 66.4863 92.0672 66.0176 92.4383 65.3438L92.658 64.9482H93.493V71.2324L92.658 71.2764C92.3455 70.4365 91.9451 69.7822 91.4568 69.3135C90.9783 68.8447 90.3338 68.6104 89.5232 68.6104H84.7332V73.5469C84.7332 74.5723 84.8504 75.3291 85.0848 75.8174C85.3289 76.3057 85.6756 76.623 86.1248 76.7695C86.5838 76.9062 87.2332 76.9746 88.073 76.9746H89.5086C90.7391 76.9746 91.7986 76.8379 92.6873 76.5645C93.5857 76.2812 94.2498 75.71 94.6795 74.8506L94.8846 74.3965C95.0603 74.0156 95.202 73.7324 95.3094 73.5469C95.4168 73.3516 95.5535 73.166 95.7195 72.9902H96.6424L95.6756 78.1318ZM104.55 62.8535C104.55 62.0625 104.487 61.4863 104.36 61.125C104.233 60.7539 104.047 60.5049 103.803 60.3779C103.559 60.251 103.163 60.1338 102.617 60.0264C101.953 59.8799 101.474 59.7627 101.181 59.6748L101.21 58.9277H111.113V59.6895C110.829 59.8066 110.576 59.8945 110.351 59.9531C110.126 60.002 109.829 60.0605 109.457 60.1289C108.989 60.207 108.642 60.3047 108.417 60.4219C108.193 60.5293 108.017 60.7588 107.89 61.1104C107.773 61.4619 107.714 62.0137 107.714 62.7656V73.4297C107.714 74.6113 107.827 75.4316 108.051 75.8906C108.286 76.3398 108.72 76.623 109.355 76.7402C109.99 76.8574 111.152 76.916 112.841 76.916C113.915 76.916 114.819 76.7793 115.551 76.5059C116.293 76.2227 116.884 75.6611 117.324 74.8213L117.543 74.3818C117.7 74.0596 117.841 73.791 117.968 73.5762C118.095 73.3516 118.242 73.1465 118.408 72.9609L119.287 72.9902L118.364 78.1611C117.055 78.0537 115.986 78 115.156 78H101.196L101.166 77.209C101.313 77.1602 101.625 77.0674 102.104 76.9307C102.661 76.7842 103.1 76.6426 103.422 76.5059C103.745 76.3594 104.013 76.1299 104.228 75.8174C104.443 75.4951 104.55 75.0508 104.55 74.4844V62.8535ZM125.935 62.8535C125.935 62.0625 125.871 61.4863 125.744 61.125C125.617 60.7539 125.432 60.5049 125.188 60.3779C124.943 60.251 124.548 60.1338 124.001 60.0264C123.337 59.8799 122.858 59.7627 122.565 59.6748L122.595 58.9277H132.497V59.6895C132.214 59.8066 131.96 59.8945 131.735 59.9531C131.511 60.002 131.213 60.0605 130.842 60.1289C130.373 60.207 130.026 60.3047 129.802 60.4219C129.577 60.5293 129.401 60.7588 129.274 61.1104C129.157 61.4619 129.099 62.0137 129.099 62.7656V73.4297C129.099 74.6113 129.211 75.4316 129.436 75.8906C129.67 76.3398 130.104 76.623 130.739 76.7402C131.374 76.8574 132.536 76.916 134.226 76.916C135.3 76.916 136.203 76.7793 136.936 76.5059C137.678 76.2227 138.269 75.6611 138.708 74.8213L138.928 74.3818C139.084 74.0596 139.226 73.791 139.353 73.5762C139.479 73.3516 139.626 73.1465 139.792 72.9609L140.671 72.9902L139.748 78.1611C138.439 78.0537 137.37 78 136.54 78H122.58L122.551 77.209C122.697 77.1602 123.01 77.0674 123.488 76.9307C124.045 76.7842 124.484 76.6426 124.807 76.5059C125.129 76.3594 125.397 76.1299 125.612 75.8174C125.827 75.4951 125.935 75.0508 125.935 74.4844V62.8535ZM161.147 78.1318C160.991 78.1611 160.835 78.1758 160.678 78.1758C160.493 78.1758 160.214 78.1465 159.843 78.0879C159.472 78.0293 159.189 78 158.994 78H143.964L143.935 77.2822C144.238 77.1162 144.516 76.999 144.77 76.9307C145.034 76.8525 145.322 76.7891 145.634 76.7402C146.025 76.6719 146.308 76.584 146.484 76.4766C146.67 76.3691 146.811 76.1396 146.909 75.7881C147.006 75.4268 147.055 74.8604 147.055 74.0889V63C147.055 62.2383 146.992 61.6768 146.865 61.3154C146.748 60.9541 146.572 60.7051 146.337 60.5684C146.103 60.4219 145.712 60.2656 145.166 60.0996C145.078 60.0703 144.907 60.0166 144.653 59.9385C144.409 59.8604 144.17 59.7725 143.935 59.6748L143.964 58.9277H158.906C159.043 58.9277 159.189 58.918 159.345 58.8984C159.511 58.8789 159.629 58.8643 159.697 58.8545C159.99 58.8057 160.254 58.7812 160.488 58.7812C160.693 58.7812 160.874 58.8008 161.03 58.8398V63.3955L160.268 63.4248C160.102 63.2588 159.965 63.0732 159.858 62.8682C159.751 62.6631 159.629 62.3945 159.492 62.0625C159.296 61.5742 159.101 61.1934 158.906 60.9199C158.72 60.6465 158.442 60.4463 158.071 60.3193C157.524 60.1436 156.845 60.0312 156.035 59.9824C155.224 59.9336 154.287 59.9092 153.222 59.9092C151.972 59.9092 150.986 59.9531 150.263 60.041C150.224 60.4805 150.205 60.9834 150.205 61.5498V67.4971H154.423C155.195 67.4971 155.771 67.4385 156.152 67.3213C156.533 67.2041 156.826 67.0137 157.031 66.75C157.246 66.4863 157.539 66.0176 157.91 65.3438L158.129 64.9482H158.964V71.2324L158.129 71.2764C157.817 70.4365 157.417 69.7822 156.928 69.3135C156.45 68.8447 155.805 68.6104 154.995 68.6104H150.205V73.5469C150.205 74.5723 150.322 75.3291 150.556 75.8174C150.8 76.3057 151.147 76.623 151.596 76.7695C152.055 76.9062 152.705 76.9746 153.545 76.9746H154.98C156.211 76.9746 157.27 76.8379 158.159 76.5645C159.057 76.2812 159.721 75.71 160.151 74.8506L160.356 74.3965C160.532 74.0156 160.673 73.7324 160.781 73.5469C160.888 73.3516 161.025 73.166 161.191 72.9902H162.114L161.147 78.1318ZM175.822 70.0605C175.588 69.709 175.388 69.4502 175.222 69.2842C175.066 69.1182 174.875 68.9912 174.651 68.9033C174.426 68.8154 174.118 68.7617 173.728 68.7422L172.805 68.6836V74.3232C172.805 75.0264 172.863 75.5439 172.981 75.876C173.108 76.208 173.274 76.4277 173.479 76.5352C173.694 76.6426 174.011 76.7305 174.431 76.7988C174.734 76.8477 175.002 76.9014 175.237 76.96C175.471 77.0186 175.715 77.1113 175.969 77.2383L175.94 78H166.667L166.638 77.2383C166.902 77.0918 167.146 76.9893 167.37 76.9307C167.605 76.8623 167.873 76.8037 168.176 76.7549C168.567 76.6963 168.855 76.6133 169.04 76.5059C169.236 76.3887 169.387 76.1396 169.494 75.7588C169.602 75.3779 169.655 74.7725 169.655 73.9424V62.8389C169.655 62.1455 169.597 61.6279 169.48 61.2861C169.363 60.9346 169.192 60.6953 168.967 60.5684C168.752 60.4316 168.41 60.29 167.942 60.1436C167.444 60.0068 167.009 59.8555 166.638 59.6895L166.667 58.9277H173.42C175.246 58.9277 176.843 59.0107 178.21 59.1768C179.577 59.3428 180.798 59.7822 181.872 60.4951C182.956 61.208 183.498 62.3066 183.498 63.791C183.498 64.709 183.239 65.5049 182.722 66.1787C182.214 66.8428 181.555 67.3652 180.744 67.7461C179.944 68.127 179.084 68.3857 178.166 68.5225C178.283 68.6787 178.864 69.4893 179.909 70.9541C180.681 72.0479 181.335 72.9609 181.872 73.6934C182.419 74.4258 182.961 75.1143 183.498 75.7588C183.821 76.1006 184.109 76.3691 184.363 76.5645C184.616 76.7598 184.934 76.916 185.315 77.0332C185.696 77.1504 186.174 77.209 186.75 77.209V78.0293C185.783 78.2637 184.924 78.3809 184.172 78.3809C183.137 78.3809 182.185 78.0635 181.316 77.4287C180.456 76.7939 179.709 76.042 179.074 75.1729C178.449 74.3037 177.732 73.1953 176.921 71.8477C176.443 71.0273 176.076 70.4316 175.822 70.0605ZM173.537 67.7021C174.787 67.7021 175.866 67.6289 176.775 67.4824C177.683 67.3359 178.459 66.9893 179.104 66.4424C179.758 65.8955 180.085 65.0703 180.085 63.9668C180.085 62.7559 179.734 61.8623 179.03 61.2861C178.337 60.71 177.522 60.3584 176.584 60.2314C175.647 60.0947 174.494 60.0264 173.127 60.0264H172.805V67.7021H173.537ZM207.153 59.792C206.596 60.0166 206.147 60.2168 205.805 60.3926C205.464 60.5684 205.127 60.793 204.795 61.0664C204.472 61.3398 204.179 61.6816 203.916 62.0918L199.111 69.46V74.3965C199.111 75.0703 199.175 75.5684 199.302 75.8906C199.429 76.2129 199.599 76.4277 199.814 76.5352C200.039 76.6426 200.366 76.7354 200.796 76.8135C201.372 76.9111 201.87 77.0527 202.29 77.2383L202.261 78H192.798L192.768 77.2383C193.022 77.0918 193.262 76.9893 193.486 76.9307C193.721 76.8721 194.009 76.8184 194.35 76.7695C194.761 76.7109 195.068 76.6328 195.273 76.5352C195.478 76.4375 195.644 76.2178 195.771 75.876C195.898 75.5342 195.962 75.002 195.962 74.2793V69.7676L190.615 61.3887C190.39 61.0371 189.971 60.6904 189.355 60.3486C188.74 60.0068 188.198 59.7822 187.729 59.6748V58.9277H196.811L196.841 59.6895C196.274 59.7871 195.737 59.9678 195.229 60.2314C194.731 60.4854 194.482 60.832 194.482 61.2715C194.482 61.584 194.804 62.2627 195.449 63.3076C196.094 64.3428 196.933 65.6367 197.969 67.1895L198.657 68.2295C198.716 68.1221 198.852 67.917 199.067 67.6143C201.333 64.2646 202.466 62.1602 202.466 61.3008C202.466 60.9102 202.275 60.6123 201.894 60.4072C201.513 60.1924 201.02 60.0068 200.415 59.8506C200.395 59.8506 200.273 59.8164 200.049 59.748L200.019 59.3525C200.019 59.2842 200.029 59.1426 200.049 58.9277H207.402V59.6895L207.153 59.792Z" fill="white"/>
<path d="M12.4075 104.489C12.1583 104.009 11.8121 103.649 11.3691 103.409C10.9261 103.16 10.4138 103.036 9.83233 103.036C9.19547 103.036 8.62783 103.178 8.12942 103.465C7.63101 103.751 7.23876 104.156 6.95261 104.682C6.67571 105.208 6.53726 105.817 6.53726 106.509C6.53726 107.201 6.67571 107.814 6.95261 108.35C7.23876 108.875 7.63101 109.281 8.12942 109.567C8.62783 109.854 9.19547 109.996 9.83233 109.996C10.6907 109.996 11.3875 109.757 11.9229 109.277C12.4583 108.797 12.7859 108.146 12.9059 107.326H9.29238V106.066H14.595V107.298C14.4934 108.045 14.2257 108.733 13.792 109.36C13.3674 109.987 12.809 110.49 12.1167 110.868C11.4337 111.238 10.6723 111.422 9.83233 111.422C8.92783 111.422 8.10173 111.214 7.35411 110.799C6.60649 110.374 6.01116 109.789 5.56813 109.042C5.13432 108.294 4.91742 107.45 4.91742 106.509C4.91742 105.568 5.13432 104.724 5.56813 103.977C6.01116 103.229 6.60649 102.648 7.35411 102.233C8.11098 101.808 8.93701 101.596 9.83233 101.596C10.8569 101.596 11.766 101.85 12.5598 102.357C13.3628 102.856 13.9442 103.566 14.3042 104.489H12.4075ZM20.5681 111.463C19.8482 111.463 19.1975 111.302 18.616 110.979C18.0345 110.647 17.5776 110.186 17.2454 109.595C16.9131 108.996 16.7469 108.304 16.7469 107.519C16.7469 106.744 16.9177 106.057 17.2592 105.457C17.6007 104.858 18.0669 104.396 18.6575 104.073C19.2483 103.751 19.9082 103.589 20.6373 103.589C21.3665 103.589 22.0265 103.751 22.6172 104.073C23.2079 104.396 23.674 104.858 24.0155 105.457C24.357 106.057 24.5277 106.744 24.5277 107.519C24.5277 108.294 24.3524 108.982 24.0016 109.581C23.6509 110.181 23.1709 110.647 22.5618 110.979C21.9619 111.302 21.2973 111.463 20.5681 111.463ZM20.5681 110.093C20.9743 110.093 21.3527 109.996 21.7034 109.803C22.0634 109.609 22.3541 109.318 22.5756 108.931C22.7971 108.543 22.9079 108.073 22.9079 107.519C22.9079 106.966 22.8018 106.5 22.5895 106.122C22.3772 105.734 22.0957 105.444 21.7449 105.25C21.3942 105.056 21.0158 104.959 20.6097 104.959C20.2036 104.959 19.8252 105.056 19.4744 105.25C19.1329 105.444 18.8606 105.734 18.6575 106.122C18.4545 106.5 18.3529 106.966 18.3529 107.519C18.3529 108.34 18.5606 108.977 18.976 109.429C19.4006 109.872 19.9313 110.093 20.5681 110.093ZM28.7739 101.098V111.339H27.1956V101.098H28.7739ZM31.4276 107.492C31.4276 106.726 31.5844 106.048 31.8983 105.457C32.2213 104.867 32.6552 104.41 33.1997 104.087C33.7535 103.755 34.3673 103.589 35.0411 103.589C35.5395 103.589 36.0286 103.7 36.5086 103.921C36.9978 104.133 37.3854 104.419 37.6716 104.779V101.098H39.2637V111.339H37.6716V110.19C37.4131 110.559 37.0532 110.864 36.5917 111.104C36.1394 111.343 35.6179 111.463 35.0272 111.463C34.3627 111.463 33.7535 111.297 33.1997 110.965C32.6552 110.624 32.2213 110.153 31.8983 109.554C31.5844 108.945 31.4276 108.257 31.4276 107.492ZM37.6716 107.519C37.6716 106.993 37.5608 106.537 37.3393 106.149C37.127 105.762 36.8455 105.467 36.4948 105.264C36.1441 105.06 35.7656 104.959 35.3595 104.959C34.9534 104.959 34.5749 105.06 34.2242 105.264C33.8735 105.457 33.5874 105.748 33.3658 106.135C33.1536 106.513 33.0474 106.966 33.0474 107.492C33.0474 108.018 33.1536 108.479 33.3658 108.875C33.5874 109.272 33.8735 109.577 34.2242 109.789C34.5842 109.992 34.9626 110.093 35.3595 110.093C35.7656 110.093 36.1441 109.992 36.4948 109.789C36.8455 109.586 37.127 109.291 37.3393 108.903C37.5608 108.506 37.6716 108.045 37.6716 107.519Z" fill="#400F17"/>
<path d="M56.0086 110.395C58.094 110.395 59.7845 108.705 59.7845 106.621C59.7845 104.536 58.094 102.847 56.0086 102.847C53.9233 102.847 52.2328 104.536 52.2328 106.621C52.2328 108.705 53.9233 110.395 56.0086 110.395Z" fill="#400F17"/>
<path d="M75.2933 101.721C76.3178 101.721 77.2133 101.919 77.9792 102.316C78.7545 102.704 79.3498 103.267 79.7652 104.004C80.19 104.733 80.402 105.586 80.402 106.565C80.402 107.543 80.19 108.391 79.7652 109.111C79.3498 109.83 78.7545 110.384 77.9792 110.772C77.2133 111.15 76.3178 111.339 75.2933 111.339H72.1505V101.721H75.2933ZM75.2933 110.052C76.4191 110.052 77.2825 109.747 77.8823 109.139C78.482 108.53 78.7822 107.672 78.7822 106.565C78.7822 105.448 78.482 104.576 77.8823 103.949C77.2825 103.322 76.4191 103.008 75.2933 103.008H73.7288V110.052H75.2933ZM83.8771 102.704C83.5907 102.704 83.351 102.607 83.1571 102.413C82.9633 102.219 82.8664 101.98 82.8664 101.693C82.8664 101.407 82.9633 101.167 83.1571 100.974C83.351 100.78 83.5907 100.683 83.8771 100.683C84.154 100.683 84.3893 100.78 84.5832 100.974C84.777 101.167 84.8739 101.407 84.8739 101.693C84.8739 101.98 84.777 102.219 84.5832 102.413C84.3893 102.607 84.154 102.704 83.8771 102.704ZM84.6524 103.714V111.339H83.0741V103.714H84.6524ZM87.3056 107.492C87.3056 106.726 87.4629 106.048 87.7763 105.457C88.0998 104.867 88.5334 104.41 89.0777 104.087C89.6315 103.755 90.2407 103.589 90.9052 103.589C91.5056 103.589 92.0267 103.709 92.4697 103.949C92.9222 104.18 93.2821 104.471 93.5496 104.821V103.714H95.1417V111.339H93.5496V110.204C93.2821 110.564 92.9178 110.864 92.4558 111.104C91.9946 111.343 91.4685 111.463 90.8775 111.463C90.2224 111.463 89.6227 111.297 89.0777 110.965C88.5334 110.624 88.0998 110.153 87.7763 109.554C87.4629 108.945 87.3056 108.257 87.3056 107.492ZM93.5496 107.519C93.5496 106.994 93.4388 106.537 93.2173 106.149C93.0052 105.762 92.7239 105.467 92.3728 105.264C92.0222 105.061 91.644 104.959 91.2375 104.959C90.8316 104.959 90.4534 105.061 90.1022 105.264C89.7517 105.457 89.4654 105.748 89.2438 106.136C89.0318 106.514 88.9254 106.966 88.9254 107.492C88.9254 108.018 89.0318 108.479 89.2438 108.876C89.4654 109.273 89.7517 109.577 90.1022 109.789C90.4622 109.992 90.841 110.093 91.2375 110.093C91.644 110.093 92.0222 109.992 92.3728 109.789C92.7239 109.586 93.0052 109.291 93.2173 108.903C93.4388 108.506 93.5496 108.045 93.5496 107.519ZM107.557 103.589C108.157 103.589 108.693 103.714 109.163 103.963C109.643 104.212 110.017 104.581 110.285 105.07C110.562 105.559 110.7 106.149 110.7 106.841V111.339H109.136V107.077C109.136 106.394 108.965 105.873 108.623 105.513C108.282 105.144 107.815 104.959 107.225 104.959C106.634 104.959 106.163 105.144 105.813 105.513C105.471 105.873 105.301 106.394 105.301 107.077V111.339H103.736V107.077C103.736 106.394 103.565 105.873 103.224 105.513C102.882 105.144 102.416 104.959 101.826 104.959C101.235 104.959 100.764 105.144 100.413 105.513C100.072 105.873 99.9012 106.394 99.9012 107.077V111.339H98.3229V103.714H99.9012V104.586C100.159 104.272 100.487 104.028 100.884 103.852C101.281 103.677 101.705 103.589 102.158 103.589C102.767 103.589 103.311 103.718 103.792 103.977C104.271 104.235 104.641 104.609 104.899 105.098C105.13 104.637 105.489 104.272 105.979 104.004C106.468 103.728 106.994 103.589 107.557 103.589ZM117.125 111.463C116.405 111.463 115.754 111.302 115.173 110.979C114.591 110.647 114.134 110.186 113.802 109.595C113.47 108.996 113.304 108.304 113.304 107.519C113.304 106.744 113.474 106.057 113.816 105.457C114.158 104.858 114.623 104.396 115.214 104.074C115.805 103.751 116.465 103.589 117.194 103.589C117.923 103.589 118.583 103.751 119.174 104.074C119.765 104.396 120.23 104.858 120.572 105.457C120.914 106.057 121.084 106.744 121.084 107.519C121.084 108.294 120.909 108.982 120.558 109.581C120.208 110.181 119.728 110.647 119.118 110.979C118.519 111.302 117.854 111.463 117.125 111.463ZM117.125 110.093C117.531 110.093 117.91 109.997 118.26 109.803C118.62 109.609 118.911 109.318 119.132 108.931C119.354 108.543 119.465 108.073 119.465 107.519C119.465 106.966 119.358 106.5 119.146 106.122C118.934 105.734 118.652 105.444 118.302 105.25C117.951 105.056 117.572 104.959 117.166 104.959C116.76 104.959 116.382 105.056 116.031 105.25C115.689 105.444 115.417 105.734 115.214 106.122C115.011 106.5 114.91 106.966 114.91 107.519C114.91 108.34 115.117 108.977 115.533 109.429C115.957 109.872 116.488 110.093 117.125 110.093ZM127.601 103.589C128.201 103.589 128.736 103.714 129.207 103.963C129.687 104.212 130.061 104.581 130.328 105.07C130.596 105.559 130.73 106.149 130.73 106.841V111.339H129.165V107.077C129.165 106.394 128.995 105.873 128.653 105.513C128.312 105.144 127.846 104.959 127.255 104.959C126.665 104.959 126.194 105.144 125.843 105.513C125.502 105.873 125.33 106.394 125.33 107.077V111.339H123.752V103.714H125.33V104.586C125.589 104.272 125.917 104.028 126.313 103.852C126.72 103.677 127.149 103.589 127.601 103.589ZM133.325 107.492C133.325 106.726 133.482 106.048 133.795 105.457C134.119 104.867 134.552 104.41 135.097 104.087C135.65 103.755 136.265 103.589 136.938 103.589C137.436 103.589 137.926 103.7 138.406 103.921C138.895 104.133 139.283 104.42 139.569 104.779V101.098H141.161V111.339H139.569V110.19C139.311 110.56 138.951 110.864 138.489 111.104C138.037 111.343 137.515 111.463 136.924 111.463C136.26 111.463 135.65 111.297 135.097 110.965C134.552 110.624 134.119 110.153 133.795 109.554C133.482 108.945 133.325 108.257 133.325 107.492ZM139.569 107.519C139.569 106.994 139.458 106.537 139.236 106.149C139.024 105.762 138.743 105.467 138.392 105.264C138.041 105.061 137.663 104.959 137.256 104.959C136.851 104.959 136.472 105.061 136.121 105.264C135.771 105.457 135.484 105.748 135.263 106.136C135.051 106.514 134.944 106.966 134.944 107.492C134.944 108.018 135.051 108.479 135.263 108.876C135.484 109.273 135.771 109.577 136.121 109.789C136.481 109.992 136.86 110.093 137.256 110.093C137.663 110.093 138.041 109.992 138.392 109.789C138.743 109.586 139.024 109.291 139.236 108.903C139.458 108.506 139.569 108.045 139.569 107.519Z" fill="#400F17"/>
<path d="M157.328 109.774C159.413 109.774 161.103 108.084 161.103 106C161.103 103.915 159.413 102.226 157.328 102.226C155.242 102.226 153.552 103.915 153.552 106C153.552 108.084 155.242 109.774 157.328 109.774Z" fill="#400F17"/>
<path d="M175.751 110.084C175.191 110.084 174.687 109.988 174.239 109.796C173.791 109.596 173.439 109.316 173.183 108.956C172.927 108.596 172.799 108.176 172.799 107.696H174.263C174.295 108.056 174.435 108.352 174.683 108.584C174.939 108.816 175.295 108.932 175.751 108.932C176.223 108.932 176.591 108.82 176.855 108.596C177.119 108.364 177.251 108.068 177.251 107.708C177.251 107.428 177.167 107.2 176.999 107.024C176.839 106.848 176.635 106.712 176.387 106.616C176.147 106.52 175.811 106.416 175.379 106.304C174.835 106.16 174.391 106.016 174.047 105.872C173.711 105.72 173.423 105.488 173.183 105.176C172.943 104.864 172.823 104.448 172.823 103.928C172.823 103.448 172.943 103.028 173.183 102.668C173.423 102.308 173.759 102.032 174.191 101.84C174.623 101.648 175.123 101.552 175.691 101.552C176.499 101.552 177.159 101.756 177.671 102.164C178.191 102.564 178.479 103.116 178.535 103.82H177.023C176.999 103.516 176.855 103.256 176.591 103.04C176.327 102.824 175.979 102.716 175.547 102.716C175.155 102.716 174.835 102.816 174.587 103.016C174.339 103.216 174.215 103.504 174.215 103.88C174.215 104.136 174.291 104.348 174.443 104.516C174.603 104.676 174.803 104.804 175.043 104.9C175.283 104.996 175.611 105.1 176.027 105.212C176.579 105.364 177.027 105.516 177.371 105.668C177.723 105.82 178.019 106.056 178.259 106.376C178.507 106.688 178.631 107.108 178.631 107.636C178.631 108.06 178.515 108.46 178.283 108.836C178.059 109.212 177.727 109.516 177.287 109.748C176.855 109.972 176.343 110.084 175.751 110.084ZM181.662 102.512C181.414 102.512 181.206 102.428 181.038 102.26C180.87 102.092 180.786 101.884 180.786 101.636C180.786 101.388 180.87 101.18 181.038 101.012C181.206 100.844 181.414 100.76 181.662 100.76C181.902 100.76 182.106 100.844 182.274 101.012C182.442 101.18 182.526 101.388 182.526 101.636C182.526 101.884 182.442 102.092 182.274 102.26C182.106 102.428 181.902 102.512 181.662 102.512ZM182.334 103.388V110H180.966V103.388H182.334ZM186.218 101.12V110H184.85V101.12H186.218ZM191.29 108.776L193.162 103.388H194.614L192.094 110H190.462L187.954 103.388H189.418L191.29 108.776ZM202.428 106.532C202.428 106.78 202.412 107.004 202.38 107.204H197.328C197.368 107.732 197.564 108.156 197.916 108.476C198.268 108.796 198.7 108.956 199.212 108.956C199.948 108.956 200.468 108.648 200.772 108.032H202.248C202.048 108.64 201.684 109.14 201.156 109.532C200.636 109.916 199.988 110.108 199.212 110.108C198.58 110.108 198.012 109.968 197.508 109.688C197.012 109.4 196.62 109 196.332 108.488C196.052 107.968 195.912 107.368 195.912 106.688C195.912 106.008 196.048 105.412 196.32 104.9C196.6 104.38 196.988 103.98 197.484 103.7C197.988 103.42 198.564 103.28 199.212 103.28C199.836 103.28 200.392 103.416 200.88 103.688C201.368 103.96 201.748 104.344 202.02 104.84C202.292 105.328 202.428 105.892 202.428 106.532ZM201 106.1C200.992 105.596 200.812 105.192 200.46 104.888C200.108 104.584 199.672 104.432 199.152 104.432C198.68 104.432 198.276 104.584 197.94 104.888C197.604 105.184 197.404 105.588 197.34 106.1H201ZM205.862 104.348C206.062 104.012 206.326 103.752 206.654 103.568C206.99 103.376 207.386 103.28 207.842 103.28V104.696H207.494C206.958 104.696 206.55 104.832 206.27 105.104C205.998 105.376 205.862 105.848 205.862 106.52V110H204.494V103.388H205.862V104.348Z" fill="#400F17"/>
</g>
<defs>
<clipPath id="clip0_143_1269">
<rect width="219" height="117" fill="white"/>
</clipPath>
</defs>
</svg>
