<svg width="85" height="51" viewBox="0 0 85 51" fill="none" xmlns="http://www.w3.org/2000/svg">
<path d="M15.6746 41.5071H14.7986C14.6312 41.5071 14.4727 41.4241 14.4117 41.2939L13.6819 39.735L12.7754 37.7966H12.7773L11.2289 34.4945L9.67089 37.7966H9.67268L9.05721 39.1104H9.05584L8.57264 40.1417L8.55004 40.1924L8.04286 41.2746C7.98996 41.4104 7.83247 41.5072 7.64619 41.5072H6.7699C6.7225 41.5072 6.67511 41.5004 6.62826 41.4869C6.4147 41.4242 6.30599 41.2381 6.38425 41.0691L10.3903 32.5235C10.4414 32.3896 10.5979 32.2913 10.7846 32.2913H11.6614C11.8298 32.2923 11.9874 32.3746 12.0475 32.506L16.0527 41.0502C16.075 41.0885 16.0877 41.1346 16.0877 41.1808C16.0877 41.3612 15.9029 41.5072 15.6747 41.5072L15.6746 41.5071ZM68.7066 34.914L72.3205 39.1846C72.3993 39.2783 72.5295 39.3286 72.6615 39.3301H73.0467C73.2012 39.3301 73.3363 39.2627 73.4069 39.1619L77.0013 34.914V41.1807C77.0013 41.3611 77.1861 41.5071 77.4147 41.5071H78.2302C78.4563 41.5071 78.6423 41.3611 78.6423 41.1807V32.6181C78.6423 32.4385 78.4565 32.2912 78.2302 32.2912H77.4147C77.2594 32.2912 77.1246 32.36 77.0545 32.4589L72.8624 37.3934L68.6361 32.4359C68.5559 32.3426 68.4258 32.2921 68.2951 32.2912H67.4801C67.2511 32.2912 67.0662 32.4385 67.0662 32.6181V34.9619V38.6495V41.1806C67.0662 41.3609 67.2509 41.5069 67.4801 41.5069H68.2951C68.5217 41.5069 68.7067 41.3609 68.7067 41.1806V34.9139L68.7066 34.914ZM9.60614 41.6665H12.84C12.764 41.6659 12.693 41.6285 12.6653 41.5694L12.3352 40.8645L11.9258 39.9883L11.226 38.4954L10.5227 39.9883L10.2435 40.5825L10.0251 41.0492L10.0147 41.0713L9.78525 41.5613C9.76197 41.6222 9.69046 41.6666 9.60627 41.6666L9.60614 41.6665ZM25.1863 37.9876V32.6182C25.1863 32.4387 25.3711 32.2913 25.599 32.2913H26.4284C26.658 32.2913 26.8421 32.4387 26.8421 32.6182V37.9876C26.8421 39.084 26.4322 40.0013 25.697 40.6466C24.9565 41.2971 23.9013 41.6665 22.6147 41.6665C21.3235 41.6665 20.2695 41.2971 19.5318 40.6494C18.797 40.0027 18.3882 39.0854 18.3882 37.9876V32.6182C18.3882 32.4387 18.5724 32.2913 18.8021 32.2913H19.6157C19.8437 32.2913 20.0286 32.4387 20.0286 32.6182V37.9876C20.0286 38.7382 20.2739 39.3406 20.7262 39.7479C21.1595 40.1367 21.8006 40.3525 22.6147 40.3525C23.4291 40.3525 24.0656 40.1385 24.4944 39.7502C24.9447 39.3452 25.1863 38.7414 25.1863 37.9876ZM35.5875 37.6252L38.2062 40.9864C38.2581 41.04 38.2891 41.1083 38.2891 41.1807C38.2891 41.3611 38.1042 41.5071 37.8766 41.5071H36.9219V41.5058C36.7847 41.5058 36.651 41.4512 36.5726 41.3518L33.8882 37.9107L33.8191 37.9145C33.6948 37.9195 33.576 37.9233 33.4775 37.9233H31.7047V41.1806C31.7047 41.3609 31.5207 41.5069 31.2931 41.5069H30.478C30.25 41.5069 30.066 41.3609 30.066 41.1806V32.6179C30.066 32.4384 30.2498 32.291 30.478 32.291H33.4774C34.756 32.291 35.7903 32.5491 36.5142 33.0288C37.2545 33.5183 37.657 34.2258 37.657 35.1137C37.657 35.7826 37.4222 36.3513 36.9832 36.8023C36.6363 37.1584 36.1659 37.4361 35.5873 37.625L35.5875 37.6252ZM31.7048 33.6044V36.6221H33.4776C34.3364 36.6221 34.993 36.4881 35.4209 36.2222C35.8115 35.979 36.0172 35.6082 36.0172 35.1138C36.0172 34.1083 35.104 33.6043 33.4776 33.6043H31.7048V33.6044ZM47.387 37.9876V32.6182C47.387 32.4387 47.5714 32.2913 47.7995 32.2913H48.6306C48.8576 32.2913 49.0416 32.4387 49.0416 32.6182V37.9876C49.0416 39.084 48.632 40.0013 47.8966 40.6466C47.1585 41.2971 46.1013 41.6665 44.8162 41.6665C43.5244 41.6665 42.4691 41.2971 41.7324 40.6494C40.9972 40.0027 40.5891 39.0854 40.5891 37.9876V32.6182C40.5891 32.4387 40.7739 32.2913 41.0016 32.2913H41.8166C42.0438 32.2913 42.2297 32.4387 42.2297 32.6182V37.9876C42.2297 38.7382 42.4737 39.3406 42.9268 39.7479C43.3615 40.1367 44.0008 40.3525 44.8162 40.3525C45.6289 40.3525 46.2662 40.1385 46.6942 39.7502C47.1453 39.3452 47.387 38.7414 47.387 37.9876ZM58.062 37.3935L62.2542 32.4591C62.3244 32.3602 62.4592 32.2913 62.6144 32.2913H63.4298C63.6561 32.2913 63.8419 32.4387 63.8419 32.6182V41.1808C63.8419 41.3612 63.6562 41.5072 63.4298 41.5072H62.6144C62.386 41.5072 62.201 41.3612 62.201 41.1808V34.9142L58.6065 39.1621C58.536 39.2628 58.4008 39.3303 58.2465 39.3303H57.8613C57.7291 39.3287 57.5989 39.2785 57.5202 39.1847L53.9062 34.9142V41.1808C53.9062 41.3612 53.7213 41.5072 53.4945 41.5072H52.6796C52.4506 41.5072 52.2657 41.3612 52.2657 41.1808V32.6182C52.2657 32.4387 52.4504 32.2913 52.6796 32.2913H53.4945C53.6253 32.2923 53.7555 32.3427 53.8356 32.436L58.0619 37.3935H58.062Z" fill="#1B1B1B"/>
<path fill-rule="evenodd" clip-rule="evenodd" d="M34.2663 26.3618L45.5485 20.0125L42.5034 18.2987L32.8316 23.7417L39.5094 12.5832L42.5034 7.58L43.6445 9.48714L43.9893 10.0623L45.5232 12.6261L46.9777 15.0092L49.543 13.5662L48.1093 11.1707L46.5747 8.60643L46.2312 8.03195C45.1802 6.27514 44.558 4.58301 42.5034 4.58301C41.4403 4.58301 40.5279 5.10411 39.9766 6.02492L31.2041 20.6848C31.2041 21.047 28.5536 23.5527 30.7017 25.8196C31.6443 26.8128 33.0779 27.0306 34.2663 26.3618Z" fill="#61A375"/>
<path fill-rule="evenodd" clip-rule="evenodd" d="M48.8362 18.1626L52.1755 23.7416L46.1897 20.3731L43.1445 22.0869L50.7408 26.3616C51.9291 27.0304 53.3626 26.8126 54.3053 25.8194C55.2473 24.8262 55.4074 23.3648 54.7021 22.1866L51.4224 16.7069L49.8883 14.1426L47.3286 15.5834L47.3022 15.5985L48.8362 18.1626Z" fill="#D7B56D"/>
<path d="M22.6805 46.4246C22.6889 46.5737 22.7232 46.6951 22.7847 46.7879C22.9009 46.9618 23.1062 47.0493 23.4001 47.0493C23.532 47.0493 23.6519 47.0303 23.7603 46.9919C23.9697 46.9179 24.074 46.7855 24.074 46.5949C24.074 46.4513 24.0299 46.3495 23.942 46.289C23.8523 46.2292 23.7126 46.1772 23.5217 46.1332L23.1706 46.0526C22.9412 46.0001 22.7791 45.9421 22.6839 45.8792C22.5189 45.7693 22.4372 45.6051 22.4372 45.387C22.4372 45.1508 22.5172 44.9572 22.6786 44.8059C22.84 44.6543 23.0675 44.5787 23.3632 44.5787C23.6348 44.5787 23.8654 44.6453 24.0557 44.7783C24.2454 44.9109 24.3406 45.1233 24.3406 45.4158H24.0105C23.9931 45.2747 23.9551 45.1673 23.8974 45.0921C23.7907 44.9548 23.6089 44.8865 23.3525 44.8865C23.1452 44.8865 22.9964 44.9305 22.9062 45.019C22.8151 45.1069 22.7699 45.2095 22.7699 45.3261C22.7699 45.4551 22.823 45.5495 22.9291 45.6088C22.9984 45.6473 23.1554 45.695 23.4 45.7524L23.7637 45.8361C23.9389 45.877 24.0739 45.9326 24.1696 46.0029C24.334 46.1255 24.4164 46.3038 24.4164 46.5377C24.4164 46.8283 24.3117 47.0366 24.1034 47.1616C23.8945 47.2869 23.6517 47.3496 23.3753 47.3496C23.0531 47.3496 22.8008 47.266 22.6184 47.0993C22.4365 46.9332 22.3468 46.7085 22.3504 46.4246H22.6804H22.6805ZM27.911 44.6446H29.7999V44.9671H28.2529V45.7645H29.6838V46.0687H28.2529V46.9594H29.8264V47.2727H27.911V44.6446ZM34.5084 45.8488C34.6729 45.8488 34.8035 45.8151 34.8992 45.7486C34.995 45.682 35.0432 45.5611 35.0432 45.387C35.0432 45.1997 34.9757 45.072 34.8421 45.0042C34.7704 44.9688 34.6742 44.9505 34.5542 44.9505H33.6968V45.8486H34.5086L34.5084 45.8488ZM33.3455 44.6446H34.5456C34.743 44.6446 34.9057 44.674 35.034 44.7326C35.2773 44.8444 35.3995 45.0513 35.3995 45.3529C35.3995 45.5105 35.367 45.6393 35.3032 45.7395C35.2387 45.8397 35.1489 45.9202 35.034 45.9813C35.1353 46.0228 35.2116 46.0777 35.2622 46.1456C35.3134 46.214 35.3424 46.3238 35.3484 46.4765L35.3604 46.8288C35.364 46.929 35.3724 47.004 35.3851 47.0529C35.4061 47.136 35.4442 47.1897 35.4983 47.2136V47.2728H35.0678C35.0558 47.2502 35.0467 47.2208 35.0395 47.1848C35.0322 47.1494 35.0261 47.0804 35.022 46.9779L35.0002 46.5395C34.9925 46.3679 34.9291 46.2525 34.8119 46.1938C34.7451 46.1621 34.6397 46.1456 34.4964 46.1456H33.6965V47.2728H33.3455V44.6448V44.6446ZM39.0704 44.6446L39.8147 46.8825L40.5506 44.6446H40.9439L39.9985 47.2727H39.6263L38.6822 44.6446H39.0706H39.0704ZM44.5214 46.4246C44.5298 46.5737 44.5641 46.6951 44.6255 46.7879C44.7418 46.9618 44.9471 47.0493 45.241 47.0493C45.3729 47.0493 45.4927 47.0303 45.6012 46.9919C45.8106 46.9179 45.9149 46.7855 45.9149 46.5949C45.9149 46.4513 45.8708 46.3495 45.7829 46.289C45.6932 46.2292 45.5535 46.1772 45.3625 46.1332L45.0115 46.0526C44.782 46.0001 44.62 45.9421 44.5248 45.8792C44.3597 45.7693 44.278 45.6051 44.278 45.387C44.278 45.1508 44.3581 44.9572 44.5194 44.8059C44.6809 44.6543 44.9084 44.5787 45.2041 44.5787C45.4756 44.5787 45.7063 44.6453 45.8966 44.7783C46.0863 44.9109 46.1815 45.1233 46.1815 45.4158H45.8514C45.834 45.2747 45.796 45.1673 45.7383 45.0921C45.6316 44.9548 45.4497 44.8865 45.1933 44.8865C44.9861 44.8865 44.8373 44.9305 44.747 45.019C44.656 45.1069 44.6108 45.2095 44.6108 45.3261C44.6108 45.4551 44.6638 45.5495 44.7699 45.6088C44.8392 45.6473 44.9963 45.695 45.2409 45.7524L45.6046 45.8361C45.7797 45.877 45.9147 45.9326 46.0105 46.0029C46.1749 46.1255 46.2573 46.3038 46.2573 46.5377C46.2573 46.8283 46.1526 47.0366 45.9442 47.1616C45.7354 47.2869 45.4926 47.3496 45.2162 47.3496C44.8939 47.3496 44.6416 47.266 44.4592 47.0993C44.2774 46.9332 44.1877 46.7085 44.1912 46.4246H44.5212H44.5214ZM50.837 44.5732C51.2942 44.5732 51.6331 44.7223 51.8529 45.0202C52.0244 45.2528 52.1105 45.5508 52.1105 45.9129C52.1105 46.3055 52.0124 46.6315 51.8155 46.8917C51.5856 47.1969 51.2567 47.3496 50.8297 47.3496C50.4311 47.3496 50.1174 47.2158 49.8892 46.9491C49.6857 46.6915 49.5839 46.366 49.5839 45.9721C49.5839 45.6167 49.6712 45.3127 49.8452 45.06C50.0686 44.7357 50.3991 44.5732 50.837 44.5732ZM50.872 47.031C51.1815 47.031 51.4048 46.9185 51.5434 46.6939C51.6813 46.4692 51.7505 46.2109 51.7505 45.9183C51.7505 45.6094 51.671 45.3609 51.5114 45.1729C51.3518 44.9841 51.1345 44.8901 50.8581 44.8901C50.5895 44.8901 50.3709 44.983 50.2017 45.1698C50.0326 45.3566 49.9476 45.6314 49.9476 45.9953C49.9476 46.2866 50.0205 46.5319 50.1656 46.7317C50.3108 46.9314 50.5461 47.031 50.872 47.031ZM55.5786 44.6446H57.3761V44.9671H55.9297V45.7645H57.2014V46.0777H55.9297V47.2727H55.5786V44.6446ZM62.6543 44.6446V44.9579H61.7811V47.2727H61.4247V44.9579H60.5516V44.6446H62.6544H62.6543Z" fill="#1B1B1B"/>
<path fill-rule="evenodd" clip-rule="evenodd" d="M6.50057 45.8164H18.63C18.7083 45.8164 18.7722 45.8814 18.7722 45.961V45.9613C18.7722 46.0409 18.7083 46.1059 18.63 46.1059H6.50057C6.42231 46.1059 6.35838 46.0409 6.35838 45.9613V45.961C6.35838 45.8814 6.42231 45.8164 6.50057 45.8164Z" fill="#1B1B1B"/>
<path fill-rule="evenodd" clip-rule="evenodd" d="M66.3707 45.8174H78.5002C78.5784 45.8174 78.6424 45.8824 78.6424 45.962V45.9623C78.6424 46.0419 78.5784 46.1069 78.5002 46.1069H66.3707C66.2924 46.1069 66.2285 46.0419 66.2285 45.9623V45.962C66.2285 45.8824 66.2924 45.8174 66.3707 45.8174Z" fill="#1B1B1B"/>
</svg>
