<svg width="13" height="12" viewBox="0 0 13 12" fill="none" xmlns="http://www.w3.org/2000/svg">
<path d="M6.61902 7C7.1713 7 7.61902 6.55228 7.61902 6C7.61902 5.44772 7.1713 5 6.61902 5C6.06673 5 5.61902 5.44772 5.61902 6C5.61902 6.55228 6.06673 7 6.61902 7Z" fill="#6C7086"/>
<path d="M6.61902 3.5C7.1713 3.5 7.61902 3.05228 7.61902 2.5C7.61902 1.94772 7.1713 1.5 6.61902 1.5C6.06673 1.5 5.61902 1.94772 5.61902 2.5C5.61902 3.05228 6.06673 3.5 6.61902 3.5Z" fill="#6C7086"/>
<path d="M6.61902 10.5C7.1713 10.5 7.61902 10.0523 7.61902 9.5C7.61902 8.94772 7.1713 8.5 6.61902 8.5C6.06673 8.5 5.61902 8.94772 5.61902 9.5C5.61902 10.0523 6.06673 10.5 6.61902 10.5Z" fill="#6C7086"/>
</svg>
