<svg width="25" height="24" viewBox="0 0 25 24" fill="none" xmlns="http://www.w3.org/2000/svg">
<path d="M8.5 2H5.5C4.70435 2 3.94129 2.31607 3.37868 2.87868C2.81607 3.44129 2.5 4.20435 2.5 5V8H5.208C5.00666 7.53937 4.94887 7.02875 5.04216 6.53478C5.13546 6.04081 5.3755 5.58643 5.73097 5.23097C6.08643 4.8755 6.54081 4.63546 7.03478 4.54216C7.52875 4.44887 8.03937 4.50666 8.5 4.708V2ZM2.5 9.5V14C2.5 14.7956 2.81607 15.5587 3.37868 16.1213C3.94129 16.6839 4.70435 17 5.5 17H8.5V10.56L6.78 12.28C6.63783 12.4125 6.44978 12.4846 6.25548 12.4812C6.06118 12.4777 5.87579 12.399 5.73838 12.2616C5.60097 12.1242 5.52225 11.9388 5.51883 11.7445C5.5154 11.5502 5.58752 11.3622 5.72 11.22L7.44 9.5H2.5ZM10 17H11.519C11.6138 15.7721 12.0554 14.5964 12.7925 13.6098C13.5296 12.6232 14.5319 11.8663 15.6825 11.4272C16.8331 10.9882 18.0848 10.8851 19.2918 11.1299C20.4988 11.3747 21.6114 11.9573 22.5 12.81V9.5H11.06L12.78 11.22C12.8537 11.2887 12.9128 11.3715 12.9538 11.4635C12.9948 11.5555 13.0168 11.6548 13.0186 11.7555C13.0204 11.8562 13.0018 11.9562 12.9641 12.0496C12.9264 12.143 12.8703 12.2278 12.799 12.299C12.7278 12.3703 12.643 12.4264 12.5496 12.4641C12.4562 12.5018 12.3562 12.5204 12.2555 12.5186C12.1548 12.5168 12.0555 12.4948 11.9635 12.4538C11.8715 12.4128 11.7887 12.3537 11.72 12.28L10 10.56V17ZM22.5 8H13.292C13.4933 7.53937 13.5511 7.02875 13.4578 6.53478C13.3645 6.04081 13.1245 5.58643 12.769 5.23097C12.4136 4.8755 11.9592 4.63546 11.4652 4.54216C10.9712 4.44887 10.4606 4.50666 10 4.708V2H19.5C20.2956 2 21.0587 2.31607 21.6213 2.87868C22.1839 3.44129 22.5 4.20435 22.5 5V8ZM11 8H10V7C10 6.80222 10.0586 6.60888 10.1685 6.44443C10.2784 6.27998 10.4346 6.15181 10.6173 6.07612C10.8 6.00043 11.0011 5.98063 11.1951 6.01921C11.3891 6.0578 11.5673 6.15304 11.7071 6.29289C11.847 6.43275 11.9422 6.61093 11.9808 6.80491C12.0194 6.99889 11.9996 7.19996 11.9239 7.38268C11.8482 7.56541 11.72 7.72159 11.5556 7.83147C11.3911 7.94135 11.1978 8 11 8ZM8.5 8H7.5C7.30256 7.99999 7.10954 7.94154 6.94527 7.83201C6.781 7.72248 6.65283 7.56677 6.57691 7.38451C6.50099 7.20225 6.48073 7.00159 6.51867 6.80783C6.55661 6.61407 6.65106 6.43588 6.79011 6.29572C6.92917 6.15555 7.1066 6.05968 7.30005 6.0202C7.4935 5.98072 7.69431 5.99938 7.87717 6.07384C8.06003 6.14831 8.21676 6.27523 8.32759 6.43863C8.43843 6.60202 8.49842 6.79457 8.5 6.992V8ZM23.5 17.5C23.5 18.9587 22.9205 20.3576 21.8891 21.3891C20.8576 22.4205 19.4587 23 18 23C16.5413 23 15.1424 22.4205 14.1109 21.3891C13.0795 20.3576 12.5 18.9587 12.5 17.5C12.5 16.0413 13.0795 14.6424 14.1109 13.6109C15.1424 12.5795 16.5413 12 18 12C19.4587 12 20.8576 12.5795 21.8891 13.6109C22.9205 14.6424 23.5 16.0413 23.5 17.5ZM15 17C14.8674 17 14.7402 17.0527 14.6464 17.1464C14.5527 17.2402 14.5 17.3674 14.5 17.5C14.5 17.6326 14.5527 17.7598 14.6464 17.8536C14.7402 17.9473 14.8674 18 15 18H19.793L18.146 19.646C18.0521 19.7399 17.9994 19.8672 17.9994 20C17.9994 20.1328 18.0521 20.2601 18.146 20.354C18.2399 20.4479 18.3672 20.5006 18.5 20.5006C18.6328 20.5006 18.7601 20.4479 18.854 20.354L21.354 17.854C21.4006 17.8076 21.4375 17.7524 21.4627 17.6916C21.4879 17.6309 21.5009 17.5658 21.5009 17.5C21.5009 17.4342 21.4879 17.3691 21.4627 17.3084C21.4375 17.2476 21.4006 17.1924 21.354 17.146L18.854 14.646C18.8075 14.5995 18.7523 14.5626 18.6916 14.5375C18.6308 14.5123 18.5657 14.4994 18.5 14.4994C18.3672 14.4994 18.2399 14.5521 18.146 14.646C18.0521 14.7399 17.9994 14.8672 17.9994 15C17.9994 15.1328 18.0521 15.2601 18.146 15.354L19.793 17H15Z" fill="white"/>
</svg>
