<svg width="10" height="11" viewBox="0 0 10 11" fill="none" xmlns="http://www.w3.org/2000/svg">
<path d="M5.66732 1.49967C5.66732 1.32286 5.59708 1.15329 5.47206 1.02827C5.34703 0.903246 5.17746 0.833008 5.00065 0.833008C4.82384 0.833008 4.65427 0.903246 4.52925 1.02827C4.40422 1.15329 4.33398 1.32286 4.33398 1.49967V4.83301H1.00065C0.82384 4.83301 0.654271 4.90325 0.529247 5.02827C0.404222 5.15329 0.333984 5.32286 0.333984 5.49967C0.333984 5.67649 0.404222 5.84605 0.529247 5.97108C0.654271 6.0961 0.82384 6.16634 1.00065 6.16634H4.33398V9.49967C4.33398 9.67649 4.40422 9.84606 4.52925 9.97108C4.65427 10.0961 4.82384 10.1663 5.00065 10.1663C5.17746 10.1663 5.34703 10.0961 5.47206 9.97108C5.59708 9.84606 5.66732 9.67649 5.66732 9.49967V6.16634H9.00065C9.17746 6.16634 9.34703 6.0961 9.47206 5.97108C9.59708 5.84605 9.66732 5.67649 9.66732 5.49967C9.66732 5.32286 9.59708 5.15329 9.47206 5.02827C9.34703 4.90325 9.17746 4.83301 9.00065 4.83301H5.66732V1.49967Z" fill="white"/>
</svg>
