<svg width="15" height="15" viewBox="0 0 15 15" fill="none" xmlns="http://www.w3.org/2000/svg">
<path fill-rule="evenodd" clip-rule="evenodd" d="M10.7386 9.82471C11.6738 8.61897 12.1146 7.10223 11.9712 5.58305C11.8278 4.06387 11.1111 2.65638 9.96679 1.6469C8.8225 0.63742 7.3366 0.101796 5.8114 0.148992C4.2862 0.196188 2.83627 0.822659 1.75658 1.90096C0.675945 2.98 0.0474253 4.4305 -0.000898639 5.95685C-0.0492225 7.48321 0.486286 8.97056 1.4965 10.1158C2.50671 11.261 3.9156 11.978 5.43606 12.1205C6.95651 12.2631 8.47411 11.8205 9.67958 10.883L9.71183 10.9167L12.8933 14.099C12.963 14.1686 13.0457 14.2239 13.1368 14.2616C13.2278 14.2993 13.3254 14.3187 13.424 14.3187C13.5225 14.3187 13.6201 14.2993 13.7111 14.2616C13.8022 14.2239 13.8849 14.1686 13.9546 14.099C14.0243 14.0293 14.0795 13.9465 14.1172 13.8555C14.155 13.7645 14.1744 13.6669 14.1744 13.5683C14.1744 13.4698 14.155 13.3722 14.1172 13.2812C14.0795 13.1901 14.0243 13.1074 13.9546 13.0377L10.7723 9.85621L10.7386 9.82471ZM9.18158 2.96221C9.60503 3.37882 9.9418 3.87514 10.1725 4.42256C10.4032 4.96997 10.5232 5.55764 10.5256 6.15167C10.528 6.7457 10.4128 7.33433 10.1866 7.8836C9.96036 8.43288 9.62764 8.93193 9.2076 9.35198C8.78755 9.77202 8.2885 10.1047 7.73922 10.3309C7.18995 10.5572 6.60132 10.6724 6.00729 10.67C5.41327 10.6675 4.82559 10.5475 4.27818 10.3169C3.73076 10.0862 3.23444 9.74941 2.81783 9.32596C1.98527 8.47972 1.52082 7.33879 1.52565 6.15167C1.53049 4.96456 2.00421 3.82744 2.84364 2.98801C3.68306 2.14859 4.82018 1.67487 6.00729 1.67003C7.19441 1.6652 8.33535 2.12965 9.18158 2.96221Z" fill="#D8DBE4"/>
</svg>
