<svg width="54" height="43" viewBox="0 0 54 43" fill="none" xmlns="http://www.w3.org/2000/svg">
<path d="M45.3408 21.6743C45.4591 21.9846 45.0383 22.3845 44.8704 22.5095C44.4522 22.821 10.1359 36.6744 8.91615 37.0134C7.40501 37.4327 6.53831 35.4732 5.3801 33.7411C4.15229 31.9047 2.35096 29.3635 1.40506 27.989C0.748315 27.035 0.75 26.8454 0.75 26.8454C0.75 26.8454 45.3396 21.6706 45.3408 21.6743Z" fill="#090909"/>
<path d="M5.87699 34.1388C4.59047 32.3332 2.40639 29.1883 1.44636 27.8543C0.875554 27.0611 0.799861 27.19 0.982094 26.1802C1.29822 24.4277 1.88108 20.2755 2.18242 18.8954C2.24827 18.5931 2.40808 18.3523 2.40808 18.3523L7.12968 24.3765C7.12968 24.3765 6.08722 34.4337 5.87699 34.1388Z" fill="url(#paint0_linear_40000236_5462)"/>
<path d="M44.6629 22.5612L11.0562 36.055C10.7251 36.0589 8.64598 36.4411 8.39182 36.4016L8.14893 25.1499L41.3465 12.5505L45.0177 21.9197C44.8316 22.2387 45.0387 22.4292 44.6629 22.5612Z" fill="url(#paint1_linear_40000236_5462)"/>
<path d="M43.3671 23.0881L40.5881 13.1335C40.5881 13.1335 40.8553 12.3537 41.1929 12.2926C41.3291 12.2681 41.803 12.9812 41.9658 13.2734C42.577 14.3724 45.3409 21.6743 45.3409 21.6743C45.1532 22.5226 44.3038 22.7485 43.3671 23.0881Z" fill="url(#paint2_linear_40000236_5462)"/>
<path d="M9.50199 24.4517L11.1755 36.0023C11.1755 36.0023 9.35605 36.7294 8.9873 36.8513C7.33308 37.3974 6.36488 34.7729 5.1604 33.1947L6.91974 24.2246L9.50199 24.4517Z" fill="url(#paint3_linear_40000236_5462)"/>
<path d="M0.75 26.8457C0.75 26.8457 1.46856 21.1462 2.22873 18.6031C2.29484 18.3823 2.55574 18.1243 2.55574 18.1243L1.50343 27.9195C1.09516 27.4865 0.75 26.8457 0.75 26.8457Z" fill="url(#paint4_linear_40000236_5462)"/>
<path d="M3.20909 17.8511C2.53395 18.1156 1.97221 18.4364 2.56674 19.2191C3.7974 20.8393 6.14608 23.8781 7.36572 25.3455C7.79448 25.8616 8.27196 25.8607 8.94685 25.5961L41.2838 13.8798C42.1486 13.5656 41.7823 12.6707 41.2648 12.2677C39.5026 10.8966 37.5055 9.06372 35.8444 7.70902C35.3579 7.31202 35.0242 7.04878 34.349 7.31319L3.20909 17.8511Z" fill="#E1E1E1"/>
<path d="M3.0507 17.8635C2.38904 18.1049 2.17311 18.5566 2.53939 19.0532C3.66934 20.5867 5.95179 23.3873 7.38555 25.1995C7.7981 25.7208 8.1846 25.7479 8.85301 25.4861L41.2436 13.753C42.0173 13.4408 41.6641 12.6699 41.2772 12.3448C39.558 10.8977 37.2461 8.94718 35.6343 7.63707C35.114 7.21428 34.7574 6.80289 34.0888 7.06484L3.0507 17.8635Z" fill="url(#paint5_linear_40000236_5462)"/>
<path d="M2.95473 17.8953C2.12937 18.1964 2.42968 18.6757 2.85454 19.2498C3.87549 20.6298 6.22301 23.5516 7.35698 24.9689C7.77225 25.488 8.20476 25.6018 8.87291 25.3395L41.0795 13.7144C41.7479 13.4525 41.6661 12.7728 41.2134 12.3816C39.6156 11.0002 36.9297 8.7547 35.2849 7.4118C34.8033 7.0183 34.4727 6.75752 33.8039 7.01947C33.8039 7.01947 10.637 15.0931 2.95473 17.8953Z" fill="url(#paint6_linear_40000236_5462)"/>
<path d="M40.9355 12.5286C40.9849 12.558 41.0337 12.5884 41.0851 12.615C41.2254 12.6877 41.3701 12.7516 41.5152 12.8142C41.6146 13.0979 41.5531 13.3806 41.3109 13.5793C41.2085 13.4304 41.1069 13.2812 41.0106 13.1281C40.9442 13.0223 40.8737 12.9218 40.8013 12.8229C40.8487 12.7264 40.8939 12.6284 40.9355 12.5286Z" fill="#B9B9B9"/>
<path d="M7.93384 25.4211L8.23116 24.1111L8.39772 24.2416L8.47263 25.4553C8.27381 25.4895 8.09676 25.479 7.93384 25.4211Z" fill="#F8F8F8"/>
<path d="M34.0887 7.06456C34.0887 7.06456 10.6399 15.0592 2.91829 17.9842C2.72711 18.0569 2.62873 18.2726 2.74798 18.4121L7.72751 24.6273C7.88408 24.7766 8.29404 24.9224 8.5937 24.806L40.588 13.1335C41.1638 12.9142 41.1494 12.5182 40.9187 12.3152C39.4333 11.0089 34.8487 7.23876 34.8487 7.23876C34.5752 6.98809 34.2082 7.01777 34.0887 7.06456Z" fill="url(#paint7_linear_40000236_5462)"/>
<path d="M34.0907 7.1597C34.0907 7.1597 10.698 14.9886 3.07782 18.068C2.92112 18.1313 2.80408 18.2523 2.89143 18.3646C4.09449 19.9131 7.79152 24.4887 7.79152 24.4887C7.94822 24.638 8.22921 24.7574 8.42933 24.7094L40.5606 12.8966C40.716 12.8352 40.9595 12.5454 40.7566 12.3641C39.2927 11.0565 34.7633 7.29398 34.7633 7.29398C34.5081 7.07701 34.2103 7.11291 34.0907 7.1597Z" fill="url(#paint8_linear_40000236_5462)"/>
<path d="M20.0218 14.6287C20.0218 14.6287 16.1572 15.298 16.0842 15.9849C16.0111 16.6721 23.3492 20.0756 23.3492 20.0756C23.3492 20.0756 22.0932 21.5268 19.7613 22.1132C17.4296 22.6993 11.6983 25.6263 11.7762 25.9821C11.8543 26.3376 18.8983 27.1777 20.5805 27.3007C22.2628 27.4239 28.5707 25.7265 28.5707 25.7265C28.5707 25.7265 21.5853 14.8226 20.0218 14.6287Z" fill="url(#paint9_linear_40000236_5462)"/>
<path d="M20.6489 20.2959C20.6489 20.2959 16.2907 21.5574 15.1913 22.0523C14.092 22.5471 11.3403 23.5984 11.3403 23.5984C11.3403 23.5984 15.3167 22.4871 16.6606 22.088C18.0043 21.6884 20.6489 20.2959 20.6489 20.2959Z" fill="#E1E1E1"/>
<path d="M39.4263 41.9984C39.4263 41.9984 49.0104 37.8863 50.1044 37.41C50.7819 37.1149 51.2762 36.9411 51.6301 35.9131C52.0923 34.5709 52.6762 32.3111 53.094 30.8748C53.1956 30.5261 52.9231 29.6998 52.9231 29.6998L43.1811 34.2195L39.4263 41.9984Z" fill="url(#paint10_linear_40000236_5462)"/>
<path d="M16.0704 8.00169L35.3457 41.4235C35.9499 41.908 36.7886 42.0894 36.531 41.9453L44.083 32.7241L23.1981 2.2594L15.4575 5.94969C15.4045 6.33735 15.848 7.60806 16.0704 8.00169Z" fill="url(#paint11_linear_40000236_5462)"/>
<path d="M16.0706 8.00178L23.2454 3.6716C23.2454 3.6716 24.8722 2.00247 24.6304 1.7308C24.533 1.6218 23.0651 1.71875 22.7388 1.85614C21.5112 2.37277 15.5984 4.95462 15.5984 4.95462C15.2231 6.01134 15.6511 7.05951 16.0706 8.00178Z" fill="url(#paint12_linear_40000236_5462)"/>
<path d="M41.1109 32.5922L34.4709 39.7945C34.4709 39.7945 35.3867 41.5776 35.6141 41.9198C36.6366 43.4557 38.3599 42.5031 40.1054 41.7019L43.8794 33.9461L41.1109 32.5922Z" fill="url(#paint13_linear_40000236_5462)"/>
<path d="M51.4745 36.8062C51.4745 36.8062 52.4969 33.9307 53.2179 31.2138C53.3357 30.7694 53.0913 29.729 53.0913 29.729L50.1042 37.4099C50.9296 37.0555 51.4745 36.8062 51.4745 36.8062Z" fill="url(#paint14_linear_40000236_5462)"/>
<path d="M53.0296 29.6338C53.382 30.1052 53.125 30.8895 52.2046 31.2385C50.2236 31.9891 45.0612 34.0568 43.1376 34.7051C42.4952 34.9217 41.7737 34.9822 41.3981 34.3551L22.4632 3.08721C21.9668 2.30267 22.7423 1.80833 23.3966 1.69155C25.4366 1.32761 32.5109 0.0946162 33.3196 0.0120539C33.9525 -0.0524925 34.4568 0.134407 34.8327 0.761596L53.0296 29.6338Z" fill="#E1E1E1"/>
<path d="M53.0297 29.6338C53.4086 30.2346 52.8912 30.9002 52.309 31.1246C50.4714 31.8331 45.326 33.7669 43.2163 34.5851C42.45 34.8821 41.8031 34.8697 41.4313 34.2485L22.6435 3.07683C22.2825 2.21258 22.778 1.84967 23.6261 1.70684C26.4652 1.22832 32.2426 0.210218 33.1909 0.0557217C33.8208 -0.0468008 34.3703 0.0331696 34.7422 0.654655L53.0297 29.6338Z" fill="url(#paint15_linear_40000236_5462)"/>
<path d="M52.9898 29.469C53.2951 30.0742 53.1016 30.6831 52.3668 30.9703C50.4481 31.7202 45.5345 33.6758 43.5705 34.3618C42.921 34.5888 41.961 34.8917 41.5894 34.2703L22.8951 3.03184C22.5236 2.41061 22.8723 2.03746 23.5871 1.88672C25.4651 1.49102 32.2845 0.24403 33.2423 0.092515C33.7934 0.00528663 34.3465 0.0603716 34.72 0.68082C35.9789 2.77184 52.2397 27.9828 52.9898 29.469Z" fill="url(#paint16_linear_40000236_5462)"/>
<path d="M23.9501 2.17926C23.6553 2.13883 23.3604 2.09761 23.0648 2.06274C22.7845 2.20882 22.6624 2.41905 22.778 2.76602C23.1164 2.64781 23.4547 2.52974 23.7962 2.42371C23.8074 2.41853 23.8187 2.4136 23.8297 2.40842C23.8658 2.33013 23.9064 2.25379 23.9501 2.17926Z" fill="#B9B9B9"/>
<path d="M42.2633 34.6351L42.7835 33.4443L42.5896 33.4697L41.8633 34.5328C41.9814 34.5961 42.1174 34.6264 42.2633 34.6351Z" fill="#F8F8F8"/>
<path d="M34.0714 0.542089L34.2371 0.20121C34.1186 0.137831 33.9933 0.0992064 33.8639 0.0788574L33.8237 0.47469C33.8237 0.47469 33.9632 0.504373 34.011 0.526018C34.0482 0.542867 34.0714 0.542089 34.0714 0.542089Z" fill="#B9B9B9"/>
<path d="M52.8905 30.6268C52.989 30.5191 53.0574 30.399 53.0968 30.271L52.3013 29.0557L52.8905 30.6268Z" fill="#F8F8F8"/>
<path d="M34.4575 0.701143C34.4575 0.701143 51.2855 26.7674 52.8467 29.44C53.0752 29.8306 52.6874 30.2534 52.4335 30.3441C49.9638 31.2267 45.7539 33.0816 43.0545 33.9213C42.8339 33.9898 42.1908 34.0715 41.9913 33.7393C37.4548 26.1839 23.4699 2.83714 23.4699 2.83714C23.1461 2.30651 23.62 2.0399 24.0871 1.95721C25.35 1.73337 31.9221 0.466288 33.2173 0.273556C33.6595 0.207454 34.2359 0.327992 34.4575 0.701143Z" fill="url(#paint17_linear_40000236_5462)"/>
<path d="M34.3524 0.69366C37.3973 5.38921 50.9447 26.8251 52.5924 29.3246C52.846 29.7093 52.7058 30.0502 52.4003 30.1587C50.5625 30.8115 45.1846 33.017 42.8886 33.7947C42.6811 33.8651 42.1952 33.738 42.0837 33.5625C39.7609 29.9001 23.6612 2.71974 23.6612 2.71974C23.4515 2.40129 23.8604 2.15956 24.2829 2.07337C26.3093 1.65939 31.4713 0.626909 33.3426 0.364964C33.6785 0.317786 34.1641 0.40359 34.3524 0.69366Z" fill="url(#paint18_linear_40000236_5462)"/>
<path d="M34.4671 11.7709L34.6315 11.7356L35.0611 12.5508L33.8521 12.7633L33.7045 12.576L33.763 12.5658C33.8292 12.5542 33.8476 12.5101 33.8192 12.4332C33.8029 12.389 33.7357 12.2924 33.6177 12.1431L32.4661 10.6866C32.3371 10.5231 32.2456 10.4229 32.1917 10.3853C32.1169 10.3341 32.05 10.3134 31.991 10.3239L31.9321 10.3343L31.7842 10.1471L32.4909 10.0231L32.639 10.2101C32.5551 10.2233 32.5073 10.2464 32.4954 10.2792C32.483 10.312 32.4872 10.3502 32.5073 10.3936C32.5278 10.4368 32.5993 10.5365 32.7224 10.6921L33.8388 12.1044C33.923 12.2112 34.1395 12.464 34.2124 12.4892C34.2421 12.4994 34.3068 12.4948 34.4074 12.4771L34.5213 12.457C34.6411 12.436 34.7131 12.4065 34.7379 12.3683C34.7633 12.33 34.5553 11.94 34.4671 11.7709Z" fill="#B9B9B9"/>
<path d="M30.9141 10.318L31.559 10.2047L31.682 10.3605L31.6326 10.3693C31.5858 10.3772 31.5599 10.3934 31.5545 10.4166C31.5492 10.4405 31.5565 10.4713 31.5759 10.5097C31.5949 10.5482 31.6468 10.6201 31.7301 10.7259L33.0476 12.3929C33.1145 12.4771 33.1664 12.5358 33.2048 12.5691C33.2429 12.6024 33.278 12.6253 33.3095 12.6383C33.3415 12.6511 33.3817 12.6531 33.4307 12.6444L33.4802 12.6358L33.6035 12.7916L32.9585 12.9049L32.8353 12.749L32.8883 12.7398C32.936 12.7315 32.9631 12.7171 32.9696 12.6969C32.9762 12.6768 32.9714 12.6501 32.9556 12.6173C32.9394 12.5841 32.8954 12.5224 32.8241 12.4321L31.4758 10.726C31.4001 10.6302 31.3448 10.5666 31.3099 10.5352C31.2749 10.5037 31.2416 10.4822 31.2096 10.4698C31.1774 10.4577 31.1378 10.4559 31.0902 10.4643L31.0369 10.4737L30.9141 10.318Z" fill="#B9B9B9"/>
<path d="M36.7737 9.28847L37.6434 9.13553C37.8084 9.1065 37.954 9.11078 38.0799 9.14863C38.206 9.18634 38.3313 9.25102 38.4553 9.34239C38.5796 9.43416 38.6934 9.54536 38.7969 9.67627C38.9036 9.81094 38.9756 9.93459 39.0139 10.0467C39.0522 10.1591 39.0535 10.2525 39.0169 10.3272C38.981 10.4017 38.8946 10.4524 38.7587 10.4792L39.8641 11.2354C39.9551 11.2982 40.0124 11.3367 40.0365 11.3507C40.0951 11.3843 40.1476 11.4081 40.1941 11.4225C40.2408 11.4368 40.2833 11.4407 40.3222 11.4338L40.3522 11.4284L40.4754 11.5841L40.0916 11.6517C39.8759 11.4995 39.6604 11.3471 39.4444 11.1939C39.1844 11.0089 38.758 10.6443 38.5714 10.6773C38.4633 10.6968 38.3562 10.6622 38.5153 10.8653C38.6445 11.0305 38.779 11.1957 38.9095 11.3607C38.98 11.4499 39.0259 11.5051 39.0476 11.5266C39.0897 11.5672 39.1272 11.5943 39.1606 11.6081C39.1944 11.6223 39.2395 11.6239 39.2967 11.614L39.3402 11.6062L39.4634 11.762L38.8183 11.8753L38.6954 11.7195L38.7534 11.7094C38.7968 11.7016 38.8223 11.6922 38.8307 11.681C38.8388 11.6698 38.8399 11.6521 38.8344 11.6283C38.8289 11.6049 38.8154 11.5759 38.7939 11.5416C38.7849 11.5278 38.7368 11.4652 38.6495 11.3537L37.3112 9.66059C37.2521 9.58541 37.2045 9.53227 37.169 9.50143C37.1334 9.47045 37.1012 9.44919 37.0727 9.43805C37.0438 9.42664 37.0084 9.42483 36.9656 9.43221L36.8968 9.4444L36.7737 9.28847ZM37.3705 9.41368L38.1402 10.3873L38.4873 10.3263C38.6052 10.3057 38.679 10.28 38.709 10.2493C38.7532 10.2078 38.7639 10.1439 38.7403 10.0578C38.7167 9.97204 38.6567 9.86771 38.5597 9.74536C38.4778 9.64141 38.3947 9.55664 38.3101 9.49015C38.2255 9.42418 38.1451 9.37778 38.0686 9.35134C37.992 9.32451 37.9051 9.31971 37.8084 9.33669L37.3705 9.41368Z" fill="#B9B9B9"/>
<path d="M37.9373 11.258C37.9635 11.3261 37.9822 11.3852 37.9922 11.4339C38.0167 11.5517 38.0092 11.6432 37.9712 11.7093C37.9329 11.7753 37.8429 11.8205 37.7018 11.8454L37.4492 11.8899C37.3948 11.8993 37.3587 11.9006 37.3395 11.8943C37.321 11.8875 37.3013 11.8752 37.2807 11.8573C37.2602 11.8389 37.2159 11.7862 37.1464 11.6983L36.4821 10.8579L36.6856 10.8223C36.7485 10.8111 36.7979 10.8096 36.834 10.8173C36.8701 10.8251 36.9128 10.844 36.9621 10.8741C37.0117 10.9039 37.0558 10.9376 37.0943 10.9743C37.1181 10.9965 37.1488 11.0315 37.1836 11.0722C37.2244 11.0663 37.2669 11.0615 37.3084 11.056L36.6616 10.2377C36.6587 10.2388 36.6578 10.2414 36.6544 10.2421C36.6182 10.2494 36.5854 10.2623 36.5476 10.2683C36.5865 10.3211 36.6173 10.3662 36.6314 10.3947C36.6631 10.4555 36.6749 10.5084 36.6671 10.5541C36.6594 10.5999 36.6184 10.6294 36.5433 10.6426L36.3399 10.6781L35.5909 9.73055L35.9998 9.65862C36.1162 9.63814 36.2029 9.63127 36.2597 9.6384C36.335 9.6476 36.4129 9.68325 36.495 9.71889C36.5766 9.75427 36.6077 9.79108 36.6781 9.85563C36.6912 9.85498 36.8172 9.81947 36.8086 9.8113C36.7806 9.78564 36.4047 9.35507 36.3604 9.36077L34.9912 9.60133L35.1141 9.75713C35.1964 9.74274 35.2476 9.73846 35.2681 9.74494C35.3059 9.75518 35.3408 9.7732 35.3728 9.79886C35.4049 9.82439 35.453 9.87766 35.517 9.95841L36.9258 11.7408C36.9906 11.8231 37.0288 11.8772 37.0401 11.9031C37.057 11.9407 37.0612 11.9693 37.0529 11.989C37.0481 12.0025 37.0173 12.0139 36.961 12.0239L36.9284 12.0297C36.9699 12.0817 37.0106 12.1338 37.0489 12.1862L38.4574 11.9386L38.1396 11.3456C38.0728 11.3186 38.0053 11.2889 37.9373 11.258Z" fill="#B9B9B9"/>
<path d="M33.1433 9.92624L33.7582 9.81815L33.8811 9.97394L33.834 9.98224C33.7903 9.99001 33.7653 9.99714 33.7578 10.0041C33.7476 10.0143 33.7448 10.0288 33.7495 10.047C33.7547 10.0653 33.7652 10.0849 33.782 10.1063C33.8087 10.1398 33.8547 10.1869 33.9214 10.2478L35.7848 11.9604L34.821 10.0897C34.7867 10.0232 34.7571 9.97381 34.7316 9.94141C34.7029 9.90538 34.674 9.88062 34.6454 9.86727C34.6162 9.85392 34.5771 9.85159 34.5272 9.86027L34.4716 9.87012L34.3486 9.71433L34.8717 9.62244L34.9947 9.77823C34.9487 9.78471 34.9204 9.79702 34.9098 9.81439C34.8993 9.83163 34.8973 9.85418 34.9032 9.88153C34.9129 9.91821 34.9388 9.97809 34.9813 10.0619L36.1342 12.3469L35.9633 12.3768L33.6689 10.292C33.5935 10.2231 33.5452 10.1803 33.5242 10.1643C33.4922 10.14 33.4625 10.1212 33.4358 10.1074C33.4089 10.0936 33.3827 10.0845 33.357 10.0797C33.3312 10.0752 33.3009 10.0759 33.2666 10.0819L33.1433 9.92624Z" fill="#B9B9B9"/>
<path d="M30.548 10.5192C30.548 10.5192 30.5358 10.467 30.4941 10.4044C30.4908 10.3995 30.4864 10.3942 30.4824 10.3889C30.5534 10.3894 30.6108 10.3711 30.6824 10.3732C30.7061 10.374 31.1569 11.021 31.2304 11.0905C31.2004 11.1257 31.1247 11.0967 31.0693 11.0999C30.9709 10.9794 30.8465 10.8319 30.7197 10.7602C30.5834 10.6835 30.418 10.6534 30.3059 10.6311C30.1026 10.5906 29.8578 10.7178 30.1296 11.1194C30.4239 11.5542 30.8423 11.5186 31.1439 11.5791C31.1964 11.5896 31.279 11.6132 31.3915 11.6498C31.5045 11.6863 31.6029 11.7286 31.6875 11.7762C31.7723 11.8243 31.8573 11.8858 31.9441 11.9617C32.0306 12.0375 32.1102 12.1217 32.1841 12.2145C32.3461 12.4198 32.4297 12.6099 32.4342 12.7842C32.4386 12.9591 32.3481 13.0626 32.1619 13.0953C32.0661 13.1122 31.9635 13.1061 31.8539 13.0764C31.7421 13.0463 31.5982 12.9739 31.5075 12.9831C31.4721 12.9864 31.4477 12.9707 31.4528 13.0135C31.4549 13.0306 31.5535 13.165 31.5488 13.1665C31.4915 13.1833 31.4143 13.1683 31.3567 13.1825C31.1446 12.8875 30.83 12.4896 30.6396 12.2613C30.6635 12.1927 30.7989 12.2549 30.843 12.2044C30.9518 12.3236 31.0161 12.4607 31.1247 12.5734C31.2387 12.6913 31.4562 12.7942 31.5614 12.8317C31.7859 12.9114 32.069 12.9387 32.0942 12.7555C32.1274 12.5136 31.8577 12.1582 31.4349 11.9665C31.2479 11.8819 31.0426 11.8733 30.8822 11.8417C30.6535 11.7958 30.4581 11.7204 30.296 11.615C30.1339 11.5099 29.9928 11.3811 29.8726 11.229C29.779 11.1103 29.7146 10.9966 29.6802 10.888C29.6456 10.7792 29.6481 10.6827 29.6877 10.5985C29.7275 10.514 29.803 10.4619 29.914 10.4425C30.0076 10.4261 30.1528 10.3981 30.2773 10.4327C30.3793 10.4612 30.548 10.5192 30.548 10.5192Z" fill="#B9B9B9"/>
<path d="M30.1293 11.1196C29.8575 10.7179 30.1024 10.5908 30.3056 10.6313C30.3084 10.6318 30.3117 10.6328 30.3141 10.6331C30.3703 10.5915 30.4202 10.56 30.4202 10.56C30.4202 10.56 29.9984 10.4407 29.8696 10.6254C29.7437 10.8057 29.9405 11.2042 30.3976 11.4654C30.6233 11.5949 31.0768 11.5796 31.2906 11.6223C31.0181 11.5093 30.3451 11.4387 30.1293 11.1196Z" fill="#686868"/>
<path d="M30.5479 10.519C30.5479 10.519 30.534 10.5141 30.5128 10.5069C30.8141 10.6769 31.2303 11.0903 31.2303 11.0903C31.2189 11.0796 31.1983 11.054 31.1714 11.0202C31.0609 10.8912 30.8065 10.6087 30.5194 10.3856C30.507 10.3864 30.4953 10.3886 30.4824 10.3886C30.4864 10.3939 30.4907 10.3992 30.4941 10.4042C30.5357 10.4669 30.5479 10.519 30.5479 10.519Z" fill="#686868"/>
<path d="M31.9439 11.9616C31.857 11.8857 31.772 11.8242 31.6873 11.7762C31.6074 11.7308 31.5136 11.6913 31.4082 11.6559C31.6066 11.7953 31.885 12.0014 32.02 12.1513C32.2421 12.3984 32.4514 12.6802 32.3826 12.883C32.3706 12.9188 32.3653 12.9582 32.3621 12.9984C32.4114 12.9463 32.4363 12.8753 32.4341 12.784C32.4295 12.6097 32.3459 12.4196 32.1839 12.2143C32.1099 12.1217 32.0303 12.0375 31.9439 11.9616Z" fill="#686868"/>
<path d="M31.1247 12.5735C31.0162 12.461 30.9518 12.3238 30.843 12.2047C30.8251 12.2366 30.8241 12.2839 30.8832 12.3558C31.0303 12.5355 31.2532 12.8179 31.5586 12.9038C31.667 12.9346 31.7271 12.9173 31.7605 12.8828C31.6941 12.8721 31.6255 12.8547 31.5615 12.8319C31.4561 12.7943 31.2386 12.6914 31.1247 12.5735Z" fill="#686868"/>
<path d="M31.5018 12.9833C31.3352 12.8382 31.1892 12.7755 31.1892 12.7755C31.1892 12.7755 31.3454 12.9445 31.3865 13.0858C31.3952 13.1163 31.3892 13.1501 31.3792 13.1798C31.4335 13.1726 31.4981 13.1816 31.5486 13.1667C31.5533 13.1653 31.4545 13.0308 31.4526 13.0137C31.4479 12.9733 31.4694 12.985 31.5018 12.9833Z" fill="#686868"/>
<path d="M32.4709 10.026L31.9194 10.1228C32.0288 10.1801 32.1473 10.2212 32.2585 10.2151C32.5018 10.2021 32.5731 10.1975 32.4709 10.026Z" fill="#686868"/>
<path d="M34.4668 11.7707C34.5549 11.9399 34.763 12.3299 34.7377 12.3678C34.7211 12.3934 34.6809 12.4149 34.6213 12.433C34.5473 12.6919 33.8727 12.5442 33.9869 12.7394L35.0609 12.5506L34.6313 11.7355L34.4668 11.7707Z" fill="#686868"/>
<path d="M33.0276 12.8895L33.6015 12.7888L33.5349 12.7047C33.3219 12.7922 32.9386 12.7387 33.0276 12.8895Z" fill="#686868"/>
<path d="M32.4913 10.3397C32.3957 10.2001 32.3129 10.1834 32.4525 10.4544C32.4945 10.5359 33.8887 12.3029 34.1234 12.4222C34.0284 12.333 33.8994 12.1813 33.8387 12.1042L32.7223 10.692C32.5992 10.5363 32.5416 10.4595 32.5212 10.4162C32.521 10.4151 32.4974 10.3656 32.4913 10.3397Z" fill="#686868"/>
<path d="M31.5517 10.6125C31.7243 10.8571 32.9311 12.3889 33.2046 12.5684C33.1695 12.5381 33.1224 12.4854 33.064 12.4129C33.0136 12.3556 32.9674 12.2999 32.9379 12.2622L31.8217 10.8499C31.7219 10.7241 31.667 10.6515 31.638 10.6047C31.6079 10.563 31.5867 10.5304 31.5759 10.5094C31.5566 10.4711 31.5492 10.4402 31.5545 10.4164C31.5552 10.4142 31.558 10.4131 31.5592 10.4108L31.5591 10.4103C31.5591 10.4103 31.5593 10.4104 31.5596 10.4106C31.5679 10.3907 31.5904 10.3762 31.6327 10.3691L31.6821 10.3603L31.5591 10.2045L31.4394 10.2255L31.062 10.2933C31.1316 10.3295 31.2971 10.3709 31.437 10.3941C31.4502 10.4452 31.4831 10.5154 31.5517 10.6125Z" fill="#686868"/>
<path d="M33.2074 12.5707C33.2065 12.5701 33.2055 12.5691 33.2046 12.5685L33.2049 12.5689C33.2059 12.5698 33.2065 12.57 33.2074 12.5707Z" fill="#686868"/>
<path d="M33.7633 10.0284C33.7638 10.0262 33.7669 10.0251 33.7679 10.0229C33.7679 10.0229 33.7679 10.0225 33.7676 10.0224C33.7679 10.0224 33.7679 10.0225 33.7682 10.0226C33.7765 10.0029 33.7993 9.98826 33.8413 9.98101L33.8908 9.97232L33.7676 9.81653L33.6482 9.83753L33.2708 9.90544C33.3402 9.94186 33.5057 9.98295 33.6458 10.0064C33.6592 10.0573 33.8797 10.3091 33.9745 10.3982C34.5686 10.9554 35.785 11.9603 35.785 11.9603C35.785 11.9603 34.8182 11.0837 34.3889 10.6801C34.0848 10.3949 33.7582 10.0522 33.7633 10.0284Z" fill="#686868"/>
<path d="M40.3519 11.4282L40.3218 11.4336C40.283 11.4405 40.2404 11.4366 40.1938 11.4224C40.1474 11.4081 40.0948 11.3841 40.0362 11.3506C40.0121 11.3367 39.9548 11.2982 39.8638 11.2352L38.7583 10.4791C38.6219 10.4555 38.3553 10.4597 38.3149 10.4756C38.7176 10.5356 39.0326 10.7348 39.191 10.8464C39.3586 10.965 40.0371 11.5102 40.2217 11.5104C40.2795 11.5106 40.3369 11.4752 40.3524 11.4286L40.3519 11.4282Z" fill="#686868"/>
<path d="M39.0677 11.7032C39.1212 11.5916 37.5262 9.64027 37.2332 9.3222C37.2332 9.3222 37.8404 9.03926 38.3607 9.36122C38.5473 9.47631 38.7356 9.64792 38.8884 9.80384C38.861 9.7621 38.8311 9.72011 38.7965 9.6763C38.7088 9.56522 38.6131 9.46892 38.5105 9.38636C38.343 9.25882 38.2397 9.20335 38.0797 9.14866C38.0505 9.13971 38.0199 9.13362 37.9888 9.12831C37.8088 9.10251 37.5853 9.1528 37.3856 9.18779L36.9497 9.26453C37.0719 9.32233 37.2058 9.36783 37.3432 9.51921C37.6597 9.86761 38.8765 11.4319 38.9197 11.5309C38.9754 11.6583 39.0278 11.7702 38.9423 11.8538L39.4631 11.7621L39.3594 11.6308C39.2104 11.685 39.0677 11.7032 39.0677 11.7032Z" fill="#686868"/>
<path d="M37.2431 11.8169C37.2194 11.789 37.1876 11.7505 37.1464 11.6984C37.1464 11.6984 35.6878 9.83554 35.5553 9.61948C35.7784 9.58111 36.1416 9.45565 36.257 9.4607C36.485 9.47081 36.6647 9.68519 36.7624 9.83269C36.7896 9.82387 36.8124 9.81506 36.8087 9.8113C36.7807 9.78564 36.4048 9.35507 36.3605 9.36077L35.064 9.5885C35.2147 9.6187 35.3455 9.58163 35.5415 9.7776C35.7055 9.94104 36.3535 10.7865 36.6368 11.1294C36.777 11.2994 36.9183 11.4703 37.0703 11.6371C37.1224 11.6947 37.1752 11.7537 37.2335 11.8086C37.2362 11.8117 37.2401 11.8138 37.2431 11.8169Z" fill="#686868"/>
<path d="M36.7192 10.3713C36.7713 10.4644 37.0694 10.8881 37.2696 11.0609C37.2828 11.0593 37.2953 11.0577 37.3085 11.0559L36.666 10.2435C36.6733 10.2749 36.6897 10.3195 36.7192 10.3713Z" fill="#686868"/>
<path d="M38.0211 11.2948C38.2491 11.5346 38.3021 11.7903 38.266 11.8309C38.1843 11.9217 37.6309 11.9908 37.4024 12.0385C37.3019 12.0589 37.2313 12.1111 37.1819 12.1631L38.4574 11.939L38.1396 11.346C38.1006 11.3297 38.0606 11.3118 38.0211 11.2948Z" fill="#686868"/>
<path d="M35.1721 10.4407C35.1721 10.4407 34.9465 9.98055 34.9191 9.93065C34.9131 9.90304 34.8994 9.83163 34.9099 9.81439C34.9205 9.79689 34.9487 9.78471 34.9948 9.77823L34.8718 9.62244L34.5981 9.67052C34.6339 9.68996 34.6698 9.71225 34.7029 9.73701C34.7957 9.80609 34.9988 10.1238 35.1721 10.4407Z" fill="#686868"/>
<path d="M35.4344 10.987C35.5699 11.3603 36.0448 12.2788 36.0448 12.2788C36.0448 12.2788 36.0675 12.3295 35.9772 12.3764L36.1343 12.3467L35.3738 10.8396C35.398 10.8938 35.419 10.9438 35.4344 10.987Z" fill="#686868"/>
<path d="M31.0316 11.545C30.8249 11.4839 30.3165 11.3402 30.1268 11.0727C29.8979 10.7501 30.1022 10.5907 30.3054 10.6313C30.3054 10.6313 29.8669 10.5125 29.9229 10.8375C29.9807 11.1749 30.5504 11.5322 31.0316 11.545Z" fill="#090909"/>
<path d="M30.7435 10.6245C30.6894 10.5391 30.5925 10.466 30.4966 10.4091C30.5357 10.4695 30.5478 10.5194 30.5478 10.5194C30.5478 10.5194 30.5397 10.5166 30.5289 10.5127C30.6636 10.6097 30.7826 10.6868 30.7435 10.6245Z" fill="#090909"/>
<path d="M31.5817 11.7871C31.6243 11.8338 32.2632 12.4749 32.236 12.4187C32.0502 12.0305 31.4809 11.6768 31.5817 11.7871Z" fill="#090909"/>
<path d="M32.2376 10.1881C32.1568 10.2714 32.3171 10.3183 32.4913 10.34C32.488 10.3183 32.4882 10.2978 32.4952 10.2793C32.5055 10.2509 32.5442 10.2305 32.6079 10.2166C32.4754 10.1526 32.3171 10.1052 32.2376 10.1881Z" fill="#090909"/>
<path d="M34.8652 12.4501C34.8568 12.4967 34.8496 12.5438 34.8441 12.5892L35.0611 12.551L34.6314 11.7358L34.4875 11.7668C34.6881 12.046 34.8836 12.3508 34.8652 12.4501Z" fill="#090909"/>
<path d="M31.6819 10.3603L31.6768 10.3538C31.5491 10.2956 31.4035 10.257 31.3282 10.335C31.2497 10.4159 31.3985 10.4621 31.5665 10.4844C31.556 10.4581 31.5506 10.4341 31.5545 10.4164C31.5598 10.3931 31.5857 10.377 31.6326 10.3691L31.6819 10.3603Z" fill="#090909"/>
<path d="M33.8906 9.97227L33.8856 9.96579C33.3235 9.81751 33.335 10.0086 33.8428 10.1291C33.8127 10.0963 33.7754 10.0391 33.7797 10.0207C33.7845 9.99884 33.8387 9.98147 33.8413 9.98095L33.8906 9.97227Z" fill="#090909"/>
<path d="M34.9189 9.93091C34.9189 9.93091 35.0841 10.3442 35.1894 10.5562C35.3626 10.904 36.1037 12.2859 36.1037 12.2859C36.1037 12.2859 35.8629 11.7322 35.5341 11.0567C35.2438 10.4591 34.9189 9.93091 34.9189 9.93091Z" fill="#090909"/>
<path d="M37.863 9.21215C37.863 9.21215 38.0564 9.13944 38.2904 9.26789C38.5286 9.39905 38.7025 9.62263 38.7025 9.62263C38.4223 9.38959 38.2029 9.24805 37.863 9.21215Z" fill="#090909"/>
<path d="M38.7581 10.4795C38.8033 10.4707 38.8412 10.458 38.8751 10.4438C38.7077 10.4026 38.3951 10.3735 38.3147 10.476C38.2478 10.5613 38.4341 10.4155 38.7948 10.5954C39.0198 10.7077 39.335 10.8999 39.5175 10.999L38.7581 10.4795Z" fill="#090909"/>
<path d="M38.6584 11.1696L37.4358 9.6228C37.4358 9.6228 37.7774 9.98066 38.0965 10.3843C38.3094 10.6532 38.6584 11.1696 38.6584 11.1696Z" fill="#090909"/>
<path d="M37.2058 10.9852C37.2058 10.9852 37.0072 10.8316 36.8672 10.6472C36.7643 10.5113 36.6841 10.2954 36.6841 10.2954C36.6841 10.2954 36.8322 10.5275 36.958 10.687C37.0841 10.8464 37.2058 10.9852 37.2058 10.9852Z" fill="#090909"/>
<path d="M35.7732 9.56951C35.7732 9.56951 36.2105 9.3668 36.4512 9.492C36.6223 9.58091 36.762 9.83275 36.762 9.83275C36.762 9.83275 36.5987 9.6338 36.4023 9.54242C36.2027 9.44962 35.7732 9.56951 35.7732 9.56951Z" fill="#090909"/>
<path d="M37.7114 11.9917C37.7114 11.9917 38.2628 11.8742 38.2259 11.6923C38.1884 11.5105 38.0209 11.2949 38.0209 11.2949C38.0209 11.2949 38.4048 11.6919 38.3047 11.8668C38.2199 12.014 37.7114 11.9917 37.7114 11.9917Z" fill="#090909"/>
<path d="M35.6532 9.71969C35.5193 9.57103 35.486 9.57932 35.4474 9.59203C35.4003 9.60706 36.428 10.7799 36.428 10.7799C36.428 10.7799 36.4009 10.7397 36.357 10.6754L35.6532 9.71969Z" fill="#090909"/>
<path d="M30.6068 11.7655C30.2959 11.6155 30.0409 11.36 29.8708 11.0537C29.7329 10.8053 29.7355 10.5739 29.8735 10.4541C29.7851 10.4785 29.7222 10.5258 29.6875 10.599C29.6478 10.6833 29.6454 10.7797 29.68 10.8886C29.7145 10.9972 29.7789 11.1108 29.8723 11.2296C29.9926 11.3816 30.1336 11.5104 30.2958 11.6155C30.3884 11.6754 30.493 11.7247 30.6068 11.7655Z" fill="#F8F8F8"/>
<path d="M30.457 10.6641C30.543 10.6852 30.6364 10.714 30.7195 10.7604C30.8463 10.832 30.9707 10.9795 31.0691 11.1001C31.1017 11.0981 31.1407 11.1064 31.174 11.1071C31.0639 10.9706 30.9433 10.8465 30.826 10.7548C30.7041 10.6602 30.5522 10.6326 30.457 10.6641Z" fill="#F8F8F8"/>
<path d="M31.2761 11.9124C31.3295 11.9262 31.3829 11.9436 31.4348 11.9669C31.8576 12.1586 32.1273 12.514 32.0941 12.7559C32.0842 12.8266 32.0358 12.8654 31.9675 12.8828C32.2181 12.9346 32.3899 12.7324 31.9752 12.2385C31.6657 11.8699 31.4098 11.8722 31.2761 11.9124Z" fill="#F8F8F8"/>
<path d="M31.1531 12.7998C31.0315 12.6151 30.894 12.4568 30.7712 12.2269C30.7171 12.2277 30.6548 12.2172 30.6392 12.2616C30.8279 12.4882 31.1375 12.88 31.3498 13.1739C31.3148 13.0455 31.1531 12.7998 31.1531 12.7998Z" fill="#F8F8F8"/>
<path d="M31.035 10.4711C31.0538 10.4341 31.0701 10.3866 31.059 10.3452C31.0546 10.3296 31.0481 10.3126 31.041 10.2957L30.9141 10.3179L31.035 10.4711Z" fill="#F8F8F8"/>
<path d="M32.9558 12.6172C32.9631 12.6327 32.9676 12.6463 32.9701 12.6588C32.9805 12.6364 33.0039 12.6081 32.9754 12.5513C32.8813 12.3644 31.4487 10.5365 31.3086 10.4347C31.201 10.3565 31.1811 10.4363 31.1553 10.4595C31.1752 10.4603 31.1935 10.4637 31.2097 10.4697C31.2417 10.4821 31.2752 10.5036 31.31 10.5351C31.345 10.5663 31.4002 10.63 31.4759 10.7259L32.8243 12.432C32.8957 12.5222 32.9396 12.584 32.9558 12.6172Z" fill="#F8F8F8"/>
<path d="M32.9673 12.8199C32.9521 12.8066 32.9165 12.775 32.8785 12.7417L32.8354 12.7491L32.9587 12.905L33.0291 12.8926C33.0043 12.8598 32.9796 12.8311 32.9673 12.8199Z" fill="#F8F8F8"/>
<path d="M35.8887 12.1593C35.7609 12.0202 33.6995 10.2186 33.4574 10.0856C33.3891 10.048 33.3412 10.0527 33.3132 10.0773C33.3289 10.0768 33.3434 10.0778 33.3572 10.08C33.3828 10.0848 33.409 10.0939 33.436 10.1078C33.4627 10.1215 33.4922 10.1404 33.5244 10.1647C33.5454 10.1806 33.5936 10.2234 33.669 10.2923L35.9634 12.3771C35.9634 12.3771 35.9327 12.2069 35.8887 12.1593Z" fill="#F8F8F8"/>
<path d="M33.2676 9.9043L33.1433 9.9262L33.2528 10.0648C33.2802 10.0243 33.3079 9.97532 33.2676 9.9043Z" fill="#F8F8F8"/>
<path d="M34.5649 9.85795C34.5966 9.85601 34.6248 9.85795 34.6454 9.86741C34.6741 9.88089 34.703 9.90552 34.7316 9.94155C34.7572 9.97395 34.7868 10.0233 34.8211 10.0898L35.7848 11.9605C35.7848 11.9605 35.3675 10.9319 34.713 9.85069C34.6914 9.81492 34.6299 9.82801 34.5649 9.85795Z" fill="#F8F8F8"/>
<path d="M34.4469 9.83881C34.4666 9.81172 34.4824 9.78255 34.4795 9.75845C34.4773 9.7416 34.4698 9.71866 34.4603 9.69507L34.3489 9.71451L34.4469 9.83881Z" fill="#F8F8F8"/>
<path d="M35.2681 9.74523C35.306 9.75547 35.3408 9.77349 35.3729 9.79915C35.405 9.82468 35.4531 9.87796 35.5171 9.9587L36.9259 11.7411C36.9907 11.8234 37.0289 11.8775 37.0402 11.9034C37.0979 11.7486 35.5034 9.81017 35.358 9.71646C35.2833 9.66824 35.2278 9.70194 35.1914 9.74614C35.2287 9.74199 35.2552 9.74096 35.2681 9.74523Z" fill="#F8F8F8"/>
<path d="M36.3545 9.59061C36.1728 9.53773 35.973 9.61601 35.843 9.68639L36.0001 9.65878C36.1165 9.6383 36.2032 9.63143 36.26 9.63856C36.3353 9.64776 36.4132 9.68341 36.4952 9.71905C36.5769 9.75443 36.608 9.79124 36.6784 9.85579C36.6825 9.85553 36.6983 9.85203 36.7169 9.84659C36.6456 9.75599 36.5262 9.64025 36.3545 9.59061Z" fill="#F8F8F8"/>
<path d="M36.5958 10.6302C36.6237 10.633 36.7194 10.5908 36.7297 10.5783C36.7882 10.5082 36.6446 10.2927 36.5474 10.2686C36.5862 10.3213 36.6315 10.4093 36.6461 10.4377C36.6772 10.4984 36.6815 10.5698 36.5958 10.6302Z" fill="#F8F8F8"/>
<path d="M36.8339 10.8174C36.87 10.8251 36.9127 10.844 36.962 10.8741C37.0116 10.9039 37.0557 10.9376 37.0942 10.9743C37.1181 10.9965 37.1488 11.0315 37.1835 11.0722C37.186 11.0718 37.188 11.0716 37.1901 11.0713C37.1463 10.9648 37.06 10.8406 36.8906 10.7888C36.8032 10.7623 36.73 10.7891 36.6772 10.8238L36.6855 10.8223C36.7485 10.8111 36.7978 10.8096 36.8339 10.8174Z" fill="#F8F8F8"/>
<path d="M37.9372 11.2583C37.9634 11.3263 37.9822 11.3854 37.9922 11.4342C38.0167 11.552 38.0092 11.6435 37.9712 11.7096C37.9328 11.7756 37.8429 11.8208 37.7017 11.8457L37.6919 11.8474C38.0732 11.8786 38.1651 11.7652 38.0844 11.504C38.031 11.331 37.9372 11.2583 37.9372 11.2583Z" fill="#F8F8F8"/>
<path d="M35.1058 9.6765C35.0942 9.64682 35.0795 9.61701 35.0639 9.58862L34.9912 9.60158L35.1141 9.75738C35.1164 9.75699 35.1181 9.75686 35.1204 9.75634C35.1224 9.73755 35.1193 9.71227 35.1058 9.6765Z" fill="#F8F8F8"/>
<path d="M38.6808 9.65515C38.3603 9.28809 37.9817 9.29483 37.7512 9.34694L37.8081 9.33683C37.9048 9.31985 37.9918 9.32465 38.0684 9.35147C38.1449 9.37792 38.2252 9.42431 38.3098 9.49029C38.3944 9.55678 38.4776 9.64155 38.5595 9.74549C38.6563 9.86785 38.7164 9.97218 38.74 10.058C38.7636 10.1439 38.7577 10.1903 38.7132 10.2319C38.6831 10.2624 38.6096 10.2952 38.487 10.3264L38.1399 10.3875C38.9049 10.4104 39.1711 10.2165 38.6808 9.65515Z" fill="#F8F8F8"/>
<path d="M40.1264 11.6196C40.05 11.484 38.8846 10.6279 38.6728 10.6191C38.5398 10.6134 38.4559 10.6603 38.4431 10.706C38.4782 10.6808 38.5414 10.6824 38.5712 10.6772C38.7578 10.6443 39.1842 11.009 39.4442 11.1938C39.6345 11.329 39.9012 11.5176 40.0914 11.6516C40.1619 11.6818 40.1389 11.642 40.1264 11.6196Z" fill="#F8F8F8"/>
<path d="M38.7939 11.5417C38.8155 11.5759 38.8289 11.605 38.8344 11.6284C38.9738 11.5378 37.4119 9.63968 37.2285 9.48467C37.1156 9.38914 37.0666 9.39537 36.998 9.42985C37.0262 9.42816 37.0521 9.42971 37.0727 9.43801C37.1012 9.44916 37.1334 9.47041 37.169 9.50139C37.2045 9.53223 37.2521 9.58538 37.3112 9.66055L38.6496 11.3537C38.7367 11.4653 38.7849 11.5279 38.7939 11.5417Z" fill="#F8F8F8"/>
<path d="M38.8629 11.7725C38.8553 11.7461 38.8308 11.7208 38.7999 11.698C38.7875 11.7021 38.7726 11.7062 38.7533 11.7095L38.6953 11.7196L38.8182 11.8754L38.8498 11.8699C38.8638 11.8345 38.8713 11.8001 38.8629 11.7725Z" fill="#F8F8F8"/>
<path d="M37.1054 12.0885C37.0972 12.0618 37.0728 12.0366 37.042 12.0137C37.0294 12.0178 37.0146 12.0218 36.9951 12.0253L36.9373 12.0354L37.0604 12.1912L37.0919 12.1858C37.1055 12.15 37.1133 12.1158 37.1054 12.0885Z" fill="#F8F8F8"/>
<path d="M36.9239 9.33127C36.9146 9.30924 36.9008 9.28889 36.8852 9.2688L36.7734 9.28863L36.8966 9.44442L36.9418 9.43626C36.947 9.41306 36.9448 9.38052 36.9239 9.33127Z" fill="#F8F8F8"/>
<path d="M33.8189 12.4333C33.8214 12.4402 33.8216 12.4455 33.8236 12.4521C33.8472 12.4387 33.8588 12.419 33.8372 12.3628C33.8165 12.3106 33.7785 12.2475 33.7367 12.192C33.5692 11.9679 32.4413 10.5233 32.2421 10.3247C32.1808 10.2637 32.1367 10.3112 32.1184 10.327C32.1139 10.331 32.1101 10.3357 32.1057 10.3401C32.1332 10.351 32.1617 10.365 32.1915 10.3855C32.2454 10.4231 32.3369 10.5234 32.4659 10.6867L33.6175 12.1433C33.7354 12.2926 33.8026 12.3891 33.8189 12.4333Z" fill="#F8F8F8"/>
<path d="M33.8084 12.5942C33.7948 12.5821 33.7849 12.571 33.7767 12.5607C33.772 12.5621 33.7687 12.5646 33.763 12.5656L33.7046 12.5758L33.8522 12.7631L33.9887 12.739C33.9278 12.6859 33.8558 12.6352 33.8084 12.5942Z" fill="#F8F8F8"/>
<path d="M31.9319 10.334L31.9507 10.3308C31.95 10.3229 31.949 10.3145 31.9506 10.3073C31.9588 10.2673 31.9843 10.2331 31.9418 10.1658C31.9322 10.1509 31.9205 10.1372 31.9086 10.1252L31.7842 10.1469L31.9319 10.334Z" fill="#F8F8F8"/>
<path d="M35.1236 14.5778C34.8931 14.4022 34.6993 14.3615 34.5428 14.3962C34.1462 14.4846 34.1742 14.9117 34.4079 15.2969C34.6233 15.6518 34.8652 15.7573 35.0866 15.7902C35.2565 15.8157 35.5302 15.7534 35.5375 15.5261C35.6773 15.7896 35.727 15.9159 35.7454 16.052C35.7656 16.2011 35.7306 16.2856 35.6407 16.3039C35.484 16.3359 35.3292 16.1435 35.1945 16.0879C35.0441 16.0251 34.9297 16.1358 35.1277 16.3005C35.3018 16.445 35.5703 16.523 35.7442 16.4831C35.9077 16.4454 35.992 16.3181 35.992 16.0903C35.9918 15.8633 35.8692 15.6072 35.6917 15.2996C35.5204 15.0015 35.3546 14.7537 35.1236 14.5778ZM35.3101 15.2572C35.3502 15.5292 35.0276 15.548 34.7957 15.3211C34.5943 15.1244 34.3662 14.5993 34.6303 14.5474C34.9191 14.4892 35.2671 14.9619 35.3101 15.2572Z" fill="#B9B9B9"/>
<path d="M36.5643 14.289C36.3344 14.114 36.1405 14.0743 35.9838 14.1095C35.5864 14.1988 35.6137 14.624 35.8465 15.0069C36.0611 15.3599 36.303 15.4642 36.5251 15.4967C36.6944 15.5218 36.9689 15.459 36.9766 15.2323C37.1164 15.4945 37.1654 15.6199 37.1841 15.7563C37.2035 15.9051 37.1684 15.9886 37.0786 16.007C36.9207 16.0396 36.7667 15.8478 36.6321 15.7926C36.4816 15.7309 36.367 15.8413 36.5651 16.0052C36.7389 16.1486 37.0073 16.2255 37.1821 16.1854C37.3456 16.1473 37.4302 16.0202 37.4311 15.7939C37.4309 15.5677 37.3085 15.3133 37.1317 15.0068C36.9606 14.71 36.795 14.4638 36.5643 14.289ZM36.7502 14.9653C36.789 15.2359 36.4662 15.2554 36.2346 15.0303C36.0335 14.8344 35.8058 14.3122 36.0702 14.2592C36.3599 14.2015 36.7071 14.6713 36.7502 14.9653Z" fill="#B9B9B9"/>
<path d="M38.0384 13.9923C37.8077 13.8184 37.6142 13.7795 37.4569 13.8146C37.0588 13.9039 37.0858 14.3278 37.3178 14.7084C37.5316 15.0596 37.7738 15.1631 37.9959 15.1953C38.1657 15.2194 38.4411 15.1564 38.449 14.931C38.5881 15.1919 38.6374 15.3165 38.6551 15.4519C38.6747 15.6 38.6396 15.6836 38.5491 15.702C38.3917 15.7351 38.2382 15.5444 38.103 15.4892C37.9525 15.4286 37.8374 15.5389 38.0352 15.7007C38.2093 15.8437 38.4781 15.9195 38.6525 15.8792C38.8164 15.8411 38.9018 15.7145 38.9024 15.4887C38.9035 15.2631 38.7808 15.0095 38.6053 14.7059C38.4341 14.4107 38.2686 14.1658 38.0384 13.9923ZM38.2226 14.665C38.2614 14.9347 37.9377 14.9551 37.7068 14.7314C37.5056 14.5364 37.2792 14.0166 37.544 13.964C37.8339 13.9052 38.1804 14.3726 38.2226 14.665Z" fill="#B9B9B9"/>
<path d="M39.9164 13.6115C39.6866 13.439 39.4925 13.4012 39.3357 13.437C38.9362 13.5266 38.9613 13.9481 39.1933 14.3263C39.4067 14.6751 39.6485 14.777 39.8711 14.8084C40.0411 14.8321 40.3166 14.7685 40.3254 14.5447C40.4639 14.8033 40.5132 14.928 40.5305 15.0624C40.5493 15.2095 40.5141 15.2925 40.4236 15.3113C40.2659 15.3442 40.1118 15.1553 39.9768 15.101C39.8265 15.0405 39.7109 15.1503 39.9085 15.3114C40.0825 15.4536 40.3517 15.5284 40.5267 15.4874C40.691 15.449 40.7767 15.3224 40.778 15.098C40.7797 14.8734 40.6572 14.6217 40.4822 14.3203C40.3121 14.0264 40.147 13.7833 39.9164 13.6115ZM40.0995 14.2805C40.1378 14.549 39.8135 14.5699 39.5831 14.3479C39.3819 14.1544 39.1564 13.6385 39.4221 13.5847C39.7123 13.5256 40.0584 13.9894 40.0995 14.2805Z" fill="#B9B9B9"/>
<path d="M35.2267 15.0179C35.2818 15.1373 35.306 15.1999 35.3103 15.2576C35.3322 15.5243 35.0277 15.5483 34.7959 15.3215C34.6298 15.1588 34.4156 14.8369 34.505 14.6775C34.5213 14.6369 34.5887 14.5608 34.6305 14.5477C34.7615 14.5049 34.6703 14.4287 34.586 14.4355C34.3068 14.4575 34.2937 14.7986 34.5232 15.2024C34.8285 15.7398 35.5038 15.7554 35.3457 15.1552C35.3248 15.0765 35.1643 14.8972 35.2267 15.0179Z" fill="#686868"/>
<path d="M35.6396 16.3038C35.4829 16.3353 35.329 16.144 35.1945 16.0882C35.1722 16.0789 35.1512 16.0744 35.1313 16.072C35.1323 16.0746 35.1323 16.0759 35.1333 16.0786C35.2787 16.2535 35.4841 16.3694 35.6396 16.3038Z" fill="#686868"/>
<path d="M35.7239 15.2848C35.5534 14.9886 35.3528 14.753 35.1237 14.5782C35.0065 14.489 34.8984 14.4346 34.8005 14.4075C35.0774 14.5754 35.3891 14.9089 35.6242 15.3164C35.8726 15.7493 35.9698 16.1618 35.904 16.3917C36.0728 16.2047 35.9808 15.7963 35.8446 15.519C35.8066 15.4411 35.7687 15.3621 35.7239 15.2848Z" fill="#686868"/>
<path d="M35.4639 15.3103C35.4639 15.3103 35.577 15.7161 35.1416 15.7948C35.3092 15.8007 35.5312 15.7306 35.5376 15.5262C35.5381 15.5278 35.5386 15.5288 35.5396 15.5305C35.5151 15.3916 35.4639 15.3103 35.4639 15.3103Z" fill="#686868"/>
<path d="M36.6671 14.7275C36.7215 14.846 36.7453 14.9084 36.7503 14.9656C36.7715 15.2316 36.4663 15.2557 36.2347 15.0307C36.0685 14.8688 35.8552 14.5484 35.945 14.3896C35.9611 14.3497 36.0283 14.2732 36.0705 14.2595C36.202 14.2176 36.111 14.1415 36.0265 14.1487C35.7475 14.1717 35.7328 14.5104 35.9618 14.9122C36.2669 15.4472 36.9427 15.4608 36.7857 14.8639C36.7645 14.7852 36.6048 14.6066 36.6671 14.7275Z" fill="#686868"/>
<path d="M37.0777 16.0074C36.9207 16.0388 36.7667 15.8486 36.6321 15.793C36.6102 15.7839 36.5886 15.7795 36.5693 15.7776C36.5696 15.7797 36.5697 15.7811 36.5704 15.7838C36.7159 15.9572 36.9214 16.0728 37.0777 16.0074Z" fill="#686868"/>
<path d="M37.1644 14.9924C36.9937 14.6975 36.7942 14.4635 36.5643 14.2894C36.4473 14.2002 36.3401 14.1471 36.2417 14.1199C36.518 14.2871 36.8305 14.6185 37.0645 15.0239C37.3125 15.4538 37.4089 15.8652 37.3422 16.0942C37.5118 15.9079 37.4206 15.5013 37.2843 15.2249C37.2462 15.1474 37.2087 15.0693 37.1644 14.9924Z" fill="#686868"/>
<path d="M36.9041 15.0176C36.9041 15.0176 37.0162 15.4221 36.5796 15.5013C36.7473 15.5071 36.97 15.4365 36.9768 15.2326C36.9776 15.2342 36.9783 15.2353 36.9785 15.2365C36.9547 15.0987 36.9041 15.0176 36.9041 15.0176Z" fill="#686868"/>
<path d="M38.1397 14.4283C38.194 14.546 38.2181 14.6084 38.2228 14.6652C38.2427 14.9292 37.9379 14.9553 37.7069 14.7316C37.5406 14.5701 37.3274 14.2519 37.418 14.094C37.4346 14.0533 37.5019 13.9777 37.5442 13.9641C37.6759 13.9211 37.5849 13.8463 37.5002 13.8527C37.2206 13.8767 37.2053 14.2147 37.4333 14.6135C37.7375 15.1461 38.4143 15.1586 38.2587 14.5641C38.2379 14.4861 38.0781 14.3085 38.1397 14.4283Z" fill="#686868"/>
<path d="M38.5483 15.7026C38.3914 15.7341 38.2373 15.5445 38.1029 15.4894C38.0802 15.4808 38.0595 15.4768 38.0398 15.4745C38.0406 15.4768 38.0403 15.4779 38.0411 15.4803C38.1865 15.6532 38.3919 15.7679 38.5483 15.7026Z" fill="#686868"/>
<path d="M38.6373 14.6914C38.4671 14.398 38.2676 14.1652 38.0385 13.9928C37.9209 13.9037 37.814 13.8514 37.7153 13.8245C37.9923 13.9905 38.3035 14.3194 38.5371 14.7228C38.7841 15.1506 38.8801 15.5598 38.8133 15.7882C38.9831 15.6023 38.893 15.1976 38.7574 14.9229C38.7188 14.8458 38.6813 14.7676 38.6373 14.6914Z" fill="#686868"/>
<path d="M38.3763 14.717C38.3763 14.717 38.4876 15.1194 38.05 15.1995C38.2187 15.2052 38.4415 15.1341 38.4489 14.9315C38.4493 14.9326 38.4499 14.9339 38.4508 14.9352C38.4275 14.7978 38.3763 14.717 38.3763 14.717Z" fill="#686868"/>
<path d="M40.0175 14.045C40.0714 14.1622 40.0955 14.2241 40.0995 14.2806C40.1195 14.5439 39.8136 14.5701 39.5832 14.348C39.4167 14.1884 39.2046 13.8718 39.2952 13.7144C39.3118 13.6741 39.3798 13.5985 39.4221 13.5849C39.5534 13.5416 39.463 13.4675 39.3781 13.4743C39.0976 13.4986 39.0817 13.835 39.3093 14.2318C39.6123 14.7597 40.2897 14.7703 40.1357 14.1795C40.1148 14.1018 39.9559 13.9259 40.0175 14.045Z" fill="#686868"/>
<path d="M40.4227 15.3112C40.2653 15.3437 40.1117 15.1554 39.9768 15.1011C39.9546 15.0923 39.9338 15.0877 39.9141 15.0865C39.9147 15.0884 39.9147 15.0895 39.9148 15.092C40.0607 15.2636 40.2658 15.3769 40.4227 15.3112Z" fill="#686868"/>
<path d="M40.5148 14.3049C40.3448 14.0138 40.1461 13.7827 39.9165 13.6116C39.7999 13.5237 39.692 13.4711 39.594 13.4456C39.8708 13.6098 40.1817 13.9361 40.4143 14.3364C40.6607 14.7619 40.7554 15.1681 40.6878 15.3959C40.8585 15.2102 40.7692 14.8076 40.6339 14.5346C40.5964 14.458 40.5591 14.3806 40.5148 14.3049Z" fill="#686868"/>
<path d="M40.2536 14.3318C40.2536 14.3318 40.3641 14.7319 39.9258 14.8128C40.0944 14.8173 40.3172 14.7464 40.3256 14.5451C40.3265 14.5466 40.3265 14.5471 40.3276 14.5484C40.304 14.412 40.2536 14.3318 40.2536 14.3318Z" fill="#686868"/>
<path d="M34.6039 14.9821C34.5181 14.7808 34.5446 14.5645 34.6301 14.5474C34.3608 14.5465 34.4411 14.9669 34.5968 15.1966C34.7671 15.4483 34.9482 15.4683 35.0796 15.473C34.8593 15.3955 34.7028 15.2141 34.6039 14.9821Z" fill="#090909"/>
<path d="M34.7704 14.4145C34.7371 14.3524 35.1747 14.5882 35.214 14.7188C35.2499 14.8385 34.8007 14.4706 34.7704 14.4145Z" fill="#090909"/>
<path d="M35.8048 15.5786C35.8846 15.6933 36.0094 16.1599 35.9238 16.187C35.828 16.2174 35.7259 15.465 35.8048 15.5786Z" fill="#090909"/>
<path d="M36.0434 14.6921C35.9577 14.4918 35.9842 14.2763 36.0701 14.2588C35.801 14.2592 35.8802 14.6779 36.0362 14.9066C36.2052 15.1562 36.3869 15.176 36.5187 15.1807C36.2982 15.1041 36.1419 14.9232 36.0434 14.6921Z" fill="#090909"/>
<path d="M36.2113 14.127C36.178 14.0656 36.6158 14.299 36.6549 14.4294C36.6907 14.5483 36.2416 14.183 36.2113 14.127Z" fill="#090909"/>
<path d="M37.245 15.2846C37.3241 15.399 37.4482 15.8633 37.3629 15.8907C37.2665 15.9209 37.1661 15.1714 37.245 15.2846Z" fill="#090909"/>
<path d="M37.5157 14.395C37.4302 14.196 37.4577 13.9807 37.5437 13.9639C37.2737 13.9649 37.3527 14.3817 37.508 14.6088C37.6768 14.857 37.8587 14.8762 37.9908 14.8806C37.7698 14.8049 37.614 14.6248 37.5157 14.395Z" fill="#090909"/>
<path d="M37.6852 13.8318C37.6516 13.7699 38.0898 14.002 38.1283 14.1316C38.164 14.2502 37.7155 13.8872 37.6852 13.8318Z" fill="#090909"/>
<path d="M38.7173 14.9826C38.7961 15.0955 38.9197 15.5579 38.8336 15.5854C38.7373 15.6154 38.6386 14.8697 38.7173 14.9826Z" fill="#090909"/>
<path d="M39.3925 14.0141C39.3077 13.816 39.3355 13.6015 39.4219 13.5845C39.1517 13.5863 39.2292 14.0012 39.3834 14.2262C39.5526 14.4728 39.7339 14.4916 39.8667 14.4955C39.6456 14.4202 39.4902 14.242 39.3925 14.0141Z" fill="#090909"/>
<path d="M39.5636 13.452C39.5304 13.3919 39.9686 13.6213 40.007 13.7495C40.0422 13.8678 39.5943 13.5079 39.5636 13.452Z" fill="#090909"/>
<path d="M40.5937 14.5947C40.6724 14.7068 40.7948 15.1668 40.7087 15.1938C40.6122 15.2247 40.5151 14.4831 40.5937 14.5947Z" fill="#090909"/>
<path d="M34.2559 14.9338C34.2814 15.0509 34.3343 15.1761 34.4079 15.2971C34.5748 15.5726 34.7578 15.697 34.9345 15.7541C34.6872 15.6056 34.3826 15.2802 34.2559 14.9338Z" fill="url(#paint19_linear_40000236_5462)"/>
<path d="M35.0515 16.0872C35.0031 16.1212 35.0077 16.2003 35.1279 16.3004C35.2575 16.4079 35.4396 16.4785 35.5954 16.4913C35.3421 16.3894 35.1389 16.2598 35.0515 16.0872Z" fill="url(#paint20_linear_40000236_5462)"/>
<path d="M35.2264 15.018C35.2624 15.0371 35.313 15.0968 35.3453 15.1552C35.3206 15.0594 35.0729 14.5961 34.801 14.5686C34.968 14.6359 35.1306 14.8272 35.2264 15.018Z" fill="url(#paint21_linear_40000236_5462)"/>
<path d="M35.4639 15.3103C35.4888 15.3673 35.5374 15.5279 35.5374 15.5262C35.5972 15.6389 35.6396 15.7261 35.6711 15.7993C35.6868 15.7091 35.5656 15.407 35.4639 15.3103Z" fill="url(#paint22_linear_40000236_5462)"/>
<path d="M35.6948 14.6456C35.7206 14.7625 35.7735 14.8868 35.8466 15.007C36.0132 15.2806 36.1959 15.4044 36.3729 15.461C36.1254 15.314 35.8209 14.9899 35.6948 14.6456Z" fill="url(#paint23_linear_40000236_5462)"/>
<path d="M36.4893 15.7932C36.4407 15.8268 36.4447 15.9057 36.5651 16.0054C36.6944 16.1123 36.876 16.1819 37.0327 16.1938C36.7791 16.093 36.5758 15.9646 36.4893 15.7932Z" fill="url(#paint24_linear_40000236_5462)"/>
<path d="M36.667 14.7274C36.7026 14.7462 36.7528 14.8056 36.7856 14.8637C36.7609 14.7686 36.514 14.3066 36.2415 14.2803C36.4088 14.3473 36.5709 14.5376 36.667 14.7274Z" fill="url(#paint25_linear_40000236_5462)"/>
<path d="M36.9041 15.0173C36.9282 15.0744 36.9766 15.2344 36.9768 15.2324C37.0365 15.345 37.0786 15.4314 37.1103 15.5043C37.1261 15.4152 37.005 15.1134 36.9041 15.0173Z" fill="url(#paint26_linear_40000236_5462)"/>
<path d="M37.1665 14.3494C37.1923 14.4655 37.2449 14.5894 37.3178 14.7086C37.4838 14.9807 37.6668 15.1037 37.844 15.1596C37.5963 15.0139 37.292 14.6918 37.1665 14.3494Z" fill="url(#paint27_linear_40000236_5462)"/>
<path d="M37.9597 15.4905C37.9105 15.5237 37.9147 15.6026 38.035 15.701C38.1647 15.8074 38.3463 15.8766 38.5031 15.8881C38.2493 15.7882 38.0457 15.6609 37.9597 15.4905Z" fill="url(#paint28_linear_40000236_5462)"/>
<path d="M38.1395 14.4282C38.1758 14.4471 38.2256 14.5058 38.2584 14.564C38.2336 14.4689 37.9876 14.0099 37.7153 13.9841C37.8827 14.0504 38.0445 14.2396 38.1395 14.4282Z" fill="url(#paint29_linear_40000236_5462)"/>
<path d="M38.3762 14.7168C38.401 14.7738 38.4489 14.9329 38.4489 14.9312C38.5084 15.043 38.5503 15.1286 38.582 15.2019C38.5979 15.1116 38.4773 14.8122 38.3762 14.7168Z" fill="url(#paint30_linear_40000236_5462)"/>
<path d="M39.0427 13.9688C39.0681 14.085 39.1201 14.208 39.1933 14.3265C39.3586 14.5968 39.5412 14.7184 39.7188 14.7742C39.4712 14.6287 39.1677 14.3095 39.0427 13.9688Z" fill="url(#paint31_linear_40000236_5462)"/>
<path d="M39.8334 15.1019C39.7845 15.1354 39.7882 15.2138 39.9084 15.3114C40.0377 15.417 40.22 15.4853 40.3769 15.4967C40.1228 15.3982 39.9201 15.2716 39.8334 15.1019Z" fill="url(#paint32_linear_40000236_5462)"/>
<path d="M40.0174 14.0449C40.0535 14.0635 40.1029 14.1223 40.1356 14.1795C40.1109 14.085 39.866 13.6289 39.593 13.6042C39.7613 13.6702 39.9218 13.8572 40.0174 14.0449Z" fill="url(#paint33_linear_40000236_5462)"/>
<path d="M40.2537 14.3315C40.2776 14.3878 40.3255 14.5462 40.3257 14.5448C40.385 14.6551 40.4268 14.7406 40.4582 14.813C40.4748 14.7244 40.3545 14.4267 40.2537 14.3315Z" fill="url(#paint34_linear_40000236_5462)"/>
<path d="M17.7578 10.0088C17.7578 10.0088 25.3183 19.6655 26.9447 17.791C28.4374 16.0704 28.1684 12.605 28.1684 12.605L41.13 34.0614C41.13 34.0614 29.7095 22.0687 27.2273 21.7046C25.7235 21.484 27.7993 27.7577 27.7993 27.7577L17.7578 10.0088Z" fill="url(#paint35_linear_40000236_5462)"/>
<path d="M16.3091 7.64429C18.3523 10.6238 19.7751 12.8587 21.3526 14.8758C22.9677 16.9416 25.1009 18.4462 23.77 17.8943C22.4392 17.3427 21.9393 17.1448 20.9658 15.8848C19.9925 14.625 16.3091 7.64429 16.3091 7.64429Z" fill="#E1E1E1"/>
<defs>
<linearGradient id="paint0_linear_40000236_5462" x1="6.06703" y1="27.0687" x2="1.74613" y2="25.2238" gradientUnits="userSpaceOnUse">
<stop offset="0.0121" stop-color="#333333"/>
<stop offset="0.2883" stop-color="#464646"/>
<stop offset="0.7309" stop-color="#5F5F5F"/>
<stop offset="1" stop-color="#686868"/>
</linearGradient>
<linearGradient id="paint1_linear_40000236_5462" x1="19.3347" y1="23.8716" x2="34.8424" y2="25.5654" gradientUnits="userSpaceOnUse">
<stop offset="0.1589" stop-color="#B9B9B9"/>
<stop offset="0.7855" stop-color="#E1E1E1"/>
</linearGradient>
<linearGradient id="paint2_linear_40000236_5462" x1="41.9746" y1="17.7701" x2="43.7951" y2="17.1026" gradientUnits="userSpaceOnUse">
<stop offset="0.0242" stop-color="#E1E1E1"/>
<stop offset="0.2364" stop-color="#B9B9B9"/>
<stop offset="0.4909" stop-color="#F8F8F8"/>
<stop offset="0.7212" stop-color="#B9B9B9"/>
<stop offset="1" stop-color="#E1E1E1"/>
</linearGradient>
<linearGradient id="paint3_linear_40000236_5462" x1="6.57344" y1="30.516" x2="9.48243" y2="30.57" gradientUnits="userSpaceOnUse">
<stop offset="0.1528" stop-color="#333333"/>
<stop offset="0.4107" stop-color="#090909"/>
<stop offset="0.5845" stop-color="#F8F8F8"/>
<stop offset="0.7845" stop-color="#B9B9B9"/>
</linearGradient>
<linearGradient id="paint4_linear_40000236_5462" x1="2.08636" y1="23.0315" x2="1.32033" y2="22.9013" gradientUnits="userSpaceOnUse">
<stop offset="0.1212" stop-color="#686868"/>
<stop offset="0.7333" stop-color="#F8F8F8"/>
<stop offset="1" stop-color="#E1E1E1"/>
</linearGradient>
<linearGradient id="paint5_linear_40000236_5462" x1="36.7742" y1="0.197546" x2="11.0381" y2="27.5693" gradientUnits="userSpaceOnUse">
<stop offset="0.005" stop-color="#686868"/>
<stop offset="1" stop-color="#090909"/>
</linearGradient>
<linearGradient id="paint6_linear_40000236_5462" x1="36.9486" y1="0.968483" x2="9.67821" y2="28.0152" gradientUnits="userSpaceOnUse">
<stop offset="0.2" stop-color="#090909"/>
<stop offset="0.9879" stop-color="#B9B9B9"/>
</linearGradient>
<linearGradient id="paint7_linear_40000236_5462" x1="32.3783" y1="2.14848" x2="13.752" y2="25.7878" gradientUnits="userSpaceOnUse">
<stop stop-color="#F8F8F8"/>
<stop offset="0.1232" stop-color="#E1E1E1"/>
<stop offset="0.3646" stop-color="#686868"/>
<stop offset="1" stop-color="#090909"/>
</linearGradient>
<linearGradient id="paint8_linear_40000236_5462" x1="19.0741" y1="9.8967" x2="24.9761" y2="20.8863" gradientUnits="userSpaceOnUse">
<stop stop-color="#F8F8F8"/>
<stop offset="0.5091" stop-color="#B9B9B9"/>
<stop offset="1" stop-color="#686868"/>
</linearGradient>
<linearGradient id="paint9_linear_40000236_5462" x1="12.2253" y1="19.0463" x2="28.3209" y2="24.6359" gradientUnits="userSpaceOnUse">
<stop stop-color="#B9B9B9"/>
<stop offset="1" stop-color="#686868"/>
</linearGradient>
<linearGradient id="paint10_linear_40000236_5462" x1="43.563" y1="34.888" x2="50.0947" y2="37.2918" gradientUnits="userSpaceOnUse">
<stop offset="0.1589" stop-color="#B9B9B9"/>
<stop offset="0.7855" stop-color="#F8F8F8"/>
</linearGradient>
<linearGradient id="paint11_linear_40000236_5462" x1="25.6466" y1="25.6549" x2="31.7934" y2="16.237" gradientUnits="userSpaceOnUse">
<stop stop-color="#333333"/>
<stop offset="0.5064" stop-color="#686868"/>
<stop offset="0.5354" stop-color="#6E6E6E"/>
<stop offset="0.74" stop-color="#979797"/>
<stop offset="0.9019" stop-color="#B0B0B0"/>
<stop offset="1" stop-color="#B9B9B9"/>
</linearGradient>
<linearGradient id="paint12_linear_40000236_5462" x1="20.4725" y1="5.08291" x2="19.6543" y2="3.1934" gradientUnits="userSpaceOnUse">
<stop offset="0.1212" stop-color="#B9B9B9"/>
<stop offset="0.7333" stop-color="#F8F8F8"/>
<stop offset="1" stop-color="#B9B9B9"/>
</linearGradient>
<linearGradient id="paint13_linear_40000236_5462" x1="37.2701" y1="36.7407" x2="41.6189" y2="39.2692" gradientUnits="userSpaceOnUse">
<stop offset="0.1528" stop-color="#333333"/>
<stop offset="0.4107" stop-color="#686868"/>
<stop offset="0.5845" stop-color="#F8F8F8"/>
<stop offset="0.7845" stop-color="#B9B9B9"/>
</linearGradient>
<linearGradient id="paint14_linear_40000236_5462" x1="51.6261" y1="33.5782" x2="52.429" y2="33.8317" gradientUnits="userSpaceOnUse">
<stop offset="0.0242" stop-color="#F8F8F8"/>
<stop offset="1" stop-color="#E1E1E1"/>
</linearGradient>
<linearGradient id="paint15_linear_40000236_5462" x1="44.6449" y1="12.0471" x2="32.5428" y2="19.787" gradientUnits="userSpaceOnUse">
<stop offset="0.005" stop-color="#686868"/>
<stop offset="1" stop-color="#090909"/>
</linearGradient>
<linearGradient id="paint16_linear_40000236_5462" x1="42.9216" y1="13.4741" x2="32.404" y2="19.6592" gradientUnits="userSpaceOnUse">
<stop offset="0.005" stop-color="#686868"/>
<stop offset="0.0727" stop-color="#B9B9B9"/>
<stop offset="0.8909" stop-color="#B9B9B9"/>
<stop offset="1" stop-color="#090909"/>
</linearGradient>
<linearGradient id="paint17_linear_40000236_5462" x1="42.5303" y1="12.9121" x2="32.9036" y2="20.0352" gradientUnits="userSpaceOnUse">
<stop stop-color="#F8F8F8"/>
<stop offset="0.303" stop-color="#686868"/>
<stop offset="0.7091" stop-color="#090909"/>
</linearGradient>
<linearGradient id="paint18_linear_40000236_5462" x1="34.966" y1="0.189264" x2="43.8297" y2="32.5978" gradientUnits="userSpaceOnUse">
<stop stop-color="#F8F8F8"/>
<stop offset="0.5091" stop-color="#B9B9B9"/>
<stop offset="1" stop-color="#686868"/>
</linearGradient>
<linearGradient id="paint19_linear_40000236_5462" x1="34.2559" y1="15.344" x2="34.9346" y2="15.344" gradientUnits="userSpaceOnUse">
<stop stop-color="#FDFDFE"/>
<stop offset="0.9104" stop-color="#FDFDFE"/>
<stop offset="1" stop-color="#FDFDFE"/>
</linearGradient>
<linearGradient id="paint20_linear_40000236_5462" x1="35.0227" y1="16.2893" x2="35.5954" y2="16.2893" gradientUnits="userSpaceOnUse">
<stop stop-color="#FDFDFE"/>
<stop offset="0.9104" stop-color="#FDFDFE"/>
<stop offset="1" stop-color="#FDFDFE"/>
</linearGradient>
<linearGradient id="paint21_linear_40000236_5462" x1="34.8011" y1="14.8619" x2="35.3453" y2="14.8619" gradientUnits="userSpaceOnUse">
<stop stop-color="#FDFDFE"/>
<stop offset="0.9104" stop-color="#FDFDFE"/>
<stop offset="1" stop-color="#FDFDFE"/>
</linearGradient>
<linearGradient id="paint22_linear_40000236_5462" x1="35.4639" y1="15.5549" x2="35.6726" y2="15.5549" gradientUnits="userSpaceOnUse">
<stop stop-color="#FDFDFE"/>
<stop offset="0.9104" stop-color="#FDFDFE"/>
<stop offset="1" stop-color="#FDFDFE"/>
</linearGradient>
<linearGradient id="paint23_linear_40000236_5462" x1="35.6948" y1="15.0533" x2="36.3728" y2="15.0533" gradientUnits="userSpaceOnUse">
<stop stop-color="#FDFDFE"/>
<stop offset="0.9104" stop-color="#FDFDFE"/>
<stop offset="1" stop-color="#FDFDFE"/>
</linearGradient>
<linearGradient id="paint24_linear_40000236_5462" x1="36.4603" y1="15.9935" x2="37.0327" y2="15.9935" gradientUnits="userSpaceOnUse">
<stop stop-color="#FDFDFE"/>
<stop offset="0.9104" stop-color="#FDFDFE"/>
<stop offset="1" stop-color="#FDFDFE"/>
</linearGradient>
<linearGradient id="paint25_linear_40000236_5462" x1="36.2414" y1="14.5719" x2="36.7855" y2="14.5719" gradientUnits="userSpaceOnUse">
<stop stop-color="#FDFDFE"/>
<stop offset="0.9104" stop-color="#FDFDFE"/>
<stop offset="1" stop-color="#FDFDFE"/>
</linearGradient>
<linearGradient id="paint26_linear_40000236_5462" x1="36.904" y1="15.2608" x2="37.1117" y2="15.2608" gradientUnits="userSpaceOnUse">
<stop stop-color="#FDFDFE"/>
<stop offset="0.9104" stop-color="#FDFDFE"/>
<stop offset="1" stop-color="#FDFDFE"/>
</linearGradient>
<linearGradient id="paint27_linear_40000236_5462" x1="37.1665" y1="14.7545" x2="37.8441" y2="14.7545" gradientUnits="userSpaceOnUse">
<stop stop-color="#FDFDFE"/>
<stop offset="0.9104" stop-color="#FDFDFE"/>
<stop offset="1" stop-color="#FDFDFE"/>
</linearGradient>
<linearGradient id="paint28_linear_40000236_5462" x1="37.9302" y1="15.6893" x2="38.5032" y2="15.6893" gradientUnits="userSpaceOnUse">
<stop stop-color="#FDFDFE"/>
<stop offset="0.9104" stop-color="#FDFDFE"/>
<stop offset="1" stop-color="#FDFDFE"/>
</linearGradient>
<linearGradient id="paint29_linear_40000236_5462" x1="37.7153" y1="14.2741" x2="38.2584" y2="14.2741" gradientUnits="userSpaceOnUse">
<stop stop-color="#FDFDFE"/>
<stop offset="0.9104" stop-color="#FDFDFE"/>
<stop offset="1" stop-color="#FDFDFE"/>
</linearGradient>
<linearGradient id="paint30_linear_40000236_5462" x1="38.3762" y1="14.9594" x2="38.5835" y2="14.9594" gradientUnits="userSpaceOnUse">
<stop stop-color="#FDFDFE"/>
<stop offset="0.9104" stop-color="#FDFDFE"/>
<stop offset="1" stop-color="#FDFDFE"/>
</linearGradient>
<linearGradient id="paint31_linear_40000236_5462" x1="39.0427" y1="14.3715" x2="39.7187" y2="14.3715" gradientUnits="userSpaceOnUse">
<stop stop-color="#FDFDFE"/>
<stop offset="0.9104" stop-color="#FDFDFE"/>
<stop offset="1" stop-color="#FDFDFE"/>
</linearGradient>
<linearGradient id="paint32_linear_40000236_5462" x1="39.804" y1="15.2993" x2="40.3769" y2="15.2993" gradientUnits="userSpaceOnUse">
<stop stop-color="#FDFDFE"/>
<stop offset="0.9104" stop-color="#FDFDFE"/>
<stop offset="1" stop-color="#FDFDFE"/>
</linearGradient>
<linearGradient id="paint33_linear_40000236_5462" x1="39.5931" y1="13.8919" x2="40.1356" y2="13.8919" gradientUnits="userSpaceOnUse">
<stop stop-color="#FDFDFE"/>
<stop offset="0.9104" stop-color="#FDFDFE"/>
<stop offset="1" stop-color="#FDFDFE"/>
</linearGradient>
<linearGradient id="paint34_linear_40000236_5462" x1="40.2536" y1="14.5724" x2="40.4597" y2="14.5724" gradientUnits="userSpaceOnUse">
<stop stop-color="#FDFDFE"/>
<stop offset="0.9104" stop-color="#FDFDFE"/>
<stop offset="1" stop-color="#FDFDFE"/>
</linearGradient>
<linearGradient id="paint35_linear_40000236_5462" x1="26.3887" y1="26.8655" x2="33.3396" y2="15.8758" gradientUnits="userSpaceOnUse">
<stop offset="0.2788" stop-color="#090909"/>
<stop offset="0.6485" stop-color="#686868"/>
<stop offset="1" stop-color="#686868"/>
</linearGradient>
</defs>
</svg>
