<svg width="52" height="43" viewBox="0 0 52 43" fill="none" xmlns="http://www.w3.org/2000/svg">
<path d="M44.0375 22.1949C44.1538 22.4998 43.7402 22.8928 43.5752 23.0157C43.1642 23.3218 9.44042 36.9359 8.24171 37.2692C6.75667 37.6812 5.90492 35.7556 4.76671 34.0534C3.5601 32.2486 1.78987 29.7513 0.860298 28.4005C0.214897 27.4631 0.216553 27.2767 0.216553 27.2767C0.216553 27.2767 44.0363 22.1912 44.0375 22.1949Z" fill="#090909"/>
<path d="M5.25507 34.4441C3.99076 32.6697 1.84439 29.5791 0.900937 28.2682C0.339985 27.4886 0.265598 27.6153 0.444685 26.6229C0.755349 24.9007 1.32815 20.8201 1.62429 19.4639C1.689 19.1668 1.84605 18.9302 1.84605 18.9302L6.48613 24.8504C6.48613 24.8504 5.46167 34.7339 5.25507 34.4441Z" fill="url(#paint0_linear_4_728)"/>
<path d="M43.3714 23.0664L10.345 36.3273C10.0196 36.3311 7.97639 36.7067 7.72661 36.6679L7.48792 25.6105L40.1123 13.2286L43.7202 22.4361C43.5373 22.7495 43.7408 22.9368 43.3714 23.0664Z" fill="url(#paint1_linear_4_728)"/>
<path d="M42.098 23.5842L39.3669 13.8016C39.3669 13.8016 39.6295 13.0351 39.9613 12.9752C40.0951 12.9511 40.5608 13.6519 40.7208 13.939C41.3215 15.019 44.0376 22.1948 44.0376 22.1948C43.8532 23.0285 43.0185 23.2505 42.098 23.5842Z" fill="url(#paint2_linear_4_728)"/>
<path d="M8.81765 24.9243L10.4623 36.2755C10.4623 36.2755 8.67423 36.99 8.31185 37.1099C6.68619 37.6465 5.73471 35.0673 4.55103 33.5164L6.27999 24.7012L8.81765 24.9243Z" fill="url(#paint3_linear_4_728)"/>
<path d="M0.216553 27.2768C0.216553 27.2768 0.922711 21.6756 1.66976 19.1765C1.73472 18.9595 1.99112 18.7059 1.99112 18.7059L0.956975 28.3321C0.555749 27.9065 0.216553 27.2768 0.216553 27.2768Z" fill="url(#paint4_linear_4_728)"/>
<path d="M2.633 18.4377C1.96951 18.6977 1.41747 19.0129 2.00174 19.7821C3.21115 21.3743 5.51928 24.3607 6.71786 25.8027C7.13922 26.3099 7.60846 26.309 8.27169 26.049L40.0503 14.535C40.9002 14.2262 40.5402 13.3467 40.0316 12.9507C38.2999 11.6032 36.3373 9.80204 34.7049 8.47073C34.2267 8.08059 33.8988 7.82189 33.2352 8.08173L2.633 18.4377Z" fill="#E1E1E1"/>
<path d="M2.47754 18.4499C1.82729 18.6871 1.61509 19.131 1.97505 19.6191C3.08549 21.126 5.32854 23.8783 6.73754 25.6592C7.14297 26.1715 7.5228 26.1981 8.17966 25.9408L40.011 14.4104C40.7713 14.1035 40.4242 13.3459 40.044 13.0265C38.3545 11.6043 36.0826 9.68749 34.4986 8.4C33.9873 7.98451 33.6368 7.58023 32.9798 7.83765L2.47754 18.4499Z" fill="url(#paint5_linear_4_728)"/>
<path d="M2.38322 18.4811C1.57211 18.777 1.86723 19.248 2.28476 19.8123C3.28808 21.1685 5.59507 24.0398 6.70946 25.4327C7.11757 25.9428 7.54261 26.0546 8.19922 25.7968L39.8497 14.3724C40.5066 14.115 40.4262 13.4471 39.9813 13.0627C38.4112 11.7051 35.7716 9.49837 34.1553 8.17866C33.6819 7.79195 33.357 7.53567 32.6998 7.7931C32.6998 7.7931 9.9329 15.7273 2.38322 18.4811Z" fill="url(#paint6_linear_4_728)"/>
<path d="M39.7083 13.2071C39.7568 13.236 39.8047 13.2659 39.8552 13.292C39.9931 13.3635 40.1353 13.4263 40.2779 13.4878C40.3756 13.7666 40.3152 14.0444 40.0771 14.2397C39.9765 14.0934 39.8766 13.9468 39.782 13.7963C39.7168 13.6923 39.6475 13.5935 39.5763 13.4964C39.6229 13.4015 39.6674 13.3052 39.7083 13.2071Z" fill="#B9B9B9"/>
<path d="M7.27637 25.877L7.56856 24.5896L7.73224 24.7179L7.80586 25.9106C7.61047 25.9442 7.43648 25.9339 7.27637 25.877Z" fill="#F8F8F8"/>
<path d="M32.9798 7.83739C32.9798 7.83739 9.93583 15.694 2.34756 18.5685C2.15968 18.6399 2.063 18.8519 2.18018 18.9891L7.07375 25.0969C7.22761 25.2436 7.63049 25.3869 7.92498 25.2725L39.3669 13.8015C39.9328 13.586 39.9186 13.1969 39.6919 12.9974C38.2321 11.7136 33.7266 8.00858 33.7266 8.00858C33.4579 7.76224 33.0973 7.79141 32.9798 7.83739Z" fill="url(#paint7_linear_4_728)"/>
<path d="M32.9815 7.93088C32.9815 7.93088 9.9928 15.6246 2.50414 18.6509C2.35014 18.713 2.23512 18.832 2.32097 18.9423C3.50325 20.464 7.13645 24.9607 7.13645 24.9607C7.29045 25.1074 7.56659 25.2248 7.76326 25.1776L39.3398 13.5687C39.4925 13.5084 39.7318 13.2236 39.5324 13.0454C38.0938 11.7604 33.6426 8.06284 33.6426 8.06284C33.3918 7.84962 33.0991 7.8849 32.9815 7.93088Z" fill="url(#paint8_linear_4_728)"/>
<path d="M19.1558 15.2707C19.1558 15.2707 15.3579 15.9284 15.2862 16.6035C15.2143 17.2789 22.4257 20.6236 22.4257 20.6236C22.4257 20.6236 21.1915 22.0498 18.8998 22.626C16.6083 23.202 10.976 26.0785 11.0525 26.4281C11.1293 26.7775 18.0517 27.6031 19.7049 27.724C21.3581 27.845 27.5571 26.1769 27.5571 26.1769C27.5571 26.1769 20.6923 15.4612 19.1558 15.2707Z" fill="url(#paint9_linear_4_728)"/>
<path d="M19.7719 20.8401C19.7719 20.8401 15.4889 22.0798 14.4085 22.5661C13.3282 23.0524 10.624 24.0856 10.624 24.0856C10.624 24.0856 14.5317 22.9935 15.8524 22.6013C17.1729 22.2086 19.7719 20.8401 19.7719 20.8401Z" fill="#E1E1E1"/>
<path d="M38.2251 42.1678C38.2251 42.1678 47.6437 38.1268 48.7189 37.6587C49.3847 37.3686 49.8705 37.1978 50.2182 36.1876C50.6724 34.8685 51.2462 32.6478 51.6569 31.2362C51.7567 30.8936 51.4889 30.0816 51.4889 30.0816L41.9151 34.5232L38.2251 42.1678Z" fill="url(#paint10_linear_4_728)"/>
<path d="M15.2724 8.75814L34.2149 41.6029C34.8087 42.079 35.6329 42.2574 35.3797 42.1157L42.8014 33.0537L22.2771 3.11499L14.6701 6.74156C14.618 7.12254 15.0538 8.37131 15.2724 8.75814Z" fill="url(#paint11_linear_4_728)"/>
<path d="M15.2725 8.7583L22.3234 4.50288C22.3234 4.50288 23.9222 2.86257 23.6845 2.59559C23.5888 2.48847 22.1462 2.58375 21.8256 2.71876C20.6191 3.22647 14.8085 5.76375 14.8085 5.76375C14.4396 6.80223 14.8602 7.83229 15.2725 8.7583Z" fill="url(#paint12_linear_4_728)"/>
<path d="M39.8807 32.924L33.3553 40.002C33.3553 40.002 34.2552 41.7543 34.4788 42.0906C35.4836 43.5999 37.1772 42.6639 38.8925 41.8764L42.6014 34.2546L39.8807 32.924Z" fill="url(#paint13_linear_4_728)"/>
<path d="M50.0653 37.0654C50.0653 37.0654 51.0701 34.2396 51.7786 31.5696C51.8944 31.1328 51.6542 30.1104 51.6542 30.1104L48.7188 37.6587C49.5299 37.3105 50.0653 37.0654 50.0653 37.0654Z" fill="url(#paint14_linear_4_728)"/>
<path d="M51.5935 30.0168C51.9398 30.4801 51.6872 31.2508 50.7827 31.5938C48.836 32.3314 43.7627 34.3634 41.8723 35.0005C41.2409 35.2134 40.532 35.2729 40.1628 34.6566L21.5549 3.92856C21.067 3.15757 21.8291 2.67177 22.4721 2.557C24.4769 2.19934 31.4291 0.987636 32.2238 0.906499C32.8457 0.843067 33.3414 1.02674 33.7107 1.6431L51.5935 30.0168Z" fill="#E1E1E1"/>
<path d="M51.5934 30.0168C51.9659 30.6073 51.4574 31.2614 50.8852 31.4818C49.0793 32.1782 44.0227 34.0786 41.9495 34.8826C41.1965 35.1745 40.5607 35.1623 40.1953 34.5518L21.7319 3.91837C21.3771 3.06905 21.8641 2.7124 22.6975 2.57204C25.4876 2.10177 31.1653 1.10125 32.0971 0.949424C32.7162 0.848672 33.2562 0.927261 33.6217 1.53802L51.5934 30.0168Z" fill="url(#paint15_linear_4_728)"/>
<path d="M51.5542 29.8549C51.8543 30.4496 51.6642 31.048 50.9421 31.3302C49.0564 32.0672 44.2277 33.989 42.2976 34.6632C41.6594 34.8863 40.7159 35.1839 40.3507 34.5733L21.9792 3.87414C21.6141 3.26364 21.9567 2.89694 22.6592 2.7488C24.5048 2.35993 31.2065 1.13447 32.1477 0.98557C32.6893 0.899848 33.2328 0.953982 33.5999 1.56372C34.8371 3.61863 50.8171 28.3943 51.5542 29.8549Z" fill="url(#paint16_linear_4_728)"/>
<path d="M23.0159 3.03632C22.7262 2.99658 22.4363 2.95608 22.1459 2.92181C21.8704 3.06536 21.7504 3.27196 21.8641 3.61294C22.1966 3.49678 22.5291 3.38074 22.8647 3.27655C22.8757 3.27146 22.8867 3.26661 22.8976 3.26152C22.9331 3.18459 22.973 3.10956 23.0159 3.03632Z" fill="#B9B9B9"/>
<path d="M41.0131 34.9318L41.5244 33.7616L41.3338 33.7866L40.62 34.8313C40.736 34.8934 40.8698 34.9232 41.0131 34.9318Z" fill="#F8F8F8"/>
<path d="M32.9626 1.42746L33.1254 1.09247C33.009 1.03018 32.8858 0.992227 32.7587 0.972229L32.7192 1.36123C32.7192 1.36123 32.8563 1.3904 32.9033 1.41167C32.9398 1.42823 32.9626 1.42746 32.9626 1.42746Z" fill="#B9B9B9"/>
<path d="M51.4568 30.9927C51.5537 30.8868 51.6209 30.7688 51.6596 30.6431L50.8778 29.4487L51.4568 30.9927Z" fill="#F8F8F8"/>
<path d="M33.3422 1.58366C33.3422 1.58366 49.8796 27.1999 51.4138 29.8263C51.6383 30.2102 51.2572 30.6257 51.0077 30.7149C48.5807 31.5821 44.4435 33.4051 41.7907 34.2302C41.5739 34.2976 40.9419 34.3779 40.7459 34.0514C36.2877 26.6264 22.5442 3.68278 22.5442 3.68278C22.226 3.16131 22.6917 2.8993 23.1508 2.81804C24.3919 2.59806 30.8505 1.35286 32.1233 1.16346C32.5579 1.0985 33.1244 1.21695 33.3422 1.58366Z" fill="url(#paint17_linear_4_728)"/>
<path d="M33.2389 1.57632C36.2311 6.19081 49.5447 27.2566 51.1639 29.713C51.4132 30.091 51.2753 30.426 50.9751 30.5326C49.1691 31.1742 43.884 33.3416 41.6277 34.1058C41.4238 34.175 40.9463 34.0502 40.8367 33.8777C38.5539 30.2785 22.7322 3.56743 22.7322 3.56743C22.5262 3.25447 22.928 3.01692 23.3433 2.93221C25.3346 2.52538 30.4075 1.51073 32.2465 1.2533C32.5766 1.20694 33.0538 1.29126 33.2389 1.57632Z" fill="url(#paint18_linear_4_728)"/>
<path d="M33.3513 12.4622L33.5129 12.4276L33.9351 13.2286L32.747 13.4375L32.6019 13.2534L32.6593 13.2434C32.7244 13.232 32.7425 13.1886 32.7146 13.1131C32.6986 13.0696 32.6326 12.9748 32.5165 12.828L31.3848 11.3966C31.2581 11.236 31.1682 11.1375 31.1152 11.1006C31.0417 11.0503 30.976 11.0299 30.918 11.0402L30.8601 11.0504L30.7147 10.8665L31.4093 10.7446L31.5547 10.9284C31.4723 10.9414 31.4253 10.964 31.4136 10.9963C31.4015 11.0285 31.4056 11.0661 31.4253 11.1087C31.4455 11.1511 31.5158 11.2491 31.6368 11.4021L32.7338 12.7899C32.8166 12.8949 33.0293 13.1434 33.1011 13.1681C33.1302 13.1782 33.1938 13.1736 33.2926 13.1563L33.4046 13.1365C33.5223 13.1159 33.5931 13.0868 33.6174 13.0493C33.6424 13.0117 33.438 12.6284 33.3513 12.4622Z" fill="#B9B9B9"/>
<path d="M29.8597 11.0345L30.4935 10.9232L30.6144 11.0763L30.5659 11.0849C30.5199 11.0927 30.4944 11.1086 30.4891 11.1314C30.4839 11.1548 30.4911 11.1852 30.5101 11.2229C30.5288 11.2607 30.5798 11.3314 30.6617 11.4353L31.9564 13.0736C32.0222 13.1563 32.0732 13.214 32.1109 13.2467C32.1484 13.2794 32.1829 13.302 32.2139 13.3147C32.2453 13.3273 32.2848 13.3292 32.3329 13.3207L32.3816 13.3123L32.5027 13.4654L31.8689 13.5767L31.7478 13.4235L31.7999 13.4145C31.8468 13.4063 31.8734 13.3922 31.8798 13.3723C31.8863 13.3525 31.8815 13.3263 31.866 13.2941C31.8501 13.2615 31.8069 13.2008 31.7368 13.1121L30.4118 11.4355C30.3374 11.3413 30.283 11.2788 30.2487 11.248C30.2143 11.217 30.1816 11.1959 30.1502 11.1836C30.1186 11.1718 30.0796 11.17 30.0328 11.1783L29.9805 11.1875L29.8597 11.0345Z" fill="#B9B9B9"/>
<path d="M35.618 10.0227L36.4727 9.87239C36.6349 9.84386 36.778 9.84806 36.9017 9.88526C37.0256 9.92232 37.1488 9.98588 37.2706 10.0757C37.3927 10.1659 37.5046 10.2751 37.6063 10.4038C37.7112 10.5361 37.782 10.6576 37.8196 10.7678C37.8573 10.8783 37.8585 10.9701 37.8225 11.0435C37.7872 11.1167 37.7024 11.1665 37.5688 11.1929L38.6551 11.936C38.7445 11.9977 38.8008 12.0356 38.8245 12.0493C38.8821 12.0823 38.9337 12.1058 38.9794 12.1199C39.0253 12.1339 39.0671 12.1377 39.1053 12.131L39.1348 12.1256L39.2558 12.2787L38.8787 12.3451C38.6667 12.1956 38.4549 12.0458 38.2427 11.8952C37.9872 11.7134 37.5681 11.3551 37.3847 11.3875C37.2785 11.4067 37.1733 11.3727 37.3296 11.5723C37.4565 11.7346 37.5888 11.897 37.717 12.0591C37.7863 12.1468 37.8314 12.201 37.8527 12.2222C37.8941 12.262 37.9309 12.2887 37.9637 12.3023C37.997 12.3162 38.0413 12.3178 38.0975 12.308L38.1403 12.3004L38.2613 12.4535L37.6274 12.5648L37.5066 12.4117L37.5635 12.4018C37.6062 12.3941 37.6313 12.385 37.6396 12.3739C37.6475 12.3629 37.6486 12.3455 37.6432 12.3222C37.6378 12.2991 37.6246 12.2706 37.6034 12.2369C37.5945 12.2233 37.5472 12.1618 37.4615 12.0523L36.1463 10.3884C36.0882 10.3145 36.0414 10.2623 36.0065 10.232C35.9715 10.2015 35.9399 10.1806 35.9119 10.1697C35.8835 10.1585 35.8487 10.1567 35.8067 10.1639L35.739 10.1759L35.618 10.0227ZM36.2046 10.1457L36.9609 11.1026L37.302 11.0426C37.418 11.0223 37.4904 10.9971 37.52 10.9669C37.5634 10.9262 37.5739 10.8634 37.5507 10.7788C37.5275 10.6945 37.4685 10.5919 37.3732 10.4717C37.2927 10.3695 37.2111 10.2862 37.1279 10.2209C37.0447 10.156 36.9658 10.1105 36.8906 10.0845C36.8154 10.0581 36.7299 10.0534 36.6349 10.0701L36.2046 10.1457Z" fill="#B9B9B9"/>
<path d="M36.7618 11.9582C36.7875 12.0251 36.806 12.0832 36.8158 12.1311C36.8399 12.2469 36.8325 12.3368 36.7951 12.4017C36.7574 12.4666 36.669 12.511 36.5303 12.5355L36.2821 12.5792C36.2287 12.5885 36.1932 12.5898 36.1743 12.5835C36.1561 12.5769 36.1368 12.5648 36.1165 12.5472C36.0964 12.5291 36.0528 12.4773 35.9845 12.3909L35.3318 11.565L35.5317 11.53C35.5935 11.5191 35.642 11.5175 35.6776 11.5252C35.713 11.5328 35.755 11.5514 35.8034 11.581C35.8522 11.6103 35.8955 11.6434 35.9333 11.6794C35.9568 11.7012 35.987 11.7356 36.0211 11.7756C36.0612 11.7699 36.103 11.7651 36.1438 11.7597L35.5082 10.9556C35.5052 10.9566 35.5043 10.9591 35.501 10.9599C35.4655 10.967 35.4333 10.9798 35.3961 10.9856C35.4343 11.0375 35.4646 11.0818 35.4785 11.1098C35.5096 11.1695 35.5212 11.2215 35.5135 11.2665C35.506 11.3114 35.4656 11.3405 35.3919 11.3535L35.192 11.3884L34.4559 10.4571L34.8578 10.3864C34.9722 10.3663 35.0574 10.3596 35.1132 10.3666C35.1872 10.3756 35.2637 10.4106 35.3444 10.4457C35.4246 10.4804 35.4552 10.5166 35.5243 10.5801C35.5372 10.5794 35.661 10.5445 35.6526 10.5365C35.6251 10.5113 35.2557 10.0881 35.2121 10.0937L33.8666 10.3301L33.9873 10.4833C34.0682 10.4691 34.1185 10.4649 34.1386 10.4713C34.1758 10.4813 34.2101 10.499 34.2416 10.5243C34.2732 10.5494 34.3204 10.6017 34.3833 10.6811L35.7678 12.4327C35.8314 12.5136 35.869 12.5667 35.8801 12.5922C35.8967 12.6291 35.9009 12.6573 35.8927 12.6766C35.888 12.6899 35.8577 12.7011 35.8024 12.7109L35.7703 12.7166C35.8111 12.7677 35.8511 12.8189 35.8888 12.8704L37.2729 12.6271L36.9606 12.0443C36.895 12.0177 36.8286 11.9886 36.7618 11.9582Z" fill="#B9B9B9"/>
<path d="M32.0505 10.6495L32.6548 10.5432L32.7755 10.6963L32.7293 10.7045C32.6864 10.7121 32.6618 10.7191 32.6544 10.726C32.6444 10.7359 32.6417 10.7502 32.6463 10.7682C32.6514 10.7861 32.6617 10.8054 32.6782 10.8264C32.7045 10.8594 32.7497 10.9056 32.8152 10.9655L34.6464 12.6485L33.6993 10.8101C33.6655 10.7447 33.6365 10.6962 33.6114 10.6644C33.5832 10.6289 33.5548 10.6046 33.5267 10.5915C33.498 10.5784 33.4595 10.5761 33.4105 10.5846L33.3559 10.5943L33.235 10.4412L33.7491 10.3509L33.8699 10.504C33.8247 10.5104 33.797 10.5225 33.7865 10.5395C33.7762 10.5565 33.7743 10.5786 33.78 10.6055C33.7896 10.6416 33.815 10.7004 33.8568 10.7828L34.9898 13.0283L34.8218 13.0577L32.567 11.0089C32.4929 10.9411 32.4455 10.8991 32.4249 10.8834C32.3934 10.8595 32.3643 10.841 32.338 10.8275C32.3115 10.8139 32.2858 10.805 32.2606 10.8003C32.2352 10.7958 32.2054 10.7966 32.1717 10.8024L32.0505 10.6495Z" fill="#B9B9B9"/>
<path d="M29.5 11.2323C29.5 11.2323 29.488 11.1811 29.447 11.1195C29.4438 11.1147 29.4395 11.1095 29.4355 11.1043C29.5053 11.1048 29.5618 11.0868 29.6321 11.0888C29.6554 11.0896 30.0984 11.7255 30.1706 11.7937C30.1412 11.8284 30.0668 11.7998 30.0123 11.803C29.9156 11.6846 29.7933 11.5396 29.6687 11.4692C29.5348 11.3938 29.3722 11.3642 29.262 11.3423C29.0623 11.3024 28.8217 11.4275 29.0888 11.8221C29.3781 12.2495 29.7892 12.2144 30.0856 12.2739C30.1372 12.2842 30.2184 12.3074 30.3289 12.3433C30.44 12.3793 30.5367 12.4208 30.6198 12.4677C30.7031 12.5149 30.7867 12.5753 30.872 12.6499C30.957 12.7244 31.0352 12.8071 31.1078 12.8983C31.267 13.1001 31.3492 13.2869 31.3536 13.4582C31.358 13.6301 31.2691 13.7318 31.086 13.7639C30.9919 13.7805 30.891 13.7745 30.7834 13.7453C30.6735 13.7158 30.5321 13.6446 30.4429 13.6536C30.4082 13.6569 30.3842 13.6415 30.3892 13.6836C30.3912 13.7004 30.4881 13.8325 30.4836 13.8339C30.4273 13.8504 30.3513 13.8357 30.2948 13.8497C30.0863 13.5598 29.7771 13.1687 29.59 12.9443C29.6135 12.8769 29.7466 12.9381 29.7899 12.8884C29.8969 13.0056 29.9601 13.1403 30.0668 13.251C30.1788 13.3669 30.3925 13.4681 30.4959 13.5049C30.7165 13.5832 30.9947 13.6101 31.0195 13.43C31.0521 13.1923 30.7871 12.843 30.3716 12.6546C30.1878 12.5715 29.986 12.5631 29.8285 12.532C29.6037 12.4869 29.4117 12.4128 29.2524 12.3092C29.093 12.2059 28.9544 12.0793 28.8362 11.9299C28.7443 11.8132 28.681 11.7015 28.6472 11.5948C28.6132 11.4878 28.6156 11.393 28.6546 11.3102C28.6937 11.2272 28.7678 11.176 28.877 11.157C28.969 11.1408 29.1116 11.1133 29.234 11.1473C29.3343 11.1753 29.5 11.2323 29.5 11.2323Z" fill="#B9B9B9"/>
<path d="M29.0885 11.8223C28.8214 11.4275 29.062 11.3026 29.2618 11.3425C29.2646 11.343 29.2678 11.3439 29.2702 11.3442C29.3253 11.3034 29.3744 11.2724 29.3744 11.2724C29.3744 11.2724 28.9599 11.1551 28.8333 11.3366C28.7096 11.5138 28.903 11.9054 29.3522 12.1621C29.574 12.2894 30.0196 12.2743 30.2298 12.3164C29.9619 12.2053 29.3006 12.1359 29.0885 11.8223Z" fill="#686868"/>
<path d="M29.4999 11.2321C29.4999 11.2321 29.4862 11.2272 29.4654 11.2202C29.7615 11.3872 30.1705 11.7935 30.1705 11.7935C30.1593 11.783 30.139 11.7579 30.1127 11.7246C30.004 11.5979 29.754 11.3202 29.4718 11.101C29.4597 11.1018 29.4482 11.1039 29.4355 11.1039C29.4395 11.1092 29.4437 11.1144 29.447 11.1192C29.4879 11.1809 29.4999 11.2321 29.4999 11.2321Z" fill="#686868"/>
<path d="M30.8719 12.6498C30.7866 12.5751 30.703 12.5148 30.6197 12.4675C30.5412 12.4229 30.449 12.3841 30.3455 12.3493C30.5405 12.4864 30.8141 12.6889 30.9467 12.8361C31.165 13.079 31.3707 13.3559 31.3031 13.5553C31.2912 13.5904 31.286 13.6292 31.2829 13.6686C31.3313 13.6174 31.3558 13.5476 31.3536 13.458C31.3492 13.2866 31.267 13.0998 31.1078 12.898C31.0351 12.8071 30.9569 12.7243 30.8719 12.6498Z" fill="#686868"/>
<path d="M30.0666 13.251C29.96 13.1405 29.8967 13.0057 29.7899 12.8887C29.7723 12.92 29.7713 12.9665 29.8293 13.0372C29.9739 13.2137 30.193 13.4913 30.4931 13.5757C30.5996 13.6059 30.6587 13.589 30.6915 13.5551C30.6262 13.5445 30.5588 13.5275 30.4959 13.505C30.3923 13.4681 30.1786 13.367 30.0666 13.251Z" fill="#686868"/>
<path d="M30.4374 13.6538C30.2736 13.5113 30.1301 13.4496 30.1301 13.4496C30.1301 13.4496 30.2836 13.6157 30.324 13.7546C30.3325 13.7845 30.3267 13.8178 30.3169 13.8469C30.3702 13.8399 30.4337 13.8487 30.4833 13.8341C30.4879 13.8327 30.3909 13.7006 30.389 13.6838C30.3844 13.644 30.4055 13.6555 30.4374 13.6538Z" fill="#686868"/>
<path d="M31.3899 10.7476L30.8479 10.8427C30.9554 10.899 31.0718 10.9394 31.1811 10.9334C31.4202 10.9207 31.4902 10.9161 31.3899 10.7476Z" fill="#686868"/>
<path d="M33.3512 12.4622C33.4379 12.6284 33.6423 13.0117 33.6175 13.049C33.6011 13.0741 33.5617 13.0952 33.5031 13.1131C33.4303 13.3674 32.7674 13.2224 32.8796 13.4142L33.9351 13.2286L33.5129 12.4276L33.3512 12.4622Z" fill="#686868"/>
<path d="M31.9369 13.5617L32.5009 13.4627L32.4354 13.3801C32.2261 13.466 31.8495 13.4134 31.9369 13.5617Z" fill="#686868"/>
<path d="M31.4099 11.0559C31.3159 10.9187 31.2345 10.9023 31.3717 11.1686C31.413 11.2487 32.7831 12.9852 33.0138 13.1024C32.9204 13.0148 32.7937 12.8657 32.734 12.7899L31.6369 11.4021C31.5159 11.2491 31.4593 11.1736 31.4392 11.131C31.4391 11.13 31.4159 11.0814 31.4099 11.0559Z" fill="#686868"/>
<path d="M30.4865 11.3239C30.6561 11.5643 31.8421 13.0697 32.1109 13.2461C32.0763 13.2163 32.0301 13.1645 31.9727 13.0933C31.9231 13.037 31.8778 12.9822 31.8487 12.9452L30.7518 11.5573C30.6537 11.4336 30.5998 11.3623 30.5713 11.3163C30.5417 11.2753 30.5209 11.2433 30.5103 11.2227C30.4913 11.185 30.484 11.1547 30.4893 11.1312C30.4899 11.1291 30.4927 11.128 30.4939 11.1258L30.4937 11.1252C30.4937 11.1252 30.494 11.1254 30.4942 11.1255C30.5024 11.106 30.5245 11.0917 30.5661 11.0847L30.6146 11.0761L30.4937 10.923L30.3762 10.9436L30.0052 11.0102C30.0736 11.0459 30.2363 11.0865 30.3737 11.1093C30.3867 11.1595 30.4191 11.2285 30.4865 11.3239Z" fill="#686868"/>
<path d="M32.1135 13.2484C32.1126 13.2478 32.1116 13.2467 32.1107 13.2462L32.111 13.2466C32.112 13.2475 32.1126 13.2476 32.1135 13.2484Z" fill="#686868"/>
<path d="M32.6598 10.75C32.6603 10.7478 32.6634 10.7467 32.6644 10.7445C32.6644 10.7445 32.6644 10.7441 32.664 10.744C32.6644 10.744 32.6644 10.7441 32.6646 10.7443C32.6728 10.7249 32.6952 10.7105 32.7365 10.7034L32.7851 10.6949L32.664 10.5417L32.5467 10.5624L32.1758 10.6291C32.2441 10.6649 32.4067 10.7053 32.5444 10.7283C32.5575 10.7784 32.7742 11.0258 32.8674 11.1134C33.4512 11.661 34.6466 12.6485 34.6466 12.6485C34.6466 12.6485 33.6965 11.7871 33.2746 11.3904C32.9758 11.1101 32.6548 10.7733 32.6598 10.75Z" fill="#686868"/>
<path d="M39.1349 12.1256L39.1053 12.1309C39.0671 12.1377 39.0253 12.1339 38.9795 12.1198C38.9339 12.1058 38.8821 12.0823 38.8246 12.0493C38.8009 12.0356 38.7446 11.9978 38.6552 11.9359L37.5688 11.1928C37.4347 11.1696 37.1727 11.1738 37.1331 11.1894C37.5288 11.2484 37.8383 11.4441 37.994 11.5538C38.1587 11.6703 38.8255 12.2062 39.0068 12.2063C39.0637 12.2066 39.1201 12.1718 39.1354 12.126L39.1349 12.1256Z" fill="#686868"/>
<path d="M37.8727 12.3958C37.9253 12.2862 36.3578 10.3686 36.0698 10.056C36.0698 10.056 36.6666 9.77792 37.1778 10.0943C37.3613 10.2074 37.5463 10.3761 37.6965 10.5293C37.6695 10.4883 37.6402 10.447 37.6062 10.404C37.52 10.2948 37.426 10.2002 37.3251 10.119C37.1605 9.99369 37.059 9.93918 36.9017 9.88543C36.873 9.87664 36.843 9.87065 36.8124 9.86543C36.6355 9.84008 36.4159 9.8895 36.2196 9.92389L35.7913 9.9993C35.9114 10.0561 36.043 10.1008 36.178 10.2496C36.489 10.592 37.6848 12.1292 37.7272 12.2265C37.782 12.3518 37.8334 12.4617 37.7495 12.5438L38.2613 12.4538L38.1594 12.3248C38.0129 12.378 37.8727 12.3958 37.8727 12.3958Z" fill="#686868"/>
<path d="M36.0795 12.5076C36.0562 12.4802 36.025 12.4424 35.9845 12.3912C35.9845 12.3912 34.551 10.5604 34.4209 10.3481C34.6401 10.3104 34.997 10.1871 35.1105 10.1921C35.3345 10.202 35.511 10.4127 35.6071 10.5576C35.6338 10.549 35.6563 10.5403 35.6526 10.5366C35.625 10.5114 35.2557 10.0883 35.2121 10.0939L33.938 10.3177C34.0861 10.3473 34.2146 10.3109 34.4072 10.5035C34.5685 10.6641 35.2052 11.495 35.4837 11.832C35.6215 11.999 35.7603 12.167 35.9097 12.3309C35.9609 12.3875 36.0128 12.4454 36.0701 12.4994C36.0728 12.5025 36.0766 12.5045 36.0795 12.5076Z" fill="#686868"/>
<path d="M35.5646 11.087C35.6158 11.1784 35.9087 11.5948 36.1055 11.7646C36.1185 11.7631 36.1307 11.7615 36.1437 11.7597L35.5123 10.9614C35.5195 10.9922 35.5356 11.036 35.5646 11.087Z" fill="#686868"/>
<path d="M36.8441 11.9945C37.0682 12.2301 37.1203 12.4815 37.0848 12.5213C37.0045 12.6106 36.4606 12.6785 36.2361 12.7254C36.1374 12.7454 36.0679 12.7967 36.0194 12.8478L37.2729 12.6276L36.9606 12.0448C36.9222 12.0288 36.883 12.0112 36.8441 11.9945Z" fill="#686868"/>
<path d="M34.0444 11.1551C34.0444 11.1551 33.8227 10.7029 33.7957 10.6539C33.7899 10.6268 33.7764 10.5566 33.7867 10.5397C33.7971 10.5225 33.8249 10.5105 33.8701 10.5041L33.7492 10.351L33.4803 10.3983C33.5155 10.4174 33.5508 10.4393 33.5833 10.4636C33.6745 10.5315 33.8741 10.8437 34.0444 11.1551Z" fill="#686868"/>
<path d="M34.3022 11.6921C34.4353 12.0589 34.902 12.9616 34.902 12.9616C34.902 12.9616 34.9243 13.0114 34.8356 13.0575L34.99 13.0283L34.2426 11.5472C34.2664 11.6005 34.287 11.6497 34.3022 11.6921Z" fill="#686868"/>
<path d="M29.9755 12.2403C29.7724 12.1801 29.2728 12.039 29.0863 11.7761C28.8614 11.4591 29.0621 11.3024 29.2618 11.3423C29.2618 11.3423 28.8309 11.2256 28.886 11.5449C28.9428 11.8765 29.5026 12.2276 29.9755 12.2403Z" fill="#090909"/>
<path d="M29.6924 11.3357C29.6392 11.2518 29.544 11.1799 29.4497 11.124C29.4882 11.1834 29.5 11.2324 29.5 11.2324C29.5 11.2324 29.4921 11.2297 29.4814 11.2259C29.6139 11.3212 29.7308 11.397 29.6924 11.3357Z" fill="#090909"/>
<path d="M30.5161 12.4781C30.558 12.5241 31.1858 13.1541 31.159 13.0988C30.9765 12.7173 30.417 12.3697 30.5161 12.4781Z" fill="#090909"/>
<path d="M31.1605 10.9067C31.0812 10.9886 31.2387 11.0347 31.4099 11.056C31.4066 11.0347 31.4069 11.0146 31.4138 10.9964C31.4238 10.9685 31.4619 10.9484 31.5244 10.9347C31.3943 10.8718 31.2387 10.8253 31.1605 10.9067Z" fill="#090909"/>
<path d="M33.7427 13.1297C33.7345 13.1755 33.7273 13.2218 33.722 13.2664L33.9352 13.2288L33.513 12.4278L33.3716 12.4582C33.5686 12.7326 33.7608 13.0322 33.7427 13.1297Z" fill="#090909"/>
<path d="M30.6145 11.0761L30.6095 11.0697C30.484 11.0126 30.3409 10.9746 30.2669 11.0513C30.1898 11.1308 30.336 11.1762 30.5011 11.1981C30.4908 11.1723 30.4854 11.1487 30.4893 11.1313C30.4945 11.1083 30.52 11.0925 30.5661 11.0848L30.6145 11.0761Z" fill="#090909"/>
<path d="M32.7852 10.6948L32.7803 10.6884C32.2278 10.5427 32.2392 10.7305 32.7382 10.8489C32.7087 10.8167 32.672 10.7605 32.6762 10.7424C32.6809 10.7209 32.7342 10.7038 32.7367 10.7033L32.7852 10.6948Z" fill="#090909"/>
<path d="M33.7958 10.654C33.7958 10.654 33.9581 11.0602 34.0616 11.2684C34.2318 11.6103 34.9601 12.9684 34.9601 12.9684C34.9601 12.9684 34.7234 12.4242 34.4003 11.7604C34.115 11.173 33.7958 10.654 33.7958 10.654Z" fill="#090909"/>
<path d="M36.6887 9.94764C36.6887 9.94764 36.8788 9.87618 37.1087 10.0024C37.3428 10.1313 37.5137 10.351 37.5137 10.351C37.2383 10.122 37.0227 9.98292 36.6887 9.94764Z" fill="#090909"/>
<path d="M37.5687 11.1931C37.6132 11.1845 37.6504 11.172 37.6837 11.1581C37.5192 11.1176 37.2119 11.0889 37.133 11.1897C37.0672 11.2735 37.2503 11.1302 37.6048 11.307C37.8259 11.4174 38.1356 11.6063 38.315 11.7036L37.5687 11.1931Z" fill="#090909"/>
<path d="M37.4704 11.8713L36.2689 10.3512C36.2689 10.3512 36.6047 10.7029 36.9183 11.0995C37.1274 11.3638 37.4704 11.8713 37.4704 11.8713Z" fill="#090909"/>
<path d="M36.0431 11.6902C36.0431 11.6902 35.8479 11.5392 35.7104 11.358C35.6092 11.2245 35.5304 11.0123 35.5304 11.0123C35.5304 11.0123 35.676 11.2404 35.7995 11.3971C35.9235 11.5537 36.0431 11.6902 36.0431 11.6902Z" fill="#090909"/>
<path d="M34.6353 10.2989C34.6353 10.2989 35.065 10.0997 35.3015 10.2227C35.4697 10.3101 35.607 10.5576 35.607 10.5576C35.607 10.5576 35.4465 10.3621 35.2535 10.2723C35.0574 10.1811 34.6353 10.2989 34.6353 10.2989Z" fill="#090909"/>
<path d="M36.54 12.6793C36.54 12.6793 37.0819 12.5637 37.0456 12.385C37.0088 12.2063 36.8442 11.9945 36.8442 11.9945C36.8442 11.9945 37.2215 12.3846 37.123 12.5565C37.0397 12.7012 36.54 12.6793 36.54 12.6793Z" fill="#090909"/>
<path d="M34.5173 10.4464C34.3857 10.3003 34.353 10.3085 34.315 10.321C34.2688 10.3358 35.2787 11.4884 35.2787 11.4884C35.2787 11.4884 35.2521 11.4489 35.2089 11.3857L34.5173 10.4464Z" fill="#090909"/>
<path d="M29.5579 12.457C29.2524 12.3096 29.0018 12.0584 28.8346 11.7574C28.6991 11.5134 28.7016 11.2859 28.8373 11.1682C28.7504 11.1922 28.6886 11.2387 28.6545 11.3106C28.6155 11.3934 28.6131 11.4882 28.6471 11.5952C28.681 11.7019 28.7443 11.8136 28.8361 11.9303C28.9543 12.0797 29.0929 12.2063 29.2522 12.3096C29.3433 12.3685 29.4461 12.4169 29.5579 12.457Z" fill="#F8F8F8"/>
<path d="M29.4108 11.3745C29.4952 11.3953 29.5871 11.4236 29.6687 11.4692C29.7933 11.5396 29.9155 11.6846 30.0122 11.803C30.0443 11.8011 30.0827 11.8093 30.1154 11.8099C30.0071 11.6758 29.8887 11.5539 29.7734 11.4637C29.6535 11.3707 29.5043 11.3436 29.4108 11.3745Z" fill="#F8F8F8"/>
<path d="M30.2157 12.6013C30.2682 12.6149 30.3207 12.632 30.3716 12.6549C30.7871 12.8433 31.0522 13.1925 31.0195 13.4302C31.0099 13.4998 30.9622 13.5378 30.8951 13.5549C31.1414 13.6059 31.3102 13.4072 30.9027 12.9217C30.5986 12.5595 30.347 12.5618 30.2157 12.6013Z" fill="#F8F8F8"/>
<path d="M30.0949 13.4734C29.9754 13.2919 29.8403 13.1364 29.7196 12.9104C29.6664 12.9112 29.6053 12.9008 29.5898 12.9445C29.7753 13.1672 30.0796 13.5522 30.2882 13.8411C30.2538 13.7149 30.0949 13.4734 30.0949 13.4734Z" fill="#F8F8F8"/>
<path d="M29.9786 11.185C29.997 11.1485 30.0131 11.1019 30.0021 11.0612C29.9978 11.0459 29.9914 11.0292 29.9844 11.0125L29.8597 11.0344L29.9786 11.185Z" fill="#F8F8F8"/>
<path d="M31.8662 13.2939C31.8733 13.3092 31.8777 13.3226 31.8802 13.3348C31.8904 13.3128 31.9134 13.285 31.8854 13.2292C31.7929 13.0456 30.3851 11.2492 30.2474 11.1491C30.1416 11.0723 30.122 11.1508 30.0967 11.1736C30.1163 11.1743 30.1343 11.1776 30.1502 11.1835C30.1816 11.1957 30.2145 11.2169 30.2488 11.2478C30.2832 11.2785 30.3374 11.3411 30.4118 11.4353L31.7369 13.1119C31.8071 13.2006 31.8502 13.2613 31.8662 13.2939Z" fill="#F8F8F8"/>
<path d="M31.8775 13.4931C31.8626 13.4801 31.8275 13.4491 31.7902 13.4163L31.7479 13.4236L31.8691 13.5768L31.9382 13.5646C31.9139 13.5324 31.8896 13.5042 31.8775 13.4931Z" fill="#F8F8F8"/>
<path d="M34.7484 12.8439C34.6229 12.7072 32.597 10.9368 32.359 10.8061C32.2919 10.7691 32.2449 10.7737 32.2174 10.7979C32.2328 10.7974 32.2471 10.7984 32.2606 10.8006C32.2858 10.8053 32.3115 10.8142 32.338 10.8279C32.3643 10.8414 32.3933 10.86 32.4249 10.8838C32.4455 10.8994 32.4929 10.9415 32.5671 11.0092L34.8218 13.058C34.8218 13.058 34.7916 12.8908 34.7484 12.8439Z" fill="#F8F8F8"/>
<path d="M32.1728 10.6279L32.0507 10.6495L32.1583 10.7856C32.1852 10.7459 32.2124 10.6977 32.1728 10.6279Z" fill="#F8F8F8"/>
<path d="M33.4478 10.5824C33.4788 10.5805 33.5066 10.5824 33.5269 10.5917C33.555 10.6049 33.5834 10.6291 33.6116 10.6645C33.6366 10.6964 33.6658 10.7449 33.6994 10.8102L34.6466 12.6486C34.6466 12.6486 34.2364 11.6378 33.5932 10.5752C33.5721 10.5401 33.5116 10.5529 33.4478 10.5824Z" fill="#F8F8F8"/>
<path d="M33.3316 10.5636C33.351 10.5369 33.3665 10.5083 33.3637 10.4846C33.3616 10.468 33.3542 10.4455 33.3449 10.4223L33.2354 10.4414L33.3316 10.5636Z" fill="#F8F8F8"/>
<path d="M34.1386 10.4716C34.1758 10.4816 34.2101 10.4993 34.2416 10.5245C34.2731 10.5496 34.3204 10.602 34.3833 10.6813L35.7677 12.433C35.8314 12.5139 35.869 12.567 35.8801 12.5925C35.9368 12.4404 34.3698 10.5354 34.2269 10.4433C34.1535 10.3959 34.099 10.429 34.0632 10.4725C34.0999 10.4684 34.1259 10.4674 34.1386 10.4716Z" fill="#F8F8F8"/>
<path d="M35.2061 10.3196C35.0275 10.2676 34.8312 10.3446 34.7035 10.4137L34.8579 10.3866C34.9722 10.3665 35.0575 10.3597 35.1133 10.3667C35.1873 10.3758 35.2638 10.4108 35.3444 10.4458C35.4247 10.4806 35.4553 10.5168 35.5244 10.5802C35.5285 10.58 35.544 10.5765 35.5622 10.5712C35.4922 10.4821 35.3749 10.3684 35.2061 10.3196Z" fill="#F8F8F8"/>
<path d="M35.4438 11.3413C35.4711 11.3441 35.5651 11.3026 35.5753 11.2903C35.6328 11.2214 35.4916 11.0096 35.3961 10.9859C35.4343 11.0377 35.4788 11.1242 35.4932 11.1521C35.5237 11.2117 35.5279 11.2819 35.4438 11.3413Z" fill="#F8F8F8"/>
<path d="M35.6776 11.5252C35.713 11.5328 35.755 11.5514 35.8034 11.581C35.8522 11.6103 35.8955 11.6434 35.9333 11.6794C35.9568 11.7012 35.9869 11.7356 36.0211 11.7756C36.0235 11.7752 36.0255 11.7751 36.0276 11.7747C35.9845 11.6701 35.8997 11.548 35.7332 11.4971C35.6474 11.471 35.5754 11.4974 35.5236 11.5315L35.5317 11.53C35.5936 11.5191 35.642 11.5175 35.6776 11.5252Z" fill="#F8F8F8"/>
<path d="M36.7617 11.9586C36.7875 12.0254 36.8059 12.0835 36.8158 12.1314C36.8398 12.2472 36.8324 12.3371 36.7951 12.4021C36.7574 12.4669 36.669 12.5114 36.5303 12.5358L36.5206 12.5375C36.8954 12.5682 36.9857 12.4567 36.9063 12.2001C36.8538 12.03 36.7617 11.9586 36.7617 11.9586Z" fill="#F8F8F8"/>
<path d="M33.9793 10.404C33.968 10.3749 33.9534 10.3456 33.9382 10.3177L33.8667 10.3304L33.9874 10.4835C33.9897 10.4831 33.9914 10.483 33.9937 10.4825C33.9956 10.464 33.9925 10.4392 33.9793 10.404Z" fill="#F8F8F8"/>
<path d="M37.4925 10.3831C37.1775 10.0224 36.8054 10.029 36.579 10.0802L36.6349 10.0703C36.7299 10.0536 36.8154 10.0583 36.8907 10.0847C36.9658 10.1106 37.0448 10.1562 37.128 10.2211C37.211 10.2864 37.2928 10.3697 37.3733 10.4719C37.4684 10.5921 37.5275 10.6946 37.5507 10.779C37.5739 10.8634 37.568 10.909 37.5243 10.9499C37.4948 10.9798 37.4226 11.0121 37.3021 11.0428L36.961 11.1028C37.7127 11.1253 37.9744 10.9347 37.4925 10.3831Z" fill="#F8F8F8"/>
<path d="M38.9131 12.3136C38.8381 12.1804 37.6927 11.3391 37.4846 11.3304C37.3539 11.3248 37.2715 11.3709 37.2589 11.4158C37.2934 11.391 37.3555 11.3926 37.3848 11.3875C37.5682 11.3551 37.9872 11.7136 38.2427 11.8952C38.4297 12.028 38.6919 12.2134 38.8787 12.3451C38.948 12.3748 38.9255 12.3357 38.9131 12.3136Z" fill="#F8F8F8"/>
<path d="M37.6036 12.2371C37.6248 12.2707 37.638 12.2993 37.6434 12.3223C37.7804 12.2333 36.2454 10.3679 36.0652 10.2156C35.9543 10.1217 35.9061 10.1278 35.8387 10.1617C35.8664 10.16 35.8919 10.1616 35.9121 10.1697C35.9401 10.1807 35.9717 10.2015 36.0068 10.232C36.0417 10.2623 36.0884 10.3145 36.1465 10.3884L37.4617 12.0523C37.5473 12.162 37.5947 12.2235 37.6036 12.2371Z" fill="#F8F8F8"/>
<path d="M37.6714 12.4639C37.6639 12.4379 37.6398 12.413 37.6095 12.3906C37.5973 12.3947 37.5826 12.3986 37.5637 12.402L37.5067 12.4119L37.6275 12.565L37.6585 12.5595C37.6723 12.5247 37.6797 12.491 37.6714 12.4639Z" fill="#F8F8F8"/>
<path d="M35.9443 12.7744C35.9362 12.7481 35.9123 12.7234 35.882 12.7009C35.8696 12.7049 35.8551 12.7089 35.8359 12.7123L35.7791 12.7223L35.9001 12.8754L35.931 12.87C35.9444 12.8349 35.952 12.8012 35.9443 12.7744Z" fill="#F8F8F8"/>
<path d="M35.7659 10.0648C35.7567 10.0432 35.7433 10.0232 35.7278 10.0034L35.618 10.0229L35.739 10.176L35.7835 10.168C35.7886 10.1452 35.7864 10.1132 35.7659 10.0648Z" fill="#F8F8F8"/>
<path d="M32.7148 13.1133C32.7172 13.12 32.7174 13.1252 32.7193 13.1317C32.7425 13.1185 32.754 13.0991 32.7327 13.044C32.7123 12.9926 32.675 12.9306 32.634 12.8761C32.4693 12.6559 31.3609 11.2362 31.1651 11.041C31.1049 10.981 31.0616 11.0278 31.0436 11.0433C31.0392 11.0473 31.0355 11.0519 31.0311 11.0562C31.0581 11.0669 31.0862 11.0806 31.1155 11.1008C31.1684 11.1377 31.2584 11.2363 31.3851 11.3968L32.5168 12.8282C32.6327 12.9749 32.6987 13.0698 32.7148 13.1133Z" fill="#F8F8F8"/>
<path d="M32.7042 13.2716C32.6908 13.2596 32.6811 13.2488 32.673 13.2386C32.6684 13.24 32.6652 13.2424 32.6596 13.2434L32.6022 13.2535L32.7473 13.4375L32.8814 13.4139C32.8215 13.3616 32.7508 13.3118 32.7042 13.2716Z" fill="#F8F8F8"/>
<path d="M30.8602 11.0502L30.8786 11.047C30.8779 11.0393 30.877 11.031 30.8785 11.024C30.8865 10.9846 30.9116 10.951 30.8699 10.8849C30.8604 10.8703 30.849 10.8568 30.8372 10.845L30.715 10.8663L30.8602 11.0502Z" fill="#F8F8F8"/>
<path d="M33.9968 15.2207C33.7702 15.0481 33.5797 15.0082 33.426 15.0423C33.0362 15.1292 33.0638 15.5489 33.2934 15.9274C33.5051 16.2762 33.7428 16.3798 33.9603 16.4122C34.1273 16.4373 34.3963 16.376 34.4035 16.1526C34.5409 16.4116 34.5897 16.5357 34.6078 16.6695C34.6276 16.816 34.5932 16.899 34.5049 16.917C34.3509 16.9484 34.1988 16.7594 34.0664 16.7048C33.9186 16.643 33.8062 16.7518 34.0007 16.9137C34.1719 17.0557 34.4357 17.1324 34.6066 17.0931C34.7672 17.0561 34.8502 16.931 34.8502 16.7071C34.8499 16.484 34.7294 16.2323 34.555 15.9301C34.3867 15.6371 34.2237 15.3936 33.9968 15.2207ZM34.1801 15.8884C34.2194 16.1557 33.9024 16.1741 33.6745 15.9512C33.4766 15.7579 33.2524 15.2419 33.512 15.1908C33.7958 15.1336 34.1378 15.5981 34.1801 15.8884Z" fill="#B9B9B9"/>
<path d="M35.4125 14.9369C35.1865 14.7649 34.996 14.7259 34.842 14.7604C34.4515 14.8482 34.4783 15.2661 34.7071 15.6424C34.918 15.9893 35.1557 16.0918 35.374 16.1237C35.5404 16.1484 35.8102 16.0867 35.8177 15.8639C35.9551 16.1216 36.0033 16.2449 36.0216 16.3789C36.0407 16.5251 36.0062 16.6071 35.9179 16.6252C35.7628 16.6573 35.6115 16.4688 35.4791 16.4145C35.3312 16.3539 35.2186 16.4624 35.4133 16.6234C35.5841 16.7644 35.8479 16.8399 36.0197 16.8006C36.1803 16.7631 36.2635 16.6382 36.2644 16.4158C36.2641 16.1935 36.1439 15.9435 35.9701 15.6423C35.802 15.3506 35.6392 15.1087 35.4125 14.9369ZM35.5951 15.6015C35.6334 15.8674 35.3161 15.8866 35.0885 15.6654C34.8909 15.4728 34.6671 14.9597 34.9269 14.9076C35.2116 14.8509 35.5529 15.3126 35.5951 15.6015Z" fill="#B9B9B9"/>
<path d="M36.8612 14.6453C36.6345 14.4744 36.4443 14.4362 36.2897 14.4707C35.8985 14.5585 35.925 14.975 36.153 15.3491C36.3632 15.6941 36.6011 15.7959 36.8194 15.8275C36.9863 15.8512 37.257 15.7893 37.2647 15.5678C37.4014 15.8242 37.4498 15.9466 37.4673 16.0797C37.4865 16.2253 37.452 16.3074 37.3631 16.3255C37.2084 16.358 37.0575 16.1706 36.9246 16.1164C36.7768 16.0567 36.6637 16.1651 36.858 16.3242C37.0291 16.4647 37.2933 16.5392 37.4647 16.4996C37.6257 16.4622 37.7096 16.3377 37.7103 16.1158C37.7113 15.8941 37.5908 15.6449 37.4183 15.3465C37.2501 15.0565 37.0874 14.8157 36.8612 14.6453ZM37.0422 15.3064C37.0803 15.5715 36.7622 15.5914 36.5353 15.3716C36.3376 15.18 36.1151 14.6691 36.3753 14.6174C36.6602 14.5597 37.0007 15.019 37.0422 15.3064Z" fill="#B9B9B9"/>
<path d="M38.7067 14.2711C38.4809 14.1016 38.2901 14.0644 38.136 14.0995C37.7434 14.1877 37.7681 14.6019 37.9961 14.9736C38.2058 15.3163 38.4434 15.4164 38.6621 15.4473C38.8293 15.4706 39.0999 15.408 39.1086 15.1882C39.2448 15.4423 39.2932 15.5648 39.3102 15.6969C39.3287 15.8415 39.294 15.923 39.2051 15.9415C39.0501 15.9738 38.8987 15.7882 38.7661 15.7349C38.6183 15.6754 38.5047 15.7833 38.699 15.9416C38.8699 16.0813 39.1344 16.1548 39.3064 16.1146C39.4679 16.0769 39.5521 15.9524 39.5534 15.7319C39.555 15.5112 39.4347 15.2638 39.2627 14.9676C39.0956 14.6788 38.9333 14.4399 38.7067 14.2711ZM38.8866 14.9285C38.9243 15.1924 38.6056 15.2129 38.3791 14.9947C38.1814 14.8045 37.9598 14.2976 38.2209 14.2447C38.5061 14.1866 38.8462 14.6424 38.8866 14.9285Z" fill="#B9B9B9"/>
<path d="M34.0979 15.6533C34.152 15.7706 34.1758 15.8321 34.18 15.8888C34.2016 16.1509 33.9024 16.1745 33.6745 15.9516C33.5113 15.7917 33.3008 15.4753 33.3887 15.3187C33.4047 15.2788 33.4709 15.204 33.512 15.1912C33.6407 15.1491 33.5511 15.0742 33.4683 15.0809C33.1939 15.1025 33.181 15.4378 33.4065 15.8345C33.7066 16.3626 34.3702 16.378 34.2148 15.7882C34.1943 15.7108 34.0366 15.5346 34.0979 15.6533Z" fill="#686868"/>
<path d="M34.5038 16.9168C34.3498 16.9478 34.1986 16.7598 34.0664 16.705C34.0445 16.6958 34.0239 16.6914 34.0044 16.6891C34.0053 16.6916 34.0053 16.6929 34.0063 16.6956C34.1492 16.8674 34.3511 16.9813 34.5038 16.9168Z" fill="#686868"/>
<path d="M34.5866 15.9155C34.4191 15.6244 34.2219 15.3929 33.9967 15.221C33.8816 15.1334 33.7754 15.0799 33.6792 15.0533C33.9513 15.2184 34.2576 15.5461 34.4887 15.9466C34.7327 16.372 34.8282 16.7773 34.7637 17.0032C34.9295 16.8194 34.8391 16.4181 34.7052 16.1456C34.6679 16.0691 34.6307 15.9914 34.5866 15.9155Z" fill="#686868"/>
<path d="M34.3311 15.9406C34.3311 15.9406 34.4421 16.3394 34.0143 16.4167C34.179 16.4225 34.3972 16.3536 34.4034 16.1528C34.4039 16.1543 34.4044 16.1553 34.4054 16.157C34.3814 16.0204 34.3311 15.9406 34.3311 15.9406Z" fill="#686868"/>
<path d="M35.5135 15.3678C35.567 15.4842 35.5904 15.5456 35.5952 15.6018C35.6161 15.8631 35.3162 15.8868 35.0885 15.6657C34.9252 15.5066 34.7156 15.1917 34.8039 15.0357C34.8197 14.9965 34.8858 14.9213 34.9272 14.9078C35.0564 14.8667 34.967 14.7919 34.884 14.7989C34.6097 14.8216 34.5953 15.1544 34.8204 15.5493C35.1203 16.0751 35.7844 16.0885 35.63 15.5018C35.6092 15.4245 35.4523 15.2489 35.5135 15.3678Z" fill="#686868"/>
<path d="M35.9172 16.6256C35.7629 16.6564 35.6116 16.4696 35.4792 16.4149C35.4577 16.406 35.4366 16.4017 35.4176 16.3998C35.4179 16.4018 35.418 16.4032 35.4186 16.4059C35.5617 16.5763 35.7635 16.6899 35.9172 16.6256Z" fill="#686868"/>
<path d="M36.0022 15.6282C35.8345 15.3384 35.6385 15.1084 35.4125 14.9373C35.2975 14.8497 35.1921 14.7974 35.0955 14.7707C35.367 14.935 35.6741 15.2607 35.904 15.6591C36.1478 16.0816 36.2425 16.4859 36.177 16.711C36.3436 16.5278 36.254 16.1282 36.1201 15.8567C36.0826 15.7805 36.0458 15.7037 36.0022 15.6282Z" fill="#686868"/>
<path d="M35.7464 15.6528C35.7464 15.6528 35.8566 16.0504 35.4275 16.1282C35.5923 16.1339 35.8111 16.0645 35.8179 15.8641C35.8187 15.8657 35.8193 15.8668 35.8195 15.868C35.7961 15.7326 35.7464 15.6528 35.7464 15.6528Z" fill="#686868"/>
<path d="M36.9606 15.0737C37.0139 15.1894 37.0376 15.2508 37.0422 15.3066C37.0618 15.566 36.7622 15.5916 36.5353 15.3718C36.3718 15.2131 36.1623 14.9004 36.2513 14.7452C36.2676 14.7052 36.3338 14.631 36.3754 14.6176C36.5048 14.5753 36.4154 14.5018 36.3321 14.5081C36.0574 14.5316 36.0423 14.8638 36.2664 15.2557C36.5653 15.7791 37.2305 15.7915 37.0775 15.2072C37.0571 15.1305 36.9001 14.956 36.9606 15.0737Z" fill="#686868"/>
<path d="M37.3622 16.3262C37.2081 16.3571 37.0567 16.1708 36.9246 16.1166C36.9023 16.1082 36.8819 16.1043 36.8625 16.102C36.8633 16.1043 36.8631 16.1053 36.8638 16.1077C37.0067 16.2776 37.2086 16.3904 37.3622 16.3262Z" fill="#686868"/>
<path d="M37.4497 15.3323C37.2825 15.044 37.0864 14.8152 36.8612 14.6458C36.7457 14.5582 36.6406 14.5068 36.5437 14.4803C36.8159 14.6435 37.1217 14.9668 37.3512 15.3632C37.594 15.7836 37.6884 16.1857 37.6227 16.4102C37.7895 16.2275 37.701 15.8297 37.5678 15.5598C37.5298 15.484 37.493 15.4072 37.4497 15.3323Z" fill="#686868"/>
<path d="M37.1933 15.3575C37.1933 15.3575 37.3027 15.7529 36.8727 15.8316C37.0384 15.8372 37.2573 15.7674 37.2646 15.5683C37.265 15.5694 37.2656 15.5706 37.2665 15.5719C37.2436 15.4369 37.1933 15.3575 37.1933 15.3575Z" fill="#686868"/>
<path d="M38.806 14.6971C38.859 14.8122 38.8827 14.8731 38.8866 14.9286C38.9063 15.1873 38.6057 15.2131 38.3792 14.9949C38.2156 14.8379 38.0071 14.5269 38.0962 14.3721C38.1125 14.3325 38.1793 14.2583 38.2209 14.2449C38.3499 14.2023 38.2611 14.1295 38.1777 14.1362C37.902 14.1601 37.8864 14.4907 38.11 14.8806C38.4078 15.3994 39.0735 15.4098 38.9222 14.8293C38.9017 14.7529 38.7455 14.58 38.806 14.6971Z" fill="#686868"/>
<path d="M39.2044 15.9415C39.0498 15.9735 38.8988 15.7884 38.7662 15.735C38.7445 15.7264 38.724 15.7219 38.7046 15.7208C38.7052 15.7225 38.7052 15.7237 38.7054 15.7261C38.8486 15.8948 39.0503 16.0061 39.2044 15.9415Z" fill="#686868"/>
<path d="M39.2948 14.9525C39.1278 14.6664 38.9325 14.4393 38.7068 14.2711C38.5923 14.1848 38.4862 14.1331 38.3899 14.108C38.662 14.2694 38.9674 14.5901 39.196 14.9834C39.4382 15.4016 39.5313 15.8008 39.4648 16.0247C39.6325 15.8422 39.5448 15.4465 39.4118 15.1782C39.375 15.1029 39.3383 15.0268 39.2948 14.9525Z" fill="#686868"/>
<path d="M39.0379 14.9789C39.0379 14.9789 39.1466 15.3721 38.7158 15.4516C38.8815 15.4561 39.1005 15.3864 39.1088 15.1886C39.1097 15.19 39.1097 15.1905 39.1107 15.1918C39.0875 15.0578 39.0379 14.9789 39.0379 14.9789Z" fill="#686868"/>
<path d="M33.4862 15.618C33.4019 15.4202 33.4279 15.2076 33.512 15.1908C33.2473 15.1899 33.3263 15.6031 33.4792 15.8288C33.6466 16.0762 33.8245 16.0958 33.9537 16.1005C33.7372 16.0243 33.5834 15.846 33.4862 15.618Z" fill="#090909"/>
<path d="M33.6498 15.0602C33.6171 14.9992 34.0472 15.2309 34.0858 15.3593C34.1211 15.4769 33.6797 15.1154 33.6498 15.0602Z" fill="#090909"/>
<path d="M34.6664 16.2042C34.7448 16.3169 34.8675 16.7754 34.7833 16.8021C34.6892 16.832 34.5888 16.0926 34.6664 16.2042Z" fill="#090909"/>
<path d="M34.9008 15.333C34.8166 15.1362 34.8426 14.9244 34.927 14.9072C34.6626 14.9076 34.7404 15.3192 34.8937 15.5438C35.0598 15.7892 35.2383 15.8086 35.3679 15.8132C35.1512 15.738 34.9976 15.5601 34.9008 15.333Z" fill="#090909"/>
<path d="M35.0659 14.7778C35.0331 14.7174 35.4634 14.9468 35.5019 15.0749C35.537 15.1917 35.0957 14.8328 35.0659 14.7778Z" fill="#090909"/>
<path d="M36.0814 15.9153C36.1591 16.0277 36.2811 16.484 36.1973 16.5109C36.1026 16.5405 36.0038 15.8041 36.0814 15.9153Z" fill="#090909"/>
<path d="M36.3477 15.041C36.2637 14.8455 36.2907 14.6339 36.3753 14.6174C36.1099 14.6184 36.1875 15.028 36.3401 15.2512C36.5061 15.4951 36.6848 15.514 36.8146 15.5183C36.5974 15.4439 36.4443 15.2668 36.3477 15.041Z" fill="#090909"/>
<path d="M36.5141 14.4876C36.4811 14.4267 36.9118 14.6549 36.9496 14.7822C36.9846 14.8988 36.5439 14.542 36.5141 14.4876Z" fill="#090909"/>
<path d="M37.5286 15.6186C37.606 15.7295 37.7275 16.184 37.6428 16.211C37.5482 16.2404 37.4513 15.5076 37.5286 15.6186Z" fill="#090909"/>
<path d="M38.1919 14.6668C38.1086 14.472 38.1359 14.2612 38.2208 14.2445C37.9553 14.2463 38.0314 14.654 38.183 14.8751C38.3492 15.1175 38.5274 15.136 38.658 15.1398C38.4407 15.0658 38.288 14.8907 38.1919 14.6668Z" fill="#090909"/>
<path d="M38.3599 14.1143C38.3273 14.0552 38.758 14.2807 38.7957 14.4066C38.8303 14.5229 38.3901 14.1692 38.3599 14.1143Z" fill="#090909"/>
<path d="M39.3726 15.2373C39.4499 15.3475 39.5703 15.7996 39.4856 15.826C39.3908 15.8565 39.2954 15.1277 39.3726 15.2373Z" fill="#090909"/>
<path d="M33.144 15.5705C33.1691 15.6855 33.2211 15.8086 33.2935 15.9275C33.4575 16.1982 33.6374 16.3205 33.811 16.3766C33.5679 16.2307 33.2686 15.9108 33.144 15.5705Z" fill="url(#paint19_linear_4_728)"/>
<path d="M33.9258 16.704C33.8782 16.7375 33.8827 16.8152 34.0008 16.9135C34.1282 17.0192 34.3071 17.0885 34.4602 17.1011C34.2114 17.001 34.0116 16.8736 33.9258 16.704Z" fill="url(#paint20_linear_4_728)"/>
<path d="M34.0978 15.6532C34.1333 15.672 34.1829 15.7306 34.2147 15.788C34.1905 15.6939 33.947 15.2386 33.6798 15.2115C33.8439 15.2777 34.0037 15.4657 34.0978 15.6532Z" fill="url(#paint21_linear_4_728)"/>
<path d="M34.3312 15.9405C34.3556 15.9965 34.4034 16.1543 34.4034 16.1527C34.4622 16.2634 34.5039 16.3491 34.5348 16.4211C34.5503 16.3324 34.4312 16.0355 34.3312 15.9405Z" fill="url(#paint22_linear_4_728)"/>
<path d="M34.5581 15.2874C34.5835 15.4023 34.6354 15.5245 34.7073 15.6425C34.8709 15.9114 35.0505 16.0331 35.2245 16.0887C34.9812 15.9443 34.682 15.6257 34.5581 15.2874Z" fill="url(#paint23_linear_4_728)"/>
<path d="M35.3389 16.4151C35.2912 16.4481 35.2951 16.5257 35.4134 16.6236C35.5404 16.7287 35.7189 16.7971 35.8729 16.8088C35.6237 16.7097 35.4239 16.5835 35.3389 16.4151Z" fill="url(#paint24_linear_4_728)"/>
<path d="M35.5135 15.3677C35.5485 15.3861 35.5978 15.4445 35.6301 15.5015C35.6058 15.4082 35.3632 14.9541 35.0953 14.9282C35.2598 14.9941 35.4191 15.1811 35.5135 15.3677Z" fill="url(#paint25_linear_4_728)"/>
<path d="M35.7463 15.6526C35.77 15.7086 35.8177 15.8659 35.8178 15.8639C35.8765 15.9746 35.9179 16.0595 35.949 16.1311C35.9645 16.0436 35.8456 15.747 35.7463 15.6526Z" fill="url(#paint26_linear_4_728)"/>
<path d="M36.0043 14.9962C36.0296 15.1103 36.0813 15.232 36.1529 15.3492C36.3161 15.6166 36.4959 15.7375 36.6701 15.7924C36.4266 15.6492 36.1276 15.3327 36.0043 14.9962Z" fill="url(#paint27_linear_4_728)"/>
<path d="M36.7838 16.1176C36.7356 16.1502 36.7397 16.2277 36.8579 16.3244C36.9854 16.429 37.1638 16.497 37.3179 16.5083C37.0685 16.4101 36.8684 16.285 36.7838 16.1176Z" fill="url(#paint28_linear_4_728)"/>
<path d="M36.9606 15.0736C36.9963 15.0922 37.0452 15.1499 37.0774 15.2071C37.0531 15.1136 36.8113 14.6626 36.5437 14.6372C36.7081 14.7023 36.8672 14.8883 36.9606 15.0736Z" fill="url(#paint29_linear_4_728)"/>
<path d="M37.1934 15.3572C37.2177 15.4133 37.2648 15.5696 37.2648 15.5679C37.3233 15.6778 37.3644 15.7619 37.3956 15.834C37.4112 15.7452 37.2927 15.451 37.1934 15.3572Z" fill="url(#paint30_linear_4_728)"/>
<path d="M37.8483 14.6221C37.8732 14.7363 37.9243 14.8572 37.9963 14.9736C38.1587 15.2393 38.3381 15.3588 38.5126 15.4136C38.2694 15.2707 37.9711 14.9569 37.8483 14.6221Z" fill="url(#paint31_linear_4_728)"/>
<path d="M38.6252 15.7358C38.5772 15.7687 38.5808 15.8458 38.699 15.9417C38.826 16.0455 39.0052 16.1126 39.1593 16.1238C38.9097 16.027 38.7105 15.9026 38.6252 15.7358Z" fill="url(#paint32_linear_4_728)"/>
<path d="M38.8061 14.6969C38.8416 14.7151 38.8901 14.773 38.9222 14.8291C38.898 14.7363 38.6573 14.2881 38.389 14.2639C38.5544 14.3287 38.7122 14.5125 38.8061 14.6969Z" fill="url(#paint33_linear_4_728)"/>
<path d="M39.038 14.9786C39.0615 15.0339 39.1085 15.1895 39.1088 15.1881C39.167 15.2965 39.2081 15.3806 39.239 15.4518C39.2553 15.3646 39.1371 15.0721 39.038 14.9786Z" fill="url(#paint34_linear_4_728)"/>
<path d="M16.9307 10.7307C16.9307 10.7307 24.3606 20.2206 25.9589 18.3785C27.4259 16.6877 27.1616 13.2821 27.1616 13.2821L39.8993 34.368C39.8993 34.368 28.676 22.5824 26.2367 22.2246C24.7588 22.0078 26.7988 28.1732 26.7988 28.1732L16.9307 10.7307Z" fill="url(#paint35_linear_4_728)"/>
<path d="M15.5068 8.40698C17.5148 11.335 18.9131 13.5313 20.4633 15.5137C22.0505 17.5437 24.1468 19.0224 22.839 18.4801C21.5311 17.938 21.0398 17.7435 20.0831 16.5053C19.1267 15.2672 15.5068 8.40698 15.5068 8.40698Z" fill="#E1E1E1"/>
<defs>
<linearGradient id="paint0_linear_4_728" x1="5.44183" y1="27.4961" x2="1.19553" y2="25.6831" gradientUnits="userSpaceOnUse">
<stop offset="0.0121" stop-color="#333333"/>
<stop offset="0.2883" stop-color="#464646"/>
<stop offset="0.7309" stop-color="#5F5F5F"/>
<stop offset="1" stop-color="#686868"/>
</linearGradient>
<linearGradient id="paint1_linear_4_728" x1="18.4805" y1="24.3543" x2="33.7205" y2="26.0188" gradientUnits="userSpaceOnUse">
<stop offset="0.1589" stop-color="#B9B9B9"/>
<stop offset="0.7855" stop-color="#E1E1E1"/>
</linearGradient>
<linearGradient id="paint2_linear_4_728" x1="40.7294" y1="18.3581" x2="42.5186" y2="17.7021" gradientUnits="userSpaceOnUse">
<stop offset="0.0242" stop-color="#E1E1E1"/>
<stop offset="0.2364" stop-color="#B9B9B9"/>
<stop offset="0.4909" stop-color="#F8F8F8"/>
<stop offset="0.7212" stop-color="#B9B9B9"/>
<stop offset="1" stop-color="#E1E1E1"/>
</linearGradient>
<linearGradient id="paint3_linear_4_728" x1="5.93966" y1="30.884" x2="8.79844" y2="30.937" gradientUnits="userSpaceOnUse">
<stop offset="0.1528" stop-color="#333333"/>
<stop offset="0.4107" stop-color="#090909"/>
<stop offset="0.5845" stop-color="#F8F8F8"/>
<stop offset="0.7845" stop-color="#B9B9B9"/>
</linearGradient>
<linearGradient id="paint4_linear_4_728" x1="1.52984" y1="23.5285" x2="0.777032" y2="23.4005" gradientUnits="userSpaceOnUse">
<stop offset="0.1212" stop-color="#686868"/>
<stop offset="0.7333" stop-color="#F8F8F8"/>
<stop offset="1" stop-color="#E1E1E1"/>
</linearGradient>
<linearGradient id="paint5_linear_4_728" x1="35.6188" y1="1.08892" x2="10.327" y2="27.9881" gradientUnits="userSpaceOnUse">
<stop offset="0.005" stop-color="#686868"/>
<stop offset="1" stop-color="#090909"/>
</linearGradient>
<linearGradient id="paint6_linear_4_728" x1="35.7902" y1="1.84658" x2="8.99062" y2="28.4264" gradientUnits="userSpaceOnUse">
<stop offset="0.2" stop-color="#090909"/>
<stop offset="0.9879" stop-color="#B9B9B9"/>
</linearGradient>
<linearGradient id="paint7_linear_4_728" x1="31.2989" y1="3.00619" x2="12.9942" y2="26.2374" gradientUnits="userSpaceOnUse">
<stop stop-color="#F8F8F8"/>
<stop offset="0.1232" stop-color="#E1E1E1"/>
<stop offset="0.3646" stop-color="#686868"/>
<stop offset="1" stop-color="#090909"/>
</linearGradient>
<linearGradient id="paint8_linear_4_728" x1="18.2242" y1="10.6206" x2="24.0244" y2="21.4205" gradientUnits="userSpaceOnUse">
<stop stop-color="#F8F8F8"/>
<stop offset="0.5091" stop-color="#B9B9B9"/>
<stop offset="1" stop-color="#686868"/>
</linearGradient>
<linearGradient id="paint9_linear_4_728" x1="11.4939" y1="19.6121" x2="27.3116" y2="25.1051" gradientUnits="userSpaceOnUse">
<stop stop-color="#B9B9B9"/>
<stop offset="1" stop-color="#686868"/>
</linearGradient>
<linearGradient id="paint10_linear_4_728" x1="42.2904" y1="35.1802" x2="48.7093" y2="37.5425" gradientUnits="userSpaceOnUse">
<stop offset="0.1589" stop-color="#B9B9B9"/>
<stop offset="0.7855" stop-color="#F8F8F8"/>
</linearGradient>
<linearGradient id="paint11_linear_4_728" x1="24.6833" y1="26.1066" x2="30.7239" y2="16.8513" gradientUnits="userSpaceOnUse">
<stop stop-color="#333333"/>
<stop offset="0.5064" stop-color="#686868"/>
<stop offset="0.5354" stop-color="#6E6E6E"/>
<stop offset="0.74" stop-color="#979797"/>
<stop offset="0.9019" stop-color="#B0B0B0"/>
<stop offset="1" stop-color="#B9B9B9"/>
</linearGradient>
<linearGradient id="paint12_linear_4_728" x1="19.5984" y1="5.88983" x2="18.7943" y2="4.03293" gradientUnits="userSpaceOnUse">
<stop offset="0.1212" stop-color="#B9B9B9"/>
<stop offset="0.7333" stop-color="#F8F8F8"/>
<stop offset="1" stop-color="#B9B9B9"/>
</linearGradient>
<linearGradient id="paint13_linear_4_728" x1="36.1062" y1="37.001" x2="40.3799" y2="39.4858" gradientUnits="userSpaceOnUse">
<stop offset="0.1528" stop-color="#333333"/>
<stop offset="0.4107" stop-color="#686868"/>
<stop offset="0.5845" stop-color="#F8F8F8"/>
<stop offset="0.7845" stop-color="#B9B9B9"/>
</linearGradient>
<linearGradient id="paint14_linear_4_728" x1="50.2143" y1="33.8932" x2="51.0033" y2="34.1422" gradientUnits="userSpaceOnUse">
<stop offset="0.0242" stop-color="#F8F8F8"/>
<stop offset="1" stop-color="#E1E1E1"/>
</linearGradient>
<linearGradient id="paint15_linear_4_728" x1="43.3534" y1="12.7337" x2="31.4603" y2="20.3401" gradientUnits="userSpaceOnUse">
<stop offset="0.005" stop-color="#686868"/>
<stop offset="1" stop-color="#090909"/>
</linearGradient>
<linearGradient id="paint16_linear_4_728" x1="41.6599" y1="14.1361" x2="31.3239" y2="20.2145" gradientUnits="userSpaceOnUse">
<stop offset="0.005" stop-color="#686868"/>
<stop offset="0.0727" stop-color="#B9B9B9"/>
<stop offset="0.8909" stop-color="#B9B9B9"/>
<stop offset="1" stop-color="#090909"/>
</linearGradient>
<linearGradient id="paint17_linear_4_728" x1="41.2756" y1="13.5838" x2="31.815" y2="20.5839" gradientUnits="userSpaceOnUse">
<stop stop-color="#F8F8F8"/>
<stop offset="0.303" stop-color="#686868"/>
<stop offset="0.7091" stop-color="#090909"/>
</linearGradient>
<linearGradient id="paint18_linear_4_728" x1="33.8419" y1="1.08064" x2="42.5525" y2="32.9297" gradientUnits="userSpaceOnUse">
<stop stop-color="#F8F8F8"/>
<stop offset="0.5091" stop-color="#B9B9B9"/>
<stop offset="1" stop-color="#686868"/>
</linearGradient>
<linearGradient id="paint19_linear_4_728" x1="33.1441" y1="15.9736" x2="33.811" y2="15.9736" gradientUnits="userSpaceOnUse">
<stop stop-color="#FDFDFE"/>
<stop offset="0.9104" stop-color="#FDFDFE"/>
<stop offset="1" stop-color="#FDFDFE"/>
</linearGradient>
<linearGradient id="paint20_linear_4_728" x1="33.8974" y1="16.9026" x2="34.4603" y2="16.9026" gradientUnits="userSpaceOnUse">
<stop stop-color="#FDFDFE"/>
<stop offset="0.9104" stop-color="#FDFDFE"/>
<stop offset="1" stop-color="#FDFDFE"/>
</linearGradient>
<linearGradient id="paint21_linear_4_728" x1="33.6798" y1="15.4997" x2="34.2147" y2="15.4997" gradientUnits="userSpaceOnUse">
<stop stop-color="#FDFDFE"/>
<stop offset="0.9104" stop-color="#FDFDFE"/>
<stop offset="1" stop-color="#FDFDFE"/>
</linearGradient>
<linearGradient id="paint22_linear_4_728" x1="34.3312" y1="16.1808" x2="34.5363" y2="16.1808" gradientUnits="userSpaceOnUse">
<stop stop-color="#FDFDFE"/>
<stop offset="0.9104" stop-color="#FDFDFE"/>
<stop offset="1" stop-color="#FDFDFE"/>
</linearGradient>
<linearGradient id="paint23_linear_4_728" x1="34.5581" y1="15.6881" x2="35.2244" y2="15.6881" gradientUnits="userSpaceOnUse">
<stop stop-color="#FDFDFE"/>
<stop offset="0.9104" stop-color="#FDFDFE"/>
<stop offset="1" stop-color="#FDFDFE"/>
</linearGradient>
<linearGradient id="paint24_linear_4_728" x1="35.3104" y1="16.6119" x2="35.8729" y2="16.6119" gradientUnits="userSpaceOnUse">
<stop stop-color="#FDFDFE"/>
<stop offset="0.9104" stop-color="#FDFDFE"/>
<stop offset="1" stop-color="#FDFDFE"/>
</linearGradient>
<linearGradient id="paint25_linear_4_728" x1="35.0953" y1="15.2149" x2="35.63" y2="15.2149" gradientUnits="userSpaceOnUse">
<stop stop-color="#FDFDFE"/>
<stop offset="0.9104" stop-color="#FDFDFE"/>
<stop offset="1" stop-color="#FDFDFE"/>
</linearGradient>
<linearGradient id="paint26_linear_4_728" x1="35.7463" y1="15.8919" x2="35.9504" y2="15.8919" gradientUnits="userSpaceOnUse">
<stop stop-color="#FDFDFE"/>
<stop offset="0.9104" stop-color="#FDFDFE"/>
<stop offset="1" stop-color="#FDFDFE"/>
</linearGradient>
<linearGradient id="paint27_linear_4_728" x1="36.0043" y1="15.3943" x2="36.6701" y2="15.3943" gradientUnits="userSpaceOnUse">
<stop stop-color="#FDFDFE"/>
<stop offset="0.9104" stop-color="#FDFDFE"/>
<stop offset="1" stop-color="#FDFDFE"/>
</linearGradient>
<linearGradient id="paint28_linear_4_728" x1="36.7549" y1="16.3129" x2="37.318" y2="16.3129" gradientUnits="userSpaceOnUse">
<stop stop-color="#FDFDFE"/>
<stop offset="0.9104" stop-color="#FDFDFE"/>
<stop offset="1" stop-color="#FDFDFE"/>
</linearGradient>
<linearGradient id="paint29_linear_4_728" x1="36.5437" y1="14.9222" x2="37.0774" y2="14.9222" gradientUnits="userSpaceOnUse">
<stop stop-color="#FDFDFE"/>
<stop offset="0.9104" stop-color="#FDFDFE"/>
<stop offset="1" stop-color="#FDFDFE"/>
</linearGradient>
<linearGradient id="paint30_linear_4_728" x1="37.1934" y1="15.5956" x2="37.397" y2="15.5956" gradientUnits="userSpaceOnUse">
<stop stop-color="#FDFDFE"/>
<stop offset="0.9104" stop-color="#FDFDFE"/>
<stop offset="1" stop-color="#FDFDFE"/>
</linearGradient>
<linearGradient id="paint31_linear_4_728" x1="37.8482" y1="15.0179" x2="38.5126" y2="15.0179" gradientUnits="userSpaceOnUse">
<stop stop-color="#FDFDFE"/>
<stop offset="0.9104" stop-color="#FDFDFE"/>
<stop offset="1" stop-color="#FDFDFE"/>
</linearGradient>
<linearGradient id="paint32_linear_4_728" x1="38.5964" y1="15.9298" x2="39.1594" y2="15.9298" gradientUnits="userSpaceOnUse">
<stop stop-color="#FDFDFE"/>
<stop offset="0.9104" stop-color="#FDFDFE"/>
<stop offset="1" stop-color="#FDFDFE"/>
</linearGradient>
<linearGradient id="paint33_linear_4_728" x1="38.3891" y1="14.5466" x2="38.9223" y2="14.5466" gradientUnits="userSpaceOnUse">
<stop stop-color="#FDFDFE"/>
<stop offset="0.9104" stop-color="#FDFDFE"/>
<stop offset="1" stop-color="#FDFDFE"/>
</linearGradient>
<linearGradient id="paint34_linear_4_728" x1="39.0379" y1="15.2153" x2="39.2404" y2="15.2153" gradientUnits="userSpaceOnUse">
<stop stop-color="#FDFDFE"/>
<stop offset="0.9104" stop-color="#FDFDFE"/>
<stop offset="1" stop-color="#FDFDFE"/>
</linearGradient>
<linearGradient id="paint35_linear_4_728" x1="25.4125" y1="27.2963" x2="32.2435" y2="16.4963" gradientUnits="userSpaceOnUse">
<stop offset="0.2788" stop-color="#090909"/>
<stop offset="0.6485" stop-color="#686868"/>
<stop offset="1" stop-color="#686868"/>
</linearGradient>
</defs>
</svg>
