<svg width="40" height="40" viewBox="0 0 40 40" fill="none" xmlns="http://www.w3.org/2000/svg">
<rect width="40" height="40" rx="20" fill="#FFE0AA"/>
<path d="M24.485 19.0926V22.0926C24.485 22.2876 24.4775 22.4751 24.455 22.6551C24.2825 24.6801 23.09 25.6851 20.8925 25.6851H20.5925C20.405 25.6851 20.225 25.7751 20.1125 25.9251L19.2125 27.1251C18.815 27.6576 18.17 27.6576 17.7725 27.1251L16.8725 25.9251C16.775 25.7976 16.5575 25.6851 16.3925 25.6851H16.0925C13.7 25.6851 12.5 25.0926 12.5 22.0926V19.0926C12.5 16.8951 13.5125 15.7026 15.53 15.5301C15.71 15.5076 15.8975 15.5001 16.0925 15.5001H20.8925C23.285 15.5001 24.485 16.7001 24.485 19.0926Z" stroke="#090909" stroke-width="1.125" stroke-miterlimit="10" stroke-linecap="round" stroke-linejoin="round"/>
<path d="M27.485 16.0926V19.0926C27.485 21.2976 26.4725 22.4826 24.455 22.6551C24.4775 22.4751 24.485 22.2876 24.485 22.0926V19.0926C24.485 16.7001 23.285 15.5001 20.8925 15.5001H16.0925C15.8975 15.5001 15.71 15.5076 15.53 15.5301C15.7025 13.5126 16.895 12.5001 19.0925 12.5001H23.8925C26.285 12.5001 27.485 13.7001 27.485 16.0926Z" stroke="#090909" stroke-width="1.125" stroke-miterlimit="10" stroke-linecap="round" stroke-linejoin="round"/>
<path d="M21.1216 20.9376H21.1284" stroke="#090909" stroke-width="1.5" stroke-linecap="round" stroke-linejoin="round"/>
<path d="M18.4966 20.9376H18.5034" stroke="#090909" stroke-width="1.5" stroke-linecap="round" stroke-linejoin="round"/>
<path d="M15.8716 20.9376H15.8784" stroke="#090909" stroke-width="1.5" stroke-linecap="round" stroke-linejoin="round"/>
</svg>
