<svg width="40" height="40" viewBox="0 0 40 40" fill="none" xmlns="http://www.w3.org/2000/svg">
<rect width="40" height="40" rx="20" fill="#FFE28D"/>
<g clip-path="url(#clip0_4_549)">
<path d="M17 20.0001C19.4818 20.0001 21.5 17.9818 21.5 15.5001C21.5 13.0183 19.4818 11.0001 17 11.0001C14.5182 11.0001 12.5 13.0183 12.5 15.5001C12.5 17.9818 14.5182 20.0001 17 20.0001ZM17 12.5001C18.6545 12.5001 20 13.8456 20 15.5001C20 17.1546 18.6545 18.5001 17 18.5001C15.3455 18.5001 14 17.1546 14 15.5001C14 13.8456 15.3455 12.5001 17 12.5001ZM14.75 21.5001H18.5V23.0001H14.75C13.5095 23.0001 12.5 24.0096 12.5 25.2501V29.0001H11V25.2501C11 23.1823 12.6823 21.5001 14.75 21.5001ZM27.5 21.5001V20.7501C27.5 19.0956 26.1545 17.7501 24.5 17.7501C22.8455 17.7501 21.5 19.0956 21.5 20.7501V21.5001H20V26.7501C20 27.9906 21.0095 29.0001 22.25 29.0001H26.75C27.9905 29.0001 29 27.9906 29 26.7501V21.5001H27.5ZM23 20.7501C23 19.9228 23.6727 19.2501 24.5 19.2501C25.3273 19.2501 26 19.9228 26 20.7501V21.5001H23V20.7501ZM27.5 26.7501C27.5 27.1633 27.1632 27.5001 26.75 27.5001H22.25C21.8368 27.5001 21.5 27.1633 21.5 26.7501V23.0001H27.5V26.7501ZM25.25 26.0001H23.75V24.5001H25.25V26.0001Z" fill="black"/>
</g>
<defs>
<clipPath id="clip0_4_549">
<rect width="18" height="18" fill="white" transform="translate(11 11.0001)"/>
</clipPath>
</defs>
</svg>
