<svg width="40" height="40" viewBox="0 0 40 40" fill="none" xmlns="http://www.w3.org/2000/svg">
<rect width="40" height="40" rx="20" fill="#9FE7AF"/>
<g clip-path="url(#clip0_4_538)">
<path d="M20 23.0001C19.4067 23.0001 18.8266 22.8241 18.3333 22.4945C17.8399 22.1648 17.4554 21.6963 17.2284 21.1481C17.0013 20.5999 16.9419 19.9967 17.0576 19.4148C17.1734 18.8328 17.4591 18.2983 17.8787 17.8787C18.2982 17.4592 18.8328 17.1735 19.4147 17.0577C19.9967 16.9419 20.5999 17.0014 21.1481 17.2284C21.6962 17.4555 22.1648 17.84 22.4944 18.3333C22.8241 18.8267 23 19.4067 23 20.0001C23 20.7957 22.6839 21.5588 22.1213 22.1214C21.5587 22.684 20.7956 23.0001 20 23.0001ZM20 18.5001C19.7033 18.5001 19.4133 18.588 19.1666 18.7529C18.92 18.9177 18.7277 19.1519 18.6142 19.426C18.5006 19.7001 18.4709 20.0017 18.5288 20.2927C18.5867 20.5837 18.7296 20.8509 18.9393 21.0607C19.1491 21.2705 19.4164 21.4134 19.7074 21.4712C19.9983 21.5291 20.2999 21.4994 20.574 21.3859C20.8481 21.2723 21.0824 21.0801 21.2472 20.8334C21.412 20.5867 21.5 20.2967 21.5 20.0001C21.5 19.6022 21.342 19.2207 21.0607 18.9394C20.7794 18.6581 20.3978 18.5001 20 18.5001ZM24.5 28.2501C24.5 27.0566 24.0259 25.912 23.182 25.0681C22.3381 24.2242 21.1935 23.7501 20 23.7501C18.8065 23.7501 17.6619 24.2242 16.818 25.0681C15.9741 25.912 15.5 27.0566 15.5 28.2501C15.5 28.449 15.579 28.6397 15.7197 28.7804C15.8603 28.921 16.0511 29.0001 16.25 29.0001C16.4489 29.0001 16.6397 28.921 16.7803 28.7804C16.921 28.6397 17 28.449 17 28.2501C17 27.4544 17.3161 26.6913 17.8787 26.1287C18.4413 25.5661 19.2044 25.2501 20 25.2501C20.7956 25.2501 21.5587 25.5661 22.1213 26.1287C22.6839 26.6913 23 27.4544 23 28.2501C23 28.449 23.079 28.6397 23.2197 28.7804C23.3603 28.921 23.5511 29.0001 23.75 29.0001C23.9489 29.0001 24.1397 28.921 24.2803 28.7804C24.421 28.6397 24.5 28.449 24.5 28.2501ZM24.5 17.0001C23.9067 17.0001 23.3266 16.8241 22.8333 16.4945C22.3399 16.1648 21.9554 15.6963 21.7284 15.1481C21.5013 14.5999 21.4419 13.9967 21.5576 13.4148C21.6734 12.8328 21.9591 12.2983 22.3787 11.8787C22.7982 11.4592 23.3328 11.1735 23.9147 11.0577C24.4967 10.9419 25.0999 11.0014 25.6481 11.2284C26.1962 11.4555 26.6648 11.84 26.9944 12.3333C27.3241 12.8267 27.5 13.4067 27.5 14.0001C27.5 14.7957 27.1839 15.5588 26.6213 16.1214C26.0587 16.684 25.2956 17.0001 24.5 17.0001ZM24.5 12.5001C24.2033 12.5001 23.9133 12.588 23.6666 12.7529C23.42 12.9177 23.2277 13.1519 23.1142 13.426C23.0006 13.7001 22.9709 14.0017 23.0288 14.2927C23.0867 14.5837 23.2296 14.8509 23.4393 15.0607C23.6491 15.2705 23.9164 15.4134 24.2074 15.4712C24.4983 15.5291 24.7999 15.4994 25.074 15.3859C25.3481 15.2723 25.5824 15.0801 25.7472 14.8334C25.912 14.5867 26 14.2967 26 14.0001C26 13.6022 25.842 13.2207 25.5607 12.9394C25.2794 12.6581 24.8978 12.5001 24.5 12.5001ZM29 22.2501C28.9988 21.0569 28.5243 19.913 27.6807 19.0694C26.837 18.2257 25.6931 17.7512 24.5 17.7501C24.3011 17.7501 24.1103 17.8291 23.9697 17.9697C23.829 18.1104 23.75 18.3011 23.75 18.5001C23.75 18.699 23.829 18.8897 23.9697 19.0304C24.1103 19.171 24.3011 19.2501 24.5 19.2501C25.2956 19.2501 26.0587 19.5661 26.6213 20.1287C27.1839 20.6913 27.5 21.4544 27.5 22.2501C27.5 22.449 27.579 22.6397 27.7197 22.7804C27.8603 22.921 28.0511 23.0001 28.25 23.0001C28.4489 23.0001 28.6397 22.921 28.7803 22.7804C28.921 22.6397 29 22.449 29 22.2501ZM15.5 17.0001C14.9067 17.0001 14.3266 16.8241 13.8333 16.4945C13.3399 16.1648 12.9554 15.6963 12.7284 15.1481C12.5013 14.5999 12.4419 13.9967 12.5576 13.4148C12.6734 12.8328 12.9591 12.2983 13.3787 11.8787C13.7982 11.4592 14.3328 11.1735 14.9147 11.0577C15.4967 10.9419 16.0999 11.0014 16.6481 11.2284C17.1962 11.4555 17.6648 11.84 17.9944 12.3333C18.3241 12.8267 18.5 13.4067 18.5 14.0001C18.5 14.7957 18.1839 15.5588 17.6213 16.1214C17.0587 16.684 16.2956 17.0001 15.5 17.0001ZM15.5 12.5001C15.2033 12.5001 14.9133 12.588 14.6666 12.7529C14.42 12.9177 14.2277 13.1519 14.1142 13.426C14.0006 13.7001 13.9709 14.0017 14.0288 14.2927C14.0867 14.5837 14.2296 14.8509 14.4393 15.0607C14.6491 15.2705 14.9164 15.4134 15.2074 15.4712C15.4983 15.5291 15.7999 15.4994 16.074 15.3859C16.3481 15.2723 16.5824 15.0801 16.7472 14.8334C16.912 14.5867 17 14.2967 17 14.0001C17 13.6022 16.842 13.2207 16.5607 12.9394C16.2794 12.6581 15.8978 12.5001 15.5 12.5001ZM12.5 22.2501C12.5 21.4544 12.8161 20.6913 13.3787 20.1287C13.9413 19.5661 14.7044 19.2501 15.5 19.2501C15.6989 19.2501 15.8897 19.171 16.0303 19.0304C16.171 18.8897 16.25 18.699 16.25 18.5001C16.25 18.3011 16.171 18.1104 16.0303 17.9697C15.8897 17.8291 15.6989 17.7501 15.5 17.7501C14.3069 17.7512 13.163 18.2257 12.3193 19.0694C11.4757 19.913 11.0012 21.0569 11 22.2501C11 22.449 11.079 22.6397 11.2197 22.7804C11.3603 22.921 11.5511 23.0001 11.75 23.0001C11.9489 23.0001 12.1397 22.921 12.2803 22.7804C12.421 22.6397 12.5 22.449 12.5 22.2501Z" fill="black"/>
</g>
<defs>
<clipPath id="clip0_4_538">
<rect width="18" height="18" fill="white" transform="translate(11 11.0001)"/>
</clipPath>
</defs>
</svg>
