<svg width="25" height="24" viewBox="0 0 25 24" fill="none" xmlns="http://www.w3.org/2000/svg">
<path d="M3.5 3C3.23478 3 2.98043 3.10536 2.79289 3.29289C2.60536 3.48043 2.5 3.73478 2.5 4V7H10.086L12.5 4.586L10.914 3H3.5ZM14.914 5L10.914 9H2.5V20C2.5 20.2652 2.60536 20.5196 2.79289 20.7071C2.98043 20.8946 3.23478 21 3.5 21H21.5C21.7652 21 22.0196 20.8946 22.2071 20.7071C22.3946 20.5196 22.5 20.2652 22.5 20V6C22.5 5.73478 22.3946 5.48043 22.2071 5.29289C22.0196 5.10536 21.7652 5 21.5 5H14.914Z" fill="#F6C000"/>
</svg>
