<svg width="18" height="18" viewBox="0 0 18 18" fill="none" xmlns="http://www.w3.org/2000/svg">
<path d="M16.6453 7.03281C16.3508 6.725 16.0461 6.40781 15.9312 6.12891C15.825 5.87344 15.8188 5.45 15.8125 5.03984C15.8008 4.27734 15.7883 3.41328 15.1875 2.8125C14.5867 2.21172 13.7227 2.19922 12.9602 2.1875C12.55 2.18125 12.1266 2.175 11.8711 2.06875C11.593 1.95391 11.275 1.64922 10.9672 1.35469C10.4281 0.836719 9.81563 0.25 9 0.25C8.18437 0.25 7.57266 0.836719 7.03281 1.35469C6.725 1.64922 6.40781 1.95391 6.12891 2.06875C5.875 2.175 5.45 2.18125 5.03984 2.1875C4.27734 2.19922 3.41328 2.21172 2.8125 2.8125C2.21172 3.41328 2.20312 4.27734 2.1875 5.03984C2.18125 5.45 2.175 5.87344 2.06875 6.12891C1.95391 6.40703 1.64922 6.725 1.35469 7.03281C0.836719 7.57188 0.25 8.18437 0.25 9C0.25 9.81563 0.836719 10.4273 1.35469 10.9672C1.64922 11.275 1.95391 11.5922 2.06875 11.8711C2.175 12.1266 2.18125 12.55 2.1875 12.9602C2.19922 13.7227 2.21172 14.5867 2.8125 15.1875C3.41328 15.7883 4.27734 15.8008 5.03984 15.8125C5.45 15.8188 5.87344 15.825 6.12891 15.9312C6.40703 16.0461 6.725 16.3508 7.03281 16.6453C7.57188 17.1633 8.18437 17.75 9 17.75C9.81563 17.75 10.4273 17.1633 10.9672 16.6453C11.275 16.3508 11.5922 16.0461 11.8711 15.9312C12.1266 15.825 12.55 15.8188 12.9602 15.8125C13.7227 15.8008 14.5867 15.7883 15.1875 15.1875C15.7883 14.5867 15.8008 13.7227 15.8125 12.9602C15.8188 12.55 15.825 12.1266 15.9312 11.8711C16.0461 11.593 16.3508 11.275 16.6453 10.9672C17.1633 10.4281 17.75 9.81563 17.75 9C17.75 8.18437 17.1633 7.57266 16.6453 7.03281ZM12.5672 7.56719L8.19219 11.9422C8.13414 12.0003 8.06521 12.0464 7.98934 12.0779C7.91346 12.1093 7.83213 12.1255 7.75 12.1255C7.66787 12.1255 7.58654 12.1093 7.51066 12.0779C7.43479 12.0464 7.36586 12.0003 7.30781 11.9422L5.43281 10.0672C5.37474 10.0091 5.32868 9.94018 5.29725 9.86431C5.26583 9.78844 5.24965 9.70712 5.24965 9.625C5.24965 9.54288 5.26583 9.46156 5.29725 9.38569C5.32868 9.30982 5.37474 9.24088 5.43281 9.18281C5.55009 9.06554 5.70915 8.99965 5.875 8.99965C5.95712 8.99965 6.03844 9.01583 6.11431 9.04725C6.19018 9.07868 6.25912 9.12474 6.31719 9.18281L7.75 10.6164L11.6828 6.68281C11.7409 6.62474 11.8098 6.57868 11.8857 6.54725C11.9616 6.51583 12.0429 6.49965 12.125 6.49965C12.2071 6.49965 12.2884 6.51583 12.3643 6.54725C12.4402 6.57868 12.5091 6.62474 12.5672 6.68281C12.6253 6.74088 12.6713 6.80982 12.7027 6.88569C12.7342 6.96156 12.7503 7.04288 12.7503 7.125C12.7503 7.20712 12.7342 7.28844 12.7027 7.36431C12.6713 7.44018 12.6253 7.50912 12.5672 7.56719Z" fill="#34C759"/>
</svg>
