<svg width="40" height="40" viewBox="0 0 40 40" fill="none" xmlns="http://www.w3.org/2000/svg">
<rect width="40" height="40" rx="20" fill="#FF9EAD"/>
<g clip-path="url(#clip0_4_1055)">
<path fill-rule="evenodd" clip-rule="evenodd" d="M26.3472 13.6161C24.6627 11.9301 22.4232 11.0008 20.0375 11.0001C15.1212 11.0001 11.12 15.0006 11.1177 19.9191C11.117 21.4911 11.528 23.0256 12.3087 24.3786L11.0427 29.0001L15.7707 27.7596C17.0735 28.4706 18.5405 28.8448 20.033 28.8456H20.0367C24.9522 28.8456 28.9542 24.8443 28.9565 19.9258C28.958 17.5431 28.031 15.3013 26.3472 13.6161ZM20.0375 27.3388H20.0345C18.704 27.3388 17.3997 26.9811 16.2612 26.3053L15.9905 26.1448L13.1847 26.8806L13.934 24.1446L13.7577 23.8641C13.0152 22.6836 12.6237 21.3193 12.6245 19.9191C12.626 15.8316 15.9522 12.5061 20.0412 12.5061C22.0212 12.5061 23.8827 13.2786 25.2822 14.6796C26.6817 16.0813 27.452 17.9436 27.4512 19.9243C27.449 24.0133 24.1235 27.3388 20.0375 27.3388ZM24.104 21.7866C23.8812 21.6748 22.7855 21.1356 22.5807 21.0613C22.3767 20.9871 22.2282 20.9496 22.079 21.1723C21.9297 21.3951 21.5037 21.8976 21.3732 22.0468C21.2435 22.1953 21.113 22.2141 20.8902 22.1023C20.6675 21.9906 19.949 21.7558 19.0977 20.9961C18.4355 20.4051 17.9877 19.6753 17.858 19.4518C17.7282 19.2283 17.8445 19.1083 17.9555 18.9973C18.056 18.8976 18.1782 18.7371 18.29 18.6066C18.4025 18.4776 18.4392 18.3846 18.5142 18.2353C18.5885 18.0868 18.5517 17.9563 18.4955 17.8446C18.4392 17.7336 17.9937 16.6363 17.8085 16.1901C17.6277 15.7551 17.444 15.8143 17.3067 15.8076C17.177 15.8008 17.0285 15.8001 16.8792 15.8001C16.7307 15.8001 16.4892 15.8556 16.2852 16.0791C16.0812 16.3026 15.5052 16.8418 15.5052 17.9383C15.5052 19.0356 16.304 20.0953 16.415 20.2438C16.526 20.3923 17.9862 22.6438 20.222 23.6091C20.7537 23.8386 21.1692 23.9758 21.4925 24.0786C22.0265 24.2481 22.5125 24.2241 22.8965 24.1671C23.3247 24.1033 24.215 23.6278 24.401 23.1073C24.587 22.5868 24.587 22.1398 24.5307 22.0476C24.4752 21.9538 24.3267 21.8983 24.104 21.7866Z" fill="black"/>
</g>
<defs>
<clipPath id="clip0_4_1055">
<rect width="18" height="18" fill="white" transform="translate(11 11.0001)"/>
</clipPath>
</defs>
</svg>
